<?xml version="1.0" standalone="no"?>
<!DOCTYPE svg PUBLIC "-//W3C//DTD SVG 20010904//EN"
 "http://www.w3.org/TR/2001/REC-SVG-20010904/DTD/svg10.dtd">
<svg version="1.0" xmlns="http://www.w3.org/2000/svg"
 width="310.000000pt" height="310.000000pt" viewBox="0 0 310.000000 310.000000"
 preserveAspectRatio="xMidYMid meet">
<metadata>
Created by potrace 1.11, written by Peter Selinger 2001-2013
</metadata>
<g transform="translate(0.000000,310.000000) scale(0.100000,-0.100000)"
fill="#000000" stroke="none">
<path d="M955 3090 c-3 -5 -15 -10 -26 -10 -20 0 -26 -24 -9 -35 6 -3 10 -15
10 -26 0 -10 5 -19 10 -19 17 0 11 -76 -11 -125 -17 -38 -24 -46 -40 -41 -10
3 -28 9 -39 12 -15 5 -20 2 -20 -12 0 -11 -7 -27 -15 -37 -12 -16 -11 -22 7
-42 23 -27 73 -29 89 -4 7 12 11 11 24 -2 12 -12 15 -26 10 -52 -4 -20 -11
-35 -15 -32 -4 3 -10 -2 -13 -10 -4 -8 5 -23 19 -34 l26 -20 -25 -12 c-15 -7
-24 -18 -22 -28 2 -9 4 -16 6 -16 1 0 3 -9 4 -20 2 -11 6 -27 9 -36 4 -9 2
-16 -6 -17 -74 -6 -90 -18 -49 -37 22 -10 28 -30 12 -39 -5 -3 -21 -31 -36
-62 -21 -43 -25 -58 -15 -64 7 -4 9 -13 5 -20 -4 -7 4 -24 21 -41 25 -26 26
-30 12 -46 -19 -22 -26 -53 -14 -71 6 -11 0 -13 -25 -10 -23 2 -33 -1 -32 -9
2 -7 -4 -13 -12 -13 -9 0 -15 9 -15 24 0 14 -4 35 -9 49 -7 18 -5 26 10 36 11
6 17 16 14 22 -4 5 -8 24 -10 42 -9 97 -50 241 -76 273 -6 8 -27 14 -45 14
-27 0 -34 4 -34 20 0 10 -9 24 -21 30 -15 9 -18 15 -10 24 14 17 9 65 -9 94
-10 15 -25 22 -47 22 -34 0 -39 6 -25 27 5 8 13 9 22 3 9 -5 20 -5 28 2 11 10
10 15 -9 29 -20 15 -21 19 -9 34 8 10 13 29 12 42 -3 21 -1 23 27 18 41 -7 41
15 0 49 -31 26 -49 27 -49 0 0 -8 -6 -14 -12 -14 -7 0 -20 -13 -29 -29 -14
-23 -22 -28 -43 -24 -32 6 -34 -9 -5 -45 13 -18 18 -34 14 -50 -8 -34 25 -112
48 -112 11 0 17 6 15 16 -2 9 4 18 12 19 12 2 15 -8 15 -45 0 -47 -1 -48 -27
-43 -35 7 -59 -2 -52 -21 3 -8 18 -13 37 -12 22 1 32 -4 35 -16 2 -12 -3 -18
-14 -18 -15 0 -43 -26 -44 -41 0 -16 41 -16 49 -1 8 14 12 14 22 5 10 -10 9
-16 -5 -26 -18 -13 -18 -15 3 -34 l22 -21 -21 -20 c-21 -19 -21 -21 -3 -30 20
-12 11 -27 -15 -27 -9 0 -17 -7 -17 -15 0 -9 9 -15 23 -14 25 2 27 -7 10 -36
-11 -17 -10 -22 1 -29 18 -11 7 -42 -13 -35 -20 8 -31 -15 -14 -29 8 -7 21
-21 28 -31 14 -18 13 -19 -17 -13 -20 4 -35 2 -39 -5 -12 -18 -15 -70 -5 -82
13 -16 11 -110 -2 -118 -9 -6 -9 -12 0 -27 11 -17 11 -34 2 -66 -2 -5 7 -29
19 -52 14 -28 20 -52 16 -67 -5 -20 0 -27 25 -41 17 -9 37 -15 44 -14 42 5 58
-4 84 -43 15 -24 28 -60 29 -83 1 -22 3 -43 3 -47 1 -5 8 -8 17 -8 12 0 14 7
9 30 -4 19 -3 30 4 30 6 0 8 12 5 29 l-6 28 96 -1 c94 -1 95 -1 89 -24 -7 -29
14 -57 33 -41 7 6 19 7 26 3 29 -18 154 -25 208 -11 19 5 46 10 60 12 14 2 35
7 48 11 13 4 22 2 22 -5 0 -20 38 -11 54 13 17 27 56 26 51 -2 -1 -10 3 -28 9
-42 18 -37 12 -101 -9 -117 -11 -7 -13 -13 -6 -13 7 0 10 -4 7 -8 -2 -4 4 -13
15 -20 15 -10 19 -10 19 0 0 9 3 9 13 -1 10 -10 8 -14 -6 -22 -9 -6 -15 -14
-12 -19 3 -5 -6 -17 -19 -26 -19 -11 -23 -21 -18 -33 7 -14 8 -36 2 -43 -9
-12 -7 -48 5 -70 11 -24 11 -28 0 -28 -19 0 -30 -21 -15 -30 16 -10 15 -21 -4
-32 -12 -7 -14 -14 -7 -27 6 -9 6 -23 1 -31 -8 -12 -6 -45 6 -120 2 -14 6 -47
9 -75 3 -27 8 -60 10 -72 2 -13 -6 -30 -21 -44 -13 -12 -24 -17 -24 -11 0 6
-7 9 -15 6 -8 -4 -23 0 -32 7 -20 17 -65 12 -76 -8 -8 -12 -12 -11 -32 7 -22
21 -44 23 -57 6 -11 -16 -47 -13 -63 5 -19 20 -59 18 -141 -9 -62 -21 -149
-28 -159 -12 -3 5 -1 11 5 15 7 4 7 13 0 26 -6 11 -8 24 -5 29 3 5 1 19 -5 30
-9 17 -8 20 9 20 20 0 22 14 7 39 -5 8 -4 16 2 20 12 7 10 103 -3 159 -5 21
-4 32 3 32 10 0 -14 58 -29 70 -4 3 -10 23 -13 44 -7 43 -23 69 -37 60 -5 -3
-22 3 -39 12 -29 18 -30 17 -60 -5 -17 -12 -41 -21 -53 -19 -15 2 -23 -3 -25
-16 -4 -16 0 -18 31 -12 46 9 56 -9 17 -29 -26 -13 -29 -19 -19 -31 7 -8 9
-29 6 -52 -4 -20 -2 -43 2 -51 6 -9 5 -25 -1 -40 -19 -49 -18 -111 2 -131 18
-18 18 -60 0 -60 -15 0 -23 -42 -9 -50 10 -7 9 -14 -5 -34 -13 -21 -14 -26 -2
-26 7 0 19 7 26 15 10 12 16 13 26 4 12 -10 10 -16 -12 -35 l-25 -24 31 -31
c32 -32 33 -42 15 -111 -6 -22 -4 -28 9 -28 9 0 16 5 16 10 0 6 5 10 10 10 15
0 12 -26 -5 -40 -13 -11 -13 -16 1 -42 8 -16 23 -32 32 -35 9 -3 24 -12 32
-18 8 -7 27 -15 42 -19 21 -5 28 -2 33 14 8 25 36 26 65 0 26 -22 44 -17 37
11 -3 11 0 19 8 19 7 0 15 -9 18 -20 4 -15 12 -18 38 -17 39 3 62 14 54 27 -3
5 14 8 37 7 43 -2 46 2 33 35 -4 11 1 23 14 35 28 23 26 37 -5 52 -15 6 -23
15 -20 19 12 12 85 8 90 -5 5 -12 -33 -95 -46 -101 -14 -7 -8 -21 13 -33 15
-8 19 -8 15 0 -4 6 1 14 11 18 34 12 51 38 45 69 -5 29 -5 29 16 10 12 -10 20
-22 17 -25 -2 -4 0 -13 5 -21 5 -8 5 -19 0 -25 -6 -8 2 -15 26 -24 33 -12 38
-11 60 10 20 18 28 20 47 12 17 -8 30 -7 50 3 15 8 28 12 28 9 1 -3 3 -9 4
-15 1 -5 3 -15 4 -20 1 -7 7 -7 19 -1 10 6 29 7 41 4 14 -4 33 2 51 16 25 18
31 19 43 6 13 -12 18 -12 37 5 16 14 27 17 40 10 11 -6 21 -5 28 2 8 8 15 6
27 -6 15 -14 18 -14 46 6 19 14 33 19 37 12 11 -15 32 -11 47 10 13 18 15 18
32 1 16 -17 18 -17 27 4 8 19 15 21 41 17 19 -4 38 -1 51 9 12 8 33 12 49 9
15 -3 33 0 41 6 7 7 19 8 26 4 7 -4 25 -7 41 -6 23 2 28 -1 24 -13 -7 -16 20
-35 41 -28 10 4 11 -2 6 -24 -4 -15 -11 -33 -15 -39 -11 -14 -1 -24 16 -18 18
7 29 -14 16 -30 -6 -8 -11 -27 -9 -42 1 -16 -7 -45 -17 -64 -21 -41 -28 -77
-14 -85 5 -4 5 -14 -1 -26 -7 -13 -7 -25 0 -38 5 -11 10 -29 10 -40 0 -19 6
-21 65 -21 73 0 84 10 67 59 -8 23 -7 33 7 48 16 17 18 53 3 53 -4 0 -8 35 -9
77 -2 43 -3 94 -4 113 -3 52 5 130 13 130 10 0 7 79 -4 86 -5 3 -17 -1 -26 -9
-16 -14 -19 -14 -39 7 -15 15 -19 27 -12 37 13 20 11 29 -5 29 -8 0 -21 -12
-28 -28 -10 -20 -22 -28 -46 -30 -42 -4 -41 13 3 34 19 9 33 20 30 24 -10 16
-65 19 -92 5 -35 -19 -43 -19 -43 0 0 9 -9 15 -25 15 -14 0 -25 4 -25 9 0 12
-18 8 -55 -11 -24 -13 -35 -14 -50 -5 -11 6 -31 13 -45 14 -140 18 -224 21
-237 11 -7 -5 -14 -5 -18 2 -8 13 -48 13 -61 0 -8 -8 -19 -7 -37 1 -25 11 -45
39 -28 39 10 0 8 140 -2 157 -4 6 -2 23 5 38 8 19 9 28 0 37 -8 8 -8 17 -1 30
7 13 6 24 -5 40 -14 20 -14 24 1 41 19 21 27 139 11 170 -5 9 -5 17 -1 17 5 0
10 11 11 26 1 14 7 35 13 47 9 16 9 22 0 25 -7 2 -4 14 9 33 19 25 19 31 7 51
-7 13 -15 40 -16 60 -2 32 1 39 23 47 29 12 144 5 161 -9 7 -5 15 -7 19 -3 11
11 167 0 189 -14 5 -3 17 3 28 13 16 14 25 16 54 7 23 -8 35 -8 35 -1 0 6 11
7 27 4 16 -5 29 -3 34 5 8 13 63 20 92 12 9 -2 15 -9 12 -14 -4 -5 5 -9 19 -9
30 0 42 -16 27 -34 -6 -7 -9 -21 -5 -30 3 -9 1 -22 -4 -29 -6 -7 -14 -42 -17
-78 -3 -35 -8 -84 -12 -109 -4 -25 -6 -56 -5 -70 2 -14 4 -65 5 -115 1 -49 6
-93 11 -97 6 -4 6 -11 -1 -20 -20 -26 -21 -54 -2 -66 15 -9 17 -17 10 -36 -8
-20 -7 -23 12 -22 12 1 22 8 23 16 0 8 5 23 9 34 5 11 4 26 -2 35 -7 11 -7 23
-2 34 7 11 4 19 -8 26 -16 8 -15 11 10 22 21 10 25 17 21 36 -5 20 -2 23 19
23 30 0 45 -18 26 -31 -12 -8 -12 -10 0 -18 11 -7 10 -13 -3 -33 -15 -23 -15
-26 0 -39 9 -7 23 -14 33 -16 21 -3 63 25 56 37 -5 9 15 15 37 11 4 0 5 12 2
28 -4 17 -1 32 5 36 9 5 9 10 1 20 -14 17 4 49 36 64 20 9 31 51 14 51 -18 1
-53 41 -55 64 -2 15 -9 34 -15 42 -7 8 -14 40 -16 72 -1 31 -5 68 -9 82 -8 38
-9 82 -1 107 6 19 -2 29 -56 69 -35 25 -65 51 -67 57 -2 7 -14 22 -27 35 -17
18 -27 21 -40 14 -13 -7 -24 -6 -40 5 -20 13 -24 12 -38 -9 -12 -17 -18 -20
-28 -10 -15 15 -70 16 -85 1 -8 -8 -17 -8 -33 1 -12 6 -29 8 -38 5 -23 -10
-73 -9 -96 1 -13 5 -21 3 -24 -4 -2 -7 -8 -9 -13 -6 -17 10 -233 13 -273 3
-21 -6 -41 -8 -44 -5 -5 6 -12 117 -12 213 -1 24 4 52 10 63 10 19 13 19 40 5
16 -8 40 -15 55 -15 14 0 25 -5 25 -11 0 -6 7 -8 16 -5 9 4 23 1 32 -6 12 -11
17 -9 29 9 14 21 16 21 39 6 19 -12 30 -13 48 -5 13 6 29 6 36 2 8 -5 22 -4
31 1 12 6 20 5 24 -1 4 -6 28 -9 56 -7 27 3 52 1 55 -4 10 -16 34 -9 34 10 0
17 44 44 75 47 21 1 45 -17 45 -36 0 -23 17 -29 56 -18 20 5 42 4 59 -2 30
-11 75 -13 100 -4 14 6 13 10 -7 32 -16 18 -19 26 -10 29 10 4 10 8 0 20 -10
12 -9 17 6 25 16 9 16 11 -3 27 l-20 17 20 18 21 17 -21 18 c-22 19 -22 40 -1
67 18 21 19 74 2 93 -9 9 -10 17 -2 26 8 9 7 21 -2 40 -9 21 -9 31 0 46 10 16
9 22 -7 36 -14 12 -18 25 -16 48 3 22 -2 40 -15 55 -22 25 -25 36 -11 44 5 3
7 15 4 27 -4 14 4 30 28 54 19 19 40 35 46 35 8 0 12 14 11 38 0 20 2 47 5 59
3 11 -1 29 -8 40 -21 27 -18 42 10 55 31 14 31 18 2 50 -15 18 -30 25 -49 23
-15 -2 -37 4 -50 14 -48 36 -96 53 -119 41 -11 -7 -31 -9 -44 -6 -15 4 -29 0
-39 -9 -15 -15 -36 -16 -46 -3 -3 4 -18 1 -32 -6 -15 -8 -29 -11 -33 -8 -4 4
-76 7 -161 7 -96 1 -158 5 -162 11 -6 10 -50 23 -125 39 -27 5 -59 -13 -57
-32 4 -22 -17 -9 -27 17 -10 26 -16 30 -43 28 -17 -1 -34 -6 -36 -10 -9 -14
-63 -8 -72 7 -5 9 -29 18 -61 22 -30 3 -55 12 -58 19 -7 19 -213 20 -232 2
-11 -10 -14 -10 -18 0 -6 14 -49 16 -58 2z m173 -42 c7 -7 12 -9 12 -4 0 4 10
0 22 -8 12 -9 33 -16 45 -16 13 0 23 -4 23 -9 0 -4 29 -7 65 -6 36 2 65 -1 65
-6 0 -14 28 -11 32 3 3 8 17 1 37 -20 18 -17 38 -32 44 -32 8 0 8 -3 0 -11
-13 -13 -80 -29 -133 -33 -19 -2 -45 -6 -58 -10 -14 -5 -29 -3 -37 4 -12 10
-16 9 -21 -3 -8 -22 -36 -29 -67 -18 -25 10 -25 11 -11 40 17 33 6 71 -20 71
-15 0 -26 21 -26 51 0 22 11 24 28 7z m1062 -142 c0 -7 9 -16 20 -19 13 -3 20
0 20 9 0 19 14 18 32 -3 21 -25 31 -93 13 -93 -7 0 -16 8 -19 17 -6 15 -8 15
-23 0 -13 -13 -14 -19 -3 -31 10 -13 10 -16 -4 -16 -9 0 -16 5 -16 10 0 17 -3
25 -16 37 -15 16 -74 7 -90 -13 -17 -21 -36 6 -30 43 2 15 5 33 5 38 1 6 5 4
10 -4 13 -21 61 -6 61 19 0 13 7 20 20 20 11 0 20 -6 20 -14z m-382 -50 c7
-17 7 -27 -1 -35 -14 -14 -62 -14 -88 -1 -14 8 -19 7 -19 -1 0 -7 -3 -9 -7 -6
-3 4 -15 0 -25 -10 -13 -11 -18 -12 -18 -3 0 10 -15 11 -66 7 l-66 -6 15 22
c12 18 25 22 68 24 30 1 61 3 69 3 8 0 27 -2 41 -5 21 -6 27 -3 32 14 7 30 51
28 65 -3z m152 -21 c0 -7 -23 -11 -60 -12 -65 -1 -65 -1 -50 28 8 15 15 17 29
10 13 -7 24 -6 37 4 17 12 21 12 32 -2 6 -9 12 -22 12 -28z m-497 -20 c4 0 7
-3 7 -7 0 -5 0 -12 0 -18 0 -12 -37 -13 -44 -1 -9 15 5 42 18 34 6 -4 14 -8
19 -8z m-105 -29 c10 -11 -4 -16 -54 -22 -84 -10 -114 -9 -114 1 0 9 16 13 68
16 12 1 25 5 27 10 6 8 63 4 73 -5z m-205 -18 c22 -11 22 -12 -6 -19 -35 -10
-58 -2 -50 17 6 17 27 18 56 2z m477 -24 c-8 -19 -6 -26 10 -34 24 -13 47 -13
52 0 3 11 32 16 58 9 9 -3 14 3 14 14 -1 9 2 17 6 17 14 0 42 -33 33 -39 -4
-3 -9 -11 -10 -17 -1 -6 -15 -25 -31 -42 -21 -22 -36 -30 -52 -27 -12 2 -34
-2 -48 -9 -19 -10 -32 -11 -49 -3 -13 6 -23 14 -23 18 0 13 -50 2 -70 -16 -27
-25 -25 -60 5 -83 18 -15 25 -29 25 -55 0 -26 5 -37 19 -42 21 -6 25 -55 5
-55 -7 0 -19 -12 -29 -26 -16 -25 -16 -27 10 -54 30 -31 55 -32 86 -4 11 10
19 14 19 10 0 -4 9 -2 21 4 16 9 25 8 37 -2 9 -8 24 -14 32 -14 20 1 49 100
40 140 -4 19 -1 39 7 52 7 11 14 33 15 48 1 14 13 36 25 48 23 21 23 21 37 2
10 -13 11 -23 4 -31 -6 -8 -5 -19 3 -35 7 -13 12 -26 11 -29 0 -4 9 -18 22
-32 15 -16 20 -29 14 -35 -5 -5 -10 -20 -12 -33 -4 -34 -26 -89 -36 -89 -9 0
-7 -24 5 -60 7 -23 51 -32 66 -13 7 7 12 22 13 34 0 11 12 25 26 32 14 7 29
22 35 35 13 29 33 28 41 -3 6 -25 51 -54 72 -47 39 13 30 90 -15 125 -27 21
-29 39 -8 57 10 9 12 16 5 25 -5 6 -8 21 -5 33 2 12 0 24 -6 27 -5 4 -9 19 -9
34 0 16 -6 33 -13 39 -20 17 -61 -8 -67 -42 l-5 -29 -37 37 c-21 21 -38 44
-38 50 0 15 -48 41 -68 37 -16 -3 -42 17 -42 33 0 6 4 17 9 25 8 12 12 12 24
3 12 -10 21 -8 46 14 18 15 33 25 34 23 1 -2 7 -13 13 -24 13 -24 34 -26 52
-5 10 11 15 12 18 3 8 -19 31 -16 43 4 9 17 11 16 38 -3 25 -19 32 -20 47 -8
11 7 23 11 27 8 12 -7 12 -84 0 -84 -10 0 -2 -50 10 -66 5 -5 6 -27 2 -47 -3
-22 -1 -42 6 -51 9 -11 9 -19 0 -34 -10 -17 -10 -25 5 -46 13 -21 15 -34 7
-60 -5 -20 -5 -38 0 -43 5 -5 10 -22 11 -37 2 -17 12 -35 25 -43 28 -19 30
-37 4 -28 -24 7 -33 -6 -35 -55 -2 -32 2 -40 21 -49 29 -13 30 -41 3 -41 -11
0 -23 -6 -26 -13 -3 -10 -27 -14 -84 -14 -44 0 -80 4 -80 8 0 4 -48 6 -107 5
-60 -2 -118 1 -130 5 -14 5 -23 5 -23 -1 0 -6 -12 -10 -27 -9 -16 0 -38 -2
-50 -6 -15 -5 -23 -3 -23 4 0 9 -5 9 -21 1 -11 -7 -39 -10 -62 -8 -33 2 -46 9
-60 31 -14 23 -20 26 -37 17 -11 -6 -20 -8 -20 -4 0 4 -9 -1 -20 -11 -11 -10
-20 -14 -20 -9 -1 5 -11 -4 -24 -20 -19 -23 -27 -26 -42 -18 -11 6 -27 7 -41
1 -13 -5 -43 -6 -66 -4 -74 10 -102 13 -123 14 -16 1 -27 13 -38 42 -15 36
-15 42 -1 55 11 11 12 20 5 34 -7 13 -7 21 0 25 6 4 8 11 4 16 -9 14 -14 63
-20 174 -7 127 -7 140 -1 198 4 36 0 53 -14 71 -18 23 -18 24 0 40 10 9 21 13
24 10 4 -4 37 -6 74 -4 38 2 85 2 105 2 20 -1 40 3 43 8 3 6 16 5 32 -1 28
-10 83 4 83 22 0 15 22 10 43 -8 18 -17 19 -17 32 1 10 13 23 17 44 14 18 -3
32 0 33 6 0 6 2 16 3 21 2 6 3 13 4 17 0 4 7 5 15 2 11 -4 13 -12 6 -30z m79
-163 c11 -7 10 -11 -7 -20 -15 -8 -23 -7 -31 3 -19 22 9 35 38 17z m-765 -227
c9 -24 7 -28 -9 -14 -17 14 -20 30 -6 30 5 0 12 -7 15 -16z m-22 -76 c4 -7 8
-16 8 -20 0 -11 -18 -10 -25 2 -3 5 -12 7 -19 4 -16 -6 -30 11 -21 25 7 13 46
5 57 -11z m28 -176 c0 -13 -12 -22 -22 -16 -10 6 -1 24 13 24 5 0 9 -4 9 -8z
m1420 -22 c0 -11 -6 -20 -14 -20 -9 0 -14 9 -13 20 1 11 7 20 14 20 7 0 13 -9
13 -20z m-1818 -5 c9 -12 0 -25 -18 -25 -8 0 -14 9 -14 20 0 20 19 23 32 5z
m433 -36 c4 -5 21 -9 38 -7 28 3 31 0 32 -22 0 -19 -4 -24 -20 -22 -11 2 -37
4 -57 5 -40 2 -50 21 -26 45 15 15 25 15 33 1z m-182 -25 c3 -4 -1 -13 -9 -21
-11 -12 -18 -12 -29 -3 -8 7 -12 16 -9 21 6 10 38 12 47 3z m212 -79 c22 1 50
-5 63 -13 12 -8 22 -10 22 -6 0 5 9 15 19 21 16 10 26 9 51 -3 17 -9 34 -22
37 -30 4 -10 11 -8 34 8 16 12 31 19 35 16 3 -4 -6 -14 -21 -24 -19 -12 -23
-19 -14 -25 8 -4 18 -1 25 8 21 30 51 26 63 -8 9 -27 13 -30 26 -19 8 7 15 20
15 29 0 29 35 55 38 29 1 -17 10 -53 12 -53 1 0 4 -12 6 -27 1 -16 -2 -28 -8
-28 -15 0 0 -53 20 -68 12 -9 13 -15 4 -24 -7 -7 -12 -20 -12 -29 0 -10 -6
-19 -12 -22 -15 -5 -58 13 -58 24 0 13 -32 20 -44 9 -14 -11 -142 -18 -152 -8
-4 4 -15 3 -25 -3 -13 -6 -25 -6 -39 3 -15 10 -27 10 -49 1 -24 -9 -33 -8 -41
2 -9 11 -17 11 -43 1 -18 -8 -45 -12 -60 -9 -16 2 -34 -1 -41 -7 -9 -7 -19 -4
-36 10 -16 14 -27 17 -34 10 -5 -5 -18 -10 -28 -10 -15 0 -17 4 -9 19 6 10 8
21 4 24 -9 10 -11 77 -2 83 5 3 3 20 -5 39 -13 31 -13 34 5 38 10 3 19 12 19
21 0 19 2 19 35 4 19 -8 29 -8 37 0 8 8 16 7 30 -1 16 -10 22 -8 40 16 18 25
22 26 37 14 9 -8 33 -14 56 -12z m1395 -735 c0 -10 7 -23 16 -28 9 -5 14 -14
10 -21 -11 -17 -22 -13 -34 14 -15 32 -16 68 -2 60 6 -3 10 -15 10 -25z m-20
-81 c0 -11 -4 -17 -10 -14 -5 3 -10 13 -10 21 0 8 5 14 10 14 6 0 10 -9 10
-21z m-1650 -97 c0 -13 -12 -22 -22 -16 -10 6 -1 24 13 24 5 0 9 -4 9 -8z m-3
-106 c-4 -9 -12 -16 -20 -16 -15 0 -17 38 -3 59 8 12 11 11 19 -7 5 -11 7 -28
4 -36z m3 -75 c12 -30 6 -71 -11 -71 -14 0 -26 38 -21 71 5 37 16 37 32 0z
m-10 -141 c0 -5 -4 -10 -9 -10 -6 0 -13 5 -16 10 -3 6 1 10 9 10 9 0 16 -4 16
-10z m700 -65 c0 -11 -12 -13 -38 -6 -1 1 3 7 10 15 15 16 28 12 28 -9z m640
-39 c-14 -14 -24 0 -16 21 6 15 8 15 16 3 6 -9 5 -19 0 -24z m-1120 7 c0 -23
-17 -49 -26 -41 -9 10 4 58 16 58 6 0 10 -8 10 -17z m117 -13 c1 -11 -4 -20
-13 -20 -17 0 -19 26 -1 33 6 3 12 6 12 6 1 1 1 -8 2 -19z m290 3 c-9 -9 -19
-14 -23 -11 -10 10 6 28 24 28 15 0 15 -1 -1 -17z m-37 -24 c0 -5 -4 -9 -10
-9 -5 0 -16 -15 -25 -34 -16 -34 -39 -39 -56 -13 -12 17 3 48 20 42 10 -3 22
3 30 14 14 18 41 18 41 0z m-426 5 c18 -7 12 -24 -10 -24 -8 0 -14 7 -14 15 0
17 2 18 24 9z m1193 -31 c3 4 12 2 20 -4 11 -10 10 -14 -8 -27 -20 -14 -23
-13 -40 9 -26 34 -25 58 1 34 11 -10 23 -15 27 -12z m-658 -7 l23 -13 -31 -35
c-17 -19 -28 -38 -24 -41 7 -7 -25 -47 -37 -47 -4 0 -10 14 -14 31 l-6 31 -18
-22 c-11 -13 -24 -20 -30 -16 -17 10 -15 36 3 42 8 4 15 12 15 19 0 7 16 20
35 29 19 9 37 21 40 26 8 13 15 12 44 -4z m98 -23 c-3 -3 -11 -2 -17 2 -8 5
-7 11 2 22 12 15 13 14 16 -1 2 -10 1 -20 -1 -23z m483 24 c0 -19 -10 -27 -26
-20 -21 8 -17 33 6 33 11 0 20 -6 20 -13z m-1160 -15 c0 -10 9 -24 19 -32 15
-10 17 -18 10 -32 -14 -26 -47 -23 -47 5 0 12 -4 34 -7 50 -6 21 -4 27 9 27 9
0 16 -8 16 -18z m124 -8 c4 -9 4 -19 1 -23 -8 -7 -38 12 -43 27 -6 19 35 14
42 -4z m756 -37 c0 -7 -6 -14 -14 -14 -8 0 -11 8 -8 19 2 10 -1 18 -7 18 -6 0
-11 8 -11 17 0 14 3 14 20 -5 11 -12 20 -27 20 -35z m-667 1 c32 -15 33 -19 8
-35 -16 -10 -22 -8 -40 13 -11 13 -21 26 -21 29 0 9 25 5 53 -7z m-96 -24 c8
-20 -10 -37 -43 -40 -42 -5 -50 7 -15 22 17 7 31 18 31 24 0 16 20 12 27 -6z
m559 -50 c-6 -16 -8 -16 -23 -2 -9 10 -13 23 -9 34 6 16 8 16 23 2 9 -10 13
-23 9 -34z"/>
<path d="M1392 2657 c-5 -6 -12 -21 -16 -32 -8 -26 -38 -60 -56 -67 -8 -3 -29
7 -47 23 -49 42 -110 15 -68 -31 10 -11 20 -42 23 -68 5 -53 -7 -83 -59 -155
-26 -36 -28 -43 -15 -55 13 -13 19 -12 50 7 33 21 37 21 52 6 22 -21 64 -15
93 14 21 21 25 22 33 7 6 -10 22 -16 43 -16 41 0 43 5 13 30 l-23 18 23 19
c21 16 22 21 11 45 -9 21 -9 31 0 41 9 11 3 20 -29 41 -46 30 -45 42 13 93 18
16 36 37 40 45 6 17 -19 46 -30 35 -3 -4 -14 -2 -23 3 -12 7 -21 6 -28 -3z"/>
</g>
</svg>
