<?xml version="1.0" standalone="no"?>
<!DOCTYPE svg PUBLIC "-//W3C//DTD SVG 20010904//EN"
 "http://www.w3.org/TR/2001/REC-SVG-20010904/DTD/svg10.dtd">
<svg version="1.0" xmlns="http://www.w3.org/2000/svg"
 width="728.000000pt" height="728.000000pt" viewBox="0 0 728.000000 728.000000"
 preserveAspectRatio="xMidYMid meet">
<metadata>
Created by potrace 1.11, written by Peter Selinger 2001-2013
</metadata>
<g transform="translate(0.000000,728.000000) scale(0.100000,-0.100000)"
fill="#000000" stroke="none">
<path d="M1237 6823 c-5 -18 -92 -246 -104 -273 -3 -8 -7 -17 -8 -20 0 -3 -11
-31 -23 -63 -12 -32 -22 -61 -22 -66 0 -4 21 -19 47 -32 26 -13 70 -46 98 -73
46 -45 50 -52 49 -95 -1 -35 -14 -72 -57 -156 -31 -60 -64 -138 -73 -173 -52
-208 10 -420 168 -582 44 -45 107 -97 137 -114 9 -5 18 -12 21 -16 12 -16 159
-82 169 -76 6 4 11 15 11 25 0 9 4 21 9 27 4 5 15 29 24 54 8 25 40 110 71
190 55 142 57 159 20 160 -11 0 -95 61 -123 90 -32 32 -48 66 -45 97 3 34 10
52 62 144 106 191 117 404 29 582 -73 146 -200 269 -366 352 -80 40 -87 41
-94 18z"/>
<path d="M2544 6813 c-43 -105 -147 -382 -151 -398 -3 -16 6 -25 44 -45 69
-36 153 -122 153 -156 0 -35 -21 -104 -32 -104 -4 0 -7 -3 -6 -7 1 -5 -10 -29
-26 -56 -97 -164 -117 -376 -49 -537 29 -70 51 -106 98 -165 49 -61 47 -60
115 -116 79 -66 260 -170 260 -149 0 4 8 25 17 46 9 22 17 41 18 44 3 8 16 43
25 65 19 46 99 261 102 274 2 7 -18 25 -45 41 -27 15 -53 33 -58 41 -5 8 -9
10 -9 5 0 -6 -12 5 -27 23 -16 19 -35 42 -44 53 -23 25 -16 79 16 137 134 244
157 410 84 601 -25 64 -101 174 -158 230 -86 82 -107 98 -211 155 -91 50 -103
52 -116 18z"/>
<path d="M3869 6813 c-6 -15 -22 -59 -36 -98 -14 -38 -31 -83 -38 -100 -15
-35 -27 -66 -31 -80 -1 -5 -14 -39 -28 -74 -14 -36 -26 -65 -26 -66 0 -1 16
-7 35 -15 19 -8 35 -17 35 -22 0 -4 6 -8 13 -8 15 0 97 -75 97 -89 0 -5 5 -11
12 -13 21 -7 13 -80 -15 -133 -61 -114 -95 -194 -110 -259 -25 -109 -14 -263
24 -338 5 -10 9 -23 9 -29 0 -6 21 -42 46 -81 78 -121 188 -218 330 -291 73
-38 93 -44 95 -27 2 15 5 22 16 50 55 127 143 375 139 386 -3 8 -15 14 -26 14
-11 0 -20 4 -20 9 0 5 -9 13 -21 16 -12 4 -45 31 -74 61 -52 52 -54 55 -51
103 2 29 12 62 24 78 34 48 91 176 107 241 74 288 -77 580 -385 745 -97 52
-108 54 -121 20z"/>
<path d="M527 4604 c-2 -3 -28 -7 -58 -10 -70 -8 -78 -9 -119 -25 -19 -7 -38
-12 -42 -11 -5 1 -8 -1 -8 -6 0 -4 -15 -14 -32 -21 -30 -14 -176 -148 -170
-157 1 -2 -5 -15 -13 -28 -9 -13 -26 -50 -38 -82 -22 -58 -22 -67 -22 -544 0
-267 4 -512 8 -545 4 -33 10 -84 12 -112 3 -29 7 -65 9 -80 7 -40 20 -126 21
-138 1 -10 13 -85 19 -115 2 -8 6 -26 9 -40 3 -14 17 -72 31 -130 36 -151 106
-372 146 -455 5 -11 19 -45 31 -75 27 -67 134 -275 160 -312 11 -14 19 -31 19
-37 0 -6 5 -11 10 -11 6 0 10 -5 10 -11 0 -13 93 -147 169 -244 69 -88 268
-291 361 -369 169 -140 472 -319 675 -396 33 -13 64 -27 69 -32 6 -4 20 -8 31
-8 12 0 25 -3 29 -7 3 -4 12 -8 19 -9 7 -1 35 -9 62 -18 98 -34 335 -87 455
-102 25 -3 56 -7 70 -9 140 -20 535 -26 710 -11 131 11 140 12 180 19 19 4 51
9 70 12 51 7 87 14 160 31 36 9 72 17 80 19 36 7 108 28 150 42 25 8 50 16 55
17 23 5 89 29 113 42 15 8 31 14 36 14 15 0 102 40 216 99 58 30 115 59 127
65 13 6 23 14 23 19 0 4 5 7 11 7 5 0 37 18 69 40 32 22 63 40 69 40 5 0 11 3
13 8 2 4 21 21 42 37 104 80 136 105 154 122 148 141 191 185 289 299 27 32
63 79 115 153 26 36 52 71 58 78 5 7 10 17 10 22 0 5 6 16 13 23 37 37 230
420 230 456 0 6 4 12 8 12 3 0 9 10 12 23 3 12 24 76 46 142 76 219 150 566
167 780 2 28 6 68 9 90 3 22 8 249 11 505 6 461 1 562 -28 598 -6 6 -7 12 -3
12 13 0 -59 115 -100 159 -51 55 -108 95 -176 122 -56 22 -209 51 -209 40 0
-4 -24 -5 -52 -1 -29 3 -69 3 -88 -1 -19 -3 -43 -2 -52 3 -9 5 -19 4 -23 -2
-3 -5 -11 -7 -18 -4 -18 6 -247 10 -247 3 0 -3 -24 -3 -52 1 -29 3 -69 3 -88
-1 -19 -3 -43 -2 -52 3 -9 5 -19 4 -23 -2 -3 -5 -11 -7 -18 -4 -18 6 -247 10
-247 3 0 -3 -24 -3 -52 1 -29 3 -69 3 -88 -1 -19 -3 -43 -2 -52 3 -9 5 -19 4
-23 -2 -3 -5 -11 -7 -18 -4 -18 6 -247 10 -247 3 0 -3 -24 -3 -52 1 -29 3 -69
3 -88 -1 -19 -3 -43 -2 -52 3 -9 5 -19 4 -23 -2 -3 -5 -11 -7 -18 -4 -18 6
-247 10 -247 3 0 -3 -24 -3 -52 1 -29 3 -69 3 -88 -1 -19 -3 -43 -2 -52 3 -9
5 -19 4 -23 -2 -3 -5 -11 -7 -18 -4 -22 8 -247 9 -247 1 0 -5 -4 -6 -8 -3 -9
5 -37 7 -132 7 -30 0 -66 1 -80 3 -14 1 -32 -1 -40 -5 -8 -3 -24 -3 -35 1 -11
4 -34 4 -51 0 -18 -4 -38 -4 -45 1 -7 4 -20 4 -28 0 -9 -5 -25 -5 -36 -1 -11
4 -34 4 -51 0 -18 -4 -38 -4 -45 1 -7 4 -20 4 -28 0 -9 -5 -25 -5 -36 -1 -11
4 -34 4 -51 0 -18 -4 -38 -4 -45 1 -7 4 -20 4 -28 0 -9 -5 -25 -5 -36 -1 -11
4 -34 4 -51 0 -18 -4 -38 -4 -45 1 -7 4 -20 4 -28 0 -9 -5 -25 -5 -36 -1 -11
4 -34 4 -51 0 -18 -4 -38 -4 -45 1 -7 4 -20 4 -28 0 -9 -5 -25 -5 -36 -1 -11
4 -34 4 -51 0 -18 -4 -38 -4 -45 1 -7 4 -20 4 -28 0 -9 -5 -25 -5 -36 -1 -11
4 -34 4 -51 0 -18 -4 -38 -4 -45 1 -7 4 -20 4 -28 0 -9 -5 -25 -5 -36 -1 -11
4 -34 4 -51 0 -18 -4 -38 -4 -45 1 -7 4 -20 4 -28 0 -9 -5 -25 -5 -36 -1 -11
4 -34 4 -51 0 -18 -4 -38 -4 -45 1 -7 4 -20 4 -28 0 -9 -5 -25 -5 -36 -1 -11
4 -34 4 -51 0 -18 -4 -38 -4 -45 1 -7 4 -20 4 -28 0 -9 -5 -25 -5 -36 -1 -11
4 -34 4 -51 0 -18 -4 -38 -4 -45 1 -7 4 -20 4 -28 0 -9 -5 -25 -5 -36 -1 -11
4 -34 4 -51 0 -17 -4 -38 -4 -46 1 -7 4 -20 4 -27 -1 -8 -4 -26 -4 -42 0 -15
5 -29 6 -32 4z m336 -603 c15 -1 39 -1 55 -2 15 0 39 -1 55 0 62 2 106 2 180
-1 42 -2 77 0 77 3 0 4 17 3 38 -1 21 -3 47 -4 57 0 11 4 33 5 50 3 48 -6 175
-8 175 -3 0 3 19 4 42 3 24 -1 55 -2 71 -2 15 -1 39 -1 55 -2 15 0 39 -1 55 0
62 2 106 2 180 -1 42 -2 77 -1 77 2 0 3 19 4 42 3 24 -1 55 -2 71 -2 15 -1 39
-1 55 -2 15 0 39 -1 55 0 62 2 106 2 180 -1 42 -2 77 -1 77 2 0 6 88 3 106 -4
7 -3 16 -1 19 5 4 5 11 7 16 3 6 -3 34 -5 62 -5 94 2 111 2 195 -1 45 -2 82
-1 82 2 0 6 97 3 115 -3 6 -3 18 -2 25 3 7 4 26 4 41 0 16 -5 31 -5 34 0 3 5
19 5 35 0 18 -5 32 -5 36 1 3 5 10 7 15 3 6 -3 34 -5 62 -5 94 2 111 2 195 -1
45 -2 82 -1 82 2 0 6 97 3 115 -3 6 -3 18 -2 25 3 7 4 24 4 39 1 14 -4 40 -4
58 0 18 3 35 4 38 1 5 -5 113 -5 143 -1 4 1 12 0 17 -1 10 -2 128 -1 143 1 4
1 12 0 17 -1 10 -2 128 -1 143 1 4 1 12 0 17 -1 6 -1 42 -1 80 0 108 1 115 1
203 -2 45 -2 82 -1 82 2 0 3 19 4 42 3 24 -1 55 -2 71 -2 15 -1 39 -1 55 -2
15 0 41 -1 57 0 76 2 108 1 117 -5 10 -7 5 -733 -6 -799 -3 -16 -8 -57 -11
-90 -11 -100 -13 -119 -20 -155 -3 -19 -8 -42 -10 -50 -2 -8 -6 -33 -10 -55
-3 -22 -10 -56 -15 -75 -5 -19 -11 -46 -14 -60 -2 -14 -17 -65 -31 -115 -15
-49 -28 -94 -29 -100 -2 -5 -8 -23 -14 -38 -7 -16 -12 -32 -12 -35 0 -40 -187
-419 -226 -460 -7 -6 -16 -21 -19 -32 -3 -11 -10 -20 -14 -20 -3 0 -15 -15
-26 -32 -74 -127 -314 -366 -470 -467 -22 -14 -41 -29 -43 -33 -2 -5 -7 -8
-12 -8 -4 0 -37 -17 -71 -38 -57 -35 -124 -68 -229 -114 -83 -37 -303 -107
-355 -113 -11 -2 -38 -7 -60 -13 -22 -6 -62 -14 -90 -17 -27 -4 -61 -9 -75
-11 -181 -26 -616 -25 -755 2 -23 4 -94 16 -115 19 -26 3 -134 27 -150 33 -17
6 -26 8 -60 15 -58 13 -252 87 -345 132 -95 47 -298 172 -340 212 -11 10 -41
35 -67 55 -94 77 -243 241 -331 365 -44 63 -142 234 -181 318 -46 97 -113 272
-122 314 -3 14 -7 27 -9 31 -5 8 -42 144 -49 180 -2 14 -13 70 -24 125 -19 95
-25 131 -38 250 -3 28 -8 64 -10 80 -3 17 -8 205 -11 418 l-5 388 66 -3 c36
-2 66 -1 66 2 0 3 19 4 42 3 24 -1 55 -2 71 -2z"/>
<path d="M5933 4202 c-24 -2 -43 -6 -44 -10 -4 -31 -3 -496 1 -502 5 -8 60
-12 110 -9 25 1 153 -10 185 -17 17 -3 35 -7 40 -8 24 -5 114 -42 155 -64 64
-35 139 -93 183 -144 43 -49 43 -49 78 -103 85 -131 119 -297 96 -470 -14
-109 -63 -222 -140 -323 -36 -48 -52 -64 -131 -130 -23 -20 -172 -104 -179
-101 -1 1 -22 -5 -47 -12 -25 -7 -52 -14 -60 -16 -25 -5 -150 -12 -225 -13
l-70 0 1 -255 c0 -140 3 -257 6 -260 6 -6 166 -7 238 -1 168 14 310 53 450
123 75 38 153 82 160 92 3 4 29 24 58 45 29 21 69 55 90 75 209 207 335 459
369 738 9 71 8 253 -1 308 -4 22 -9 49 -11 60 -49 297 -259 615 -520 786 -102
67 -287 152 -358 165 -17 2 -33 7 -36 9 -4 2 -26 6 -51 10 -25 4 -48 8 -51 11
-4 2 -60 7 -125 10 -66 3 -121 7 -124 8 -3 0 -24 0 -47 -2z"/>
</g>
</svg>
