<svg height="16" viewBox="0 0 16 16" width="16" xmlns="http://www.w3.org/2000/svg"><path d="m4.626.048c-.838.038-1.41.173-1.91.37a3.85 3.85 0 0 0 -1.395.916 3.896 3.896 0 0 0 -.908 1.408c-.193.506-.327 1.084-.365 1.93-.039.848-.048 1.118-.048 3.277s.01 2.43.048 3.277.17 1.424.365 1.93c.201.523.47.966.908 1.408s.876.714 1.394.917c.5.196 1.073.33 1.91.37.84.038 1.108.047 3.246.047 2.137 0 2.405-.01 3.245-.048.838-.038 1.41-.173 1.91-.37a3.857 3.857 0 0 0 1.394-.916c.438-.442.707-.885.908-1.408.195-.506.328-1.083.366-1.93s.047-1.118.047-3.277-.009-2.43-.047-3.277c-.038-.846-.171-1.424-.366-1.93a3.901 3.901 0 0 0 -.908-1.408 3.855 3.855 0 0 0 -1.393-.917c-.501-.196-1.073-.33-1.911-.369-.84-.039-1.108-.048-3.246-.048-2.137 0-2.405.01-3.244.048m.064 14.371c-.767-.035-1.184-.164-1.461-.273a2.437 2.437 0 0 1 -.905-.595 2.465 2.465 0 0 1 -.589-.914c-.108-.28-.236-.7-.271-1.476-.038-.838-.046-1.09-.046-3.212 0-2.123.008-2.374.046-3.212.035-.775.163-1.196.271-1.476.143-.371.314-.636.589-.914s.537-.45.905-.595c.277-.108.694-.238 1.461-.273.83-.039 1.08-.047 3.18-.047 2.102 0 2.351.008 3.181.047.767.035 1.184.165 1.462.273.367.144.63.317.905.595s.445.543.588.914c.108.28.236.701.271 1.476.038.838.046 1.09.046 3.212s-.008 2.374-.046 3.212c-.035.775-.163 1.196-.27 1.476a2.465 2.465 0 0 1 -.59.914c-.275.278-.537.45-.904.595-.278.109-.695.238-1.462.273-.83.039-1.079.047-3.18.047-2.102 0-2.35-.008-3.18-.047m6.437-10.713a.95.95 0 0 0 .944.954.95.95 0 0 0 .945-.954.95.95 0 0 0 -.945-.954.95.95 0 0 0 -.944.954m-7.3 4.243c0 2.255 1.81 4.082 4.043 4.082 2.232 0 4.041-1.827 4.041-4.082 0-2.254-1.809-4.082-4.041-4.082s-4.042 1.828-4.042 4.082m1.418 0c0-1.463 1.175-2.65 2.624-2.65s2.623 1.187 2.623 2.65c0 1.464-1.174 2.65-2.623 2.65-1.45 0-2.624-1.186-2.624-2.65" fill="#4d4545" fill-rule="evenodd"/></svg>