<svg enable-background="new 0 0 437.3 341.6" viewBox="0 0 437.3 341.6" xmlns="http://www.w3.org/2000/svg"><g fill="#231f20"><path d="m48.9 274h-10.5c-.6 0-1.1.5-1.1 1.1v5.6c-2.7-4.3-8.1-7.8-15.4-7.8-11.7 0-21.9 8.9-21.9 24.6s9.7 24.4 22.4 24.4c6.8 0 12.2-2.9 15.2-7.3v3c0 6.8-3.3 12.2-14 12.2-5.4 0-9.7-1.7-13.3-5.1-.5-.5-1.3-.3-1.6.2l-4.7 8c-.6 1-.5 1.6-.2 1.9 4.9 4.3 11.1 6.8 20.3 6.8 20 0 25.9-11.1 25.9-23.3v-43.3c0-.5-.5-1-1.1-1zm-23.5 36.5c-7.1 0-12.4-5.1-12.4-12.7s5.2-12.7 12.4-12.7 12.4 4.9 12.4 12.7-5.3 12.7-12.4 12.7zm47.4-54.3v64.3c0 .6-.5 1.1-1.1 1.1h-10.5c-.6 0-1.1-.5-1.1-1.1v-64.3c0-.6.5-1.1 1.1-1.1h10.5c.6 0 1.1.5 1.1 1.1zm31.1 16.8c-10 0-17.5 3.3-20.8 9.8-.2.5 0 1.1.3 1.3l7.6 5.4c.5.3 1.1.2 1.4-.3 2.1-3.8 6.8-5.1 11.4-5.1 5.6 0 8.3 2.1 8.3 4.8v.8c0 1.1-.6 1.7-2.5 1.9l-13 1.1c-8.7.8-15.2 6.2-15.2 14.9s6.7 14.8 16 14.8c7.5 0 12.2-3.6 14.6-7.5v5.4c0 .6.5 1.1 1.1 1.1h10.5c.6 0 1.1-.5 1.1-1.1v-28.2c0-13-7-19.1-20.8-19.1zm8.3 29.4c0 5.2-4.3 9.8-10.9 9.8-4.4 0-6.7-2.1-6.7-5.1 0-2.7 2.1-4.6 5.9-5.2l11.7-1.4zm62.3 4.8c0 10.8-7.9 15.4-20.5 15.4-8.7 0-16.2-2.4-20.5-7.1-.3-.3-.3-1 0-1.4l6-7.8c.3-.5 1.1-.5 1.6 0 3.2 3.3 8.1 5.2 14.1 5.2 3.5 0 6.3-1 6.3-3.6 0-2.5-2.5-3.2-10.5-4.9-7-1.4-15.7-4.6-15.7-14.9 0-9.5 7.6-15.1 20-15.1 8.3 0 14.1 2.5 18.2 6.3.5.3.5 1 .2 1.4l-5.7 7.5c-.3.5-1.1.6-1.4.2-2.9-2.5-7.5-4.1-12.1-4.1-4 0-6 1.3-6 3.3 0 2.4 2.5 3 10.9 4.8 8.1 1.7 15.1 4.8 15.1 14.8zm48.3 0c0 10.8-7.9 15.4-20.5 15.4-8.7 0-16.2-2.4-20.5-7.1-.3-.3-.3-1 0-1.4l6-7.8c.3-.5 1.1-.5 1.6 0 3.2 3.3 8.1 5.2 14.1 5.2 3.5 0 6.3-1 6.3-3.6 0-2.5-2.5-3.2-10.5-4.9-7-1.4-15.7-4.6-15.7-14.9 0-9.5 7.6-15.1 20-15.1 8.3 0 14.1 2.5 18.2 6.3.5.3.5 1 .2 1.4l-5.7 7.5c-.3.5-1.1.6-1.4.2-2.9-2.5-7.5-4.1-12.1-4.1-4 0-6 1.3-6 3.3 0 2.4 2.5 3 10.9 4.8 8.1 1.7 15.1 4.8 15.1 14.8zm55.6-52.1h-10.4c-.6 0-1.1.5-1.1 1.1v24.8c-3.2-4.6-8.6-8.1-15.9-8.1-11.6 0-21.4 8.9-21.4 24.9s9.8 24.9 21.6 24.9c7 0 12.4-3 15.7-7.9v5.6c0 .6.5 1.1 1.1 1.1h10.5c.6 0 1.1-.5 1.1-1.1v-64.3c0-.5-.5-1-1.2-1zm-23.4 55.4c-7.1 0-12.4-5.1-12.4-12.7s5.2-12.7 12.4-12.7c7 0 12.4 4.9 12.4 12.7-.1 7.8-5.5 12.7-12.4 12.7zm57.7-37.6c-14.6 0-25.5 10-25.5 24.9 0 14.8 10.9 24.9 25.5 24.9s25.5-10 25.5-24.9c.1-14.8-10.7-24.9-25.5-24.9zm0 37.4c-7.1 0-12.7-5.1-12.7-12.7s5.6-12.7 12.7-12.7 12.7 5.1 12.7 12.7c0 7.8-5.5 12.7-12.7 12.7zm58.1-37.4c-14.6 0-25.5 10-25.5 24.9 0 14.8 10.9 24.9 25.5 24.9s25.5-10 25.5-24.9c0-14.8-10.9-24.9-25.5-24.9zm0 37.4c-7.1 0-12.7-5.1-12.7-12.7s5.6-12.7 12.7-12.7 12.7 5.1 12.7 12.7c-.2 7.8-5.6 12.7-12.7 12.7zm66.5-35.2c0-.5-.3-1-.8-1.3-1-.5-2.4-.8-5.4-.8-6.7 0-12.5 3.3-15.1 8.7v-6.7c0-.6-.5-1.1-1.1-1.1h-10c-.6 0-1.1.5-1.1 1.1v45.4c0 .6.5 1.1 1.1 1.1h10.5c.6 0 1.1-.5 1.1-1.1v-20.3c0-9 6.3-13.6 14.6-13.6 1.9 0 3.8.5 4.8.8.6.2 1.3-.3 1.3-1z"/><path d="m262.4 0c16 0 29.2 13 29.2 29.2h-116.6v119.6c0 .6-.5 1.1-1.1 1.1h-27c-.6 0-1.1-.5-1.1-1.1v-119.6c0-16 13-29.2 29.2-29.2zm0 175h-116.6c0 16 13 29.2 29.2 29.2h87.4c16 0 29.2-13 29.2-29.2v-119.8c0-.6-.5-1.1-1.1-1.1h-27c-.6 0-1.1.5-1.1 1.1z"/><path d="m294.5 200.3v.6h-1.1v3h-.8v-3h-1.1v-.6zm2.5 2c0 .1 0 .1.1.2 0 .1 0 .1.1.2 0-.1 0-.1.1-.2 0 0 0-.1.1-.2l1-1.9c0-.1.1-.1.1-.1h.1.6v3.7h-.7v-2.4l.1-.5-1.1 2.1c-.1.1-.1.2-.3.2h-.1c-.1 0-.2-.1-.3-.2l-1.1-2.1v.4 2.3h-.7v-3.7h.6.1l.1.1z"/></g></svg>