<svg enable-background="new 0 0 383 384.1" viewBox="0 0 383 384.1" xmlns="http://www.w3.org/2000/svg"><g clip-rule="evenodd" fill="#231f20" fill-rule="evenodd"><path d="m225.6 39.3c2.5 0 4.6-1.9 4.6-4.3 0-2.5-2.2-4.3-4.6-4.3-2.5 0-4.3 1.9-4.3 4.3s1.8 4.3 4.3 4.3z"/><path d="m165.9 31.6c2.2 0 3.7-1.9 3.7-3.7 0-2.2-1.5-3.7-3.7-3.7s-3.7 1.5-3.7 3.7c0 1.8 1.5 3.7 3.7 3.7z"/><path d="m121.1 123.1-1.9-1.9c5.3-4.9 10.5-12.4 11.4-16.7.6-4.3 6.8-3.4 5.6.9-1.5 6-8.3 12.8-15.1 17.7z"/><path d="m83 33.1c-9.3 4-10.5 13.6-4 19.5 7.7 6.8 21 .9 19.8-9.9 10.5.6 17.3-10.5 15.8-17.9 4.6-4 4.9-12.7-.6-16.1-6.2-3.7-11.8-2.5-15.5 4.6-9.6-.6-18.9 6.8-15.5 19.8l-4.3-1.9c-5.9-12.6 4.3-25.3 17-22.2 2.8-6.2 12.1-12.7 22.6-6.5 8 4.9 9.9 17.9 1.2 24.1 4 11.8-4.3 21.6-16.7 20.4-1.5 15.5-15.8 17.4-25.4 10.2-5.3-4.3-7.4-9.9-8.4-14.2-1.2-4.6-1.2-8.7-5.6-13.3-3.4-3.4-9.6-3.4-9.6-3.4.1-11.1-10.1-21.3-23.1-16.4-4.6-4-10.5-4.3-14.5.6-2.2 2.8-3.7 10.2 3.7 13.6-.3 10.2 7.4 16.7 18.9 15.8.3 5.3 6.2 10.5 11.8 11.1l-.3 2.8c-5.6-.6-8.7 1.2-12.4 5.9-13.3-.6-22.6 5.6-22.3 15.2-9.3 1.5-11.1 11.4-5.9 16.7 5.3 5.3 13 3.1 15.8-3.1 9.6 1.9 17.9-4.9 18.2-12.7 8.7 0 12.7-3.7 14.2-11.8l3.1.3c1 8.7-3 17.1-13.6 16.1-.3 10.6-10.2 16.1-19.7 12.7-4.3 8.4-14.5 11.4-22.9 3.4-8.4-7.7-5.3-21 5.6-24.4 0-10.2 7.7-19.8 22.3-16.1 0 0 1.9-4.6 6.5-4.9-3.1-1.2-5.3-2.8-5.9-6.2-11.1 2.5-20.4-7.7-17.9-17.9-10-5.3-10.3-15.2-5.4-21.1 5.3-6.2 13.9-7.4 21.4-.9 13.3-7.1 27.8 1.9 26.9 16.7 9.3-.6 14.8 7.1 13.6 15.5 1.5-3.7 3.4-5.3 6.8-5.9z"/><path d="m105.6 15.2 2.2 1.5c-4.4 9.3-11.8 18.6-18.3 24.1l-2.5-2.1c4.7-7.4 14.3-19.8 18.6-23.5z"/><path d="m41.9 64.7 1.2 2.5c-5.2 5.2-15.1 12.6-20.7 15.4l-1.9-2.5c5-5.5 14.9-12.7 21.4-15.4z"/><path d="m54.6 38.1-2.5 3.1c-7.1-4.6-21-17-24.1-21.6l2.2-2.2c6.7 3.3 19.7 15.1 24.4 20.7z"/><path d="m41.6 156.2c.9 4 0 8.7 3.7 13 1.2 1.5 8.4 10.8 13.6 15.5-7.1 2.8-21 8.7-30.9 9.9-2.2.3-4.3 1.5-6.2 2.8-1.2 2.2-2.5 5.9-3.1 10.2-.3 3.1-.3 6.5-.3 9.9 0 3.1 1.5 13 4.9 19.5s6.8 9.6 10.8 11.4c.9-.3 2.8-.6 5.6-.6 7.4-.3 13.3 4 16.1 7.4.9 1.5 3.1 1.9 5.6 1.9 6.2 0 13-2.2 19.2-4.6 1.5-.9 5.3-3.7 9-6.5 4-3.1 25.1-21 34.3-25.4 4.9 2.5 13 5.9 21.3 5.9.3 0 1.9.3 3.7-.3 2.5-.6 5.9-1.5 10.2-2.5 7.4-1.5 16.1-2.8 18.9-2.8 6.8.3 26.9.6 31.9.6s12.1-.3 14.8-.6c4.3-1.5 13.9-4 22.9-8s27.8-17.3 30.9-20.4c1.5-1.2 3.1-2.8 4-4 .3-.6.6-.9.6-1.2s-.3-13.3-.3-13.3 4.6-4.9 6.5-6.8c0 0 0-.3 0-.6-.9-2.5-1.5-10.5-1.2-18.6l-4.3-2.2c-.3 9.9-4 18.6-7.4 24.1-6.8.9-20.1 4.9-24.7 10.5l2.8.6c4.3-2.5 9-4 14.5-4 4.6 0 6.8 1.2 6.8 2.5 0 .9-.9 3.1-1.2 4-.3.6-.6 1.9-1.5 2.5-6.5 7.1-13.6 13-22.6 17.9-5.9 3.4-11.8 5.6-20.4 8.3-2.8.6-6.5 1.6-8.7 2.5-3.4 0-20.7-.6-30.9-.6s-31.2 1.5-37.7 3.1c-3.1.9-4 2.2-7.4 2.2-6.5 0-15.2-3.4-20.4-5.9-.9 0-2.8.9-4.6 1.9-3.7 1.9-12.1 13.6-17 9.9-2.5 5.3-13.3 9.9-16.7 15.2.3-2.5 4.6-20.4 4.9-24.1 0-.6.3-1.2-.3-1.9-3.7-6.5-14.8-10.5-21-11.8-1.5-.3-2.5-.6-3.7-.9l-9.9-2.8-9 2.8 10.5 1.9-13.3 9c2.5-.9 16.7-4.9 17.6-5.3 1.2-.3 2.8-.6 4.3 0 2.2.6 7.4 1.9 10.8 3.1 1.9.6 4.9 4 5.9 5.9.3.9.3 2.5.6 6.2 0 2.2-.3 5.6-.9 8-1.5 6.5-4.6 11.4-5.6 13.3-1.2 2.5-2.8 3.4-4.6 4-2.8 1.5-6.5 2.2-10.2 2.5-2.8 0-4.6-.3-5.9-1.9-3.4-4.9-12.4-9.6-21.3-7.7-5.6-3.4-11.1-14.2-11.1-22.9 0-5.3 2.5-13.6 4-17.6 9-1.2 27.2-8 35.9-12.1 1.9 0 7.1-1.9 12.1-1.9 11.8 0 23.5 10.2 30.6 17.3 1.2-1.9 3.4-4.9 9.6-4.9 8.4 0 13.3 7.7 15.5 15.5l4.3-3.1c-.6-4.3-3.1-9.3-6.5-13-2.8-2.8-8.3-5.3-12.7-5.3-2.8 0-5.3.6-7.1.6-5.9 0-8.4-2.8-13-5.9s-13.6-8-20.1-8c-4 0-5.9 1.5-9.3 1.5-4.9 0-6.8-1.9-9-4.9-1.2-1.2-6.2-5.6-7.4-7.4-.9-1.2-2.2-5.3-2.8-7.4z"/><path d="m48.4 161.2c1.5 1.5 2.8 3.1 4.6 4.6 1.9 1.2 4 2.5 5.9 3.7 3.1 1.5 6.5 3.4 9.6 4.6 3.1.6 6.8.9 10.2.9 4.9 0 10.8-.9 15.8 1.5 3.4 1.2 3.4 4.9 6.2 5.9 4 1.5 15.2 1.9 21.3 1.9 12.4 0 25.7-1.5 33.7-3.4l-3.7-4.3c-5.6.9-21.7 2.8-29.1 2.8-10.2 0-20.1-1.9-20.1-5.9 0-3.1 3.1-7.4 9.3-7.4 6.5 0 16.4 4 18.2 4.6 1.9.3 2.5.3 3.7-.3l3.7-1.9c-4.9-2.5-22.6-8.3-28.8-8.3-2.8 0-4.6.3-6.5 2.8-2.2 3.1-8.7 5.9-18.6 5.9-5.6 0-13.6-1.2-15.2-1.9-3.1-1.2-9-4.6-12.7-7.4-4.9-3.4-9.3-7.4-12.1-12.1-.9-1.2-1.5-2.8-1.5-4.3 0-1.2.6-2.2.6-3.1.9 1.2 1.9 2.2 3.1 3.1 5.3 5.3 13 9 21 10.5 2.5.6 4.3.9 6.8.9 3.4 0 6.5-1.9 8.7-3.7l-3.4-3.7c-.9.3-3.1.3-4.3.3-11.8 0-26.6-7.4-30-16.4-.3-.9-.9-1.2-.3-2.2.3-.9.6-2.5.9-4 .6.6 2.2 1.9 3.7 3.1 4.3 2.8 12.7 6.5 14.5 7.7 4-1.2 7.1-2.8 9.6-4s5.9-2.5 9.6-2.5c8.7 0 18.6 4.9 27.8 9.6l6.2-2.5c-8.4-5.9-26-13.9-35.9-13.9-5.9 0-11.4 4.3-15.5 4.3-4.6 0-18.2-6.8-18.2-12.4 0-4.3 8.7-6.8 23.2-8.4-2.5 3.4-4.9 7.4-7.1 11.1l3.7 2.2c22.3-32.5 45.8-53.5 65.3-66.5 7.1-4.6 8.7-7.4 11.1-12.4 6.2-12.7 12.1-22 22-22 4.6 0 8.4 2.5 11.1 5.6l7.1 2.2-7.4 4.9 7.4 3.1c-9.6 2.8-22.9 12.4-28.5 26.3-10.2.3-15.2 9-18.6 15.8-2.5 4.9-5.9 6.8-11.4 10.2l-42.1 29.9 5.9.9 39.3-26.2c7.7-5.3 11.4-9.3 13.3-12.7 3.4-7.4 7.4-13 15.2-13 3.7 0 7.7 1.9 11.1 4.9l6.8 2.2-7.4 4.6 6.2 3.7c-17.9 5.6-29.1 18.6-35.6 43.3l4.6.9c2.5-8 4.9-15.5 9-22.3 10.5 0 21-.3 31.5-.3 27.5 0 50.4 1.2 62.8 4.6l-4.3-7.4c-13.3-2.5-32.5-3.4-58.5-3.4-9 0-17.6.3-26.6.3 5.9-5.9 13.9-11.1 26.6-14.8l-9-4.9 9.9-5.6-13.6-4.9c-2.2-2.2-5.3-4.3-9-5.3 4.3-13.3 19.2-21 33.4-26.3l-9.9-4 9.9-5.6-15.5-4.9c-4-4.6-7.7-6.8-13.9-6.8-14.2 0-20.1 12.4-26 23.2-2.8 5.9-4.6 8.4-9.9 11.8-10.8 7.1-25.1 18.2-38.4 32.2-6.6-5-21.2-19.9-24.9-27.9-1.5 1.9-3.1 6.2-3.1 6.2 1.5 1.5 18.2 18.2 24.4 25.7-.3.3-.9.9-1.2 1.5-6.8 1.2-24.1 3.1-30 2.2l-3.1 5.8c4.3-.3 21.3-2.5 28.8-2.8-2.2 2.5-4.3 5.3-6.5 8-22.3 2.5-36.8 7.1-36.8 15.2 0 1.2.3 2.8.3 4.3 0 3.4-1.2 4.6-3.7 6.2-1.5.9-1.5 1.9-.9 2.8s4 5.9 4 6.8c0 1.9-1.5 3.4-2.8 4.9-1.2 1.2-1.2 1.5-.3 3.1l6.5 13.6z"/><path d="m322.1 85.4c-1.2 1.2-2.5 3.1-3.7 4.6l-3.4-4.9c11.8-15.8 43.3-23.2 61.9-24.7v-8.4c-2.5.6-5 1.5-7.4 2.2-3.1.6-6.2 1.5-8.7 1.2-2.8 0-4.9-.9-5.9-2.5-2.5-3.4 0-8.7 8-13.6l-6.5-5.6c-4.9 6.5-9.6 13.6-14.5 17.6-4.6 4-9.3 5.9-13 3.1-2.2-1.5-2.8-2.2-3.1-6.2.3-5.9 3.7-14.8 6.8-20.7l-7.4-.9c-1.2 9-4.9 16.4-9 22.6-4.6 7.7-10.8 13.3-17.3 17.6l-4.3-4c5.3-3.1 11.8-8 16.1-14.8 5.3-8 9.6-17.9 9.6-26.6l21.6 1.9c-3.1 4-8 13-9.9 19.2-.9 3.4-.9 6.2.3 7.1 2.2 1.5 6.2-1.2 10.2-5.3 5.6-6.2 11.1-15.2 13.3-18.2l16.1 13c-7.1 3.7-13.9 8-12.7 10.5 1.2 2.2 5.9 1.5 10.8 0 4-1.2 8.4-3.1 11.8-5.3v21.3c-7.7 0-20.7 1.5-33.1 5.3 3.1 4 11.4 5.6 16.7 6.5l-2.5 17.3c-13.6-5.9-24.1-9-40.8-9.3l5.6-4.9c12.1.3 24.4 4 31.2 7.4l.9-6.5c-6.2-.9-13.9-4.3-17.3-8.4-5.3 1.9-10.5 4.3-14.8 7.4z"/><path d="m257.1 140.4 4.9-11.1c-5.3-6.2-11.1-13.9-16.4-22.3l-4.3-7.4c-10.2-19.2-6.5-28.5-11.8-37.1-4.6-6.8-26.3-2.5-29.7-1.9l6.2-10.2-12.4.9 10.7-12.3c1.2-1.9 1.5-3.1 2.8-7.4 1.9-6.8 7.4-17.9 24.1-17.9 18.2 0 24.1 14.8 31.9 21.3 9.3 7.4 21 17.6 31.5 27.8l4.3 4c5.6 5.6 10.8 11.4 16.1 18.2l3.4 4.9c22.3 32.2 49.5 93.7 61.9 121.9.9 2.8 1.9 5.6 2.8 7.7-8.3-4.6-17.3-10.2-26.9-16.7l-5.3-3.7c-3.4-2.5-6.8-4.9-10.2-7.4l-5.6-4.6c-3.4-2.5-6.8-5.3-9.9-8l11.1 64c.6 4 4 3.4 6.5 0s3.7-4.3 2.5-8.7l-10.2-47.3 5.6 4.6 9.9 39.9c.9 3.7 2.5 4.9 6.8 4.9 4.3.3 4.9-1.2 4.3-4l-10.8-33.4 5.3 3.7 10.2 30c2.8 7.7 0 8.7-4.6 8.7-4.3 0-8.7-1.2-11.1.3-2.5 1.9-5.6 6.2-9.6 9.9-3.1 3.4-8 2.8-9-3.7l-12.4-73.9c-7.7-7.1-15.5-14.5-22.3-22.3-2.8-1.2-6.2-2.8-9.3-4l-4.3-2.2c-1.9-.9-3.1-1.2-3.4-1.5-3.4 4-6.8 8.7-10.5 11.8-1.9 1.9-3.4 2.8-6.2 2.8-.9 0-2.2 0-3.1-.6-1.2-.6-2.2-1.9-3.4-3.7-.9-1.2-2.2-3.1-3.4-4.9-2.5-4-4.9-9.3-7.4-13.3-2.5-4.6-4.9-8-5.3-8.7-.3-.9-1.5-1.9-1.5-1.9-1.5 1.9-2.5 5.9-2.5 8.4l-4.3-1.5c.3-3.1 1.5-7.1 2.5-9 0-1.5-1.9-3.7-3.4-3.7-2.2 0-4.3 2.2-5.3 6.5l-4.6 2.2c.3-7.1 2.8-14.8 9.9-14.8 5.6 0 9.3 4.3 11.8 8.3 2.6 3.9 11.6 16 13.4 18.4l3.4 4.3c.6 2.8 1.9 4.3 2.5 5.3 1.2 1.9 2.5 1.9 4.3 0 .9-.6 3.4-2.8 6.2-5.6 2.2-2.2 4.3-5.3 5.3-6.5 2.5.9 7.4 3.4 11.1 4.9-16.4-20.4-32.5-45.2-39.3-61.9-2.8-7.1 2.8-9.3 5.3-2.5 7.4 18.6 28.8 51.6 44.5 69 17.9 19.8 51 48.9 72.7 60.3-3.1-6.2-7.1-14.8-12.1-25.1-26.3-14.8-52.6-42.1-64.9-65.6l5.3.6c11.4 20.4 39 47.6 55.4 55.4-14.8-31.5-34.3-71.4-49.2-88.5-18.9-21.3-39.3-38-49.2-46.4-9.6-8.7-13.6-19.2-27.2-19.2-11.4 0-17.6 8.4-19.8 16.4-.6 1.9-.9 2.8-1.9 4.3l-5.6 6.5 11.8-1.2-6.8 9.3s18.2-4 24.7 4.6c6.8 9.3 2.5 19.8 13.9 40.5 4.9 9 17 25.1 21 28.8l-8 16.4z"/><path d="m77.1 143.2-2.8-1.9c1.5-1.2 4.6-3.4 7.7-4.6 1.5-.6 3.4-.9 4.6-.9 3.1 0 5.9 1.2 8.4 2.8 4 2.2 8.7 4.6 12.4 4.6 1.2 0 2.5-.3 4-.3 3.7 0 7.1 1.5 9 1.5 1.2 0 1.9-.9 2.8-2.2 1.9-2.8 4.6-4.9 8-6.2 3.4-1.5 8-2.2 12.7-2.2 4 0 7.4.6 9.3.9 0 0-2.8 3.4-3.4 4.3-4 0-11.1-.3-15.8 1.5-3.1 1.2-4 3.1-4 5.3 0 3.4 4 4.9 8 6.2 2.8.6 5.6.9 7.7.9 3.1 0 8.7-1.2 14.2-2.5 6.8-1.2 13-3.1 14.8-3.7l2.5 4.3c-7.4 2.5-15.2 4.9-22.3 6.2-4 .9-7.7 1.5-11.1 1.5-5.9 0-12.1-2.5-17-4.9-4.3-1.9-8-4-11.8-4-3.7 0-7.4 1.2-10.8 3.4-1.9.9-7.1 4.6-11.8 6.5-3.7 1.2-6.5 2.2-10.2 2.2-3.1 0-5.3-.6-6.8-1.9l5.6-3.4c.9.6 2.2.9 2.8.9.9 0 1.9-.3 4-1.2 1.2-.3 3.1-1.5 4.3-2.2 2.2-1.5 2.8-2.5 3.7-3.1 1.9-1.2 2.5-3.1.3-4.9-1.2-.9-2.2-1.9-3.4-2.8-2.2-1.2-3.4-2.2-7.1-2.2-3.8.3-6.9 1.2-8.5 2.1z"/><path d="m155.7 145.4s-3.4-.9-4.3-.9c2.2-3.1 5.3-5.6 7.4-7.1 4.6-3.1 9.3-4.9 16.7-5.3 1.9-.3 5.9-.6 8-.6 2.2.3 5.6.3 8.7.9 2.2.3 4.3.9 6.2 1.2.9.3 4.6.3 5.9 0 5.3-.9 11.4-2.8 14.5-4.6l1.2 4.9c-6.8 3.7-14.5 7.1-22 7.1-3.4 0-7.4-.3-11.1-.6-6.2-.6-11.8-1.5-13.6-1.5-5.2 0-12.7 2.5-17.6 6.5z"/><path d="m150.7 172.9-6.5-3.1c9-4.3 22.6-9 28.5-9.9 5.6-.9 12.1-1.5 15.8-2.8 1.9 4.3 5.3 8.7 9.9 8.7 1.9 0 4.6-1.2 7.7-2.5 3.4-1.5 6.5-3.1 8.3-3.7 1.9-.9 7.7-3.4 13-5.9 1.9-.9 7.1-3.4 7.4-3.4l3.4 1.9c-.9 4.3-2.8 9.9-4.6 13.9-.6 1.5-1.5 2.8-2.2 3.7-1.5 1.5-4 4-7.1 6.2-3.4 2.5-7.7 4.9-12.1 7.4-3.4 1.9-6.8 4-10.5 5.6l-1.5-3.4c5.3-3.1 10.8-6.8 15.8-10.5 2.2-1.5 4.3-3.4 5.9-4.9 1.2-.9 1.9-1.9 2.5-2.8 1.5-1.9 4-6.2 4.6-8-2.2.9-9.6 4.6-13 6.2-4 2.2-10.2 5.3-13.9 7.1-2.5 1.2-4.9 1.9-6.8 1.9-4 0-5.9-2.8-6.8-4.6-2.5-4.3-4.9-4.6-12.1-4.6-8-.5-19.2 2.9-25.7 7.5z"/><path d="m188.8 152.5s-.9-3.7-1.5-5.3c0 0 1.2-.3 2.8-.3 2.2 0 8.3.6 10.8.6 9.3 0 12.7-2.8 15.5-5.3 2.5-2.2 4.9-4 11.1-4 5.6 0 12.1 2.2 13.9 3.1l-.3 5.3c-2.8-1.5-6.5-2.5-9.9-2.5-2.2 0-4.3 0-5.9.9-1.5.9-2.8 2.2-4.3 3.4s-3.7 2.5-6.8 3.7c-2.8 1.2-6.5 1.9-12.1 1.9-7.1 0-11.1-1.2-13.3-1.5z"/><path d="m129.4 191.2 4.3-1.9c3.7 1.5 9.6 3.4 13.6 3.4 2.5 0 4.3-.9 5.9-1.6 1.2-.6 15.8-7.7 22.9-10.2 2.2-.9 4.6-1.2 5.6-1.2 1.9 0 1.9.6 2.5 1.5 1.2 2.2 12.1 17.3 13 18.2 9-2.8 18.2-6.8 23.5-11.8 5.6-5.3 10.2-11.4 14.8-16.4 1.5-1.9 3.7-3.4 4.6-4 4.6-2.5 19.2-2.8 25.1-2.5l-3.4 4.9c-10.8 0-16.7 1.2-19.5 3.1-.9.9-2.8 2.8-4.3 4.9-3.7 4.6-7.7 11.1-9.3 12.4 3.1 2.2 6.5 4 12.1 4 9 0 15.5-5.6 18.9-8.7l3.1 1.5c-2.2 3.1-4.9 5.9-8 8-3.7 2.5-8.4 4.3-10.8 4.9-5.3-.9-16.7-3.4-19.5-3.7-9.9 4-26.3 10.5-31.5 12.1-.9.3-2.2.6-3.7.6-4.3.3-10.2.3-15.8 0-3.7 0-7.4 0-9.3-.3l-4.9-4.9c4.3.9 5.9.9 9.9.9 9.3 0 15.5-1.5 17.3-1.9 1.9-.6 2.2-1.5 1.5-3.1-.9-2.2-2.2-4.6-4.3-7.1-1.2-1.2-3.7-3.4-4.6-4-1.2-.9-2.5-1.2-6.2 0-3.1.9-13.3 6.5-17.6 9-2.2.9-4 1.5-7.7.6-4.6-.6-14.5-4.3-18.2-6.7z"/><path d="m157.6 78.6c1.9 0 3.7-1.9 3.7-3.7 0-2.2-1.9-3.7-3.7-3.7-2.2 0-3.7 1.5-3.7 3.7-.1 1.8 1.5 3.7 3.7 3.7z"/><path d="m297.7 292.3c0-2.8-2.5-5.3-5.6-5.3h-7.7c-3.1 0-5.6 2.5-5.6 5.3l.3 82.9c0 2.8 2.2 5.3 5.3 5.3h7.7c3.1 0 5.6-2.5 5.6-5.3z"/><path d="m307.6 294.8v3.7c0 1.9 1.2 3.1 3.1 3.1h54.4c2.5 0 4.6-2.2 4.6-4.6v-6.5c0-2.5-2.2-4.9-4.6-4.6 0 0-52.6 5.3-54.4 5.6-1.9-.1-3.1 1.4-3.1 3.3z"/><path d="m263.3 380.4c-13.6 0-22-10.2-22-21.6v-33.1h-4c-1.9 0-3.7-1.9-3.7-3.7v-5.6c0-2.2 1.9-3.7 3.7-3.7h4v-20.4c0-2.8 2.2-5.3 5.3-5.3h7.7c2.8 0 4.9 2.5 4.9 5.3v20.4h12.1c2.2 0 3.7 1.5 3.7 3.7v5.6c0 1.9-1.5 3.7-3.7 3.7h-12.1v30.6c0 5.9 3.7 10.2 10.2 10.2h1.2c2.2 0 4 1.5 4 4v5.9c0 2.2-1.9 4-4 4z"/><path d="m170.5 345.5c0-17.6-10.5-35.3-34.3-35.3-22 0-34 17.3-34 35.3 0 19.2 13 36.2 34.3 36.2 14.5 0 28.8-7.4 31.5-20.1.3-1.5-.9-4-3.1-4h-10.5c-1.9 0-3.4.9-4.3 2.5-3.1 4.3-7.4 6.5-13.6 6.5-9.3 0-15.5-7.1-16.1-15.2h44.2c4.1 0 5.9-2.2 5.9-5.9zm-49.8-7.4c.6-7.7 7.4-13.6 15.5-13.6 8.4 0 15.2 5.9 16.1 13.6z"/><path d="m371.6 345.5c0-17.6-10.5-35.3-34.3-35.3-22 0-34 17.3-34 35.3 0 19.2 13 36.2 34.3 36.2 14.5 0 28.8-7.4 31.5-20.1.3-1.5-.9-4-3.1-4h-10.5c-1.9 0-3.4.9-4.3 2.5-3.1 4.3-7.4 6.5-13.9 6.5-9 0-15.2-7.1-15.8-15.2h44.2c4 0 5.9-2.2 5.9-5.9zm-49.8-7.4c.6-7.7 7.4-13.6 15.5-13.6 8.4 0 15.2 5.9 15.8 13.6z"/><path d="m226.5 288h-142.9c-3.4 0-5.9 2.8-5.9 5.9l.3 56.3s-30.6-55.7-32.2-58.5c-1.5-2.8-4.9-5.3-9.3-5.3h-11.6c-3.4 0-5.9 2.8-5.9 5.9v82.3c0 3.4 2.5 5.9 5.9 5.9h7.4c3.4 0 5.9-2.5 5.9-5.9l-.3-57.6s30.9 56 32.5 58.1c1.5 3.1 4.6 5.3 9 5.3h10.8c3.4 0 5.9-2.5 5.9-5.9v-72.7h130.5c2.2 0 4-1.9 4-4v-5.8c-.1-2.2-1.9-4-4.1-4z"/><path d="m203.3 323.8c6.2 0 10.8 2.2 12.7 6.2.6 1.9 2.2 2.2 4.3 2.2h8.7c1.2 0 3.1-1.2 3.1-3.1 0-9.9-12.1-18.9-28.8-18.9-17.3 0-28.8 8.3-28.8 21.3 0 10.2 8 16.1 17.6 18.9 4.6.9 12.4 2.8 16.1 4 3.7.9 7.4 2.2 7.4 5.6 0 5.6-5.6 7.1-12.1 7.1-5.9 0-11.8-2.5-13.3-6.8-.9-2.5-2.8-2.8-5.3-2.8h-8.7c-1.5 0-3.4 1.5-3.4 3.4v1.2c0 9.6 13 19.5 30.9 19.5 12.4 0 30-5.3 30-22 0-9.9-6.5-16.7-17.3-19.5-4-.9-13.9-3.7-16.1-4-4-1.2-7.7-2.5-7.7-5.6.2-5.1 4.8-6.7 10.7-6.7z"/></g></svg>