<svg enable-background="new 0 0 288.6 158.7" viewBox="0 0 288.6 158.7" xmlns="http://www.w3.org/2000/svg"><path d="m31.3 132.3c0 1.4.1 2.5 0 3.7-.2 3.1 0 6.2-1.5 9.1-1.4 2.7-3.9 4.2-6.7 4-2.7-.2-5-2-5.8-4.7-.4-1.3-.7-2.7-.7-4.1-.1-10.6-.1-21.3 0-31.9 0-1.3.4-2.8 1-4 1.3-2.5 3.4-3.8 6.2-3.7s5 1.3 6 4c.6 1.8 1 3.8 1.3 5.7.2 1.7 0 3.4 0 5.3h10.1c.1-.9.2-1.6.2-2.3-.1-2.1-.2-4.2-.4-6.2-1.1-10.2-7.5-16.2-17.8-16.3-8.6 0-14.6 5.1-16 11.8-.6 2.9-1.1 5.9-1.1 8.9-.2 8.1-.1 16.2 0 24.3 0 3 .1 6 .7 9 1.2 6.5 4.7 11.4 11.5 13 2.9.7 6 .6 8.9.4 6-.5 10.1-3.9 12.3-9.3 2.2-5.3 2.5-10.9 1.9-16.7zm-20.5-65.8h10.2v-56.1h10.8v-9.3c-10.8.1-21.3-.1-31.8.1v9.3h10.8zm36.5-27.5h13.9c.1 9.3-.1 18.4.1 27.7h8.5c.4 0 .9-.2 1.5-.3v-65h-10.1v27.7c-2.6 0-4.8 0-7 0-2.3 0-4.5-.1-7.1-.1v-27.7h-10v65.2h10.2zm169.6 0h14v13.8c0 4.6.1 9.1.1 13.8h10v-65.2h-10.2v27.4h-14.2v-27.5h-9.9v65.2h10.2zm-52 20.2c4.6 9.5 17.2 11.6 24.5 4 .4-.4.9-.9 1.5-1.5.7 1.8 1.3 3.3 1.9 4.9h5v-35.4h-18c-.1 2.8-.4 5.4.3 8.3h7.5c0 4.8.6 9.3-.9 13.7-1.1 3.3-3.3 4.9-6.4 4.8s-5.8-2-6.7-5.1c-.4-1.3-.7-2.7-.7-4.1-.1-10.4-.1-20.8 0-31.2 0-1.1.3-2.3.7-3.4 1.1-2.9 3.4-4.6 6.3-4.6 3 0 5.4 1.5 6.4 4.4.6 1.8.8 3.8 1.1 5.7.2 1.1.2 2.2.3 3.4h10.1c-.2-2.6-.2-4.9-.5-7.1-1-10-7.4-16-17.7-16-7.7 0-14.3 4.2-16.3 12.5-.6 2.3-.8 4.8-.9 7.2-.1 9.1-.1 18.3 0 27.4.1 4.2.6 8.3 2.5 12.1zm-108.2 33c-4.1 21.7-8.2 43.3-12.4 65.2h9.9c.7-3.5 1.4-6.9 2.1-10.1h15.1c.7 3.4 1.3 6.6 2 10.4h8.3c.6 0 1.1-.1 2.1-.3-4.4-21.9-8.7-43.5-13-65.2zm1.2 44.9c1.8-10.4 3.7-20.6 5.5-30.9.1 0 .3.1.4.1 1.9 10.2 3.7 20.4 5.7 30.8zm21.4-83.8c1.3 8.7 6.5 13.7 15.3 14.4 9.3.7 16.6-2.9 18.9-13 .6-2.5.7-5 .8-7.6.1-4.4 0-8.8 0-13.2 0 0 0 0-.1 0 0-5.2.3-10.4-.1-15.6-.6-9.7-4.4-17.1-15.8-18.1-8.8-.7-16.3 2.7-18.7 12.7-.6 2.4-.8 5-.9 7.6-.1 8.4-.1 16.9 0 25.3 0 2.5.2 5 .6 7.5zm9.6-19.7h.2c0-5.7-.1-11.3 0-17 .1-3.2 1.9-5.3 5-6.4s5.8-.2 7.8 2.2c.9 1 1.4 2.4 1.7 3.7.3 1.4.3 3 .3 4.5v26.7c0 1.4-.1 2.8-.2 4.1-.5 3.9-3.5 6.6-7.2 6.7-3.9 0-7.1-2.7-7.4-6.8-.3-3.3-.2-6.7-.3-10 .1-2.6.1-5.1.1-7.7zm132 72.6c-1.1-9.3-6.3-14.5-15.6-15.1s-15.9 3-18.4 12.2c-.7 2.4-.9 5-.9 7.5-.1 4.6 0 9.3 0 13.9h.1c0 5.3-.3 10.7.1 16 .6 10.1 5 17.2 16 17.9 9.9.6 16.3-3.4 18.6-12.9.7-2.7.8-5.5.8-8.3.1-7.6.1-15.3 0-22.9-.1-2.7-.3-5.5-.7-8.3zm-9.9 35.9c-.1 3.3-2.2 5.6-5.3 6.5-2.9.8-5.9 0-7.7-2.5-.8-1.1-1.4-2.5-1.5-3.8-.2-7.1-.3-14.3-.4-21.4 0-3.1 0-6.2.1-9.4 0-1.4.1-2.8.2-4.1.5-4 3.7-6.9 7.5-6.8s7 3.1 7.1 7.1c.2 5.7 0 11.3 0 17 0 5.9.2 11.7 0 17.4zm33.6-11.6h8.1c.1 5 0 9.5-1.3 13.8-1 3.2-3.4 4.8-6.5 4.7-3-.1-5.7-2.1-6.5-4.9-.5-1.7-.8-3.4-.8-5.1-.1-9.4-.1-18.7 0-28.1 0-1.9.2-4 .9-5.8 1.3-3.8 5-5.3 8.8-3.9s4.5 4.7 5 8.1c.2 1.6 0 3.2 0 4.9h9.8c.9-2.4.4-4.8.1-7.2-.9-8.3-5.8-15.5-16.8-16.1-8.1-.4-15.2 4.4-17.1 12.3-.7 2.8-1 5.7-1 8.6-.1 8.4-.1 16.9 0 25.3.1 4 .5 8.1 2 11.9 2.8 7 9.6 10.7 17.1 9.4 3.9-.7 6.7-2.8 9.3-5.9.8 1.9 1.4 3.4 2 4.8h5v-35.3h-17.9v8.5zm33.8-129.2h-32v9.3h10.8v28 14.2c0 4.6-.1 9.2.1 13.7h10.2v-56.1h10.9c.4-3.3.4-6.2 0-9.1zm-164.4 91h-31.8v9.2h11v11.5 22.6 11.1c0 3.6-.1 7.3.1 10.9h10v-56.1h10.7zm54.5-.3h-10v65.3c4.5.6 21.3.5 23.7-.2v-8.8h-13.8v-56.3zm-43.1.2c-4.2 21.9-8.3 43.5-12.4 65.1 4.3.6 7.5.5 9.9-.2.6-3.2 1.2-6.5 1.9-9.7h15.1c.7 3.5 1.4 6.9 2.1 10.1h10.3c-4.4-21.9-8.8-43.6-13.1-65.3zm1.1 44.9c1.8-10.2 3.6-20.1 5.4-29.9h.8c1.8 9.9 3.6 19.8 5.5 29.9zm28.4-135.8h-10v3.9 42c0 2.3-.3 4.6-.9 6.8-.7 2.7-2.9 4-5.8 4.1-3 .1-5.5-1.2-6.3-3.9-.6-2.1-.9-4.3-.9-6.5-.1-14.2 0-28.5 0-42.7 0-1.2 0-2.5 0-3.8h-10.4v3.9 37.5c0 3.3.2 6.7.6 10 .9 9 6.6 14.5 15.7 15.1 7.3.4 15.6-2.7 17.7-13.2.5-2.4.6-4.8.6-7.2.1-14.4 0-28.7 0-43.1 0-.9-.2-1.9-.3-2.9zm123.3 88.6c-5.7 0-10.4 4.6-10.4 10.4 0 5.7 4.6 10.4 10.4 10.4 5.7 0 10.4-4.6 10.4-10.4 0-5.7-4.6-10.4-10.4-10.4zm0 19.2c-4.8 0-8.7-4-8.7-8.9s3.9-8.9 8.7-8.9 8.7 4 8.7 8.9c.1 5-3.9 8.9-8.7 8.9zm4.1-11.1c0-1.9-1.6-3.4-3.6-3.4h-3.9v11.4h1.6v-4.6h1.7l2.6 4.6h1.8l-2.7-4.8c1.5-.5 2.5-1.5 2.5-3.2zm-5.9 2v-4h2.1c1.3 0 2.1.9 2.1 2s-.9 2-2.1 2z"/></svg>