<svg enable-background="new 0 0 1271.2 515.2" viewBox="0 0 1271.2 515.2" xmlns="http://www.w3.org/2000/svg"><g fill="#231f20"><path d="m634.9 515.2c-183 0-366 0-549.1 0-10.1 0-14.5-3-17.4-12.7-8.6-28.3-17.2-56.5-25.5-84.9-13.8-47-27.4-94-41.1-141-.7-2.4-1.3-4.8-1.6-7.3-.8-6.1 1.4-10.8 6.9-13.7 2.6-1.4 5.3-2.8 8.1-3.8 21.3-8 42.6-15.9 64-23.9 2.5-.9 5-1.7 7.5-2.7 5-1.9 8.2-5.7 10-10.5.7-1.9.6-4.3 0-6.3-4.2-14.7-8.6-29.3-12.8-44-3-10.2-6-20.4-8.9-30.6-.6-2.2-1-4.5-1.4-6.8-1.1-6 2.3-13.7 8.9-16.7 44.7-20.3 90.3-38.1 137.3-52.2 39.3-11.8 79.1-21.8 119.4-29.6 23-4.5 46.1-8.5 69.3-12.1 19.6-3 39.2-5.2 58.9-7.3 20.7-2.1 41.4-4.1 62.1-5.5 19.4-1.3 38.9-1.9 58.4-2.6 31.8-1.2 63.6-1.2 95.4 0 13.5.5 27 .7 40.4 1.4 12.3.6 24.6 1.6 36.9 2.6 11.6.9 23.2 2 34.8 3.2 14.2 1.5 28.4 3.1 42.6 5 15.8 2.1 31.6 4.4 47.4 7 18.8 3.1 37.7 6.5 56.4 10.2 34.9 7 69.4 15.6 103.5 25.7 44.6 13.3 88.4 29.1 130.7 48.6 3.9 1.8 7.9 3.5 11.9 5.1 7.5 2.9 11.4 10.2 9.3 18-.7 2.7-1.9 5.3-2.7 8-6.6 23.2-13.2 46.3-19.6 69.5-2.6 9.6 1.2 16.5 10.7 19.9 16.2 5.9 32.6 11.6 48.8 17.6 8.4 3.1 16.7 6.5 25 10 2.3.9 4.4 2.3 6.4 3.7 5 3.6 6.5 8.4 4.7 14.5-3.3 11.1-6.2 22.4-9.5 33.5-17.6 60.1-35.3 120.1-52.9 180.1-1.5 5.3-3.1 10.5-4.9 15.7-.8 2.3-1.8 4.7-3.1 6.8-2.7 4.5-6.4 7.3-12.1 7.3-15.8-.1-31.6.4-47.4.4-61.5.1-122.9.2-184.4.2-107.1 0-214.2 0-321.2 0-.1.1-.1.2-.1.2zm-244.1-231.2c-.7 2.9-1.1 4.8-1.6 6.7-8.6 33.3-17.3 66.5-25.9 99.8-2 7.6-3.4 15.2-2.6 23.1.8 7.7 4.1 10.8 11.8 10.3 9.5-.6 19-1.2 28.3-2.7 12.7-2 24.7-6.5 35.8-13.2 3.2-1.9 6.4-4.1 8.6-7.6-1.5-1.8-2.7-3.5-4.2-5-7.3-7.6-8.6-16.5-6.3-26.4 1.6-7.1 3.2-14.3 5-21.3 8.8-34.9 17.6-69.9 26.6-104.7 6.7-26 13.6-52 23.7-77 5.9-14.7 12.3-29.1 23.4-40.8.7-.8 1.1-1.9 1.9-3.5-4.1-.2-7.5-.6-11-.5-13.7.1-27.3.6-41 .3-6-.1-10.7 1.8-15 5.3-2.2 1.8-4.3 3.7-6.2 5.8-7.8 8.5-13.2 18.4-16.3 29.4-7.2 25.1-14.1 50.2-21 75.3-2.3 8.3-4.5 16.6-6.7 24.8-.9.1-1.3.3-1.8.3-14.8 0-29.6 0-44.5-.2-2.6 0-5.2-.5-8.2-.8.5-2 .8-3.6 1.2-5.2 8.3-30.6 16.6-61.2 24.8-91.8 2.9-10.9 5.7-21.8 8.3-32.8 1.4-6-1.1-9.2-7.2-9.8-.7-.1-1.3-.1-2-.1-40-1-79.9-1.2-119.7 3.1-11.1 1.2-22 3.5-32.3 8.1-20.9 9.5-35.9 24.4-42.4 46.9-3.9 13.5-3.7 27.3-.9 41 2.1 10.3 4.9 20.3 9.4 29.9 2.7 5.8 6.7 8.9 13.6 8.6 13.2-.5 26.2-2.2 39.1-4.4.9-.2 1.7-.8 2.7-1.3-.3-1-.4-1.9-.7-2.6-2.6-6.1-5.4-12.2-7.9-18.3-2.3-5.7-5-11.3-6.5-17.2-2.8-11.1-2.1-22.4-1.5-33.7.3-5.5 1.4-10.8 3.5-16 8-19.7 22.9-30.4 43.5-33.8 10.6-1.7 21.3-.3 31.9.5 2 .1 3.9.8 5.8 1.4 3.8 1.1 5.8 3.8 6.1 7.7.1 1.8 0 3.7-.3 5.4-1.2 5.8-2.4 11.7-4 17.5-14.1 51-28.3 102-42.6 153-4.4 15.5-8.8 31-16.5 45.3-5.9 11-12.2 21.7-20.8 30.9-9.1 9.8-19.7 14.1-33.2 11.7-13.2-2.4-24.3-7.9-31.2-19.9-10.2-17.8-15.7-36.9-16.4-57.4-.3-8.5.1-17 .1-25.4 0-3.7.1-7.3-.1-11-.1-1.7-.8-3.4-1.4-5.5-2.6.3-4.7.4-6.7.9-3.5 1-7 2.2-10.4 3.5-11.5 4.3-22.8 9.3-33.2 15.9-5.3 3.4-8 8.1-8.9 14.3-1.3 8.9-.4 17.6 1.1 26.3 3.8 22.6 13 42.8 28 60.3 10 11.6 22.5 19.4 37.7 21.7 7.5 1.2 15.3.5 22.9.6 6.9.1 13.6-1 20.2-2.8 32-8.7 60.9-23.7 88.1-42.4 16.6-11.4 28.2-26.7 34.5-45.8 5.6-16.9 10.5-33.9 15.8-50.9.4-1.4 1-2.7 1.5-4.2 18 .1 35.8-.5 54.2.4zm454-48.2c-.4-.3-.8-.6-1.2-.9.3-1.6.5-3.1.8-4.7.7-4.1 1.7-8.2 2-12.3.6-9.3-3.4-12.9-12.3-10.9-9.5 2.2-19.1 4.6-28.4 7.6-11.6 3.7-22.8 8.3-33.1 14.9-1.9 1.2-3.6 2.7-5.7 4.3 1 2.1 1.6 3.8 2.7 5.3 2.8 3.8 3.9 8.2 3.5 12.7-.6 6.1-.8 12.4-2.5 18.2-8 27.8-16.4 55.4-24.7 83-4 13.5-8.2 27-11.9 40.6-1.9 6.9-2.6 14.1-.5 21.2 2.5 8.5 6.2 11 14.9 10.6 1.3-.1 2.7-.2 3.9-.5 15.3-3.7 29.7-9.6 43.5-17.1 4.5-2.5 6.8-5.9 6.9-11.1.2-7.5.7-14.9 1.4-22.4 1.1-10.6 4.3-20.8 7.4-31 6.3-20.8 12.6-41.6 19-62.4 3-9.8 8.9-17.8 16.7-24.3 6.9-5.8 14.4-10.8 23.5-12.5 6.8-1.3 11.2 2.5 10.7 9.3-.3 4-.9 7.9-2 11.8-4.9 18.1-9.9 36.2-15 54.2-6.8 24.1-13.8 48.2-20.7 72.3-1.9 6.6-3.4 13.2-2.8 20.1.6 7.7 5.7 13.1 13.4 13.6 3.3.2 6.7.1 9.9-.5 12.3-2.3 24.1-6.4 35.6-11.2 7.7-3.2 15.1-6.9 22.5-10.6 2.1-1.1 4.4-2.4 5-5.5-2.4-1.6-4.7-3.1-7-4.7-5.8-3.8-7.9-9.2-6.6-15.9 1.1-5.4 1.9-10.8 3.3-16.1 8.5-31.6 17.2-63.1 25.7-94.7 3.2-11.9 6.4-23.7 9.1-35.7 3-13.2-2.7-23-14.6-26.7-5.3-1.7-10.9-2.1-16.3-1.2-11.7 1.9-23.1 4.8-34 9.4-12.7 5.2-24.5 12-35.7 19.8-1.8 1.5-4.2 2.7-6.4 4zm176 128.6c1.1-2.8 1.6-4.7 2.6-6.3 3.1-4.9 6.2-9.8 9.6-14.6 24.9-34.9 49.9-69.8 74.9-104.7 5.3-7.4 10.5-15 15.7-22.5 3.7-5.5 2.2-8.5-4.6-9.1-4.3-.4-8.6-.7-13-.7-11.8-.1-23.6-.2-35.5-.1-18.5.2-36.9.6-55.4 1-4 .1-8.1.5-11.4 2.9-6.4 4.6-12 10.2-15.4 17.4-6.1 12.7-10.7 26.1-14.6 39.7-.4 1.5-.3 3.1-.5 5.9 2.7-1.6 4.5-2.4 5.9-3.6 2.3-1.9 4.4-4.1 6.4-6.3 1.8-2 3.7-2.9 6.5-2.9 20.1.1 40.3 0 60.4.1 1.3 0 2.5.3 3.7.5 1 3.8.1 7-1.9 9.8-4.8 6.6-9.4 13.3-14.6 19.5-19.5 23.1-39.4 46-59 69.1-13.7 16.1-27.3 32.3-38.9 50-1.2 1.8-2.1 3.6-3.2 5.5 2.1 2.8 4.8 3.5 7.7 3.6 6.2.3 12.3.7 18.5.7 44.6.1 89.2.2 133.9.2 12.9 0 12.9 0 20.9-9.9.3-.4.6-.8.9-1.2 14.4-18.4 27.4-37.6 38.7-58 5.6-10.2 10.9-20.5 13.7-31.9 1-4.1 1.4-8.2.1-12.3-2.7-8-7.8-13.7-15.6-17.1-6.4-2.8-13.2-3-20.1-2.8-4.6.1-8.4 2.1-11.5 5.3-4.3 4.4-7.1 9.6-8.3 15.6-.3 1.7-.1 3.5-.1 5.5 2.8-.2 5.1-.5 7.4-.5 5.7-.1 11.3.5 15.9 4.5 6.9 5.9 9.6 18.8 5.5 27.5-2.9 6-6.8 11.4-11.7 16-3 2.8-6.4 4.6-10.7 4.6-4 0-8 .5-12 .5-26.1 0-52.3 0-78.4-.1-3.7-.3-7.4-.6-12.5-.8zm-410.7 11.3c-3 .9-4.9 1.4-6.8 2.1-4 1.5-8 3.2-12 4.8-12.2 5.1-24.9 5.4-37.8 3.4-10.8-1.7-22.2-14.8-21.7-25.5.2-4.8 0-9.6 0-14.5-.1-7.6 1.5-14.8 3.6-22 1.4-4.7 3.9-7 8.5-8.5 12.7-4 25.3-8.2 37.7-12.9 14.2-5.5 27.3-12.9 39-22.8 8.5-7.1 15.9-15.1 20.8-25.2 2.8-5.8 4.7-11.9 3.9-18.3-2.3-20.5-17.2-30.8-36.9-29.3-7.6.6-15.2 2.1-22.6 3.6-18.6 3.9-36 10.6-51.8 21.2-20.6 13.8-36.2 32.2-48 53.9-14.6 26.9-23.3 55.3-22.7 86.2.2 10.9 3 21 8.2 30.5 3.8 7 9.1 12.7 16.2 16.5 9.5 5.1 19.5 8.5 30.4 8.6 6.5 0 13-.3 19.4-1.1 12.1-1.5 23.8-4.7 34.5-10.9 13.8-8.1 24.9-19.3 35.1-31.5.8-1 1.6-2.2 2.1-3.4s.5-2.5.9-4.9zm103.2 22.1c-3.4-2-5.9-3.3-8.3-4.8-5.1-3.2-7.7-7.8-7-13.9.5-4.6 1.1-9.3 2.4-13.7 7.2-25.6 14.7-51 21.9-76.6 5.8-20.4 11.4-40.9 16.9-61.4 1.1-4 1.6-8.2 1.7-12.3.1-5-3.5-8.4-8.5-8.6-1.5-.1-3 0-4.5.3-20.3 3.6-39.5 10.2-57.8 19.7-2.3 1.2-4.6 2.7-6.6 4.4-2.5 2-2.6 3.1-1.3 6.1.6 1.2 1.2 2.4 2 3.5 1.7 2.6 2.3 5.4 2.4 8.5.2 5.9-1.2 11.6-2.6 17.2-6.5 25.9-14.9 51.3-23 76.7-5.4 16.9-10.6 33.9-15.8 50.8-1.5 5-2.2 10.1-1.7 15.3 1 9.7 5 13.6 12.7 15.9 4.6 1.3 9.2 1 13.8.1 20.6-4.1 39.6-12.3 57.7-22.8 1.8-1.1 3.3-2.7 5.6-4.4zm-15.5-229.6c-.2 8 5.6 13.4 13.7 10.8 13.5-4.2 26.6-9.4 38.6-16.9 6.1-3.9 10.4-9.3 12.5-16.3s4-14 5.8-21.1c1.7-6.8-1.1-10.6-8.2-10.9-2.8-.1-5.6.4-8.4.8-12.9 2.1-25.3 5.5-36.4 12.7-4.6 3-8.1 6.9-10 12.1-2.1 5.8-4.1 11.6-5.7 17.5-1 3.7-1.3 7.5-1.9 11.3z"/><path d="m541.7 297.2c.6-2.9.8-4.8 1.4-6.6 4.9-13.7 10-27.4 17.2-40.1 2.8-5 6.4-9.7 10-14.2 2.5-3.2 6.1-5.1 10.3-5.4 6.9-.5 9.7 2.2 8.7 9.1-.5 3.4-1.1 6.9-2.3 10.2-4.1 11.2-8.4 22.3-12.6 33.4-1.9 5-5.5 8.2-10.7 9.4-5.3 1.3-10.6 2.7-15.9 4-1.6.2-3.3.1-6.1.2z"/></g></svg>