<svg enable-background="new 0 0 259.8 64.6" viewBox="0 0 259.8 64.6" xmlns="http://www.w3.org/2000/svg"><g fill="#231f20"><path d="m58.5-15.3c6.6 2.2 7.8 7.7 7.7 12.2 0 6.9-4.9 12.8-19.2 12.8h-26.8v-51.6h26.8c14.4 0 19.7 7.4 19.7 14.8 0 9-8.2 11.8-8.2 11.8m-25.5 13.8h18 .1c2-.4 3.5-2.1 3.5-4.1 0-2.1-1.6-4-3.7-4.3l-17.9-.1zm17.1-28.4h-17.1v8.6h17.6c2.2-.2 3.8-2.1 3.8-4.2 0-2.3-1.9-4.3-4.3-4.4" transform="matrix(1.25 0 0 -1.25 45.0025 12.08625)"/><path d="m100.8.2h45.2v-11.3h-32.6v-8.3h29.4v-11.3h-29.4v-9h32.6v-11.8h-45.2" transform="matrix(1.25 0 0 -1.25 77.2675 .255)"/><path d="m84.5.2h-27.4v-51.6h12.6v20.9h13.8c4-.1 7-3.3 7-7.3v-13.5h12.3v16.6c0 7.7-7.5 10-7.5 10s7.6 2.3 7.6 11.4c.1 11.1-9.5 13.5-18.4 13.5m6.8-16c-.2-1.7-1.9-3.5-4-3.5h-17.7v8.3h17.7c2.1 0 3.8-1.5 4-3.6" transform="matrix(1.25 0 0 -1.25 64.81125 .285)"/><path d="m29.7-24.1c-.2 0-17.2-.3-23 .2-9.5.9-12.8 7.9-12.8 13.6 0 7.1 4.9 12.4 12.4 13.3 3.6.5 23.1.2 23.3.2h.4v11.7h-.4l-22.1.1c-2.5-.2-6.5-.4-10.7-2.1-4-1.8-7.5-4.7-10.1-8.2-3.3-4.5-5.1-9.8-5.1-15.4 0-1.8.1-3.5.4-5.2 1.6-7.8 6.7-14.3 14.1-17.8 2.5-1.1 6.3-2.4 14-2.8l4.2-.1h15.4.4v12.4" transform="matrix(1.25 0 0 -1.25 23.0525 18.80875)"/></g></svg>