<svg enable-background="new 0 0 4199.5 434" viewBox="0 0 4199.5 434" xmlns="http://www.w3.org/2000/svg"><g fill="#231f20"><path d="m3836.8 5.9c1.9-.1 3.7-.3 5.5-.3h181.4c24.5 0 48.5 3.6 71.7 11.5 13.8 4.6 26.8 11 38.2 20.3 16.4 13.4 26.7 30.4 29.9 51.4 2.7 17.5 1.1 34.5-5.7 50.9-4.6 11.1-11.6 20.4-20.3 28.7-14.4 13.7-31.7 21.8-50.7 26.7-8.5 2.2-17.3 3.4-26 5-.8.2-1.6.3-2.4.6-.2.1-.3.5-.8 1.4 3.1.4 5.9 1 8.8 1.2 16.2 1.2 32 4.4 47.3 9.9 17.1 6.2 32.6 15 45.1 28.5 11.4 12.4 18.2 26.9 20.7 43.5 2.1 13.6 1.8 27.2-1 40.7-4.5 21.1-15.2 38.4-32.1 51.9-14.4 11.5-31 18.6-48.6 23.7-16.4 4.7-33.1 7.5-50.1 8.3-10.8.5-21.6.9-32.4 1-57.1.1-114.3 0-171.4 0-2.3 0-4.6-.2-6.3-.2-.7-.6-.8-.7-.9-.8s-.2-.3-.2-.4c-.1-1.3-.3-2.6-.3-4 0-132.4.1-264.8.1-397.2-.1-.6.2-1 .5-2.3zm105.7 355.2c.4.2.8.6 1.3.7 1.3.2 2.7.3 4 .3 20.6-.4 41.3.8 61.9-.8 12.4-1 24.4-3.3 35.7-8.6 9.8-4.5 17.5-11.4 22.5-21.1 4.6-9.1 6.6-18.7 7.5-28.7 1.1-12-.1-23.6-3.5-35-4.2-14.1-12.8-24.5-26-31.3-14-7.2-29-9.8-44.4-10.2-18-.5-36-.2-54-.2-1.8 0-3.5.4-5.1.5-1.1 5.2-1 130.4.1 134.4zm-1.6-182.4c2.4.2 4.3.5 6.3.5 16.8-.2 33.6-.4 50.4-.8 9.2-.2 18.2-2 26.8-5.1 15-5.4 25.6-15.5 30.1-30.9 5.4-18.3 5.3-36.8-.8-54.9-4.2-12.5-12.7-21.1-24.9-26.3-10.4-4.4-21.4-6.3-32.6-6.6-16.8-.5-33.6-.2-50.4-.2-1.6 0-3.2.4-5 .6.1 41.3.1 82.1.1 123.7z"/><path d="m1760.5 410.4c-1.7.1-3.1.3-4.6.3-12.7 0-25.3-.1-38 .1-3.1 0-5.3-.9-7.3-3.3-8.9-10.6-17.9-21-26.9-31.5-8.8-10.2-17.5-20.5-26.2-30.7-8.5-10-17.1-20-25.6-30-9.1-10.6-18.2-21.2-27.2-31.8-8.8-10.2-17.5-20.5-26.2-30.7-8.6-10.1-17.3-20.2-26-30.3-8.5-10-17.1-20-25.6-30-8.9-10.4-17.7-20.7-26.6-31.1-5-5.8-9.9-11.6-14.9-17.5-1.2-1.3-2.4-2.6-4.2-4.6-.4 1.9-.7 2.9-.8 4-.1 1.7 0 3.3 0 5v254.5 7.3c-2 .2-3.4.6-4.8.6-22 0-44 0-66 0-1.3 0-2.6-.2-4.2-.4-.3-1.3-.6-2.3-.7-3.4-.1-1.5 0-3 0-4.5 0-129.6 0-259.1 0-388.7 0-2.3 0-4.6 0-7.5 2.5-.2 4.5-.6 6.6-.6h75.5c5.7 0 11.3.1 17 0 2.7 0 4.6.8 6.4 3 13.4 15.9 26.9 31.7 40.4 47.5 14.7 17.2 29.5 34.3 44.2 51.5 14.3 16.7 28.4 33.5 42.6 50.2 12.6 14.8 25.4 29.5 38 44.3 2.8 3.3 5.6 6.5 8.9 10.4.5-1.8.9-2.9 1-3.9.1-1.7 0-3.3 0-5 0-63.4 0-126.7 0-190.1 0-2.3.2-4.6.3-6.7 4.3-1.4 69.7-1.5 74.5-.4 1.2 3.5 1.5 397.3.4 404z"/><path d="m498.8 6c2.7-.2 4.5-.4 6.3-.4h189.4c22.5 0 44.5 3 66 9.4 20.6 6.1 39.4 15.4 54.7 30.8 14.8 15 23 33.1 25.4 54 1.6 13 1.2 25.9-1.9 38.6-6.5 26.6-21.8 47-44.2 62.5-12.2 8.4-25.5 14.4-39.5 18.8-1.1.3-2.1.7-4 1.4 1.3.8 2 1.4 2.8 1.7 25 9.6 40.5 28.4 50.6 52.2 4.3 10 6.7 20.5 9.1 31.1 3.4 14.8 8.5 29 17.3 41.7 4 5.8 8.8 10.8 14.7 14.7 6.4 4.2 13.4 6.6 21.1 6.6h6.4c3.2 10.8 4.7 21.6 7.4 32.5-1.7.9-3.1 1.8-4.6 2.4-16.3 6.6-33.1 11.5-50.6 13.3-10.4 1-20.9 1.1-31.4-.6-12.5-2.1-23.2-7.9-33.1-15.5-14.3-11-23-25.7-28.4-42.5-4.1-12.8-7.6-25.8-11.3-38.8-4-14.3-9.6-28-18-40.4-15.3-22.5-36.7-34.2-63.7-35.6-9.6-.5-19.3-.6-28.9-.8-1.8 0-3.6.2-5.1.3-2.2 2.3-1.6 4.7-1.6 7v93.3 60.4c0 1.9-.2 3.9-.3 5.6-4.4 1.2-98.9 1.4-104 .2-.2-1.1-.4-2.4-.5-3.7s0-2.7 0-4c0-129.4 0-258.8 0-388.2-.1-2.4-.1-4.8-.1-8zm105.5 47.7c-.2 1.8-.6 3.4-.6 5v125.7c0 1.7.5 3.5.7 5.4 1.7.2 3 .5 4.3.5 20.3-.2 40.6-.4 60.9-.8 11.4-.2 22.5-2.8 33.1-7 17-6.8 28.9-18.6 34.8-36.1 3.3-9.8 3.5-19.9 3.3-30.1-.5-24.9-14.8-45.6-37.8-55-12.7-5.2-25.9-7.5-39.4-7.8-18.1-.4-36.3-.1-54.5-.1-1.4-.1-2.9.1-4.8.3z"/><path d="m2249.7 6c-2 2.2-3.2 3.6-4.4 4.8-19.8 19.9-39.7 39.8-59.6 59.8-24.6 24.8-49.2 49.7-73.7 74.6-2 2-3.7 4.2-5.4 6.2 1.3 4 38.1 58.2 58.2 86.7 19.9 28.3 39.2 57 58.8 85.5 19.7 28.6 39.3 57.3 58.8 85.7-.3.6-.3.8-.4.9s-.3.3-.4.3c-1 .1-2 .2-3 .2-39 0-78 0-116.9-.1-.6 0-1.3-.3-2.2-.5-4.3-6.1-8.7-12.4-13-18.7-19.2-28.2-38.4-56.4-57.6-84.6-15.6-23-31.3-45.9-47-68.8-2.3-3.4-4.7-6.8-7.1-10.2-.5-.8-1.3-1.4-2.1-2.3-1.2 1-2.2 1.8-3.2 2.7-12.2 12.3-24.4 24.5-36.6 36.8-.5.5-.9 1-1.4 1.4-3.3 3.2-4.5 6.9-4.5 11.6.2 41.7.1 83.5.1 125.2v6.9c-1.9.2-3.3.6-4.7.6-32.2 0-64.3 0-96.5 0-1.1 0-2.3-.2-3.7-.4-.2-1.2-.6-2.3-.7-3.4-.1-1.5 0-3 0-4.5 0-129.6 0-259.1 0-388.7 0-2.5.2-4.9.2-7.2 4.3-1.3 99.9-1.5 105-.1.1 2.1.3 4.4.3 6.6v161.2c0 2.1.2 4.2.3 7.1 1.5-1.1 2.3-1.6 3-2.2 1.6-1.7 3.2-3.4 4.8-5.1 11.6-12 23.2-23.9 34.7-35.9 13.7-14.3 27.4-28.6 41-42.9 13.8-14.4 27.6-28.9 41.4-43.3 13.4-14.1 26.9-28.1 40.3-42.3 2.9-3.1 5.9-4.2 10.1-4.2 26.7.1 53.3.1 80 .1 2 .1 3.9.3 7.1.5z"/><path d="m946.9 6.5c5-1.1 101.2-1.2 105.9-.2.2 1 .6 2.1.6 3.2.1 1.7 0 3.3 0 5v229c0 14.3 1.2 28.5 4 42.6 2.5 12.8 6.9 25.1 14 36.1 11.9 18.6 29.3 29.1 50.9 32.8 5.7 1 11.6 1.9 17.3 1.8 9.5-.2 18.9-1.8 27.8-5.3 17.7-6.9 29.2-19.9 36.7-36.8 5.4-12.3 8.2-25.2 9.6-38.6s1.8-26.8 1.8-40.3c-.1-74.2 0-148.4 0-222.5 0-2.3.2-4.5.3-6.6 4.4-1.3 69.9-1.5 75-.2.1 1.5.3 3.1.3 4.7 0 78.7.2 157.3-.1 236-.1 19.4-1.6 38.8-6.7 57.8-5.4 20.4-13.9 39.1-26.9 55.8-10.4 13.3-23 23.9-37.6 32.3-19.8 11.4-41.2 17.5-63.7 20.7-17.3 2.4-34.6 2.6-51.8 1.6-22.7-1.3-44.9-6-65.9-14.9-28.8-12.2-51.9-31-68.2-57.8-10.9-18-17.5-37.6-20.6-58.4-2.2-15-2.9-30.1-2.9-45.2.1-75.2 0-150.4 0-225.5.2-2.4.2-4.7.2-7.1z"/><path d="m3396.1 6.7c5-1.4 99.6-1.4 104.5-.1.1 2.1.4 4.3.4 6.6 0 77-.1 154 .1 231 0 17.8 1.6 35.5 6.8 52.7 4.2 14 10.5 26.9 21 37.5 11.3 11.4 25.3 17.6 40.8 20.6 5.1.9 10.2 1.9 15.3 1.9 27.8-.2 50.2-10.3 64-35.8 7.4-13.7 11-28.5 13.1-43.7 1.9-14 2-28.2 2-42.3-.1-73.9 0-147.7 0-221.6 0-2.3 0-4.6 0-7.3 2.2-.2 3.8-.5 5.4-.5h65c1.5 0 2.9.2 4.9.4.2 2.3.4 4.4.4 6.5v100.3c0 44.6-.1 89.2 0 133.7 0 18.9-1.6 37.5-6 55.9-7 29.4-20.7 55-43.4 75.3-12.9 11.5-27.8 19.9-44 26s-32.9 9.4-50.1 11.1c-14.3 1.4-28.7 1.5-42.9.6-27.9-1.7-54.7-8-79.5-21.3-23.9-12.8-42.9-30.7-56.4-54.3-10.2-17.7-16.1-36.8-19.2-56.8-1.5-9.9-2.2-19.8-2.2-29.8 0-80.3 0-160.7 0-241 0-1.9 0-3.7 0-5.6z"/><path d="m2957.3 81.4c-11.9 13.3-23.7 26.3-35.7 39.7-2.7-3.8-5.1-7.2-7.5-10.5-11.9-16.9-25.8-31.7-43.6-42.7-13.5-8.3-28.1-13.7-43.9-15.7-15.7-2-31.3-1.3-46.6 2.5-25.2 6.2-45 20.2-59.6 41.6-11.5 16.9-18.2 35.8-22.4 55.6-3.2 15.2-4.6 30.5-5.4 46-.5 9.5-.1 19 .5 28.4 1.8 26.4 7.5 52 19.9 75.6 9.5 18.1 22.2 33.5 39.6 44.8 14.1 9.1 29.4 14.6 46.1 16.5 21.5 2.4 42.2-.7 62.2-8.4 13.2-5.1 24.9-12.7 35.2-22.3 8.4-7.9 15.9-16.6 22.2-26.2.8-1.2 1.8-2.3 3-4 11.9 9.5 23 19.4 34.6 29.4-1.2 2.2-2 4.1-3.2 5.9-16.7 24.3-38 43.5-64 57.4-22 11.7-45.6 18.7-70.3 21.5-20.4 2.3-40.9 2.1-61.3-.5-19.3-2.4-38-7-56.1-14-20.8-8.1-39.9-19-57-33.4-16.3-13.7-30.1-29.6-40.9-48-10.3-17.5-17.4-36.2-22.1-55.9-5.4-22.9-6.3-46.2-4.6-69.4 3.1-42.9 17.4-81.8 44.4-115.6 15.6-19.5 34.3-35.8 56-48.4 26-15.1 53.8-24.5 83.6-28.6 11.9-1.7 23.9-2.7 35.8-2.5 31.6.3 62.3 5.7 91.1 19.5 27.6 13.2 50.5 32 67.4 57.8.9.9 1.5 2 2.6 3.9z"/><path d="m269.5 410.4c-35.4 0-70 0-104.8 0-.3-1.3-.6-2.4-.7-3.5-.1-1.7 0-3.3 0-5 0-107.8 0-215.5 0-323.3 0-2.4-.2-4.9-.3-7.8-2.7-.2-5-.4-7.2-.4-45 0-90 0-134.9 0-2.1 0-4.3 0-6.2 0-1.3-4.1-1.6-56.8-.6-64 .9-.2 2-.6 3.1-.7 1.5-.1 3-.1 4.5-.1h388.3c2.4 0 4.9.2 7.1.3 1.2 4.6 1.3 59 .1 64.1-2.1.1-4.4.4-6.6.4-44.6 0-89.3 0-133.9 0-2.3 0-4.6.2-7.3.4-.2 2.3-.4 4.3-.4 6.2v53.4 272.4c-.2 2.3-.2 4.6-.2 7.6z"/><path d="m3150.4 345.4c2.7.2 4.9.5 7.2.5h104.4 75 5.7c1.4 4 1.8 55.6.7 64-.9.2-2 .6-3.1.8-1.3.1-2.7.1-4 .1-94.8 0-189.6 0-284.3 0-2.3 0-4.6-.2-6.7-.3-1.2-4.9-1.1-399.6.1-404.3 1.6-.2 3.3-.5 5.1-.5h93.9c1.6 0 3.2.2 5.3.4.1 2.8.3 5.2.3 7.7v323.8c0 2.3.2 4.7.4 7.8z"/></g></svg>