<svg enable-background="new 0 0 330.7 41.7" viewBox="0 0 330.7 41.7" xmlns="http://www.w3.org/2000/svg"><g fill="#231f20"><path d="m330.7 41c-.4 0-.9 0-1.3 0-13.3 0-26.6 0-39.9 0-.5 0-.9 0-1.4 0-.3-.9-.3-38.4-.1-40 .4 0 .9-.1 1.4-.1h39.8c.5 0 1-.1 1.5-.1v9.5c-.2 0-.4-.1-.6-.1-10.5 0-21 0-31.5 0-.3 0-.5.1-.8.1v6.2h1.4 30.3 1.2v8.8c-.1 0-.2 0-.4 0-10.6 0-21.2 0-31.9 0-.2 0-.4.1-.7.1-.2 1.7-.1 5.2.1 6.2h1.1 30.5 1.1c.2 3.2.2 6.3.2 9.4z"/><path d="m191.6 0c.3.3.5.6.8.9 6.3 6.2 12.5 12.5 18.8 18.7 2.3 2.3 4.7 4.7 7.1 7 .4.4.7.8.7 1.4v12.9c0 .2 0 .3-.1.7-9.2-9.2-18.3-18.3-27.5-27.5-9.2 9.2-18.3 18.3-27.7 27.6 0-.6 0-1 0-1.3 0-3.9 0-7.8 0-11.7 0-.8.3-1.4.8-2 8.6-8.5 17.2-17.1 25.8-25.6.3-.3.7-.7 1-1 .1-.1.2-.1.3-.1z"/><path d="m68.8 30v11c-3.7.1-7.2 0-10.8 0 0-13.3 0-26.6 0-39.9.4 0 .7-.1 1-.1h34.2c2 0 4 .2 5.9.6 4.8 1.1 7.9 4 9.2 8.7 1 3.6.9 7.2-.1 10.7-1.3 4.4-4.3 7-8.7 8.1-1.9.5-3.9.7-5.9.7-7.7 0-15.3 0-23 0-.7.2-1.2.2-1.8.2zm0-9.3h1.2 23.6.7c2.2-.2 3.6-1.3 3.9-3.4.2-1.1.2-2.2 0-3.3-.3-2.1-1.8-3.2-3.9-3.3-.2 0-.4 0-.6 0-7.9 0-15.9 0-23.8 0-.3 0-.7 0-1.1.1z"/><path d="m275.5 1.3c-5.7 5.7-11.5 11.4-17.3 17.2 7.5 7.5 15 14.9 22.6 22.5-4.6 0-9 0-13.6 0-5.2-5.2-10.5-10.4-15.8-15.7-5.3 5.3-10.6 10.5-15.8 15.7-2.3 0-4.4 0-6.6 0-.2-1-.3-38.7 0-40h9.4v23.5c1-1 1.8-1.7 2.6-2.5 1.2-1.2 2.4-2.4 3.6-3.6 5.5-5.5 11-11 16.5-16.5.6-.6 1.2-.9 2-.8h11.1 1.1c.1 0 .2.1.2.2z"/><path d="m38.6 1.1h10.4c0 .3.1.7.1 1v23.7c0 2.1-.3 4.2-1 6.2-1.5 4.6-4.8 7.4-9.5 8.4-1.5.3-3 .5-4.5.5-6.4.1-12.9 0-19.3 0-1.9 0-3.7-.3-5.5-.8-4.8-1.5-7.6-4.7-8.6-9.5-.3-1.5-.5-3-.5-4.5 0-8 0-15.9 0-23.9-.2-.2-.2-.6-.2-1.1h10.4c0 .5.1.9.1 1.4v22.8c0 .9.1 1.7.3 2.6.3 1.6 1.4 2.6 2.9 3.1.9.3 1.9.5 2.9.5h15.9c.8 0 1.6-.1 2.4-.3 2.3-.6 3.6-2.3 3.7-4.8 0-.3 0-.6 0-1 0-7.6 0-15.2 0-22.8 0-.5 0-.9 0-1.5z"/><path d="m133.8 10.7c-6.3 0-12.4 0-18.5 0-.2-1-.3-8.3-.1-9.6h47.9v9.5c-6.2 0-12.3 0-18.6 0v30.3c-3.6 0-7.1 0-10.8 0-.1-1.4 0-2.8-.1-4.2 0-1.4 0-2.9 0-4.3s0-2.9 0-4.3c0-1.5 0-2.9 0-4.4 0-1.4 0-2.9 0-4.3s0-2.9 0-4.3c.2-1.4.2-2.8.2-4.4z"/></g></svg>