<svg enable-background="new 0 0 1198.7 533.1" viewBox="0 0 1198.7 533.1" xmlns="http://www.w3.org/2000/svg"><g fill="#231f20"><path d="m331.7 0c2.6.6 5.1 1.2 7.7 1.7 20 3.7 37.2 12.9 52.9 25.6 16.7 13.6 30.1 30.1 41.2 48.4 19.1 31.3 31.2 65.2 38.8 100.9 3.9 18.1 6.5 36.3 7.8 54.7 1.5 20.4 1.7 40.9.6 61.3-1.3 23.1-4.1 46-9.4 68.5-8.8 37.6-22 73.5-43.7 105.8-11.5 17.1-25.3 32.1-42 44.4-15.9 11.6-33.6 18.9-53.1 21.4-10.9 1.4-21.6-.4-32.1-3.2-6.1-1.6-12-3.9-18.8-6.2-26.9 12.4-54.8 13.5-82.8.3-6.4 2.1-12.8 4.4-19.3 6.3-19.4 5.5-38.2 3-56.6-4.2-27.1-10.6-47.8-29.1-64.6-52.3s-29.1-48.7-38.1-75.9c-7.7-23.4-13.2-47.2-16.2-71.5-1.3-10.6-2-21.2-3-31.7-.2-2-.7-3.9-1-5.8 0-14.6 0-29.3 0-43.9.4-2.1.9-4.2 1-6.3.8-18 3-35.8 6.4-53.4 6-31.3 15.6-61.4 29.8-90 12-24.2 27.1-46.1 47.5-64.1 16.6-14.7 35.4-25.2 57.5-29.2 2.2-.4 4.4-1 6.6-1.6h16c1.1.4 2.1.8 3.2 1.1 5.8 1.4 11.7 2.4 17.4 4.1 4.6 1.3 9 3.3 13.1 4.8 5.6-2 10.9-4.2 16.3-5.6 5.6-1.5 11.4-2.3 17.1-3.5.6-.1 1.2-.5 1.8-.8h12c2.9.5 5.8 1.1 8.7 1.6 9.5 1.6 18.7 4.5 27.7 8.5 8.8-3.8 17.9-6.7 27.4-8.5 2.4-.4 4.8-1 7.2-1.6 5-.1 10-.1 15-.1zm-159.4 505.3c-10.1-7.7-22.4-20.9-31.1-33-13.4-18.4-23.8-38.4-32.1-59.5-17.5-44.6-24.9-91.1-25.9-138.8-.4-19.1.7-38.2 2.7-57.3 2.3-21.7 6.3-43 12.3-64 8.8-30.8 20.8-60.2 39.1-86.9 11.3-16.4 24.4-31.2 40.3-43.3.9-.7 1.7-1.4 2.5-2.1-5.9-7.2-16.9-16.5-23-19.4-12.5 8.5-23.7 18.7-33.8 30.1-26.3 30-44.9 64.2-57.6 101.8-12.1 35.7-18.1 72.5-19.7 110-1.5 35.8.1 71.5 6.7 106.8 6.9 36.3 18.4 71 36.5 103.3 13.6 24.2 29.7 46.6 50.4 65.3 5.6 5.1 11.5 10 18 14 1.7-1.2 3.3-2.2 4.7-3.3 13-9.5 24.5-20.5 34.6-33 20.5-25 36.3-52.7 47.9-83 16.3-42.7 23.3-87.1 24.8-132.6.7-21.6-.2-43.2-2.6-64.7-1.9-16.9-4.6-33.6-8.7-50-2.8-11.1-6-22.1-9-33.3 7.2-21.3 16.6-42.8 21.8-49.4.6 1 1.3 1.9 1.8 2.9 3.2 6.4 6.7 12.6 9.6 19.1 20.8 45.9 30.1 94.4 31.8 144.5.5 15.8-.2 31.6-.8 47.4-.7 18.6-3.4 37-7.1 55.3-5.8 28.6-14.6 56.2-27.5 82.5-5 10.1-10.6 19.9-16.2 30.4 3.6 5.5 7.5 11.4 11.6 17.7-6.3 7.7-12.4 15.3-18.8 23.1-5.3-4.7-10.1-9-14.7-13-8.1 7.1-16 14-23.8 20.7 7.5 6.4 14.8 13.7 23.6 18.6 8.6-5.3 19.8-14.7 29.9-25.5 22.9-24.6 40.2-52.9 53.2-83.7 17.1-40.4 25.3-82.8 27.9-126.4 1.6-26.4 1-52.8-1.7-79.2-2.4-23.7-6.7-47-13.4-69.9-9.7-33.2-23.9-64.4-44-92.8-.8-1.1-1.4-2.2-2.3-3.8 6.2-7.6 12.3-15.2 18.6-22.9 1.2.9 2.2 1.3 2.8 2 7.3 7.5 15 14.7 21.7 22.7 16.6 19.8 28.5 42.5 38 66.3 15.8 39.6 23.7 80.9 25.8 123.3 1.3 26.6.7 53.2-2.6 79.7-3.1 25.1-8.4 49.7-16.4 73.8-8.6 25.8-19.6 50.4-35.2 72.9-11.6 16.8-25.4 31.6-42.5 43.9 7.2 7.4 14.9 13.8 23.3 19.7 1.4-1 2.7-1.8 3.8-2.7 18.4-13.8 33.7-30.6 47.1-49.2 19.3-26.8 33.2-56.3 43.1-87.7 11.3-35.9 16.4-72.9 17.6-110.4 1.1-34-1.2-67.8-7.6-101.2-8.7-46.8-25.9-90.1-53.4-129.2-9.4-13.4-19.9-25.8-32.1-36.8-5.8-5.2-11.7-10.3-18.5-14.5-1.4.9-2.6 1.7-3.8 2.5-11.6 8.3-21.9 18-31.2 28.6-21.3 24.4-37.5 52-50 81.8-10.3 24.6-17.1 50.3-21.3 76.6-3.7 22.7-6 45.5-5.8 68.5.1 13.6.2 27.3 1.1 40.9.9 13.1 2.4 26.1 4.4 39.1 3 19.5 7.7 38.7 13.9 57.5.8 2.3.9 4.4 0 6.7-4.9 11.8-9.5 23.7-14.5 35.5-1.7 3.9-3.9 7.7-6 11.9-.7-1.1-1.3-1.8-1.6-2.5-4.7-9.5-9.8-18.9-13.9-28.7-16.9-39.9-25-81.8-27.7-124.9-1.4-21.6-1-43.2.7-64.8 1.7-21.7 5-43.2 10.3-64.4 6.7-27 16.1-53 29.3-77.6 3.4-6.4 7.2-12.7 11-19.5-3.6-5.5-7.3-11.1-11.1-17 5.9-8.1 11.9-15.9 19.1-23.2 5 4.4 9.5 8.5 13.9 12.4 7.9-6.9 15.6-13.5 23.2-20.1-3.2-4.5-14.9-14.2-22.5-18.7-1.3.8-2.7 1.7-4.1 2.7-9.7 6.8-18.7 14.5-26.7 23.2-23.1 24.9-40.5 53.5-53.5 84.8-15.8 38-23.9 77.7-26.9 118.5-1.6 21.6-1.6 43.2-.4 64.8 1.3 22.9 4.2 45.6 9.2 68.1 9.4 41.9 25.4 81.1 50.4 116.2.6.8 1 1.6 1.8 2.9-6.3 7.6-12.4 15.1-18.7 22.9z"/><path d="m958.4 363.7h14.9c-7.2 20.9-14.2 41.3-21.3 62-68 0-135.9 0-204.3 0-.1-1.9-.1-3.8-.2-5.7 0-2 0-3.9 0-5.9 4.5-.9 8.6-1.5 12.5-2.6 10.8-2.9 16.4-9.3 17.5-20.4.6-5.9 1-11.9 1-17.9.1-71.7.1-143.3 0-215 0-6-.3-12-1-17.9-1.1-9.5-6.6-15.7-15.6-18.7-2.8-.9-5.8-1.4-8.7-2-1.7-.4-3.5-.6-5.4-.9 0-4 0-7.6 0-11.5h135v12c-3.4.5-7 .8-10.6 1.4-3.3.6-6.6 1.2-9.7 2.1-7.3 2.2-12 7.2-13.3 14.7-1 5.9-1.9 11.9-1.9 17.8-.1 68.2-.1 136.4-.1 204.5 0 8.3.8 16.6 2.8 24.7 1.8 7.1 6 11.9 13 13.7 6.1 1.5 12.4 2.6 18.6 3.1 6.8.5 13.6.3 20.5.2 24.4-.3 42.2-11.3 53.4-32.9.8-1.5 1.6-2.9 2.4-4.4 0-.1.2-.2.5-.4z"/><path d="m1177.4 425.8c-68.1 0-135.8 0-203.8 0-1.1-4-.8-7.8-.2-11.9 3.7-.7 7.3-1.2 10.9-2.1 12.2-3 18.1-9.9 19-22.4.5-7.1.9-14.3.9-21.4.1-69 .1-138.1 0-207.1 0-6.1-.3-12.3-.8-18.4-.9-11.4-7.7-19.1-18.7-21.8-2.3-.5-4.6-.8-6.9-1.2-1.4-.3-2.9-.6-4.5-1 0-3.8 0-7.4 0-10.9 4-.9 129.6-1.1 135.1-.2v11.7c-3.6.5-7.2.8-10.7 1.5-3.7.7-7.5 1.4-11.1 2.6-6.1 2-10.1 6.4-11.6 12.7-1 4.3-1.8 8.8-2 13.3-.4 7.8-.3 15.6-.3 23.5v183.2c0 8.8.3 17.6 2 26.3 1.8 9.2 6.9 14.9 16 16.9 5.3 1.1 10.8 2.1 16.2 2.4 7.6.4 15.3.3 23 .1 7.5-.2 14.8-1.8 21.8-4.7 11.5-4.7 20-13 26.4-23.5 1.9-3.1 3.6-6.3 5.4-9.6h15.2c-7.1 20.7-14.2 41.3-21.3 62z"/><path d="m592 118.7c-.1-1.1-.3-1.9-.3-2.7 0-2.8 0-5.6 0-8.3 3.9-1.1 129.5-1.3 135.1-.2v11c-1.3.3-2.5.8-3.8 1-2.3.4-4.6.7-6.9 1.2-11.8 2.6-18.5 9.9-19.8 21.9-.6 5.4-1 10.9-1 16.4-.1 60.9-.1 121.8-.1 182.6 0 13.9-1.5 27.5-5.9 40.8-9 27.4-28 43.8-56 49.7-18.3 3.9-36.7 3.8-54.9-.7-25.2-6.3-41.5-22.1-49.6-46.5-2.2-6.6-3.6-13.4-5.5-20.8 5.7-.4 10.5-.3 15.6-.1.6 1.8 1.1 3.3 1.7 4.9 6.3 17 17.5 28.9 35.6 33.1 8.2 1.9 16.5 1.5 24.6-1.1 8.4-2.6 14.5-8 18.7-15.6 3.5-6.4 5.5-13.3 6.1-20.4.9-9.3 1.6-18.6 1.6-27.9.1-53.9.1-107.8 0-161.7 0-9.3-.2-18.6-.6-27.9-.2-3.8-.9-7.6-1.8-11.3-1.5-6.7-5.9-11.2-12.3-13.2-4.9-1.5-10-2.2-15.1-3.2-1.7-.5-3.5-.7-5.4-1z"/></g></svg>