<svg enable-background="new 0 0 997.7 136.3" viewBox="0 0 997.7 136.3" xmlns="http://www.w3.org/2000/svg"><g fill="#231f20"><path d="m344.5 136.3c-2.6-.8-5.3-1.6-7.9-2.4 0-.2 0-.3 0-.5h2.8c8.6.5 17-.4 24.9-4 15.3-6.9 23.8-18.6 24.2-35.6 0-1.5.2-2.9.3-4.8 1.6-.2 3.1-.3 4.5-.5 2.4-.5 4.8-1 7.2-1.6 2.9-.8 4.9-2.6 5.9-5.4.8-2.1 1.9-4.2 2.8-6.3 2.1.3 3.1 1.4 3.2 3.6.2 5.6-3.6 10.8-9.2 11.9-1.8.4-3.6.5-5.4.6-4 .3-5.3 1.5-5.6 5.4-.2 3-.1 6-.6 8.9-2.8 15.3-12.7 24.1-27.2 28.6-2.7.8-5.4 1.4-8.1 2.1-3.8 0-7.8 0-11.8 0z"/><path d="m318.1 60.5c-1.9-5.6-3.8-11-5.9-17-1.5-.7-3.6-1.5-5.7-2.5-4.7-2.2-8.9-5.1-12.3-9.1-8-9.4-7-23.2 1.7-31.9 1.6.5 3.6.8 5.3 1.7 4.1 2 4.8 5.4 1.7 8.8-1.3 1.4-3 2.5-4.7 3.7-1.2.8-2.5 1.5-3.7 2.2-.4 9.6 7.4 18.1 19 20.8.5-1.1 1.2-2.2 1.6-3.3 4.8-11.7 13.9-17.8 26.2-19.3 5.9-.7 12-1.1 17.8.8 3.1 1 6.2 2.4 8.9 4.3 7 5 7.4 14.1.7 19.5-3.1 2.5-7.1 4.4-10.9 5.6-8 2.4-16.2 3.5-24.6 2.4-2.1-.3-4.3-.2-6.3-.3-.9 4.2-.8 4.8 2.1 10.4 1.4-.2 3-.5 4.6-.7 5.3-.7 10.6-1 15.8.9 3.2 1.2 6.1 3 6.5 6.8.3 3.1-2.3 6.8-6.1 8.4-4.3 1.8-8.8 1.9-13.2.3-3.7-1.3-7.2-3.3-11.3-5.2-3.9 2.3-6.3 6.4-8.2 10.8-5.6 12.7-3 26.1 7 34.3 15.4 12.7 41.4 8.7 51.3-10.6 2.6-5.1 2.2-10.5 1.9-15.9-3.3-1-14.8-1.3-17.3-.4-5.4 1.7-6.6 5.9-2.8 11 1.2-.3 2.6-.8 4-1 1.8-.3 4-.7 4.9 1.2.6 1.3.1 3.1 0 4.7 0 .4-.5.8-1.2 1.7-2.2-.3-4.6-.4-7-1-4.8-1.2-7.9-4.2-8.5-9.2-.6-5.2 1.2-9.5 5.7-12.4 3.8-2.4 8-3.2 12.4-2.8 6.4.6 12.9 1.7 19.3 2.3 3.9.4 8 1.4 11.5-2.1-.4-1.3-1-2.7-1.2-4.1-.7-4.3 1.7-6.3 5.8-4.7.8.3 1.4.8 2.1 1.1 1.5 8.1-3.3 14.3-11.3 14.8-7.7.5-8.1.9-8.4 8.3-.5 15.6-8 26.7-22.4 32.8-14.3 6-28.6 5.5-42.3-1.9-21.7-11.7-26.2-42.9-8.5-59.4 2-1.9 4.2-3.4 6-4.8zm8.6-20.5c1 .4 1.8.9 2.6.9 5.8.1 11.7.4 17.4-.1 4.8-.4 9.4-2 13.2-5.3 2.6-2.3 4.5-5 3.7-8.7-.7-3.4-3.6-4.7-6.5-5.5-13-3.6-28.5 3.2-30.4 18.7zm4.9 22.9c3.6 4 7.3 6 12.2 5.1 1.9-.3 3.5-1.2 3.8-3.3.2-2.3-1.5-3.3-3.3-3.7-4.2-.8-8.4-1-12.7 1.9z"/><path d="m171.7 73.4c5.7 3.3 8.1 8.5 9.8 14.1.1.3.2.6.3 1 3.1 8.1 2.1 8 10.8 10.6-.4 1.8-.9 3.7-1.4 6.1-4.8 0-9.6.4-14.4-.2-1.7-.2-3.8-2.2-4.7-3.9-1.7-3.1-2.8-6.7-4.1-10.1-1-2.6-1.6-5.4-2.7-8-1.9-4.4-5.2-6.7-10.1-6.5-4 .2-7.9 0-12.4 0-.4 6.4-.3 12.4-.1 18.5.1 2.9 3 2.7 4.8 4-.4 1.7-.8 3.5-1.1 5.1-3.5 1.2-15.2 1.4-21.1.4-.5-1.7-1-3.6-1.4-5.3 5.1-2.6 5.1-2.6 5.1-8.1 0-13.7-.1-27.5 0-41.2 0-3.7-.4-6.7-5.2-7.2.6-2.2 1-4.1 1.5-6.2 1.3-.1 2.4-.3 3.5-.3h31c4.7 0 9.3 1 13.5 2.9 6.4 2.9 10.2 7.8 10.7 14.9.5 7.4-1.9 13.3-8.4 17.3-1.3.6-2.4 1.3-3.9 2.1zm-29-5.5c6.6-.3 12.5-.3 18.4-.9s9.4-5 9.4-10.4c0-5.7-2.1-10-9-11.3-6.1-1.2-12.4-.4-18.8-.4z"/><path d="m582 98.8c-.6 2.2-1 4.1-1.5 6.1-6.9 0-13.5 0-20.5 0-.5-1.8-1.1-3.7-1.7-5.9 5.1-.9 5.2-4.4 5.1-8.3-.1-5.4 0-10.8 0-16.5-11.3 0-22.1 0-33.2 0-.2 1.2-.5 2.4-.5 3.7-.1 4.5.1 8.9-.1 13.4-.1 3.6.3 6.7 5 7.4-.5 2.2-1 4.1-1.5 6.2-7 0-13.7 0-20.8 0-.5-2-1-3.8-1.5-5.9 1.5-.7 2.9-1.3 4.6-2 .2-2.2.7-4.5.7-6.7.1-13.1 0-26.1 0-39.2 0-.3 0-.7 0-1-.2-5.3-.3-5.5-5.2-7.9.5-1.9 1-3.7 1.5-5.7h20.7c.5 1.8 1 3.6 1.6 5.7-1.5.8-2.9 1.6-4.6 2.6v19.3h33.1c.3-6.5.2-12.8 0-19.2-1.8-1-3.2-1.8-4.7-2.7.5-1.7.9-3.5 1.5-5.5h20.7c.5 1.7 1 3.6 1.6 5.8-4.7.8-5.4 4.1-5.4 8.1.1 13.6 0 27.1 0 40.7-.3 3.5.4 6.7 5.1 7.5z"/><path d="m844.9 71.1c-.9 4.8-1.3 9.8-2.8 14.5-3 9.9-9.9 16.2-20 18.9-7.9 2.1-15.8 2.3-23.6.4-12.8-3-20.4-11.2-23.1-23.8-1.6-7.5-1.4-15.1.5-22.6 2.9-11.7 10.2-19 21.9-22 7.9-2 15.8-2 23.7.1 12.8 3.3 21 12.9 22.5 26 .3 2.8.4 5.6.5 8.4.1 0 .3.1.4.1zm-56.4-.4c.2 0 .4 0 .6.1 0 2.1-.2 4.3 0 6.4 1.1 11.9 7.1 18.2 19 19 10.5.7 18.7-3.2 21.1-15.1 1.5-7.1 1.5-14.1-.1-21.1-.5-2.2-1.4-4.4-2.5-6.4-1.8-3.5-4.8-5.9-8.6-7.1-4.3-1.4-8.7-1.8-13.3-1-8.2 1.5-13 6.3-14.8 14.1-.7 3.6-.9 7.4-1.4 11.1z"/><path d="m742.1 93.1c0-4.8 0-9.7 0-15.1-2.3-.7-4.4-1.4-6.7-2.1.4-1.9.8-3.8 1.4-6.1h12 12.1c.5 2.2 1 4 1.4 5.8-.5.4-.7.8-1 .9-5.7 1.2-6.1 1.5-6.2 7v5c.1 3.6.1 3.6 3 6.6-.4 1.6-.8 3.3-1.2 5-11.9 4.2-23.7 7.5-36.6 5.4-15.7-2.6-26.3-13.3-28.3-28.9-.7-5.4-.4-10.6.8-15.7 3.1-13 11.5-21 24.4-24.2 13-3.3 25.4-1.2 37.1 5.1.4.2.8.6 1.4 1.1-1 4.1-2 8.2-3 12.7-1.5.1-2.9.2-4.4.3-4.5-9.9-12.8-11.7-22.2-10.6-10.2 1.1-16.6 7.2-19.1 16.9-1.4 5.5-1.4 11.1-.2 16.7 2.4 11.7 11 18 24 17.8 4.5-.2 7.7-1.4 11.3-3.6z"/><path d="m45 70.1h24c.3 1 .6 2.1.9 3.2.2.9.4 1.9.6 2.7-2.3.8-4.5 1.5-6.9 2.3 0 4.5-.2 8.6.1 12.7.1 1.4 1.4 2.7 2.5 4.6-.3 1.2-.6 2.9-1 4.8-9.6 2.8-18.9 6.7-29.2 5.8-4.6-.4-9.3-.9-13.7-2.3-13.8-4.5-21-14.5-22.2-28.9-.4-5 0-10.3 1.2-15.2 2.7-11.1 9.9-18.7 20.8-22.2 14.4-4.7 28.1-2.5 41.8 4.9-1 4.4-2 8.6-3.1 13.1-1.5.1-2.8.2-4 .3-6.7-10-16.3-13.3-27.6-9.5-7.8 2.6-12.2 8.3-14.1 16-1.5 5.9-1.4 11.8.1 17.7 2.9 11.2 11.2 16.9 24 16.5 3.9-.1 7.9-.9 11.7-3.4 0-3.5 0-7.1 0-10.7-.1-4.2-.6-4.7-4.7-5.6-.6-.1-1.3-.2-2.4-.3.3-2.5.7-4.4 1.2-6.5z"/><path d="m907.2 96.5c-1.6-4.1-3-7.7-4.5-11.5-9.7 0-19.2 0-29 0-1.4 3.9-2.8 7.7-4.3 11.6 1.8 1 3 1.7 4.5 2.4-.4 1.8-.8 3.5-1.2 5.1-3.5 1.1-12.4 1.3-18.8.4-.4-1.7-.9-3.5-1.4-5.8 4.3-.7 5.7-3.9 7.1-7.4 6-15.2 12.1-30.4 18.2-45.6.1-.3.1-.6.2-1.4-1.2-.8-2.5-1.6-4-2.6.4-1.7.9-3.4 1.4-5.4h28.1c.5 1.8 1 3.6 1.6 5.5-1.5.8-2.7 1.5-4.1 2.3.4 1.3.7 2.3 1.1 3.4 5.9 14.7 11.8 29.4 17.6 44.2 1.3 3.2 2.6 6.1 6.8 6.7-.4 2.1-.7 4-1 6-3.7 1-7.2.4-10.7.5-3.3.1-6.6 0-10.3 0-.6-2-1.1-3.9-1.6-5.9 1.3-.6 2.5-1.4 4.3-2.5zm-7.8-20.9c-3.8-10.4-7.4-20.1-10.8-29.5-3.7 9.6-7.4 19.4-11.2 29.5z"/><path d="m597.7 104.8c-.5-1.9-1-3.6-1.6-5.7 5.6-1 5.3-5.1 5.3-9.2 0-13.2 0-26.5 0-39.7 0-5.4-.1-5.5-5-8 .1-.8.1-1.6.3-2.4.3-1.1.7-2.2 1.1-3.3h48.2v13.9c-1.5.5-3.2 1-4.9 1.5-2.1-7.1-3.7-6.4-8.5-6.7-5.6-.3-11.3-.1-17.4-.1-.5 6.6-.1 12.8-.2 19.3 1.2.2 2.3.5 3.4.5 3.8.1 7.7.1 11.5 0 4.9-.1 4.9-.1 7.7-4.4 1.4.4 3 .8 4.6 1.3v14.9c-1.5.6-3 1.1-4.6 1.7-1-1.4-1.6-3.1-2.9-3.8-1.5-.8-3.5-.8-5.3-.8-4.6-.1-9.2 0-14.1 0v21.6c1.3.2 2.5.4 3.8.4 5.5 0 11-.1 16.5.1 4.8.2 8.6-.8 9.6-6.6 2 .3 3.7.6 5.8 1-.5 5-1 9.5-1.5 13.9-4.1 1.1-43.4 1.4-51.8.6z"/><path d="m952.4 45.7c-4.3 0-8.8-.1-13.2 0-3.7.1-4.6 3.3-5.8 6.3-1.8-.4-3.3-.8-5.4-1.3.5-4.8 1-9.5 1.6-14.3h60.9c.5 4.7 1 9.2 1.6 14.2-2 .5-3.6 1-5.6 1.5-1-5.9-4.8-6.9-9.6-6.6-3.1.2-6.2 0-9.6 0-.2 1.7-.4 3-.4 4.3 0 13.9.1 27.8-.1 41.6 0 3.7.5 6.6 5.2 7.2-.5 2.2-1 4.1-1.5 6.2-6.9 0-13.7 0-20.6 0-.3-1.1-.6-2-.8-2.9-.2-.8-.4-1.6-.7-2.7 1.3-.8 2.7-1.5 4-2.3.9-3.8 1.1-45.6 0-51.2z"/><path d="m499.4 36.7c.5 4.6 1 9 1.5 13.8-1.7.5-3.4 1.1-5.3 1.7-.5-1.2-.9-2-1.3-2.9-1-2.5-2.8-3.6-5.4-3.6-4.1 0-8.3 0-12.8 0-.2 1.5-.5 2.7-.5 4 0 14 0 28.1-.1 42.1 0 3.5.6 6.3 5 7-.4 2.2-.8 4.1-1.2 6.2-7.1 0-13.8 0-20.9 0-.5-1.9-.9-3.6-1.4-5.6 1.4-.9 2.8-1.7 4.1-2.4 1.1-4 1.5-44.1.4-51-4.6-.4-9.4-.5-14.1 0-3.2.3-4 3.1-5.1 6.2-1.7-.4-3.4-.8-5.5-1.2.5-4.8 1-9.3 1.4-13.8 3.9-1.2 53.3-1.4 61.2-.5z"/><path d="m221.5 95.7c7.7 0 15.3.1 22.9 0 3.9-.1 5.1-3.2 6.1-6.6 1.8.4 3.5.7 5.8 1.2-.5 4.8-1 9.5-1.5 14-3.9 1.1-43.3 1.4-50.7.5-.3-.8-.7-1.7-1-2.6-.2-.9-.3-1.9-.5-3.2 4.4-1.1 5.1-4.2 5.1-8.2-.2-13.5-.1-27.1 0-40.6 0-3.6-.4-6.7-5.2-7.3.5-2.2.9-4.1 1.4-6.2h20.8c.5 1.9 1 3.8 1.5 6-3.7.6-5.3 2.8-5.3 6.4.1 15 .1 30.1.1 45.1-.1.2.1.5.5 1.5z"/><path d="m105.9 104.9c-7.1 0-13.7 0-20.5 0-.5-2-1-3.8-1.6-6.1 5.2-.7 5.2-4.2 5.1-8.1-.1-13.5-.1-27.1 0-40.6 0-3.9-.5-6.9-5.1-7.6.5-2.1.9-3.8 1.4-6.1 3.4-.1 6.8-.1 10.2-.2h10.2c.6 2 1.1 3.9 1.8 6-.7.3-1.4.7-2.1 1-2.2.8-3 2.4-2.9 4.6v5.4c0 12.7.1 25.4 0 38.1 0 3.6.2 6.7 5 7.3-.5 2.2-.9 4-1.5 6.3z"/><path d="m847.2 60c2.9 5.3 3.4 10.4 3.4 15.4 0 5.5-.6 11.3-2.1 16.6-2.6 9.4-8.9 15.8-18.3 18.7-10.8 3.3-21.6 3.1-32.1-1.3-.8-.3-1.5-.8-2.1-1.7 1.7.3 3.5.7 5.2.9 1.8.2 3.6.5 5.5.5 11.8.4 22.8-1.6 31.5-10.6 5.5-5.8 8.1-12.8 8.9-20.5.5-4.2.1-8.5.2-12.8-.1-1.5-.1-3-.1-5.2z"/><path d="m376.6 27.1c4.7 5.3 4.8 11.4.7 16.2-2.6 3.1-6.1 5-9.9 6.4-7.4 2.7-15.1 3.6-23 3.3-3.1-.1-6.3-.5-9.4-.5-1.3 0-2.6.8-4.2 1.3-.4-1-.8-2-1.3-3.2.9-.2 1.5-.4 2.1-.3 7.3.3 14.6.6 21.8-1.1 3.5-.8 7.1-1.7 10.4-3.1 7.8-3.6 13.2-9 12.8-19z"/><path d="m655.4 112.1c-10.6 0-20.4 0-30.2 0-6.1 0-12.3 0-18.4 0-2.1 0-3.7-.5-3.2-3.7h48.2c.6-4.2 1.2-7.9 1.8-11.8 1.3.3 2.2.5 3.5.8-.7 4.9-1.2 9.6-1.7 14.7z"/><path d="m257.1 108.4c.6-4.1 1.2-7.6 1.7-11.4h3.3c.3 4.9-1 9.7-1.3 14.3-4 1-45.1 1.2-50.8.3-.1-.8-.3-1.7-.6-3.2z"/><path d="m20.6 83.7c-4.3-9-4.6-17.9-.2-26.6.9-1.9 2.5-3.5 4.1-4.9 6.4-5.3 17.5-5.6 25.4-.5-2.4 0-4 0-5.7 0-13.6 0-22.6 8.2-23.6 21.6-.2 3.5 0 6.9 0 10.4z"/><path d="m711.8 83.5c-3.7-8.2-3.9-16.5-.6-24.8 2.1-5.2 6.2-8.5 11.7-9.8 6.5-1.6 12.8-1.4 19.6 3.1-9.9-.7-18.3-.1-24.6 7.1-6 7-6.1 15.6-6.1 24.4z"/><path d="m482 52.3v5.8 32.7c0 1.5.7 3.4-1.7 4.5-.5-.6-1.4-1.3-1.5-2-.3-1.6-.2-3.3-.2-4.9 0-11.6 0-23.1 0-34.7 0-1.6.1-3.2.2-5.1 4.1-.4 7.9-1 11.5.5.7.3 1 1.4 1.8 2.6-3.7.3-6.7.4-10.1.6z"/><path d="m67.6 102.9c.5-1.6.9-3.4 1.4-5.1 1.1 1.3 2.2 2.5 3.5 4-.3 1.4-.7 3.1-1.2 5.1-8.6 2.7-17.1 6-26.4 6-6.1 0-15.3-.6-22.9-5.4 3.9.5 7 .9 10.1 1.3 8 1 15.8-.1 23.5-2.5 3.8-1.1 7.6-2.1 12-3.4z"/><path d="m714.9 107.6c2.6.4 5.2.8 7.8 1.1 9.4 1.3 18.4-.1 27.3-3.2 2.8-1 5.7-1.5 9.1-2.4.4-1.3.9-3 1.6-5.1.6 1.7 1.1 3.2 1.7 4.8.6-.4 1.2-.9 1.8-1.3-.4 1.9-.9 3.8-1.3 5.7-8.5 2.2-16.4 5.7-25.3 5.7-7.9 0-15.7-.9-22.7-5.3z"/><path d="m229.3 45.9c.3-1 .5-1.7 1.1-3.6.8 3 1.3 4.9 1.9 6.9-5 1.9-5 1.9-5 7.2v30.6 5.2c-1 .1-1.8.2-2.9.4 0-15.5 0-30.7 0-46.1 1.6-.3 3.1-.4 4.9-.6z"/><path d="m970.2 48.8c8.7-1.1 10.4-.8 12.6 2.6-3 1.5-6.2.1-9.7 1.2-.1 1.3-.2 2.9-.2 4.5v33.2c0 1.6-.1 3.2-.2 5.5-1.3-.9-2.2-1.1-2.5-1.7-.3-.7-.2-1.6-.2-2.4 0-13.5 0-27.1 0-40.6 0-.8.1-1.4.2-2.3z"/><path d="m581.1 95.7c-.5-1.3-1.2-2.2-1.2-3 0-14.9 0-29.8 0-44.6 0-.5.3-.9.6-1.6 1.4-.2 2.8-.4 4.4-.6.3-.8.6-1.7 1.4-3.7.8 3 1.3 4.9 1.9 7.3-4.8.2-5.3 3.2-5.3 6.9.1 11.4 0 22.8 0 34.2 0 1.6.6 3.3-1.8 5.1z"/><path d="m106 46.3c1.6-.1 3.1-.2 4.6-.3.3-.9.5-1.8 1-3.9.8 3.1 1.4 5.1 2 7.4-4.9.2-5.2 3.4-5.2 7 .1 11.1 0 22.2 0 33.2 0 1.3.2 2.7-.2 3.9-.2.6-1.2 1.1-2.4 2.1.2-16.9.2-33 .2-49.4z"/><path d="m321.9 105.8c-7.2-10.5-5.5-25 3.9-34.6 1.5.9 3.1 1.9 4.8 2.9-10.1 11.9-10.1 20.8-8.7 31.7z"/><path d="m560 77.2v3.3c-8 0-15.9 0-24.3 0-.2 5.1-.3 9.8-.5 15.5-1.4-1.3-2.6-1.8-2.6-2.3-.1-5.4-.1-10.8-.1-16.4 9.4-.1 18.2-.1 27.5-.1z"/><path d="m875.7 88.2h24.6c.5 1 1 1.9 1.7 3.4-7.4 0-14.3 0-21.2 0-.9 1.3-1.7 2.3-2.5 3.5-1.3 0-2.8 0-4.5 0-.4-2.7 1.3-4.4 1.9-6.9z"/><path d="m181 77.9c-1.2-1.4-2.2-2.7-3.4-4.2 6.7-5.1 10.2-11.7 9-20.9 6.4 8.2 3.6 19.7-5.6 25.1z"/><path d="m301.1 22.1v4c-2.7-2.2-3.3-4.7-3.7-7.6 4.2-3 8.9-5.4 10.5-10.8 3.9 2.1 4.8 4.8 2.3 7.7-1.5 1.7-3.4 3.1-5.3 4.4-1.1 1-2.5 1.5-3.8 2.3z"/><path d="m359.2 65c4.7 3.9 4.3 9-.9 11.3-.9.4-2 .5-2.7 1.1-5 3.6-9.9 2.4-16.1-.4 10.2.5 17.1-2.5 19.7-12z"/><path d="m91.1 108.4h16.7c.7-1.4 1.2-2.5 1.9-3.9 1.2.3 2.4.6 3.9.9-.5 2.2-.9 4-1.5 6.3-1.6.1-3.2.3-4.8.3-4.3 0-8.6 0-12.9 0-2.2.1-3.7-.4-3.3-3.6z"/><path d="m584.2 104.5c1.2.3 2.3.5 3.9.9-.5 2.2-1 4.2-1.5 6.4-6.8 0-13.4 0-20.3 0-.3-.8-.6-1.8-1.1-3.2h16.7c.8-1.4 1.4-2.5 2.3-4.1z"/><path d="m153.6 105.4c-.5 2.2-1 4.1-1.5 6.4-2 .1-3.9.2-5.8.3-4.2 0-8.3 0-12.5 0-2.1 0-3.1-.8-2.8-3.5h16.6c.8-1.5 1.4-2.7 2.1-4 1.2.2 2.4.5 3.9.8z"/><path d="m621.1 52.2c-.2 3.2-.3 6.2-.5 9.1-1.8.6-2.7.2-2.7-1.4-.1-3.8 0-7.5 0-11.7 6 0 11.4-.1 16.8 0 1.4 0 2.6.7 2.5 2.9-5.1 1.6-10.6 0-16.1 1.1z"/><path d="m978 105.1c-.6 2.5-1 4.4-1.5 6.6-6.8 0-13.5 0-20.4 0-.3-.8-.7-1.7-1.2-3.1h17c.5-.9.9-1.4 1.2-1.9.3-.6.5-1.2.9-2 1.1.1 2.2.2 4 .4z"/><path d="m910.5 112.1c-.2-1.4-.4-2.2-.6-3.5h16.9c.8-1.5 1.3-2.6 2-4 1.1.3 2.4.5 3.8.8-.5 2.2-.9 4.1-1.4 6-3.6 1.1-7 .4-10.5.6-3.2.2-6.5.1-10.2.1z"/><path d="m464.6 108.6h16.3c.8-1.4 1.5-2.7 2.2-4 1.1.2 2.2.4 3.8.8-.5 2.3-1 4.3-1.5 6.8-6.5 0-12.7.1-18.9 0-1.9-.2-2.5-1.5-1.9-3.6z"/><path d="m534.7 108.5c.7-1.4 1.3-2.6 2-3.9 1.1.2 2.2.4 3.9.7-.5 2.2-.9 4.2-1.4 6.5-6.8 0-13.4 0-20.3 0-.3-.8-.7-1.8-1.4-3.3z"/><path d="m620.3 92.7c-.9-.3-1.8-.3-1.8-.5-.4-4.8-.6-9.7-.9-14.4 4.2-1.1 10.4-1.2 15.5-.4.1.8.1 1.7.2 3-4 0-7.8 0-11.7 0-1.6 4.2.1 8.2-1.3 12.3z"/><path d="m149 83.7c-.4 3.9-.8 7.6-1.3 11.2 0 .1-.9.1-1.8.2-1-5-.6-10-.2-15.5 5.5.5 11-1.7 16.2 2.8-4.5 1.8-8.7.2-12.9 1.3z"/><path d="m874.2 108.5c.7-1.5 1.3-2.7 1.9-4 1.3.3 2.4.5 3.9.8-.5 2.2-1 4.2-1.5 6.5-6.2 0-12.1 0-18.2 0-.4-1-.7-1.8-1.3-3.3z"/><path d="m939.6 59.1c-2.2-.7-3.7-1.2-5.4-1.7.9-1.4 1.7-2.5 2.3-3.7.5-1.2.6-2.5.9-3.8 3.8-2.8 8-1 12.2-1.6.1 1.4.2 2.3.2 3.5-4.8.3-9.2 1.1-10.2 7.3z"/><path d="m448.6 59c-1.9-.5-3.5-1-5-1.4 1.1-2.8 2.1-5.4 3.2-8.2 3.5-2 7.5-.9 11.4-1 .3.5.7.8.9 1.3.1.4 0 1 0 1.8-4.6.9-9.8.9-10.5 7.5z"/><path d="m197.2 112.1c-4.7 0-9.2 0-13.6 0-2 0-3.4-1.1-4.5-3.4h13.6c.9-1.5 1.6-2.6 2.4-3.9 1.1.2 2.2.4 3.7.7-.6 2.2-1.1 4.2-1.6 6.6z"/><path d="m753.2 60c3.6-3.5 2.5-8.5 5-12.5 1.2.6 2.4 1.2 3.7 1.9-1.1 4.5-2.1 8.6-3.1 12.6-3.7.9-3.7.9-5.6-2z"/><path d="m532.5 46.4c2.2-.2 3.8-.4 5.3-.5.3-1 .5-1.7.8-2.7 1.9 1.7 1.3 4 2.2 6.3-4.8 0-5.4 3.2-5.4 6.7 0 1.4-.2 2.9-.3 4.1-1.8.8-2.6.2-2.7-1.2.1-4 .1-8.1.1-12.7z"/><path d="m66.4 47.5c1 .5 2.1 1 3.6 1.7-1 4.3-2 8.6-3 13-2.5.7-4.7 1.3-5.5-2.2 3.7-3.2 2.3-8.5 4.9-12.5z"/><path d="m760.4 90.7c-2.6-1.6-2.7-2.2-1.8-10.5 2.2-.2 4.4-.3 6.9-.5.3-.8.5-1.6.8-2.5 1.2.3 1.3.6 1.9 5.7-1.9.7-4.3.9-5.6 2.2-1.3 1.1-1.4 3.4-2.2 5.6z"/><path d="m66.8 91c0-3.9 0-7.1 0-10.8 2.3-.2 4.6-.3 6.9-.5.2-1 .5-1.8.9-3.6 1.4 2.7 1.8 4.8 2 7.3-1.1.1-1.9.1-2.7.3-3.3.5-3.7 1-4.4 4.3-.3 1.5-.3 1.5-2.7 3z"/><path d="m648.5 83.8c-2.3.6-3.6 1-5.1 1.4-.8-1.5-1.5-2.7-2.3-4.2 1.2-.5 2.5-1.1 4.3-2 0-3.5 0-7.2 0-11.4 1.2.7 2.2.9 2.3 1.2.3 4.9.5 9.8.8 15z"/><path d="m647.1 58.5c-.4-1.5-.8-2.8-1.2-4.2 1.1-.6 2.2-1.2 3.2-1.8.8-8.6.8-8.6 3-9.4.6 4.6.3 9.1.2 14.1-1.7.4-3.4.8-5.2 1.3z"/><path d="m991.1 54.7c1.3-.6 2.5-1.2 3.7-1.8 0-3.2 0-6.4 0-9.8 2.3 1.6 3.2 6.8 2.7 14.4-.8.3-1.7.7-2.6 1-.6.2-1.3.2-2.2.3-.5-1.4-1-2.7-1.6-4.1z"/><path d="m503.3 43.4c2.8 2.4 3.6 7.2 3.4 14.1-1.4.5-3 1-4.9 1.6-.6-1.5-1.1-2.8-1.7-4.3 1.5-.8 2.7-1.4 4.1-2.1-.4-3.3-.6-6.3-.9-9.3z"/><path d="m375.3 88.9c-3 3.5-6 1.9-8.5 2.7-2.6.8-5.4 1.3-8.4 2-.1-.9-.5-1.9-.2-2.3.8-.9 1.8-2.1 2.9-2.3 4.3-.7 8.7-.7 14.2-.1z"/><path d="m906.6 50.8c-.6-1.3-1.1-2.5-1.7-4.1 1.3-.3 2.3-.6 3.6-.9.2-.7.5-1.5 1.1-3.2.6 2.7 1.1 4.6 1.6 6.6-1.7.6-3.1 1.1-4.6 1.6z"/><path d="m366.7 106.4c2.2-1.4 1.5-5.1 5-4.6-2.9 6.9-4.7 7.8-9.6 5 1.7-.2 3.1-.3 4.6-.4z"/><path d="m335.5 38.1c-1.7-.1-3.2-.3-4.6-.4.8-11.1 16.1-17.8 27.1-12.5-4 1.1-8.4 2-12.6 3.5-4.4 1.7-7.2 5.2-9.9 9.4z"/><path d="m343.5 64c-1.7 2.2-3.3 1-5 0z"/><path d="m148.7 64.1c-2.7.8-3.3-.2-3.3-1.8 0-4.6 0-9.2 0-13.7 7.9-2.1 16.6-.9 20.3 2.8-5.8 0-11.1 0-17 0z"/><path d="m821.1 51.4c-4.5.4-8.2.6-11.7 1.2-6.7 1.2-10.7 5.6-12.8 11.8-1.6 4.8-1.8 9.7-1.7 14.6v6c-.3-.3-.7-.4-.8-.6-3.2-9.4-3.3-18.8.2-28 1.6-4.1 4.8-6.6 9.2-7.6 6-1.3 11.7-1.2 17.6 2.6z"/><path d="m888.2 55.9c2.8 3.7 3.3 7.1 1.3 10.9-.9 1.7-1.5 3.6-2.3 5.6-1.7 0-3.3 0-5.4 0 2.1-5.7 4.2-10.9 6.4-16.5z"/></g></svg>