<svg enable-background="new 0 0 288.3 297.6" viewBox="0 0 288.3 297.6" xmlns="http://www.w3.org/2000/svg"><g fill="#231f20"><path d="m284.4 297.6h-273.4c-1.7 0-2.8-1.1-2.8-2.8s1.1-2.8 2.8-2.8h273.3c1.7 0 2.8 1.1 2.8 2.8s-1.1 2.8-2.7 2.8z"/><path d="m49 240.3c-2.2-5-5.5-8.3-9.4-10.5 1.7-1.1 3.3-2.2 5-3.9 3.3-3.9 5-8.3 5-14.3v-5c0-4.4-1.1-8.3-3.3-12.1-7.7-2.2-14.3-5.5-20.9-9.4-5.5.6-10.5 2.8-13.8 6.6-3.3 3.9-5.5 8.8-5.5 14.9v5c0 3.3.6 6.6 1.7 8.8 2.2 4.4 5 7.7 8.8 9.4-2.2 1.1-3.9 2.8-5.5 4.4-3.9 4.4-5.5 9.4-5.5 14.9v8.3c0 6.1 2.2 11 6.6 15.4s9.4 6.6 15.4 6.6h1.1c6.1 0 11-2.2 15.4-6.6s6.6-9.4 6.6-15.4v-8.3c0-3.9-.5-6.6-1.7-8.8zm-12.1 14.9c0 1.7 0 3.3-.6 4.4-1.7 3.3-3.9 5.5-7.7 5.5-2.2 0-4.4-1.1-6.1-2.8s-2.8-4.4-2.8-7.2v-4.4c0-3.3.6-5.5 1.1-7.7 1.1-3.3 3.9-5 7.7-5 2.2 0 3.9.6 5 1.1 2.8 1.7 3.9 5.5 3.9 11zm-1.6-37c-1.7 2.8-3.9 3.9-7.2 3.9s-5.5-1.1-7.2-3.3c-1.1-1.7-1.7-4.4-1.7-8.8 0-2.8 0-4.4.6-6.6.6-1.7 1.7-3.3 2.8-4.4 1.1-.6 2.8-1.7 5.5-1.7 1.1 0 2.2 0 3.3.6 3.9 1.7 6.1 5.5 6.1 12.1-.6 3.8-1.1 6.6-2.2 8.2z"/><path d="m59.5 196.7c-2.2 3.9-3.3 9.4-3.3 15.4v2.2h13.8v-3.3c0-2.2 0-3.9.6-5.5 1.7-4.4 4.4-6.6 8.3-6.6 2.8 0 5 1.1 6.6 3.3 1.7 2.2 2.2 4.4 2.2 7.2 0 3.3-1.1 7.2-2.8 11-2.2 5-5.5 10.5-9.4 16.5-4.4 6.6-7.7 11-9.9 13.8l-3.3 5c-1.1 1.7-2.2 3.3-3.3 5-2.2 3.3-3.3 5-3.3 5v12.7h44.1v-13.8h-27.6s0-.6.6-1.1c1.1-1.7 2.2-3.3 3.9-6.1l2.8-3.9c2.8-4.4 5.5-7.7 6.6-9.9 5.5-7.7 9.4-13.2 10.5-16.5 2.8-6.1 4.4-12.1 4.4-18.2s-2.2-11.6-6.6-16c-.6-.6-.6-.6-1.1-1.1-8.8 3.3-18.2 5.5-27.6 5.5-1.8 0-4-.6-6.2-.6z"/><path d="m130.1 184.6c-3.3 0-6.1.6-8.3 1.7-3.9 1.7-7.2 4.4-9.4 8.3s-3.3 7.7-3.3 12.1l-.6 50.2c0 6.1 1.7 11 5.5 15.4 3.9 4.4 8.8 6.6 14.9 6.6 5.5 0 10.5-1.7 14.3-6.1 3.9-3.9 6.1-8.8 6.6-14.9v-16c0-6.6-1.1-11.6-3.9-15.4-2.8-4.4-7.7-6.6-13.8-6.6-3.9 0-7.2 1.7-10.5 4.4v-18.2c0-2.2.6-4.4 1.7-5.5 1.1-1.7 2.8-2.2 5-2.2s3.9.6 5 2.2c1.1 1.7 1.7 3.3 1.7 5.5v2.2h14.3v-2.2c0-6.1-1.7-11-5.5-15.4-2.7-3.9-7.7-6.1-13.7-6.1zm-6.7 50.2c1.1-1.7 3.3-2.8 5.5-2.8 1.7 0 2.8.6 3.9 1.1 2.2 1.7 2.8 3.9 2.8 6.6v17.1c0 2.2-.6 3.9-1.7 5.5-1.1 1.7-2.8 2.2-5 2.2s-3.9-1.1-5-2.2c-1.1-1.7-1.7-3.3-1.7-5.5v-17.1c.1-1.6.7-3.3 1.2-4.9z"/><path d="m182.4 185.2c-6.1 0-11 2.2-15.4 6.6s-6.6 9.4-6.6 15.4v50.2c0 6.1 2.2 11 6.6 15.4s9.4 6.6 15.4 6.6c6.1 0 11-2.2 15.4-6.6s6.6-9.4 6.6-15.4v-12.7h-14.3v12.7c0 2.2-.6 3.9-2.2 5.5-1.7 1.7-3.3 2.2-5.5 2.2s-3.9-.6-5.5-2.2c-1.7-1.7-2.2-3.3-2.2-5.5v-50.7c0-2.2.6-3.9 2.2-5.5 1.7-1.7 3.3-2.2 5.5-2.2s3.9.6 5.5 2.2c1.7 1.7 2.2 3.3 2.2 5.5v11h14.3v-10.5c0-5.5-1.7-10.5-5.5-14.3-5.5-2.2-10.5-4.4-14.9-7.7-.5 0-1 0-1.6 0z"/><path d="m244.1 194v30.9h-16.5v-28.1c-1.1 0-2.2 0-3.3 0-3.3 0-7.2 0-10.5-.6v82.1h13.8v-39.1h16.5v39.1h13.8v-89.8c-4.4 2.2-8.8 4.4-13.8 5.5z"/><path d="m268.4 186.3h13.8v92h-13.8z"/><path d="m28.1 127.9c-1.7 0-2.8-1.1-2.8-2.8 0-22.6 18.2-40.8 40.8-40.8 1.7 0 2.8 1.1 2.8 2.8s-1.1 2.8-2.8 2.8c-19.3 0-35.3 16-35.3 35.3.1 1.6-1.6 2.7-2.7 2.7z"/><path d="m186.8 127.9c-1.7 0-2.8-1.1-2.8-2.8 0-22.6 18.2-40.8 40.8-40.8 1.7 0 2.8 1.1 2.8 2.8s-1.1 2.8-2.8 2.8c-19.3 0-35.3 16-35.3 35.3.1 1.6-1 2.7-2.7 2.7z"/><path d="m274.5 83.8-55.1-60.6c-3.9-5-9.9-8.8-18.2-10.5-1.1-7.2-8.3-12.7-16.6-12.7-9.4 0-17.1 6.6-17.1 14.9 0 1.7 0 2.8.6 4.4-4.4 3.3-6.6 7.7-6.6 12.7h-10.5c-1.1 2.8-3.3 5-6.6 5s-5.5-2.2-6.6-5h-5.5c-1.1 0-2.2 0-3.9 0 0-5-2.8-9.4-6.6-12.7.6-1.7.6-2.8.6-4.4 0-8.3-7.7-14.9-17.1-14.9-8.3 0-15.5 5.5-17.1 12.7-7.7 1.7-14.3 5.5-18.2 10.5l-55.1 60.6c-9.4 11-14.9 25.3-14.9 41.3 0 35.8 29.2 65 65 65s65-29.2 65-65c0-5 0-9.4 0-15.4 0-5.5-.6-17.6-1.1-30.3 5.5-1.1 9.4-5.5 9.4-11 0-1.1 0-1.7 0-2.8s0-4.4 0-7.2c1.1-1.1 2.8-2.2 5-2.2 1.7 0 3.3.6 4.4 1.7v7.7 2.8c0 6.1 5 11.6 11.6 11.6-.6 12.7-.6 24.8-1.1 30.3v15.4c0 35.8 29.2 65 65 65s65-29.2 65-65c.6-16.6-4.9-30.9-13.7-41.9zm-208.4 92c-28.1 0-50.7-22.6-50.7-50.7s22.6-50.7 50.7-50.7 50.7 22.6 50.7 50.7c0 27.6-22.6 50.7-50.7 50.7zm157.6 0c-28.1 0-50.7-22.6-50.7-50.7s22.6-50.7 50.7-50.7 50.7 22.6 50.7 50.7c.6 27.6-22.5 50.7-50.7 50.7z"/></g></svg>