<svg width="18" height="15" viewBox="0 0 18 15" xmlns="http://www.w3.org/2000/svg"><title>AB5CCB69-5B05-4C93-B355-E0D444F07D12</title><path d="M5.66 14.775c6.794 0 10.508-5.684 10.508-10.613 0-.161-.003-.322-.01-.482A7.556 7.556 0 0 0 18 1.75a7.317 7.317 0 0 1-2.12.586A3.736 3.736 0 0 0 17.502.273a7.354 7.354 0 0 1-2.345.905A3.673 3.673 0 0 0 12.463 0c-2.04 0-3.694 1.67-3.694 3.73 0 .292.032.577.096.85A10.45 10.45 0 0 1 1.253.683a3.746 3.746 0 0 0-.5 1.875c0 1.294.652 2.436 1.643 3.104a3.638 3.638 0 0 1-1.673-.466v.047A3.722 3.722 0 0 0 3.685 8.9a3.673 3.673 0 0 1-1.667.064 3.702 3.702 0 0 0 3.45 2.59A7.365 7.365 0 0 1 0 13.1a10.38 10.38 0 0 0 5.66 1.676" fill="#4D4545" fill-rule="evenodd"/></svg>