<?xml version="1.0" encoding="utf-8"?>
<!-- Generator: Adobe Illustrator 22.0.1, SVG Export Plug-In . SVG Version: 6.00 Build 0)  -->
<svg version="1.1" id="Layer_1" xmlns="http://www.w3.org/2000/svg" xmlns:xlink="http://www.w3.org/1999/xlink" x="0px" y="0px"
	 viewBox="0 0 500 1000" style="enable-background:new 0 0 500 1000;" xml:space="preserve">
<style type="text/css">
	.st0{fill:#FFFFFF;}
	.st1{fill:#131114;}
</style>
<rect x="-13.7" y="-14.2" class="st0" width="540.3" height="1028.1"/>
<path class="st1" d="M141.4,415.5h-23.1c-2.5,0-4.6-2.3-4.6-4.8c0-1.8,0.5-3.2,1.8-4.4c0.9-0.7,2.1-0.9,3.2-0.9h21.7
	c0.7,0,0.9,0,0.9-0.9c0.4-10.8,1-21.5,2.1-32.3c0-2.3,2.3-3.9,4.2-4.2c1.6,0,3,0,4.2,1.2c0.9,0.9,1.4,2.3,1.2,3.7l-0.9,12.7
	l-0.7,15.5v3.9c-0.2,0.5,0,0.7,0.5,0.7h15.9c1.6,0,3.2,0.5,4.2,2.1c1.4,2.1,1.2,6-1.6,7.4c-0.7,0.4-1.5,0.5-2.3,0.5h-17.1v13.6
	c0.5,19.8,2.1,39.6,4.6,59.3l1.4,9l3,13.8c1,4,2.3,7.9,3.7,11.8c1.6,4.7,3.7,9.3,6.2,13.6c2.8,4.6,6,9.2,9.7,12.9l2.3,2.1
	c1.8,2.3,1.4,4.4-0.2,6.5c-1.3,1.6-3.4,2.1-5.3,1.4l-2.3-1.4c-3.8-3.7-7.1-7.8-9.9-12.2c-2.2-3.3-4.1-6.8-5.8-10.4
	c-3.5-7.1-6.1-14.6-7.8-22.4l-2.5-11.3c-0.4-2.2-0.8-4.4-1.2-6.7l-1.4-9.2c-0.4-3.7-0.8-7.4-1.2-11.1c-0.4-4.1-0.8-8.3-1.2-12.5
	l-0.7-10.6c-0.3-4.5-0.5-8.9-0.7-13.4l-0.2-21.9V415.5 M358.4,426.6l-0.2,18.5c-0.2,4.5-0.5,8.9-0.9,13.4c0,4.6-0.7,9-0.9,13.4
	l-0.7,6.5l-0.9,7.4l-0.9,6c-1.1,7.4-2.4,14.8-3.7,22.1l-2.3,10.8l-1.2,6.5c-0.8,3.5-1.7,6.9-2.5,10.4l-1.6,5.5c-0.9,2.8-3.5,3.7-6,3
	c-1.7-0.4-3.1-1.7-3.5-3.5c0-1.4,0-2.3,0.5-3.5l1.8-6.9c2.5-9.1,4.5-18.4,6-27.7l1.8-10.8l1.2-6.9l1.4-11.1c0-2.1,0.5-3.9,0.7-6
	l0.9-10.1l0.5-9.9l0.7-13.1v-27.2l-0.5-8.3c0-3.5,3.2-5.1,6-4.6c1.9,0.4,3.4,2,3.7,3.9v2.8L358.4,426.6 M245.1,455.6v-50.3
	c0-2.3,1.2-4.2,3.2-4.6c2.3-0.9,4.6,0,5.8,2.1l0.5,2.3v97.3c0,0.9,0,0.9,0.9,0.9h12.7l9.9-0.5h1.8c2.3-0.2,4.2,1.2,4.6,3.5
	c0.5,2.3-0.9,5.3-2.8,6c-0.9,0.3-1.8,0.5-2.8,0.5c-6.6,0.2-13.2,0.4-19.8,0.5l-8.8-0.2c-2.3,0-4.2-1.8-4.6-4.2v-1.4l-0.5-2.3v-49.6
	 M286.9,427v-21.2c0-3.5,2.8-5.8,6.2-5.3c2.1,0.5,3.7,1.4,4.2,3.5l0.2,1.6v36.7c0,0.9,0,0.9,0.9,0.9h20.1c1.8,0,3.2,0.5,4.4,2.1
	c1.8,2.3,1.2,7.1-3,8.1l-0.9,0.2h-24.4c-1.4,0-2.8-0.2-4.2-0.5c-2.2-0.4-3.7-2.4-3.7-4.6V427 M213.1,440.2c-1.6,1.8-3.9,3.2-6.5,3.5
	c-2.2,0-4.4-0.6-6.2-1.8c-3.6-2.5-6.1-6.3-6.9-10.6c-0.7-2.7-0.9-5.5-0.7-8.3c0.2-3.2,1.2-6.2,3.2-8.8c1.4-1.6,3.2-2.8,5.3-3.2
	c5.3-1.4,12,1.6,15,6.2c1.9,3.1,2.8,6.7,2.5,10.4C218.9,431.6,217,436.5,213.1,440.2 M229,424.3c-0.2-3.5-1.2-6.7-2.8-9.7
	c-1.9-3.9-4.9-7.3-8.5-9.7c-4.3-2.8-9.4-4.3-14.5-4.4l-3.2,0.5c-4.8,0.8-9.1,3.4-12,7.4c-3.5,4.6-4.6,9.9-5.1,15.5
	c-0.3,6.2,1.2,12.3,4.2,17.8c1.6,2.9,3.8,5.4,6.5,7.4c2.8,2.4,6.3,4,9.9,4.6c2.1,0,3.9,0,6-0.5c3.5-0.5,6.5-2.1,9.2-4.2
	c3.9-3.5,6.5-7.6,8.3-12.5C228.5,432.6,229.2,428.6,229,424.3 M348.7,372.6c-0.2,1.6-1.4,2.8-2.8,3.7c-0.9,0.7-2.1,0.9-3.2,0.9
	c-2.3,0-3.7-1.2-4.6-3.2c-1.2-2.3-0.9-4.6,0.7-6.5c0.9-1,2.1-1.6,3.5-1.6C345.7,365.7,349.2,368.9,348.7,372.6 M357.5,367.3v-0.2
	c-0.2-0.6-0.4-1.1-0.7-1.6V365h-0.2v-0.5l-0.2-0.2c-0.3-0.4-0.6-0.8-0.9-1.2c-3.4-4.9-9.3-7.4-15.2-6.7c-2.3,0.3-4.6,1.1-6.5,2.5
	c-2.9,2.2-4.8,5.4-5.3,9c-0.7,3.9,0,7.6,1.8,11.1c3.2,5.8,10.1,8.5,16.4,6.5c3.5-1,6.6-3.1,8.8-6c0.3-0.5,0.6-1.1,0.9-1.6
	c1.6-2.3,2.3-6.9,1.2-11.1"/>
</svg>
