<svg enable-background="new 0 0 500 1000" viewBox="0 0 500 1000" xmlns="http://www.w3.org/2000/svg"><path d="m-13.7-14.2h540.3v1028.1h-540.3z" fill="#fff"/><path d="m141.4 415.5h-23.1c-2.5 0-4.6-2.3-4.6-4.8 0-1.8.5-3.2 1.8-4.4.9-.7 2.1-.9 3.2-.9h21.7c.7 0 .9 0 .9-.9.4-10.8 1-21.5 2.1-32.3 0-2.3 2.3-3.9 4.2-4.2 1.6 0 3 0 4.2 1.2.9.9 1.4 2.3 1.2 3.7l-.9 12.7-.7 15.5v3.9c-.2.5 0 .7.5.7h15.9c1.6 0 3.2.5 4.2 2.1 1.4 2.1 1.2 6-1.6 7.4-.7.4-1.5.5-2.3.5h-17.1v13.6c.5 19.8 2.1 39.6 4.6 59.3l1.4 9 3 13.8c1 4 2.3 7.9 3.7 11.8 1.6 4.7 3.7 9.3 6.2 13.6 2.8 4.6 6 9.2 9.7 12.9l2.3 2.1c1.8 2.3 1.4 4.4-.2 6.5-1.3 1.6-3.4 2.1-5.3 1.4l-2.3-1.4c-3.8-3.7-7.1-7.8-9.9-12.2-2.2-3.3-4.1-6.8-5.8-10.4-3.5-7.1-6.1-14.6-7.8-22.4l-2.5-11.3c-.4-2.2-.8-4.4-1.2-6.7l-1.4-9.2c-.4-3.7-.8-7.4-1.2-11.1-.4-4.1-.8-8.3-1.2-12.5l-.7-10.6c-.3-4.5-.5-8.9-.7-13.4l-.2-21.9v-1.1m216.9 11.1-.2 18.5c-.2 4.5-.5 8.9-.9 13.4 0 4.6-.7 9-.9 13.4l-.7 6.5-.9 7.4-.9 6c-1.1 7.4-2.4 14.8-3.7 22.1l-2.3 10.8-1.2 6.5c-.8 3.5-1.7 6.9-2.5 10.4l-1.6 5.5c-.9 2.8-3.5 3.7-6 3-1.7-.4-3.1-1.7-3.5-3.5 0-1.4 0-2.3.5-3.5l1.8-6.9c2.5-9.1 4.5-18.4 6-27.7l1.8-10.8 1.2-6.9 1.4-11.1c0-2.1.5-3.9.7-6l.9-10.1.5-9.9.7-13.1v-27.2l-.5-8.3c0-3.5 3.2-5.1 6-4.6 1.9.4 3.4 2 3.7 3.9v2.8zm-113.3 29v-50.3c0-2.3 1.2-4.2 3.2-4.6 2.3-.9 4.6 0 5.8 2.1l.5 2.3v97.3c0 .9 0 .9.9.9h12.7l9.9-.5h1.8c2.3-.2 4.2 1.2 4.6 3.5.5 2.3-.9 5.3-2.8 6-.9.3-1.8.5-2.8.5-6.6.2-13.2.4-19.8.5l-8.8-.2c-2.3 0-4.2-1.8-4.6-4.2v-1.4l-.5-2.3v-49.6m41.7-28.6v-21.2c0-3.5 2.8-5.8 6.2-5.3 2.1.5 3.7 1.4 4.2 3.5l.2 1.6v36.7c0 .9 0 .9.9.9h20.1c1.8 0 3.2.5 4.4 2.1 1.8 2.3 1.2 7.1-3 8.1l-.9.2h-24.4c-1.4 0-2.8-.2-4.2-.5-2.2-.4-3.7-2.4-3.7-4.6v-21.5m-73.6 13.2c-1.6 1.8-3.9 3.2-6.5 3.5-2.2 0-4.4-.6-6.2-1.8-3.6-2.5-6.1-6.3-6.9-10.6-.7-2.7-.9-5.5-.7-8.3.2-3.2 1.2-6.2 3.2-8.8 1.4-1.6 3.2-2.8 5.3-3.2 5.3-1.4 12 1.6 15 6.2 1.9 3.1 2.8 6.7 2.5 10.4.1 4-1.8 8.9-5.7 12.6m15.9-15.9c-.2-3.5-1.2-6.7-2.8-9.7-1.9-3.9-4.9-7.3-8.5-9.7-4.3-2.8-9.4-4.3-14.5-4.4l-3.2.5c-4.8.8-9.1 3.4-12 7.4-3.5 4.6-4.6 9.9-5.1 15.5-.3 6.2 1.2 12.3 4.2 17.8 1.6 2.9 3.8 5.4 6.5 7.4 2.8 2.4 6.3 4 9.9 4.6 2.1 0 3.9 0 6-.5 3.5-.5 6.5-2.1 9.2-4.2 3.9-3.5 6.5-7.6 8.3-12.5 1.5-3.9 2.2-7.9 2-12.2m119.7-51.7c-.2 1.6-1.4 2.8-2.8 3.7-.9.7-2.1.9-3.2.9-2.3 0-3.7-1.2-4.6-3.2-1.2-2.3-.9-4.6.7-6.5.9-1 2.1-1.6 3.5-1.6 3.4-.2 6.9 3 6.4 6.7m8.8-5.3v-.2c-.2-.6-.4-1.1-.7-1.6v-.5h-.2v-.5l-.2-.2c-.3-.4-.6-.8-.9-1.2-3.4-4.9-9.3-7.4-15.2-6.7-2.3.3-4.6 1.1-6.5 2.5-2.9 2.2-4.8 5.4-5.3 9-.7 3.9 0 7.6 1.8 11.1 3.2 5.8 10.1 8.5 16.4 6.5 3.5-1 6.6-3.1 8.8-6 .3-.5.6-1.1.9-1.6 1.6-2.3 2.3-6.9 1.2-11.1" fill="#131114"/></svg>