<?xml version="1.0" encoding="utf-8"?>
<!-- Generator: Adobe Illustrator 19.0.0, SVG Export Plug-In . SVG Version: 6.00 Build 0)  -->
<svg version="1.1" id="Layer_1" xmlns="http://www.w3.org/2000/svg" xmlns:xlink="http://www.w3.org/1999/xlink" x="0px" y="0px"
	 viewBox="-292 378.7 26.7 36.3" style="enable-background:new -292 378.7 26.7 36.3;" xml:space="preserve">
<path id="XMLID_20_" d="M-291.8,399.5c-0.6-3.5,1.1-5.7,3.6-7.9c7.2-6.5,13.2-7.4,19.5-2.7c3.5,2.5,4.5,6,3.2,9.9
	c-1.2,3.8-3.6,7.1-6.5,10c-1.2,1.3-2.7,1.7-4.5,1.1c-1.7-0.5-3.5-0.8-5.2-0.9C-289.3,408.6-291.2,406.8-291.8,399.5z M-268.6,397.1
	c0-3-0.9-4.8-3-6.2c-4.9-2.9-14.5-0.1-16.6,5.1c-1.2,2.9-0.1,5.6,1.3,8.1c1.3,2.2,3.4,1.1,5.3,0.8c1.6-0.2,3.4-0.8,4.7,0.5
	c2.5,2.4,4.2,0.5,5.5-1.2C-269.8,402-269,399.3-268.6,397.1z"/>
</svg>
