<?xml version="1.0" encoding="utf-8"?>
<!-- Generator: Adobe Illustrator 19.0.0, SVG Export Plug-In . SVG Version: 6.00 Build 0)  -->
<svg version="1.1" id="Layer_1" xmlns="http://www.w3.org/2000/svg" xmlns:xlink="http://www.w3.org/1999/xlink" x="0px" y="0px"
	 viewBox="-292 378.7 26.7 36.3" style="enable-background:new -292 378.7 26.7 36.3;" xml:space="preserve">
<path id="XMLID_19_" d="M-270.7,398.8c-0.7,2.1-0.4,3.9,2.3,4.7c1.2,0.3,1.4,1.4,0.8,2.6c-0.5,1-1.4,1.8-2.5,1.1
	c-2-1.3-3.2-0.4-5,0.7c-3.1,1.9-6.7,2.7-10.3,1.1c-2.3-1-4.6-2.4-3.7-5.2c0.8-2.4,2.5-4.4,5.6-3.9c1.3,0.2,2.7,0.7,4,0.4
	c1.7-0.4,3.8,2.3,5-0.5c1.1-2.5-0.6-9.7-2.4-10.5c-1.9-0.9-3.4,0.8-5,1.2c-1.4,0.3-3.1,1.6-3.8-0.4c-0.7-1.9,1-2.8,2.7-3.4
	C-273.4,382.9-271.9,388.8-270.7,398.8z M-277.4,404.7c-3.2-0.9-5.6-1.5-9-0.4C-283.1,405.8-280.7,407.5-277.4,404.7z"/>
</svg>
