<?xml version="1.0" encoding="utf-8"?>
<!-- Generator: Adobe Illustrator 19.0.0, SVG Export Plug-In . SVG Version: 6.00 Build 0)  -->
<svg version="1.1" id="Layer_1" xmlns="http://www.w3.org/2000/svg" xmlns:xlink="http://www.w3.org/1999/xlink" x="0px" y="0px"
	 viewBox="-292 378.7 26.7 36.3" style="enable-background:new -292 378.7 26.7 36.3;" xml:space="preserve">
<path id="XMLID_6_" d="M-275.8,403.5c-1.6-2.6-3.9-2.5-5.7-3.4c-0.8-0.4-1.6-0.9-1.5-2c0.2-1,1.1-0.7,1.8-0.9
	c3.5-1.2,5.6-3.8,6.3-7.8c-3.7-0.2-7,1-10.3,2c-1,0.3-2.5,1-3-0.6c-0.4-1.4,0.4-2.5,2-2.9c3.8-0.8,7.5-2,11.3-2.7
	c3.4-0.6,5.4,2.6,3.9,6c-0.6,1.4-1.4,2.6-2.3,3.9c-0.7,1.1-1.6,2.1-2.5,3.3c1.8,1.7,5.4,2.7,4.2,6c-1,2.7-3.8,3.3-6.4,4.5
	c-0.7,0.3-1.4,0.4-2.2,0.4c-1.9,0.2-5.1,1.4-5.5-0.7c-0.6-3,2.8-2,4.6-2.4C-278.8,405.8-275.4,405.3-275.8,403.5z"/>
</svg>
