<?xml version="1.0" encoding="utf-8"?>
<!-- Generator: Adobe Illustrator 19.0.0, SVG Export Plug-In . SVG Version: 6.00 Build 0)  -->
<svg version="1.1" id="Layer_1" xmlns="http://www.w3.org/2000/svg" xmlns:xlink="http://www.w3.org/1999/xlink" x="0px" y="0px"
	 viewBox="-292 378.7 26.7 36.3" style="enable-background:new -292 378.7 26.7 36.3;" xml:space="preserve">
<path id="XMLID_4_" d="M-280.4,395.3c2.6,0.7,3.8-0.8,4.2-3.5c0.2-1.6,1.5-3.3,3.4-2.9c2,0.5,1.4,2.5,1,3.8
	c-0.3,1.3-0.4,2.2,0.7,3.2c0.6,0.6,1.5,1.7,0.3,2.1c-3.4,1.3-1.6,4.8-2.3,7.8c0,1.5-0.1,2.6-1,3.6c-0.6,0.7-1.4,0.4-2,0
	c-1.2-0.9-0.6-2.2-0.5-3.3c0.1-1.2,0.2-2.4,0.4-3.6c0.6-3-0.8-4-3.7-3.9s-6.4,1.1-7.9-1.9c-1.6-3.1,0.7-6,2.2-8.7
	c0.8-1.4,1.7-4.1,4.3-2.1c2.9,2.1,0.1,3-1,4.4c-0.9,1.1-2.4,2.3-1.8,3.8C-283.3,395.7-281.6,395.1-280.4,395.3z"/>
</svg>
