<?xml version="1.0" encoding="utf-8"?>
<!-- Generator: Adobe Illustrator 19.0.0, SVG Export Plug-In . SVG Version: 6.00 Build 0)  -->
<svg version="1.1" id="Layer_1" xmlns="http://www.w3.org/2000/svg" xmlns:xlink="http://www.w3.org/1999/xlink" x="0px" y="0px"
	 viewBox="-292 378.7 26.7 36.3" style="enable-background:new -292 378.7 26.7 36.3;" xml:space="preserve">
<path id="XMLID_7_" d="M-284.5,394.9c2.2,0,4.3-0.2,6.3,0c4.1,0.5,6.7,3.7,6.8,7.7c0,3.9-2.3,6.5-6.6,7.1c-3.9,0.5-6.5-1.4-8.1-5
	c-0.4-1-0.9-2.3,0.1-2.9c1.3-0.8,1.6,0.8,2.1,1.6c3,4.2,4.5,4.4,7.7,1.4c1.4-1.3,1.6-2.8,1.1-4.5c-0.5-1.7-1.9-2.1-3.6-2.1
	c-1.9,0-3.8,0.2-5.8,0.4c-3.1,0.4-4.4-1.2-3.6-4.4c0.6-2.4,3.6-4.1,2.3-7.1c0-0.1,0.7-0.7,1-0.7c4.8,1.6,8.8-2.1,13.4-2.1
	c1.7,0,2.6-0.1,2.7,1.8c0.1,1.8-0.7,2.3-2.4,2.2c-3.8-0.2-7.2,1.7-10.8,2.6C-283.9,391.5-284.3,393.1-284.5,394.9z"/>
</svg>
