<?xml version="1.0" encoding="utf-8"?>
<!-- Generator: Adobe Illustrator 19.0.0, SVG Export Plug-In . SVG Version: 6.00 Build 0)  -->
<svg version="1.1" id="Layer_1" xmlns="http://www.w3.org/2000/svg" xmlns:xlink="http://www.w3.org/1999/xlink" x="0px" y="0px"
	 viewBox="-292 378.7 26.7 36.3" style="enable-background:new -292 378.7 26.7 36.3;" xml:space="preserve">
<path id="XMLID_8_" d="M-278.7,388.5c0.3,0,0.5,0.4,0.4,0.7c-2.2,3.5-4,6.6-6.1,9.9c-1.9,2.9-1.1,5.6,1.8,6
	c1.6,1.1,9.9,3.4,11.3-2.5c-1.9-1.9-6.2-1.7-9.2,0.3c-1.4,0.9-3.1,2.4-2.6-0.8c0.2-1.5,2.1-2.1,3.1-2.2c2.5-1.1,5.6-1.3,8.8-1
	c1.3,0.5,2.4,0.8,2.9,3.9c0,3.8-2.5,6.4-6.8,6.7c-2.6,0.2-5-0.5-7.4-1.3c-7-2.4-8.7-6.6-4.4-12.5
	C-284.9,392.7-283.9,388.4-278.7,388.5z"/>
</svg>
