<?xml version="1.0" encoding="utf-8"?>
<!-- Generator: Adobe Illustrator 19.0.0, SVG Export Plug-In . SVG Version: 6.00 Build 0)  -->
<svg version="1.1" id="Layer_1" xmlns="http://www.w3.org/2000/svg" xmlns:xlink="http://www.w3.org/1999/xlink" x="0px" y="0px"
	 viewBox="-292 378.7 26.7 36.3" style="enable-background:new -292 378.7 26.7 36.3;" xml:space="preserve">
<path id="XMLID_3_" d="M-274.6,405.5c0.4,1-0.4,2-1.4,1.9c-2.6-0.3-3.7-1.5-2.7-4.8c0.7-2.3,0.5-4.8,1.1-7.1c0.8-3.6,1.5-6.7-4-6.3
	c-0.7,0.1-6.5,3.5-5.8-1.4c0.1-0.8,4.6-1.2,5.4-1.1c1.9,0.1,3.7-0.9,5.7-0.3c2.6,0.7,3.8,1.8,3.1,4.7c-0.8,3-1,6.2-1.6,9.2
	C-275.1,402-275.3,403.7-274.6,405.5z"/>
</svg>
