<?xml version="1.0" encoding="utf-8"?>
<!-- Generator: Adobe Illustrator 19.0.0, SVG Export Plug-In . SVG Version: 6.00 Build 0)  -->
<svg version="1.1" id="Layer_1" xmlns="http://www.w3.org/2000/svg" xmlns:xlink="http://www.w3.org/1999/xlink" x="0px" y="0px"
	 viewBox="-292 378.7 26.7 36.3" style="enable-background:new -292 378.7 26.7 36.3;" xml:space="preserve">
<path id="XMLID_26_" d="M-282.8,395.4c-1.5-1.9-5.4-3.1-3.9-5.8c1.6-2.9,4.6-4.6,7.7-4.5c3.2,0,5.4,0.8,8.7,0.6c2-0.1,3.9,0.8,4.5,3
	c0.6,2.2-0.3,3.1-1.8,4c-1,0.6-2,1.3-3,1.9c-2.3,1.2-3.2,1.9-2.1,5.8c1.6,5.6-5.1,9.8-11.6,7.7c-2-0.6-4.7-1.2-5.1-3.7
	c-0.5-2.7,1-4.8,3.3-6.4C-285.1,397.3-284.1,396.4-282.8,395.4z M-270.7,390.2c0.5-0.3,0.3-1.1-0.3-1.1c-3.3-0.5-5.6-0.3-8.5-1.2
	c-1.2-0.4-3.8,1-4,2.9c-0.1,1.5,3.1,1.8,4.4,2.4C-275,394.7-273.8,392.4-270.7,390.2z M-282.7,405.1c2.8-0.6,6.1-0.6,6.4-4.4
	c0.2-1.9-1.2-3-2.9-3.4c-1.7-0.3-6.4,3.7-6.5,5.5C-285.8,405.1-283.9,404.7-282.7,405.1z"/>
</svg>
