<?xml version="1.0" encoding="utf-8"?>
<!-- Generator: Adobe Illustrator 19.0.0, SVG Export Plug-In . SVG Version: 6.00 Build 0)  -->
<svg version="1.1" id="Layer_1" xmlns="http://www.w3.org/2000/svg" xmlns:xlink="http://www.w3.org/1999/xlink" x="0px" y="0px"
	 viewBox="-292 378.7 26.7 36.3" style="enable-background:new -292 378.7 26.7 36.3;" xml:space="preserve">
<path id="XMLID_23_" d="M-273.7,395.7c-4.7,3-9.2,1.2-13.3-1.3c-4.4-2.6-4.3-5.7,0-8.6c4.9-3.3,12.3-2.4,14.4,1.7
	c1.2,0.1,1.4-1,1.9-1.7c0.8-1,1.7-1.7,3-1c1.5,0.8,1.6,2,1.1,3.4c-1.1,3.4-2.1,6.8-2.1,10.5c0,2.1-1.2,4.2,1.2,6.1
	c1.5,1.2-0.7,2.5-1.1,3.8c-0.5,1.3-1.3,1.5-2.4,1.1c-1.7-0.5-2.6-1.6-2.6-3.3C-273.7,402.9-273.7,399.4-273.7,395.7z M-278.3,386.8
	c-2.5,0.6-4.9,0.2-6.8,2.1c-1,1-1.6,2.5-0.3,2.8c2.6,0.7,5.2,2.5,8.1,1.4c1.7-0.7,3.7-1.4,3.3-3.5
	C-274.4,387.6-276.3,386.7-278.3,386.8z"/>
</svg>
