<?xml version="1.0" encoding="utf-8"?>
<!-- Generator: Adobe Illustrator 19.0.0, SVG Export Plug-In . SVG Version: 6.00 Build 0)  -->
<svg version="1.1" id="Layer_1" xmlns="http://www.w3.org/2000/svg" xmlns:xlink="http://www.w3.org/1999/xlink" x="0px" y="0px"
	 viewBox="-282 392.5 45.4 9.5" style="enable-background:new -282 392.5 45.4 9.5;" xml:space="preserve">
<style type="text/css">
	.st0{display:none;}
</style>
<g id="white_x5F_bg_xA0_Image_1_">
</g>
<g id="Image_xA0_1_xA0_Image_1_" class="st0">
	
		<image style="display:inline;overflow:visible;enable-background:new    ;" width="1083" height="813" id="Image_xA0_1_xA0_Image" xlink:href="86D920B6.png"  transform="matrix(0.2393 0 0 0.2391 -424.0334 280.9636)">
	</image>
</g>
<g id="Image_xA0_2_xA0_Image_1_" class="st0">
	
		<image style="display:inline;overflow:visible;enable-background:new    ;" width="813" height="1083" id="Image_xA0_2_xA0_Image" xlink:href="86D920BA.png"  transform="matrix(0.2391 0 0 0.2393 -452.8334 234.8836)">
	</image>
</g>
<g id="Image_xA0_3_xA0_Image_1_" class="st0">
	
		<image style="display:inline;overflow:visible;enable-background:new    ;" width="813" height="1025" id="Image_xA0_3_xA0_Image" xlink:href="86D920BD.png"  transform="matrix(0.2391 0 0 0.2391 -258.4334 249.0436)">
	</image>
</g>
<g id="Image_xA0_4_xA0_Image_1_" class="st0">
	
		<image style="display:inline;overflow:visible;enable-background:new    ;" width="775" height="1083" id="Image_xA0_4_xA0_Image" xlink:href="86D920BE.png"  transform="matrix(0.2388 0 0 0.2393 -452.8334 234.8836)">
	</image>
</g>
<g id="Image_xA0_5_xA0_Image_1_">
	<g>
		<path d="M-269.1,397.1c0-0.8,0-1.5,0.1-2.3c0-0.3,0.2-0.6,0.5-0.6c0.4,0,0.3,0.4,0.4,0.6c0,0.2,0,0.5,0.1,0.7
			c0.1,0.4-0.1,1,0.3,1.2c0.5,0.2,0.8-0.3,1.2-0.6c0.2-0.1,0.3-0.3,0.5-0.5c0.3-0.5,0.9-0.9,0.5-1.4c-0.3-0.5-0.9-0.3-1.4-0.1
			c-0.3,0.1-0.6,0.2-0.7-0.2c-0.2-0.4,0.1-0.7,0.5-0.9c0.9-0.3,1.8-0.5,2.6,0.1c0.8,0.7,0.5,1.5,0,2.2c-0.6,0.8-0.5,1.2,0.4,1.7
			c1.5,0.9,1.8,3,0.6,4.4c-0.6,0.8-1.4,0.5-2.2,0.4c-0.4-0.1-0.4-0.5-0.1-0.6c0.4-0.1,0.6-0.4,0.9-0.6c0.8-0.4,1-1.1,0.9-1.8
			c-0.2-0.8-1.1-1-1.7-1.1c-1.5-0.1-2.3,0.7-2.3,2.2c0,0.2,0.1,0.4-0.1,0.5c-0.2,0.1-0.4,0-0.5-0.2c-0.3-0.5-0.6-1-0.5-1.6
			C-269.1,398.1-269.1,397.6-269.1,397.1L-269.1,397.1z"/>
		<path d="M-275,397.5c0-1.2-0.6-2.2-0.9-3.4c0-0.4-0.3-0.3-0.7-0.1c-1,0.5-1.6,1.5-2.1,2.5c-0.7,1.1-1.3,2.3-2.2,3.3
			c-0.2,0.2-0.4,0.6-0.7,0.4c-0.3-0.2-0.6-0.7-0.3-1.1c1.7-2,2.4-4.9,4.9-6.3c0.9-0.5,1.4-0.4,1.8,0.5c0.7,1.7,1.3,3.3,2,5
			c0.2,0.6,0.5,1.1,0.8,1.6c0.4,0.5,0.3,1.1-0.2,1.4c-0.7,0.4-0.8-0.3-1-0.7c-0.3-0.5-0.6-1.1-1-1.5c-0.3-0.8-4.7-0.9-4.6-1.3
			C-279.2,397-275,397.7-275,397.5z"/>
		<path d="M-261.5,400.1c0-2.2,2.3-4.3,4.3-3.6c0.8,0.3,2,0.8,2.2,1.9c0.1,0.7-0.8,2.6-1.6,3c-1.3,0.6-2.5,0.7-3.8,0.3
			C-261.3,401.4-261.6,400.8-261.5,400.1z M-258.8,400.1c0.4-0.1,0.8,0,1.2-0.2c0.5-0.3,1.4-0.3,1.1-1.1c-0.2-0.5-0.6-1.5-1.6-0.9
			c-0.3,0.2-0.6,0.2-0.9,0.3c-0.7,0.2-1,0.7-0.9,1.3C-259.9,400.2-259.2,399.9-258.8,400.1z"/>
		<path d="M-250.3,402c-2.1,0-3-0.8-3.2-2.9c-0.2-1.4,0.4-2.6,1.1-3.8c0.2-0.3,0.4-0.4,0.8-0.3c0.4,0.2,0.4,0.5,0.3,0.8
			c-0.2,0.6-0.5,1.2-0.7,1.9c-0.3,0.9-0.1,1.8,0.7,2.4c0.8,0.7,1.8,0.7,2.7,0.2c0.9-0.5,1.5-1,1.4-2.1c0-0.5-0.2-1-0.2-1.5
			c0-0.6,0.2-1.1,0.7-1.2s0.7,0.5,0.7,0.9C-245.3,399.3-247.5,402-250.3,402z"/>
		<path d="M-241.9,399.7c0.1-0.7,0.2-1.4,0.4-2.1c0.5-1.4,1.2-2.8-1.3-2.8c-0.6,0-0.8-0.6-0.7-1.1c0.1-0.6,0.6-0.5,1-0.5
			c1.9-0.1,3.5,0.9,5.3,1.2c0.4,0.1,0.5,0.5,0.5,0.9c0,0.4-0.4,0.5-0.7,0.4c-2.6-0.9-2.5,1.2-2.8,2.8c-0.1,0.5-0.2,1-0.3,1.4
			c-0.1,0.6,0,1.6-0.9,1.5C-242.4,401.3-241.6,400.3-241.9,399.7z"/>
	</g>
</g>
<g id="Image_xA0_6_xA0_Image_1_" class="st0">
	
		<image style="display:inline;overflow:visible;enable-background:new    ;" width="829" height="246" id="Image_xA0_6_xA0_Image" xlink:href="86D920BC.png"  transform="matrix(0.238 0 0 0.2351 -202.5134 419.9236)">
	</image>
</g>
<g id="Layer_4_xA0_Image_1_" class="st0">
	
		<image style="display:inline;overflow:visible;enable-background:new    ;" width="813" height="242" id="Layer_4_xA0_Image" xlink:href="86D920BB.png"  transform="matrix(0.2385 0 0 0.238 -327.1534 408.6636)">
	</image>
</g>
</svg>
