<?xml version="1.0" encoding="utf-8"?>
<!-- Generator: Adobe Illustrator 19.0.0, SVG Export Plug-In . SVG Version: 6.00 Build 0)  -->
<svg version="1.1" id="Layer_1" xmlns="http://www.w3.org/2000/svg" xmlns:xlink="http://www.w3.org/1999/xlink" x="0px" y="0px"
	 viewBox="-228 383.6 153.7 26.4" style="enable-background:new -228 383.6 153.7 26.4;" xml:space="preserve">
<path id="XMLID_37_" d="M-173.2,394.6c-0.5,2.5-2.1,4.1-1.6,6.6c0.3,1.8-1.7,3.5-3.3,3.5c-1.8,0-1.9-2-1.9-3.7
	c0.1-4.3,2.6-7.6,4.9-10.9c1.8-2.5,5.2-1.9,6.6,0.9c0.2,0.4,0.3,0.9,0.5,1.3c0.9,1.5,0.7,4.4,2.9,4.4c2.5-0.1,4.3-2.1,5.8-4.2
	c1-1.3,1.3-4.4,3.4-3.1c1.7,1.1,0.2,3.5-0.9,5.1c-1.9,2.8-3.6,5.9-7.3,7c-3.5,1.1-5.9,0.3-7-3.3C-171.5,396.9-172,395.8-173.2,394.6
	z"/>
<path id="XMLID_34_" d="M-122.8,392.6c-2.6,3.6-5,7.2-8.1,10.4c-0.7,0.7-1.1,2.2-2.6,1c-1.4-1.1-1.1-2.4,0-3.4
	c3.7-3.5,6.2-8,9.2-12.1c0.7-1,1.4-2,2.6-1.7c1.2,0.3,1.8,1.4,2,2.5c1.1,5.9,2.5,11.7,5,17.1c0.6,1.3,0.6,2.8-1.1,3.4
	c-1.6,0.5-2.1-1-2.7-2c-0.6-0.9-1-2.1-1.2-3.1c-0.6-2.6-1.8-4-4.7-3.6c-0.7,0.1-1.8,0.2-1.9-0.9c-0.1-1,0.4-1.9,1.5-1.9
	C-119.4,397.9-122.9,394.7-122.8,392.6z"/>
<path id="XMLID_29_" d="M-214.8,399.3c2.1,0,4-0.6,5.9-0.1c0.9,0.2,1.9,0.3,1.9,1.5c0,1.2-1,1.3-1.9,1.5c-5.9,1.2-11.7,0.4-17.4-1.4
	c-1.1-0.3-1.7-1-1.7-2.2c-0.1-1.6,0-3.1,0.6-4.7c1.9-4.8,9.7-11.3,15.7-10.2c1.3,0.3,2.6,0.7,2.4,2.3c-0.2,1.8-1.4,1-2.6,0.8
	c-4.4-1-11.7,5.6-12.2,9.1c-0.1,0.9-0.3,1.6,0.8,1.8C-220.3,398-217.6,399.5-214.8,399.3z"/>
<path id="XMLID_53_" d="M-198.6,399c-0.2-5.4,3.6-11,9.3-10.6c2.6,0.2,4.2,1.3,5,3.8c1.3,4.2-0.9,9.5-4.7,11.7
	c-0.7,0.4-1.4,0.7-2.1,1.1c-5,2.7-6.6,1.8-7.1-4C-198.3,400.2-198.5,399.4-198.6,399z M-187.4,396.4c-0.3-1.5,0.5-3.6-1.5-3.9
	c-1.7-0.2-3.7,0-4.8,1.7c-1,1.6-2.1,3.3-1.2,5.3c0.4,1,0.9,2.2,2.4,1.6C-190.1,400.2-187.3,399.7-187.4,396.4z"/>
<path id="XMLID_18_" d="M-143.2,400.8c-0.2,1.8-0.3,3.6-0.7,5.3c-0.1,0.7-0.7,1.5-1.7,1.4c-1.1-0.1-1.1-0.9-1.2-1.7
	c-0.1-2.4-0.3-4.7-0.3-7.1c0-2-0.3-3.7-3-3.2c-0.2,0-0.5,0.1-0.7,0c-1.2-1-3.9,0.2-3.9-2.3c0-2.4,2.2-1.6,3.6-2
	c4.2-1.2,8.2-1.3,12.1,1.1c0.9,0.5,1.9,1,1.3,2.3c-0.3,1.1-1.3,2-2.2,1.6c-3.6-1.2-3.8,0.5-3.2,3.3
	C-143.1,399.9-143.2,400.4-143.2,400.8L-143.2,400.8z"/>
<path id="XMLID_13_" d="M-100.4,401.6c1.6,0,3.1-0.7,4.6-1.1c0.5-0.1,1,0.2,1.6,0.3c-0.1,0.4-0.2,0.9-0.4,1.2
	c-1.6,2.1-7.3,3.7-10.3,2.4c-3.2-1.4-6.3-3-6.7-7.2c-0.4-4.6,3.6-8.9,7.7-8.2c0.7,0.1,1.7,0.1,1.8,1.2c0.1,1.1-0.6,1.2-1.4,1.6
	c-1.8,0.7-4.1,0.9-4.6,3.5c-0.6,3.1,1.6,5.5,5.7,6.2C-101.8,401.5-101.1,401.5-100.4,401.6z"/>
<path id="XMLID_7_" d="M-82.7,399.8c0.2-1.7,0.2-3.4,0.8-5c0.7-2.1,0.2-2.5-1.8-2c-1.1,0.3-2.8,0.9-3.2-0.7s1.2-2.2,2.6-2.5
	c2.6-0.6,5.3-1.3,8-0.8c0.9,0.2,1.9,0.3,1.9,1.5c0,1.4-1,1.3-1.9,1.3c-1.9,0-2.6,1.2-2.8,2.8c-0.3,2.6-0.5,5.2-0.8,7.8
	c-0.1,1-0.1,2.3-1.4,2.3c-1.6,0-1.1-1.4-1.2-2.3c-0.1-0.8,0-1.6,0-2.4C-82.5,399.8-82.6,399.8-82.7,399.8z"/>
</svg>
