<?xml version="1.0" encoding="utf-8"?>
<!-- Generator: Adobe Illustrator 19.0.0, SVG Export Plug-In . SVG Version: 6.00 Build 0)  -->
<svg version="1.1" id="Layer_1" xmlns="http://www.w3.org/2000/svg" xmlns:xlink="http://www.w3.org/1999/xlink" x="0px" y="0px"
	 viewBox="-40 139.8 91.1 23.2" style="enable-background:new -40 139.8 91.1 23.2;" xml:space="preserve">
<path id="XMLID_40_" d="M-29.6,139.9c3.5-0.5,7.3,0.5,9.1,5c1.8,4.3,0.3,9.6-3.6,13.2c-4.2,4-7.8,4.3-13.1,1.8
	c-1.6-0.8-1.8-1.7-1.8-3.1c-0.1-3.3,0.1-6.5-1-9.7c-0.4-1.3-0.3-2.7,1.1-3.2c1.8-0.5,2.2,1.1,2.5,2.2c0.5,2.6,1.1,5.3,1.2,8
	c0.1,1.7,0.7,2.8,2.1,3.1c3.1,0.8,5.8-0.3,7.9-2.6c1.8-1.9,2-4.2,1.1-6.6c-1-2.8-3.3-3.8-6.1-3.9c-1.6,0-3.2,0-4.7-0.5
	c-0.8-0.2-2-1-1.7-2.2c0.2-1.1,1.2-1.4,2.1-1.5C-33.3,139.8-31.9,139.9-29.6,139.9z"/>
<path id="XMLID_36_" d="M1.2,146.5c2.9,1.1,5.9,0.8,8.4,2.1c1.6,0.8,2.2,1.8,1.8,3.5c-1.3,5.4-8.6,11.8-15.7,9.3
	c-1.3-0.5-3.5-0.9-2.9-3c0.6-2.3,2.6-1.2,4-0.8c3.6,1.1,6.6,0.3,9.1-2.6c0.5-0.6,1.5-1.2,1.2-1.9c-0.4-0.8-1.2-1.5-2.3-1.6
	c-2.6-0.2-5.1-0.7-7.5-1.7c-1.4-0.6-2.5-1.4-2.5-3s0.9-2.7,2.4-3.4c2.2-1.2,4.6-1.9,7.1-2.1c0.8-0.1,2-0.4,2.2,0.9
	c0.2,1.1-0.2,1.9-1.3,2.5C4.1,145.4,2.5,144.9,1.2,146.5z"/>
<path id="XMLID_17_" d="M25.3,146.4c-1.6,2.5-5.6,2.2-7,4.6c-0.7,1.3-2.2,2.5-1.6,3.8c0.6,1.5,2.5,1.8,4.1,1.9
	c2.5,0.2,4.9,0.1,7.4-0.6c1.5-0.4,3.3-0.4,3.4,1.6c0.1,1.7-1.1,2.2-2.9,2.2c-2.9,0.1-5.9,0.9-8.8,0.5c-8.1-1.2-8.5-4.9-5.1-10.2
	C17.8,145.6,21.3,146,25.3,146.4z"/>
<path id="XMLID_8_" d="M41.9,158.7c0.2,0,0.4,0,0.6,0c0.7,0,1.4,0,2.1-0.4c0.9-0.5,1.3-1.5,1.6-2.4c0.1-0.3,0.2-0.6,0.2-1
	c0-2.1-3.4-3.3-0.8-5.6c0.9,0,4.2,3.4,4.4,4.2c0.4,1.3,0.4,3.5-0.5,4.4c-3.3,3.3-7.3,5.3-12.1,4.4c-2.6-0.5-4.4-3.6-3.7-6.2
	c0.8-2.9,3-4.4,5.3-5.9c0.7-0.5,2.9-0.8,3.4,0.1c0.4,0.7-1.5,1.5-2,1.9c-1,0.9-2.4,1.8-3,3c-0.5,1-0.4,2.4,0.5,3.1
	c0.6,0.4,1.3,0.4,2,0.4C40.5,158.7,41.2,158.7,41.9,158.7z"/>
<path id="XMLID_6_" d="M-9.1,149.1c-0.3,2.5,0.1,4.9-0.9,7c-0.5,1-1.1,2.2-2.5,1.9c-1.4-0.3-1.5-1.6-1.4-2.7
	c0.5-3.7,0.9-7.4,0.7-11.1c-0.1-1.4,0.8-2.4,2.2-2.6c1.8-0.1,1.4,1.4,1.5,2.4C-9.2,145.8-9.2,147.6-9.1,149.1z"/>
</svg>
