<?xml version="1.0" encoding="utf-8"?>
<!-- Generator: Adobe Illustrator 19.0.0, SVG Export Plug-In . SVG Version: 6.00 Build 0)  -->
<svg version="1.1" id="Layer_1" xmlns="http://www.w3.org/2000/svg" xmlns:xlink="http://www.w3.org/1999/xlink" x="0px" y="0px"
	 viewBox="-196 385.8 218.8 23.2" style="enable-background:new -196 385.8 218.8 23.2;" xml:space="preserve">
<path id="XMLID_46_" d="M-49.7,398c-2.5,3.1-4.6,5.9-6.9,8.5c-1.1,1.2-2.4,2.1-4.1,0.7c-1.3-1.1-2.8-0.5-4.3-0.5
	c-2.6,0-4.9-0.4-6.5-2.8c-2.1-3.1-1.5-6.1,2-7.3c2.3-0.8,3.4-2.3,4.5-4.1c0.5-0.9,1.1-1.8,0.4-2.8s-1.7-0.9-2.8-0.7
	c-3.4,0.7-6.2,3.5-6.5,6.9c-0.2,2.9-0.6,5.9-0.2,8.8c0.2,1.3,0.3,2.9-1.2,3.1c-1.7,0.2-1.1-1.8-1.1-2.6c0-3.6-1.7-7-0.9-10.7
	c0.8-3.5,7.1-9,10.6-8.7c2.1,0.2,4.4,0.9,5.1,3.3c0.8,2.5-0.1,5-2.1,6.3c-1.5,1-2.8,2.2-4.2,3.2c-0.9,0.6-2.3,1.2-2.1,2.4
	c0.2,1.3,1.6,1.7,2.8,2.2c7,2.4,13.3-0.9,15.5-8.1c0.4-1.2,0.8-2.6,2.3-2.6c1.6-0.1,1.7,1.4,2.1,2.6c1.2,3.8,1.7,8.1,6.1,10
	c1.1,0.5,1.2,1.6,0.5,2.6c-0.9,1.3-2.3,1.3-3.3,0.4c-1.8-1.4-4.9-3.2-7.5-2.9c-1,0.1-0.6-1.6-0.1-2C-47.4,403.7-49,400.3-49.7,398z"
	/>
<path id="XMLID_44_" d="M-92.9,404.4c2.1,0.1,4,0.2,5.4-1.5c0.4-0.5,1-1,0.7-1.8c-0.3-0.9-1.1-1-1.9-1.1c-1.2-0.2-3.4,1.1-3.4-1.3
	c0-2.2,2.1-2.4,3.8-2.4c2.6-0.1,4.8,0.8,5.7,3.3c0.6,1.7-2.3,7.1-4.1,7.7c-3.5,1.1-7.2,1.9-10.9,0.9c-4.9-1.3-7.4-11-3.9-14.8
	c4.1-4.4,13.1-6,18.6-3.3c0.8,0.4,1.8,0.7,1.4,1.9c-0.4,1.2-1.4,1.3-2.5,1.1c-4-0.8-7.9,0-11.7,1.1c-2.2,0.6-4.5,1.3-3.9,4.5
	c0.8,4.2,2.3,5.7,5.7,5.7C-93.5,404.4-93.1,404.4-92.9,404.4z"/>
<path id="XMLID_40_" d="M-185.6,385.9c3.5-0.5,7.3,0.5,9.1,5c1.8,4.3,0.3,9.6-3.6,13.2c-4.2,4-7.8,4.3-13.1,1.8
	c-1.6-0.8-1.8-1.7-1.8-3.1c-0.1-3.3,0.1-6.5-1-9.7c-0.4-1.3-0.3-2.7,1.1-3.2c1.8-0.5,2.2,1.1,2.5,2.2c0.5,2.6,1.1,5.3,1.2,8
	c0.1,1.7,0.7,2.8,2.1,3.1c3.1,0.8,5.8-0.3,7.9-2.6c1.8-1.9,2-4.2,1.1-6.6c-1-2.8-3.3-3.8-6.1-3.9c-1.6,0-3.2,0-4.7-0.5
	c-0.8-0.2-2-1-1.7-2.2c0.2-1.1,1.2-1.4,2.1-1.5C-189.3,385.8-187.9,385.9-185.6,385.9z"/>
<path id="XMLID_36_" d="M-154.8,392.5c2.9,1.1,5.9,0.8,8.4,2.1c1.6,0.8,2.2,1.8,1.8,3.5c-1.3,5.4-8.6,11.8-15.7,9.3
	c-1.3-0.5-3.5-0.9-2.9-3c0.6-2.3,2.6-1.2,4-0.8c3.6,1.1,6.6,0.3,9.1-2.6c0.5-0.6,1.5-1.2,1.2-1.9c-0.4-0.8-1.2-1.5-2.3-1.6
	c-2.6-0.2-5.1-0.7-7.5-1.7c-1.4-0.6-2.5-1.4-2.5-3s0.9-2.7,2.4-3.4c2.2-1.2,4.6-1.9,7.1-2.1c0.8-0.1,2-0.4,2.2,0.9
	c0.2,1.1-0.2,1.9-1.3,2.5C-151.9,391.4-153.5,390.9-154.8,392.5z"/>
<path id="XMLID_35_" d="M14.6,399.5c-9.2,0.2-9.4,0-9.3-9.2c0-1.6-1.1-4.2,1.6-4.4c2.8-0.1,2.2,2.6,2.3,4.4c0.1,1.5-0.6,3.7,1.4,4.1
	c2.2,0.4,4.5-0.3,6.6-1.3c0.3-0.1,0.4-0.6,0.7-0.8c1.3-0.7,2.2-3.5,4-2c2.1,1.7,0.1,3.6-1,4.9c-2.2,2.7-2.5,6-2.3,9.1
	c0.1,1.3,0,1.9-0.7,2.7c-0.9,0.9-1.6,2.8-3.1,1.8c-1.2-0.9-2.1-2.7-1.2-4.5C14.3,402.8,14.2,401.2,14.6,399.5z"/>
<path id="XMLID_23_" d="M1.2,394c-0.5,4-0.9,8-1.4,12c-0.2,1.4-0.4,3.1-2.2,2.8s-1.1-2.1-1.1-3.4c0-0.1,0.1-0.2,0.1-0.3
	c1.1-6.2-0.5-7.6-6.8-6.1c-3,0.7-5.8,1.2-5.6,5.4c0.1,1.4-1,3.2-2.7,2.7c-1.4-0.4-0.8-2.1-0.7-3.3c0.4-2.8,0.9-5.6,1.4-8.3
	c0.1-0.8,0.5-1.6,1.5-1.6c1.1-0.1,1.3,0.8,1.3,1.6c0.1,1.8,1.1,1.7,2.3,1.2c2.3-0.8,4.6-1.1,7-0.6c2.2,0.4,3.7,0,4.1-2.5
	c0.2-1.1,0.7-2.5,2-2.3C2.3,391.5,0.7,393,1.2,394z"/>
<path id="XMLID_17_" d="M-130.7,392.4c-1.6,2.5-5.6,2.2-7,4.6c-0.7,1.3-2.2,2.5-1.6,3.8c0.6,1.5,2.5,1.8,4.1,1.9
	c2.5,0.2,4.9,0.1,7.4-0.6c1.5-0.4,3.3-0.4,3.4,1.6c0.1,1.7-1.1,2.2-2.9,2.2c-2.9,0.1-5.9,0.9-8.8,0.5c-8.1-1.2-8.5-4.9-5.1-10.2
	C-138.2,391.6-134.7,392-130.7,392.4z"/>
<path id="XMLID_10_" d="M-20,394.2c-0.6,2.3-1.1,3.3-4.1,5.5c-2,0.8-5.1,1.6-6.3,0.8c-0.9-0.7-1.5-1.7,0.3-2.2
	c3.2-0.8,6.5-2.5,6.9-5.1c0.3-2.6-3.4-4.3-6.8-3.1c-1.4,0.5-2.6,1.2-3.7,2.3c-0.6,0.6-1.4,1-2.1,0.4c-0.6-0.6,0-1.3,0.3-1.8
	c1.4-3,5.7-4.8,9.2-4C-21.6,388-19.9,389.8-20,394.2z"/>
<path id="XMLID_8_" d="M-114.1,404.7c0.2,0,0.4,0,0.6,0c0.7,0,1.4,0,2.1-0.4c0.9-0.5,1.3-1.5,1.6-2.4c0.1-0.3,0.2-0.6,0.2-1
	c0-2.1-3.4-3.3-0.8-5.6c0.9,0,4.2,3.4,4.4,4.2c0.4,1.3,0.4,3.5-0.5,4.4c-3.3,3.3-7.3,5.3-12.1,4.4c-2.6-0.5-4.4-3.6-3.7-6.2
	c0.8-2.9,3-4.4,5.3-5.9c0.7-0.5,2.9-0.8,3.4,0.1c0.4,0.7-1.5,1.5-2,1.9c-1,0.9-2.4,1.8-3,3c-0.5,1-0.4,2.4,0.5,3.1
	c0.6,0.4,1.3,0.4,2,0.4C-115.5,404.7-114.8,404.7-114.1,404.7z"/>
<path id="XMLID_6_" d="M-165.1,395.1c-0.3,2.5,0.1,4.9-0.9,7c-0.5,1-1.1,2.2-2.5,1.9c-1.4-0.3-1.5-1.6-1.4-2.7
	c0.5-3.7,0.9-7.4,0.7-11.1c-0.1-1.4,0.8-2.4,2.2-2.6c1.8-0.1,1.4,1.4,1.5,2.4C-165.2,391.8-165.2,393.6-165.1,395.1z"/>
<path id="XMLID_2_" d="M-32.3,399.2c-1.4,2.2,0,4.8-1.1,7.1c-0.4,0.7-0.7,1.5-1.6,1.4c-0.9-0.2-1.1-0.9-1.1-1.8c0-2.7-0.1-5.4,0-8.1
	c0-1.2,0-4.4,1.4-4.6c2.4-0.2,1.4,3.1,1.8,4.2C-32.8,398-32.5,398.6-32.3,399.2z"/>
</svg>
