<?xml version="1.0" encoding="utf-8"?>
<!-- Generator: Adobe Illustrator 19.0.0, SVG Export Plug-In . SVG Version: 6.00 Build 0)  -->
<svg version="1.1" id="Layer_1" xmlns="http://www.w3.org/2000/svg" xmlns:xlink="http://www.w3.org/1999/xlink" x="0px" y="0px"
	 viewBox="-289 392.8 32.7 9.2" style="enable-background:new -289 392.8 32.7 9.2;" xml:space="preserve">
<style type="text/css">
	.st0{display:none;}
</style>
<g id="white_x5F_bg_xA0_Image_1_">
</g>
<g id="Image_xA0_1_xA0_Image_1_" class="st0">
	
		<image style="display:inline;overflow:visible;enable-background:new    ;" width="1083" height="813" id="Image_xA0_1_xA0_Image" xlink:href="4C6E8A24.png"  transform="matrix(0.2393 0 0 0.2391 -436.9378 303.3559)">
	</image>
</g>
<g id="Image_xA0_2_xA0_Image_1_" class="st0">
	
		<image style="display:inline;overflow:visible;enable-background:new    ;" width="813" height="1083" id="Image_xA0_2_xA0_Image" xlink:href="4C6E8A25.png"  transform="matrix(0.2391 0 0 0.2393 -465.7378 257.2758)">
	</image>
</g>
<g id="Image_xA0_3_xA0_Image_1_" class="st0">
	
		<image style="display:inline;overflow:visible;enable-background:new    ;" width="813" height="1025" id="Image_xA0_3_xA0_Image" xlink:href="4C6E8A23.png"  transform="matrix(0.2391 0 0 0.2391 -271.3378 271.4358)">
	</image>
</g>
<g id="Image_xA0_4_xA0_Image_1_" class="st0">
	
		<image style="display:inline;overflow:visible;enable-background:new    ;" width="775" height="1083" id="Image_xA0_4_xA0_Image" xlink:href="4C6E8A2C.png"  transform="matrix(0.2388 0 0 0.2393 -465.7378 257.2758)">
	</image>
</g>
<g id="Image_xA0_5_xA0_Image_1_">
	<g>
		<path d="M-287.4,392.8c0.2,1-0.2,2-0.3,3.1c1-0.2,1.9-0.2,2.8,0.1c0.7,0.1,1.2-0.2,1.5-0.8c0.3-0.6,0.5-1.2,0.8-1.7
			c0.1-0.3,0.3-0.5,0.6-0.4c0.4,0.1,0.3,0.4,0.3,0.7c-0.1,0.8-0.2,1.5-0.3,2.3c0,0.7-0.3,1.3,0.1,2c0.3,0.7-0.3,1.3-0.7,1.7
			c-0.3,0.3-0.6,0-0.7-0.3c-0.1-0.1-0.1-0.4-0.1-0.7c0-0.8,0.4-1.7-0.9-2c-1.4-0.2-2.8,0-3.5,0.9c-0.2,0.3-0.3,0.9-0.8,0.6
			c-0.4-0.1-0.5-0.6-0.4-1c0.3-1.5,0.6-3,0.9-4.5C-287.8,392.8-287.6,392.8-287.4,392.8z"/>
		<path d="M-261.1,398.4c1.6-0.7,3,0.1,4.5,0.3c0.6,0,0.3,0.6,0.1,0.8c-0.5,0.5-1.1,0.6-1.7,0.5c-0.7-0.2-1.4-0.3-2.1-0.4
			c-0.3,0-0.8-0.2-0.9,0.3c-0.1,0.5,0.4,0.6,0.6,0.8c0.8,0.5,1.5,0,2.3-0.1c0.5-0.1,1.1-0.5,1.4,0.1c0.2,0.6-0.4,0.9-0.9,1.2
			c-1.4,0.7-2.7,0.2-4-0.4c-0.7-0.3-0.6-1.1-0.7-1.7c-0.3-1.6-0.3-3.3,1.1-4.5c0.9-0.9,1.9-0.7,3-0.4c0.4-0.1,0.8,0,1.1,0.2
			c0.3,0.2,0.8-0.1,0.7,0.6c-0.1,0.5-0.5,0.7-1,0.7c-0.4,0-0.7-0.1-1-0.2C-260.5,395.6-261.3,396.2-261.1,398.4z"/>
		<path d="M-268.6,397.7c0.7-0.4,1.2-0.8,1.8-1.2c0.5-0.3,1.1-0.5,1.7-0.2s0.5,1,0.5,1.5c0,0.6-0.1,1.2-0.3,1.8
			c-0.1,0.4-0.3,0.8,0.1,1.2c0.3,0.3,0,0.6-0.2,0.8c-0.2,0.3-0.6,0.2-0.9,0.1c-0.4-0.1-0.4-0.4-0.4-0.7c0.1-0.7,0.2-1.4,0.2-2.1
			c0-0.3,0.2-0.8-0.1-1c-0.4-0.2-0.6,0.2-0.9,0.4c-0.5,0.4-0.9,0.8-1.4,1.2c-0.4,0.3-0.8,0.6-1.3,0.4c-0.4-0.2-0.4-0.8-0.3-1.2
			c0.1-0.3,0.1-0.6-0.1-1c-0.9,0.7-1.3,1.5-1.7,2.4c-0.2,0.4-0.4,1.1-1,0.8c-0.6-0.3-0.4-0.9-0.2-1.4c0.6-1.1,1.2-2.2,2.1-3
			c1.2-1.2,1.8-1,2.2,0.5C-268.7,397.2-268.7,397.3-268.6,397.7z"/>
		<path d="M-278.8,399.9c-0.9,0-2-0.1-2.4-1.3c-0.2-0.8,0.7-2.1,1.8-2.6c0.6-0.3,1.3-0.5,2-0.7c0.4-0.1,0.7-0.1,0.8,0.3
			c0.1,0.5-0.1,0.8-0.6,0.8c-0.8,0.1-1.4,0.8-2.2,1.1c-0.2,0.1-0.4,0.2-0.4,0.5c0,0.3,0.3,0.3,0.5,0.4c0.9,0.3,1.8,0.2,2.7-0.2
			c0.6-0.3,0.6-0.9,0.6-1.5c-0.1-0.4,0.1-0.9,0.6-0.9s0.7,0.4,0.6,0.9C-274.9,398.8-276.4,400-278.8,399.9z"/>
	</g>
</g>
<g id="Image_xA0_6_xA0_Image_1_" class="st0">
	
		<image style="display:inline;overflow:visible;enable-background:new    ;" width="829" height="246" id="Image_xA0_6_xA0_Image" xlink:href="4C6E8A2F.png"  transform="matrix(0.238 0 0 0.2351 -215.4178 442.3159)">
	</image>
</g>
<g id="Layer_4_xA0_Image_1_" class="st0">
	
		<image style="display:inline;overflow:visible;enable-background:new    ;" width="813" height="242" id="Layer_4_xA0_Image" xlink:href="4C6E8A2D.png"  transform="matrix(0.2385 0 0 0.238 -340.0578 431.0559)">
	</image>
</g>
</svg>
