<?xml version="1.0" encoding="utf-8"?>
<!-- Generator: Adobe Illustrator 19.0.0, SVG Export Plug-In . SVG Version: 6.00 Build 0)  -->
<svg version="1.1" id="Layer_1" xmlns="http://www.w3.org/2000/svg" xmlns:xlink="http://www.w3.org/1999/xlink" x="0px" y="0px"
	 viewBox="-259 384.4 92 25.6" style="enable-background:new -259 384.4 92 25.6;" xml:space="preserve">
<path id="XMLID_32_" d="M-222.1,400c0.3-4.4-2.9-7.1-4.4-10.8c-2.9,3.5-3.8,7.7-5.4,11.4c-0.8,1.8-0.8,5.4-3.5,4.3
	c-2.2-0.8-0.1-3.7,0.6-5.3c1.6-4.2,2.6-8.7,5.6-12.3c2.3-2.8,3.7-2.7,5.7,0.4c1.3,2,2.4,4.1,3,6.4c1,3.4,1.6,6.8,3.2,10
	c0.7,1.3,0.4,2.5-0.9,3.2c-1.2,0.7-1.9-0.4-2.3-1.3c-1.3-2.9-4.3-3.4-6.7-4.8c-0.8-0.4-2.1-0.8-1.8-2c0.5-1.7,1.8-0.7,2.8-0.5
	C-224.9,399.1-223.6,399.5-222.1,400z"/>
<path id="XMLID_28_" d="M-200.2,398.8c1.4-0.5,1.9-1.7,2.7-2.6c2.7-3,6.6-2.2,8,1.6c0.3,0.7,0.4,1.6,0.3,2.3
	c-0.3,1.8,0.3,4.8-1.8,4.9c-2.2,0.1-1.5-2.9-1.6-4.6c-0.1-1-0.1-2.2-1.3-2.5c-1.1-0.3-1.5,0.8-2.1,1.4c-1.8,1.6-3.5,3.1-5.2,4.6
	c-1.7-2.4-3.3-5.4-2.7-9.2c-2.5,1.8-2.7,4.5-4.2,6.3c-0.5,0.7-0.8,1.7-1.7,2c-0.6,0.2-1.3,0.5-1.9,0c-0.5-0.5-0.2-1.1,0-1.6
	c1.7-3.7,3.4-7.4,5.2-11c0.5-1.1,1.2-2.4,2.7-2.1c1.7,0.3,2.2,1.7,2.6,3.2C-200.7,393.9-201.3,396.4-200.2,398.8z"/>
<path id="XMLID_20_" d="M-255.7,398.3c1.4,1.7,0,3.5,0.1,5.2c0.1,2,0.7,2.8,2.8,2.8c5.9,0,8.5-2.6,8.6-8.7c0.1-3.2,0.6-5.5-0.2-9.6
	c-0.2-1.1,0.7-2.3,1.6-3.2c0.5-0.5,1.2-0.7,1.9-0.3c0.5,0.3,0.5,1,0.4,1.5c-1.4,4.2-0.3,8.6-0.6,12.8c-0.5,7.1-6.1,11.8-13.2,10.9
	c-4.2-0.5-6.1-5.5-3.5-9.6C-257.3,399.6-256.9,398.4-255.7,398.3z"/>
<path id="XMLID_16_" d="M-176.5,408.3c-1.1,0.4-1.8-0.7-2.8-0.9c-1-0.1-1.2-0.9-1.2-1.8c0-1.2,1.1-1,1.8-1.1
	c3.4-0.2,5.7-1.9,7.2-4.9c0.7-1.4,0.9-2.4-1.1-2.5c-0.7,0-1.3-0.3-1.9-0.6c-1.5-0.6-4.2,0.4-4.3-1.7c-0.1-2.1,1.8-4,3.2-5.7
	c0.4-0.4,1-1.1,1.7-0.4c0.4,0.4,0.8,1.4,0.6,1.7c-2.3,3.2,0.8,3,2.2,3.2c4,0.7,5,2.2,3.6,6C-168.8,403.6-173.7,408.1-176.5,408.3z"
	/>
</svg>
