<?xml version="1.0" encoding="utf-8"?>
<!-- Generator: Adobe Illustrator 19.0.0, SVG Export Plug-In . SVG Version: 6.00 Build 0)  -->
<svg version="1.1" id="Layer_1" xmlns="http://www.w3.org/2000/svg" xmlns:xlink="http://www.w3.org/1999/xlink" x="0px" y="0px"
	 viewBox="206 244.1 1024 410" style="enable-background:new 206 244.1 1024 410;" xml:space="preserve">
<style type="text/css">
	.st0{fill:#FFFFFF;}
</style>
<polygon class="st0" points="1229.8,326.6 1210.4,322.9 1168.7,324.7 1127.9,329.4 1095.2,337.9 1079.7,343.4 1071.9,326.9 
	1057.9,322.9 1036.2,327.4 1022.2,339.1 1016.7,367.1 1008.4,375.6 995.4,386.4 968.4,430.6 951.2,465.6 939.7,518.3 712.9,525.1 
	459.2,525.1 459.2,654.1 1230,654.1 "/>
<path id="XMLID_14_" d="M1076.3,395.1c-2.9-3.1-1.4-11.4-1.7-18.1c-0.6-12.3,1.9-24.6,0.3-37c-1.3-10.3-8.3-16.9-18.7-15.8
	c-9.5,1-18.2,3.9-26.4,8.9c-1.7-2.9-0.7-4.5,1.9-6c10-5.4,20.9-8.3,31.8-6.4c8.3,1.4,15.1,7.2,16.1,16.9c0.4,3.6,1.3,3.5,4.3,2.1
	c16.8-7.8,34.5-12.5,52.9-14.2c6.8-0.6,13.2-3.5,20.1-3.7c16.3-0.6,32.6-2.7,48.9-1.4c6.7,0.5,13.3,1.5,19.9,2.7
	c1.8,0.3,4.8,1,4.1,3.5c-0.6,2.2-3,0.7-4.8,0.7c-11,0-21.6-4-33-2.2c-7.9,1.3-16.1,1-24.2,1.4c-24.1,1.5-47.7,5.9-70.8,12.9
	c-2.8,0.8-5.6,1.8-8.3,2.8c-5,1.9-7.8,4.5-8.1,11c-0.5,13-2.8,26-0.7,38.9C1080.1,393.1,1078.5,393.6,1076.3,395.1z"/>
<path id="XMLID_32_" d="M388.5,266c-1.3,3.2-1.3,7-3.5,10.4c-3.5,5.4-5.4,6.5,0.3,11.1c4.8,5,7.1,11.3,8.7,18
	c0.4,1.7,0.8,3.4-0.9,4.6c-1.6,1.1-3.3,0.6-4.7-0.5c-1.4-1.2-2.7-2.2-1.5-4.7c1.7-3.8-3.4-14.4-7.1-16.1c-1.7-0.8-2.1,0.7-3,1.4
	c-6.5,5.3-12.7,11.1-21.2,13.3c-15.3,3.9-29.8,2.7-42.2-7.8c-3.4-2.8-4.6-2.6-6,1.1c-0.2,0.4-0.3,0.8-0.5,1.2
	c-1.4,2.7-2.7,7.3-6.2,5.4c-2.8-1.5,0.7-4.8,2.1-6.9c5.1-7.7,6.6-7.7-0.3-16.3c-3.5-3.9-5.2-9.6-4.7-15.3c0.1-1.6-0.7-4.1,1.5-4.1
	c2.1,0,2.6,2.5,2.6,4.4c-0.2,6.1,2.9,10.8,5.9,15.7c2,3.3,3.6,3.6,7.2,1c10.6-7.7,21.8-14.4,35.9-13.3c8.3,0.7,15.4,4.4,22.3,8.4
	c3.8,2.2,5.6,1.4,7.2-2.1c1.3-2.8,3.5-5.3,3.2-8.7c-0.2-2.3,1.5-3,3.2-3C388.2,262.9,388.9,264.2,388.5,266z M340.2,299.6
	c8.7,1.7,16-1,23-4.5c4.9-2.5,11.7-5.7,13-10.4c0.9-3-8.4-5-11.9-7.2c-2.1-1.4-4.4-2.4-6.9-3.1c-16.3-4.7-29.1,1.9-41.5,10.7
	c-5.4,4.6-1.6,5,0.8,7C323.8,298,331.6,300.9,340.2,299.6z"/>
<path id="XMLID_11_" d="M1184.2,388.1c0,9,0,18.1,0,27.1c0,1.7,0.1,3.5-0.6,4.9c-1,2.1-1.5,5.7-4.7,5.1c-3.8-0.7-1.8-4-1.8-6.3
	c0.2-14.3,2.1-28.6,1.8-43c-0.1-5.8-2.2-9.3-7.4-13.2c-13.1-9.7-26-6.9-39-1.7c-5.2,2.1-5.5,8.8-6.3,13.5c-2.2,13-3.8,26.2-3.1,39.6
	c0.1,1.1,0.2,2.1,0.2,3.2c-0.1,2.4-1.1,4.1-3.8,4.1c-2.3,0-3.4-1.4-3.4-3.6c-0.3-7.8-1.7-15.5,0.6-23.3c0.8-2.6,0.7-5.4,0.8-8.2
	c0.3-6.9,1-13.6,3.7-20.3c2.4-6,4.9-9.8,12.1-11.6c8.4-2.1,16.3-5,25.2-3.7c16.7,2.5,26.6,13.7,26.5,30.4c0,2.3,0,4.6,0,7
	C1184.8,388.1,1184.5,388.1,1184.2,388.1z"/>
<path id="XMLID_10_" d="M707.8,543.8c-27.1,2.5-46.5-1.4-66.1-2.2c-16.6-0.6-33.1-4.1-49.7,0.4c-2.4,0.6-4.8,0.2-6.2,3.2
	c-0.9,2.1-4.4,2-5.7,1.5c-3-1.3-5.2-1.9-7.6,0.8c-0.6,0.6-2,0.6-2.9-0.3c-0.8-0.9-0.8-1.9-0.4-3c1-2.4,2.7-3.5,5.3-3.9
	c21.4-3.7,42.8-5.1,64.7-3c27.8,2.6,55.6,4.5,83.7,3.2c19.3-0.9,38.7-1.6,58-0.9c1.7,0.1,4.3-1.1,4.6,1.7c0.3,3.5-2.5,2.5-4.5,2.5
	C754.2,543.8,727.3,543.8,707.8,543.8z"/>
<path id="XMLID_24_" d="M1066.3,519.4c-11.9,0.4-23.8-0.5-35.6,0.5c-13.3,1.1-26.6,1.2-39.9,0.5c-13.8-0.8-27.6-0.4-41.3-2.9
	c-3.5-0.6-4.8-1.9-5.8-5.8c-1.4-5.5,0.7-9.8,1.6-14.6c3.4-17.9,8.2-35.7,16.7-51.6c10.6-20,21.2-40.3,35.4-58.2
	c4.3-5.4,9.2-9.9,16-12.1c1,2.1,0.3,3.7-0.3,5.3c-1.6,4.4,0.5,7.7,3,11c0.7,0.9,1.3,1.6,2.6,1.3c1.3-0.4,1.4-1.3,1.2-2.5
	c-1.4-6.8-0.3-13.5,0.3-20.4c1-11.5,3.1-22.6,6.3-33.7c-2.4-0.8-5.4-1.1-6,2.5c-0.6,3.7-2,7.2-2.6,10.9c-1.6,9.6,0.3,20.9-12.5,24.4
	c-0.4,0.1-0.6,0.6-1,0.8c-7.3,5.5-12.2,13.1-17,20.7c-2.7,4.3-7.3,6.8-9.4,11.6c-4.3,10-9.6,19.4-15.8,28.4
	c-7.8,11.2-11.2,24.3-15.2,37c-4.2,13.4-9.5,26.7-7.8,41.3c0.3,2.3-0.5,3.2-3.2,3.1c-9.8-0.3-19.6-0.3-29.5-0.2
	c-27.9,0.1-55.7,2.5-83.5,2.7c-17.6,0.1-35.3-0.2-52.9,0.6c-16.8,0.8-33.5,3.3-50.3,3.2c-12.3-0.1-24.5-0.8-36.8-0.9
	c-11.4-0.1-22.8,0.3-34.1,0.2c-6.2-0.1-8-3.3-6-9.2c0.3-1,1.2-1.7,1.7-2.6c0.6-1,1.6-2.3,0.1-3.2c-1-0.6-2.3-0.4-3.5,0.4
	c-2.6,1.7-2,4.9-3.5,8.7c-1.2-3.8-1.7-6.3-2.8-8.4c-0.9-1.7-0.9-5.5-4.2-4.2c-3.7,1.4-1.4,4.7-0.5,6.4c1.9,3.7,3.8,7.3,5,12.4
	c-12.3-1.7-23.9,1.6-35.7,0c-6.2-0.8-9.3-1.8-10.5,0.9c-32.1-0.4-64.3,0.2-96.2,1l-3,0.3c0.2-0.1,0.3-0.2,0.5-0.3
	c-6.9-1-13.8-1.1-20.7-1c-3,0.1-4.6-0.6-6-3.9c-6.4-14.4-13.1-28.7-20.6-42.6c-6.6-12.1-10.8-25.5-18-37
	c-6.9-11.2-13.7-22.5-20.1-34c-5.9-10.7-13.4-20.4-20.1-30.6c-6.8-10.2-15.7-19.1-24.2-28.2c-11.8-12.6-29.7-12.3-41.1,0.4
	c-16,16.9-33.6,32-50,48.3c-3.4,4.7-4.3,5.6-6.1-1.1c-1.6-5-5.1-8.8-7.9-12.8c-3.9-5.5-5.9-11.9-9-17.7c-1-1.9-2.4-2.3-4.1-1.9
	c-2,0.6-1.3,2.2-0.9,3.7c1,3.6,1.5,7.5,2.9,10.9c2.7,6.4,1.2,11.9-2.4,17.2c-1.4,2-3.4,5.1-5.9,3.2c-2.1-1.5-1.5-4.8-0.2-7.4
	c0.2-0.4,0.4-0.7,0.7-1c2.1-2.3,2.7-4.6-0.1-6.7s-4.5,0.3-5.7,2c-10.1,13.4-14,28.4-7.6,44.3c3.4,7.8,2.5,6.6-2.7,12.4
	c-4.4,4.5-8.2,9.6-12.3,14.4c-1.7,1.9-3.2,4.7-1.5,6.1c2,1.7,4-1,5.3-2.8c0.2-0.3,0.3-0.8,0.6-1.1c4.5-5.3,8.9-10.7,13.4-16
	c1.7-1.9,3.2-2.4,5.9-0.8c9.2,5.5,25.9-0.7,29.8-10.9c2.4-6.3,4.2-12.7,4.6-19.6c0-7-0.6-4.4,4.8-11.2c5.3-6.4,11.1-12.5,18.4-16.6
	c2.9-1.7,3.5-7.7,7.7-5.8c2.8,1.3,4.2,5.3,6.2,8.2c0.1,0.2,0.3,0.5,0.4,0.7c8,16.2,15.4,15.1,27,4.5c0.5-0.4,0.9-0.9,1.4-1.3
	c8.2-7.7,14.2-7.5,21.4,0.8c6.5,7.5,13.3,8.1,21.4,2.2c3-2.2,4.4-6,7.3-7.3c6.9,6.2,11,13.9,15.6,21.3c3.2,5,5.3,10.5,8.4,15.5
	c7,11.1,14.5,22,20,33.8c8.4,18.3,19.2,35.4,26.8,54c1.3,3.3,3.5,6.2,5.1,9.3s1.5,5-3,4.8c-6.5-0.3-13.1,0.2-19.6-0.2
	c-4.8-0.3-8.9,1.1-12.5,4.5c7.5-1.4,15.1-0.6,22.6-0.7c5.1-0.1,10.3,0.1,15.4,0.1l0,0c32.8,0,80.7,0.4,126.7,0.5l0,0c0,0,0,0,0.1,0
	c2.8,0,5.5,0,8.2,0c2.4,0,5.4,0.4,7-0.3c5.1,0.1,10.1,0.3,14.4,0.4c10.9,0.2,21.8,0.6,32.6,0.4c15.1-0.2,30.2-0.8,45.4,0.1
	c26.7,1.5,53.4-1.3,80.1-2.5c27.2-1.2,54.3-2.5,81.5-0.5c1.2,0.1,2.7-0.1,3.7-0.6c3.4-1.9,7.1-2,10.7-2c21-0.2,42-0.5,62.9-0.5
	c5.2,0,10.5,1.1,15.7,1.1c4.1-0.1,7.9,1.4,11.8,1.4c11.5,0.1,23,0.3,34.5,1.1c8.1,0.6,16.4,0.6,24.4-0.2c17-1.7,34-0.9,50.9-0.5
	c4.2,0.1,7.9,0.2,11.3-2.2C1077.8,520.4,1072.3,519.1,1066.3,519.4z M244.4,436.9c-2.9,0.6-8.3,0-9.6-2.1c1.6-2.1,4.5-3.4,5.8-5
	c5.6-6.5,13.7-14.1,20.8-19.3C262.5,422.8,255.8,434.5,244.4,436.9z M257.3,408.3c-7.4,6.9-14.9,13.6-22.5,20.3
	c-2.2,1.9-4.4,2.2-6.3-0.6c-4.1-5.9-3.7-22.8,1-29.5c3.2,6.6,8.8,7.6,13.5,2.5c1.9-2,3.6-4.2,5-6.5c1.3-2.1,2-4.6,3.1-7.2
	c5.4,3.6,6.6,9.7,9.4,14.7C261.8,404.6,259,406.7,257.3,408.3z M377,384.8c-9.7,8.1-13.1,8.9-20.1-1.3c-5.1-7.6-16.1-7.2-24.9,0.2
	c-3.2,2.7-6.4,5.3-9.7,7.9c-2.7,2.1-4.9,2.2-7.4-0.8c-3.1-3.8-5.6-7.8-7.9-12.1c-1.5-2.7-2.9-5.7-6-6.7c6.5-8.2,14.9-14,20.9-22.1
	c7.7-10.3,25.3-10.9,33.3-0.9c7.4,9.2,16.2,17.1,22.8,27C380.5,379.8,380,382.3,377,384.8z"/>
<path id="XMLID_9_" d="M1052.8,412.6c12.3,0.3,24.2,2.8,35.4,7.7c4.8,2.1,6.5,6.5,6.9,11.3c0.9,12.9-3.7,24.9-6.3,37.2
	c-0.3,1.6-1.5,2.6-3.3,2.3c-2.1-0.4-2.6-2.5-2.4-4c0.7-4.6,1.6-9.1,3-13.5c2.2-6.7,2.3-13.7,3-20.6c0.3-2.8,0-5.9-3.6-7.3
	c-14.7-5.9-29.5-9.9-45.5-6c-5.9,1.4-9.9,4.2-10.7,10.7c-0.7,5.2-2,10.3-2.6,15.5c-0.2,1.6-2,4.9,2.5,4.8c1.4,0,0.7,1.8,0.2,2.5
	c-1.6,2.1-2.4,5.2-5.5,5.5c-1.5,0.2-1.7-1.5-2.2-2.7c-3.3-9.2,1.9-32,8.9-38.4C1033.2,415.3,1045.4,412.5,1052.8,412.6z"/>
<path id="XMLID_8_" d="M1201,341.5c2.4-2.9,4.3-5.4,6.4-7.7c1.1-1.2,2.7-1.5,3.9-0.1c0.9,1.1,0.6,2.4-0.5,3.4
	c-9.8,7.9-10.1,13.3-4.7,18c0.6,1.3,0.4,3-1.6,3.5c-1.8,0.4-3.8,1.1-5.5,0.1c-2.5-1.5,0.7-2.4,0.5-3.1c-1.2-5.7-1.1-7.6-2.8-12.9
	c-0.1-0.3-2-3.4-2.1-3.7c-0.8-2.7-3.2-6.7-0.6-7.9c2.9-1.4,4,2.5,5.1,4.9C1199.7,337.6,1200.2,339.2,1201,341.5z"/>
<path id="XMLID_7_" d="M415.2,299.8c2.5,1.5,4.6,3.4,6.6,5.6c3.8,4.4,6.5,10.2,13.7,10.4c1.8,0,1.2,2.1,0.5,2.9
	c-2,2.2-4.6,2.9-7.3,1.2c-6.3-4-10.9-9.6-15-15.6C412.8,302.8,412.3,300.5,415.2,299.8z"/>
<path id="XMLID_6_" d="M437.2,246.7c0.3,1.6-0.7,2.1-1.5,2.8c-5.7,5.7-13.2,7.8-20.3,10.7c-0.9,0.4-2.1,0.9-2.5-0.6
	c-0.3-1.2-0.3-2.6,1-3.4c1.8-1.1,3.6-2,5.5-3c4.7-2.3,9.6-4.1,13.4-8C435,242.8,436.3,244.8,437.2,246.7z"/>
<path id="XMLID_5_" d="M257.8,248.7c2,0.2,3.7,1,5.1,2.3c2.8,2.8,6.2,5,8.2,8.6c1.3,2.4,5.4,4.9,2.4,7.3c-2,1.6-4.8-2.3-6.7-4.4
	c-3.4-3.9-5.9-8.9-11.9-9.3c-1.1-0.1-1.3-0.9-1-1.8C254.4,249.5,256.2,249.2,257.8,248.7z"/>
<path id="XMLID_4_" d="M256.7,320c-0.8-0.6-1.6-1-2.1-1.6c-0.9-1.2-0.3-2.2,0.7-3.2c5.1-5.1,11.7-7,18.1-9.5
	c0.8-0.3,1.8-0.4,2.2,0.5c0.6,1.7-0.4,2.8-1.7,3.6c-4.7,3-10.5,4.2-14.7,8.2C258.5,318.7,257.7,319.3,256.7,320z"/>
<path id="XMLID_3_" d="M423.2,275.6c5.5,1.2,11.3,0.7,16.5,3.3c1.1,0.5,2.6,1.2,2.3,2.7c-0.4,1.9-2,1.7-3.6,1.5
	c-5.4-0.9-10.7-1.7-16.1-2.7c-1.6-0.3-4.5,0.4-4.2-2.5C418.5,274.7,421.2,275.7,423.2,275.6z"/>
<path id="XMLID_2_" d="M266.7,288.7c-4.6-1.4-9.8-0.5-14.5-2.8c-1.2-0.6-3.1-1-2.4-3c0.5-1.5,2.1-1.1,3.3-0.9
	c4.7,0.7,9.5,1.4,14.2,2.3c1.4,0.3,3.8,0.1,3.3,2.7C270.2,288.9,268.3,288.5,266.7,288.7z"/>
<path id="XMLID_1_" d="M339.5,289.5c3.3-3,3.3-7.8,8.1-7.1c1.8,0.3,2.7,2.5,2,4.1C347.8,290.1,344.3,290,339.5,289.5z"/>
</svg>
