<?xml version="1.0" encoding="utf-8"?>
<!-- Generator: Adobe Illustrator 19.0.0, SVG Export Plug-In . SVG Version: 6.00 Build 0)  -->
<svg version="1.1" id="Layer_1" xmlns="http://www.w3.org/2000/svg" xmlns:xlink="http://www.w3.org/1999/xlink" x="0px" y="0px"
	 viewBox="-252.1 393.8 105.8 7.1" style="enable-background:new -252.1 393.8 105.8 7.1;" xml:space="preserve">
<style type="text/css">
	.st0{display:none;}
</style>
<g id="white_x5F_bg_xA0_Image_1_">
</g>
<g id="Image_xA0_1_xA0_Image_1_" class="st0">
	
		<image style="display:inline;overflow:visible;enable-background:new    ;" width="1083" height="813" id="Image_xA0_1_xA0_Image" xlink:href="D2DCCEC4.png"  transform="matrix(0.2393 0 0 0.2391 -643.2127 690.3541)">
	</image>
</g>
<g id="Image_xA0_2_xA0_Image_1_" class="st0">
	
		<image style="display:inline;overflow:visible;enable-background:new    ;" width="813" height="1083" id="Image_xA0_2_xA0_Image" xlink:href="D2DCCEC5.png"  transform="matrix(0.2391 0 0 0.2393 -672.0127 644.274)">
	</image>
</g>
<g id="Image_xA0_3_xA0_Image_1_" class="st0">
	
		<image style="display:inline;overflow:visible;enable-background:new    ;" width="813" height="1025" id="Image_xA0_3_xA0_Image" xlink:href="D2DCCEC3.png"  transform="matrix(0.2391 0 0 0.2391 -477.6127 658.434)">
	</image>
</g>
<g id="Image_xA0_4_xA0_Image_1_" class="st0">
	
		<image style="display:inline;overflow:visible;enable-background:new    ;" width="775" height="1083" id="Image_xA0_4_xA0_Image" xlink:href="D2DCCECC.png"  transform="matrix(0.2388 0 0 0.2393 -672.0127 644.274)">
	</image>
</g>
<g id="Image_xA0_5_xA0_Image_1_">
	<g>
		<path d="M-216,397.6c-0.1,0.2-1.5,0-2.1,0.2c-0.7,0.2-0.7,0.6-0.7,1.1c0,0.7,0.5,0.4,0.9,0.5c0.8,0.1,1.6-0.2,2.4-0.3
			c0.3,0,0.6-0.1,0.7,0.2c0.1,0.4-0.1,0.6-0.4,0.8c-0.2,0.1-0.4,0.2-0.5,0.2c-1.2,0.3-3.5,0.6-4,0.2c-0.6,0.4-2.2,0.3-3.5,0
			c-0.8-0.2-0.9-0.8-0.9-1.3c-0.1-1.2,0.7-2.3,0.8-3.5c0-0.3,0.3-0.4,0.6-0.3c0.3,0,0.2,0.3,0.2,0.5c-0.1,0.9-0.4,1.5-0.6,2.2
			c-0.2,0.9-0.2,1.5,1.3,1.6c2.5,0.1,1.9-0.2,1.9-1.9c-0.1-0.5,0.2-1.1,0.4-1.6c0.4-1.3,2.3-2.1,3.6-1.5c0.3,0.1,0.6,0.4,0.4,0.8
			c-0.2,0.4-0.5,0.1-0.7,0.1c-0.9,0-1.8-0.1-2.3,0.8c-0.1,0.2-0.3,0.4-0.1,0.7c0.2,0.2,0.4,0,0.5,0
			C-217.4,396.7-215.9,397.1-216,397.6z"/>
		<path d="M-243.8,396.7c-0.4,0.9-0.9,1.6-1.1,2.3c-0.2,0.7-0.6,0.9-1.2,1c-0.6,0-0.9-0.4-1.1-0.9c-0.3-0.7-0.5-1.3-0.8-1.9
			c-0.4-0.8-0.8-0.8-1.3-0.1c-0.5,0.6-0.7,1.4-0.9,2c-0.2,0.4-0.4,0.7-0.8,0.9c-0.3,0.1-0.5,0.5-0.9,0.1s0-0.6,0.2-1
			c0.7-1.1,1.2-2.4,2.2-3.4c0.9-0.9,1.1-0.8,1.9,0.1c0.7,0.8,1,1.8,1.5,2.8c0.6-0.6,1-1.3,1.3-2.1c0.7-1.2,1.7-1.2,2.3,0
			c0.6,1.1,0.5,2.2,0.4,3.4c0,0.3-0.1,0.5-0.4,0.5c-0.4,0.2-0.5-0.1-0.6-0.4c0-0.3-0.3-0.5-0.1-0.8
			C-243,398.4-243.2,397.6-243.8,396.7z"/>
		<path d="M-170,398.7c0,0.8,0.2,1.8-0.8,1.8s-0.8-1.1-0.7-1.8c0.1-0.8,0.2-1.6,0.1-2.5c0-0.9,1.3-2.3,2.3-2.4
			c1.4-0.1,2.2,1.1,1.6,2.3c-0.3,0.6-1,1.4-1.5,2.1c1.2-0.1,2.2,1.2,3.5,0.9c0.3-0.1,0.6,0.1,0.5,0.4s-0.3,0.7-0.8,0.6
			c-0.6-0.1-1.2-0.1-1.8-0.5C-168.2,399.1-169.1,399-170,398.7z M-170,397.9c0.6-0.8,1.1-1.4,1.5-1.9c0.2-0.2,0.4-0.5,0.1-0.9
			c-0.3-0.3-0.6-0.2-0.9-0.1c-0.6,0.1-1,0.5-1,1.2C-170.2,396.6-170.1,397.1-170,397.9z"/>
		<path d="M-235.1,394.9c0.5-0.1,1.2,0.1,1.8,0.2c1.6,0.5,2.2,1.6,1.8,2.9c-0.6,2-2.7,2.8-3.8,2.4c-0.6-0.2-1-0.6-1-1.3
			c0-0.9-0.1-1.8-0.2-2.7C-236.8,394.9-236.7,394.9-235.1,394.9z M-235.6,395.9c0.2,1,0.4,1.9,0.4,2.9c0,0.6,0.3,0.8,0.9,0.7
			c0.9-0.2,1.9-1.3,1.8-2.3c-0.1-1-1.1-1-1.8-1.2C-234.7,395.8-235.1,395.9-235.6,395.9z"/>
		<path d="M-230.5,396.6c-0.2-0.6,0.1-1.6,1-1.5c1.3,0.2,2.5,0.4,3.8,0.5c0.8,0.1,1,0.5,0.9,1.2c-0.1,1.3-2.1,3.5-3.3,3.8
			c-2.6-0.2-2.7-0.3-2.5-1.7c0-0.5,0-0.5,0-0.7c0-0.4-0.2-1,0.4-1.1c0.6-0.1,0.4,0.6,0.5,1s-0.4,1.1,0.3,1.4c0.7,0.4,2.4-0.2,3-1.3
			c0.8-1.3,0.7-1.5-0.8-1.8c-0.7-0.1-1.4-0.2-2.1-0.4C-229.9,395.8-230,397.1-230.5,396.6z"/>
		<path d="M-162.9,398.7c0-0.5,1.3-0.6,1.8-0.7c1,0,0.8-0.5,0.5-1s-0.3-1.4-0.9-1.4c-0.6,0-0.7,0.8-0.9,1.3
			c-0.4,0.9-1.2,1.5-1.1,2.6c0,0.2-0.2,0.3-0.4,0.4c-0.2,0-0.4-0.1-0.4-0.3c0-0.4-0.2-0.8,0.1-1.2c0.7-1.2,1.3-2.4,2.1-3.6
			c0.4-0.7,0.9-0.8,1.5,0s0.9,1.7,1.2,2.6c0.2,0.5,0.2,1,0.7,1.3c0.5,0.4,0.4,1.1-0.1,1.4c-0.6,0.4-0.9-0.2-1-0.7
			c-0.2-0.6-0.6-0.6-1.1-0.7C-161.4,398.9-162.9,399-162.9,398.7z"/>
		<path d="M-146.4,397.7c0,0.8,0,1.5,0,2.3c0,0.4-0.1,0.7-0.6,0.7c-0.4,0-0.5-0.3-0.5-0.7c0-0.7,0-1.4,0.1-2.1
			c0-0.5-0.1-0.9-0.7-0.7c-1.1,0.2-1.2,0.2-2.3,0.3c-1,0.2-1.2,0.6-1,1.4c0.1,0.5,0.2,1-0.4,1c-0.6,0-0.6-0.5-0.6-1
			c0-0.7,0.1-1.4,0.2-2.2c0-0.3,0.1-2,0.4-2c0.9-0.1,0.1,0.8,0.5,1.9c0.1,0.2,0.7,0.1,0.9,0c1-0.3,1-0.4,2.1-0.3
			c0.7,0,1.1-0.2,1.2-1c0-0.3,0.1-0.7,0.5-0.7c0.4,0.1,0.3,0.5,0.3,0.8C-146.5,396.3-146.5,397-146.4,397.7L-146.4,397.7z"/>
		<path d="M-182.6,398.3c-1-0.5-1.9-1-2.7-1.4c-0.5-0.3-0.9-0.7-0.9-1.3c0-0.7,0.7-0.7,1.2-0.8c0.6-0.2,1.2-0.3,1.9-0.4
			c0.3-0.1,0.8-0.1,0.9,0.4c0,0.5-0.4,0.3-0.7,0.4c-0.7,0.2-1.4,0.4-2.3,0.6c0.9,0.9,1.9,1.1,2.8,1.6c0.4,0.2,0.9,0.5,0.9,1
			c0,0.6-0.4,0.9-0.9,1.2c-1,0.6-2,1.2-3.3,1.3c-0.5,0-0.8,0-1-0.4c-0.3-0.5-0.4-0.8,0.2-0.7C-185.1,399.9-183.9,399.1-182.6,398.3z
			"/>
		<path d="M-157.6,400c0-0.3-0.2-0.8,0.3-0.8c0.7-0.1,0.2,0.5,0.4,0.8s0.5,0.1,0.8,0.1c0.4-0.2,0.6-0.3,0.9-0.6
			c1.4-1.3,1.4-1.3-0.3-1.9c-0.4-0.2-0.8-0.3-1.1-0.7c-0.5-0.5-0.7-1.2-0.1-1.7c0.5-0.5,2.3-0.4,2.9-0.1c0.1,0.1,0.2,0.3,0.2,0.4
			c-0.1,0.3-1.3,0.3-1.6,0.3c-0.3,0.1-0.7-0.1-0.8,0.3c0,0.4,0.4,0.4,0.7,0.5c0.4,0.1,0.8,0.2,1.2,0.3c1.3,0.4,0.9,1.7,0.4,2.1
			c-0.7,0.8-1.2,1.3-2,1.8C-156.9,401.2-157.3,400.8-157.6,400z"/>
		<path d="M-191.5,396.4c0.9,0.3,1.8,0.5,2.6,0.9c0.6,0.3,1.2,0.7,1.2,1.5c0,0.7-0.6,1.1-1.2,1.4c-1.1,0.6-2.3,0.2-3.5,0.1
			c-0.2,0-0.4-0.1-0.4-0.4s0.2-0.4,0.4-0.5c0.4-0.1,0.8,0,1.2,0c0.4,0.1,0.8,0.2,1.2,0.1c0.5-0.1,1.2-0.2,1.3-0.9
			c0-0.6-0.6-0.7-1.1-0.9c-0.8-0.2-1.5-0.6-2.3-0.7c-0.3,0-0.7-0.1-0.7-0.5c-0.1-0.4,0.2-0.6,0.5-0.8c0,0.1,0.1,0,0.2,0
			c0.6-0.2,1.3-1.1,1.7-0.5C-189.9,395.8-191.2,395.8-191.5,396.4z"/>
		<path d="M-206,400.4c-0.8-0.1-1.7,0-2.5-0.4c-0.7-0.4-1.1-0.9-0.8-1.8c0.5-1.6,1.7-2.7,3.2-3.3c0.3-0.1,0.8-0.2,1,0.3
			c0.2,0.6-0.3,0.4-0.7,0.5c-1.3,0.4-2,1.4-2.6,2.5c-0.3,0.6,0,1,0.6,1.1c0.9,0.2,1.8,0.2,2.7,0.2c0.4,0,0.9-0.2,0.9,0.4
			s-0.6,0.4-0.9,0.5C-205.4,400.4-205.7,400.4-206,400.4z"/>
		<path d="M-175.4,398.1c0-1.9,0-1.9-1.9-1.7c-0.5,0.1-1,0.1-1.1-0.4s0.5-0.4,0.9-0.5c0.9-0.1,1.8-0.2,2.7,0.1
			c0.6,0.2,1.3,0,1.9-0.2c0.4-0.1,0.8-0.1,0.9,0.3c0.1,0.4-0.3,0.5-0.6,0.6h-0.1c-0.5,0.3-1.5,0-1.7,0.6c-0.3,0.7-0.2,1.6-0.1,2.5
			c0,0.3,0.5,0.7-0.1,0.9c-0.6,0.2-0.7-0.4-0.8-0.8C-175.5,399-175.4,398.5-175.4,398.1z"/>
		<path d="M-194.2,399.1c-1-1.1-1.5-2.5-2-3.8c-0.3-0.8-0.8-0.7-1.2-0.2c-0.6,0.6-0.8,1.4-1.1,2.1c0,0.1-0.2,0.5-0.4,0.9
			s-0.3,0.5-0.4,0.7c-0.7,1-1.5,0.7-2.5,0.9c-0.6,0.1-0.1-1.9-0.2-2.6c0-0.3,0-0.6,0-1c0-0.2-0.3-0.7-0.6-0.7s-0.4,1.2-0.4,1.5
			c0,0.9-0.1,1.9-0.1,2.9c0,0.5,0.3,0.8,0.7,0.8c1-0.1,2.1-0.2,3.1-0.5c0.7-0.2,1.1-1.1,1.1-1.5l0,0l0,0l0,0
			c0.1,0.6,0.5,0.6,1.1,0.5c0.8-0.2,1.5-0.3,2,0.7c0.2,0.4,0.6,0.6,1,0.3C-193.7,399.8-193.9,399.4-194.2,399.1z M-198.2,398.5
			c0,0,0-0.1,0.1-0.2c0-0.1,0-0.1,0.1-0.2c0-0.1,0-0.2,0.1-0.3c0.1-0.2,0.1-0.3,0.3-0.5c0.1-0.2,0.2-0.3,0.3-0.5
			c0.1-0.3,0.3-0.5,0.5-0.7c0,0,0,0,0.1,0c0.1,0.7,0.3,1.3,0.6,1.9c-0.6,0.4-1.3,0.2-1.9,0.5C-198.1,398.4-198.1,398.5-198.2,398.5z
			"/>
		<path d="M-239.5,397.7c0,0.7,0,1.1,0,1.6c0,0.3-0.1,0.5-0.4,0.5s-0.4-0.2-0.4-0.5c-0.2-1.1-0.2-2.3-0.1-3.5c0-0.2,0-0.5,0.3-0.6
			c0.4,0,0.5,0.3,0.5,0.5C-239.5,396.6-239.4,397.2-239.5,397.7z"/>
		<path d="M-212,396.5c0.6,0.2,1.6-0.4,1.7,0.4c0.1,0.9-1,0.6-1.6,0.6s-1.8,0.4-1.8-0.4C-213.8,396.2-212.6,396.9-212,396.5z"/>
	</g>
</g>
<g id="Image_xA0_6_xA0_Image_1_" class="st0">
	
		<image style="display:inline;overflow:visible;enable-background:new    ;" width="829" height="246" id="Image_xA0_6_xA0_Image" xlink:href="D2DCCECF.png"  transform="matrix(0.238 0 0 0.2351 -421.6927 829.3141)">
	</image>
</g>
<g id="Layer_4_xA0_Image_1_" class="st0">
	
		<image style="display:inline;overflow:visible;enable-background:new    ;" width="813" height="242" id="Layer_4_xA0_Image" xlink:href="D2DCCECD.png"  transform="matrix(0.2385 0 0 0.238 -546.3327 818.0541)">
	</image>
</g>
</svg>
