<?xml version="1.0" encoding="utf-8"?>
<!-- Generator: Adobe Illustrator 19.0.0, SVG Export Plug-In . SVG Version: 6.00 Build 0)  -->
<svg version="1.1" id="Layer_1" xmlns="http://www.w3.org/2000/svg" xmlns:xlink="http://www.w3.org/1999/xlink" x="0px" y="0px"
	 width="127.9px" height="42px" viewBox="42 0 127.9 42" style="enable-background:new 42 0 127.9 42;" xml:space="preserve">
<path id="XMLID_6_" d="M84,17.5C83.8,25,82.4,31.8,76.1,37c-9,7.4-21.8,6-28.9-1c-5.8-5.7-8-17.9,0.2-25.8c2.9-2.8,5.5-5.7,9.2-7.5
	C67.5-2.4,77.5-1,83.1,11.6C84.1,13.4,84,15.5,84,17.5z M51.2,35.4c6.5,5.5,17.1,5,23.4-0.4c5.7-4.9,8.9-17.7,5.6-23.4
	c-0.1-0.2-0.2-0.5-0.4-0.7c-2.4-2.4-4.7-5-7.4-7c-4.3-3-8-0.6-11.9,1.6c-2.1,1.2-0.8,2.7-1,4C59,13.4,57.1,16,53.3,17
	c-1.9,0.5-3,1.3-3.4,3.2c-0.3,1.3-0.7,2.5-1,3.7c-0.2,0.7-0.7,1-1.5,1c-0.6,0-0.8-0.4-1-1c-0.7-2.4,2.1-7.7,4.5-8.5
	c5.9-2.1,6.5-3.1,5.9-9.3c-9.9,3.9-14.5,15.1-9.9,24.4c0.4,0.8,0.6,2.4,2,1.8c2.2-0.8,4.3,0.2,6.5,0.3c2.2,0,4.2-0.9,4.7-2.7
	c0.4-1.8-2-2.3-3.3-3.1c-1-0.6-3.1,0-3-1.8c0.1-1.5,1.2-2.7,3-3.2c-0.5,3.5,2.6,3.5,4.2,4.7c2.1,1.4,2.2,2.5,1.1,4.8
	C59.7,36.2,55.5,35.5,51.2,35.4z"/>
<path id="XMLID_1_" d="M62.7,15.8c1.5-0.6,2.8-0.9,4-1.5c2.7-1.4,4.6,0.3,6,2.1c0.6,0.7,2,2.4,0.6,3.4c-1.5,1.1-2-0.6-2.7-1.7
	c-1.9-2.7-4.2-1.2-6.1,0c-1.5,1-2.7,1.4-4.2,0.4c-1.6-1.1-0.8-2.5-0.5-3.9c0.6-2.4,1.4-4.6,3.2-6.5c2.4-2.6,4.6-2.5,7-0.2
	c1.5,1.5,2.8,3.1,4.1,4.6c0.6,0.7,1,1.8,0.3,2.5c-1,1-1.5-0.2-2.1-0.8c-0.6-0.7-1.1-1.6-1.9-1.9c-1.7-0.7-2.2-3.8-4.5-2.8
	C63.7,10.6,62.6,12.8,62.7,15.8z"/>
<path id="XMLID_73_" d="M127,17.4c-0.2,7.5-1.6,14.3-7.9,19.5c-9,7.4-21.8,6-28.9-1c-5.8-5.7-8-17.9,0.2-25.8
	c2.9-2.8,5.5-5.7,9.2-7.5c10.9-5.1,20.9-3.7,26.5,8.9C127.1,13.3,127,15.4,127,17.4z M94.2,35.3c6.5,5.5,17.1,5,23.4-0.4
	c5.7-4.9,8.9-17.7,5.6-23.4c-0.1-0.2-0.2-0.5-0.4-0.7c-2.4-2.4-4.7-5-7.4-7c-4.3-3-8-0.6-11.9,1.6L99.9,6c-10,3.9-14.6,15.1-10,24.4
	C90.6,32,94.1,35.2,94.2,35.3z"/>
<path id="XMLID_2_" d="M169.9,17.5c-0.2,7.5-1.6,14.3-7.9,19.5c-9,7.4-21.8,6-28.9-1c-5.8-5.7-8-17.9,0.2-25.8
	c2.9-2.8,5.5-5.7,9.2-7.5c10.9-5.1,20.9-3.7,26.5,8.9C170,13.4,169.9,15.5,169.9,17.5z M137.1,35.3c6.5,5.5,17.1,5,23.4-0.4
	c5.7-4.9,8.9-17.7,5.6-23.4c-0.1-0.2-0.2-0.5-0.4-0.7c-2.4-2.4-4.7-5-7.4-7c-4.3-3-8-0.6-11.9,1.6L142.8,6
	c-10,3.9-14.6,15.1-10,24.4C133.5,32,137,35.2,137.1,35.3z"/>
<path id="XMLID_70_" d="M98.2,22.7c0.2-4-0.1-8.1,1.5-12c0.7-1.6,1.3-3,3.3-2.5c5.1,1.3,10,3,13.7,6.9c2.7,2.9,2.2,5.2-1.1,7.7
	c-3.5,2.7-6.8,5.9-10.3,8.5c-4.8,3.6-6.7,2.6-7.2-3.4C98.1,26.2,98.2,24.5,98.2,22.7z M102.3,30c3.6-3.1,6.9-6.3,10.6-9
	c2.5-1.8,1.2-3.9,0.1-4.5c-3.2-1.7-5.9-4.7-10.1-4.6C103.1,17.9,99.3,23.7,102.3,30z"/>
<path d="M144.6,14.9c-0.3-0.2-1-0.3-1.4-0.3s-0.9-0.1-1.3-0.1c-0.3,0-0.6-1.3-0.6-1.6c-0.1-0.9,1.9-0.8,2.4-0.8
	c0.8-0.1,1.8-0.2,2.5,0.4c0.5,0.4,0.8,1,1,1.7c1.1,3.3,0.9,6.8,0.8,10.3c0,1.5,0,3-0.6,4.3c-0.5,1.2-1.4,2.1-2.5,2.8
	c-0.8,0.4-2.8,1-4.8,1c-0.9-0.2-1.8-0.8-2.2-1.8c-0.2-0.6-0.2-1.3-0.2-1.9c0-2.7,0.1-5.3,0.3-8c0.1-1.4,0.3-2.8,0.2-4.2
	c0-0.8,0.5-2.3,0.9-2.4c1.9,0.1,1.9,0.1,1.9,0.7c0.3,2,0.3,3.7,0.1,5.7c-0.2,1.5-0.3,3-0.5,4.5c-0.1,1.3-0.3,2.6-0.1,3.9
	c0,0.3,0,0.9,0.3,1.1c0.6,0.3,1.2,0.2,1.7-0.3c0.2-0.1,1.7-0.5,2.1-1.4c0.5-0.9,0.6-1.9,0.6-2.9c0.1-1.9,0.2-3.8,0-5.7
	c-0.1-0.9,0.1-2-0.2-2.9"/>
<path d="M154.5,15c-0.2,1.5-0.3,3-0.4,4.5c-0.1,1.4-0.1,2.8,0,4.3c0.1,0.9,0.2,1.8,0.3,2.7c0,0.3,0.1,0.7,0.2,1s1.1,1.3,2.1,1
	c0.6-0.2,1.2,0.1,1.8,0c0.8-0.2,0.7-0.1,0.8-0.4c0.6-0.8,0.4-2.1,0.6-3c0.1-0.5,0.3-1,0.3-1.5c0.1-0.8,0.1-1.6,0.1-2.4
	c0-1,0-2-0.2-2.9c-0.2-1-0.6-1.9-1-2.8c-0.3-0.8-2.2-1.3-2.9-1.8c-0.3-0.2-0.8-0.8-0.3-1.3c0.2-0.2,2,0,2.2,0c1.1,0.1,2.3,0.4,3,1.3
	c0.4,0.4,0.6,0.9,0.8,1.4c0.8,2.1,0.9,4.4,0.9,6.7c0,0.7,0,1.3-0.1,2c-0.1,0.5-0.2,0.9-0.3,1.4c-0.2,1-0.1,2-0.4,2.9
	c-0.4,1.2-1.4,2-2.6,2.5c-1.5,0.6-3.8,0.9-5.3,0c-0.6-0.3-1.1-0.8-1.5-1.3c-0.5-0.5-1.1-0.9-1.1-1.7c0-1.5-0.2-2.9-0.3-4.4
	c-0.1-1.6,0-3.2,0.1-4.9c0.1-0.8,0.1-1.6,0.2-2.4c0-0.7,0-1.5,0.3-2.1c0.2-0.4,0.5-0.6,0.9-0.6c0.3,0.1,1.6,0.4,1.7,0.7
	C154.5,14.2,154.5,15,154.5,15z"/>
</svg>
