<?xml version="1.0" encoding="utf-8"?>
<!-- Generator: Adobe Illustrator 19.0.0, SVG Export Plug-In . SVG Version: 6.00 Build 0)  -->
<svg version="1.1" id="Layer_1" xmlns="http://www.w3.org/2000/svg" xmlns:xlink="http://www.w3.org/1999/xlink" x="0px" y="0px"
	 width="300px" height="300px" viewBox="129 -129 300 300" style="enable-background:new 129 -129 300 300;" xml:space="preserve">
<style type="text/css">
	.st0{fill:#96BAFC;}
</style>
<path id="XMLID_3_" class="st0" d="M167-106.8"/>
<path id="XMLID_1_" class="st0" d="M136.6-119.7c-1.8,1.8-4.8,1.8-6.7,0c-1.9-1.8-1.8-4.8,0-6.7c1.8-1.9,9.6-2.9,9.6-2.9
	S138.4-121.5,136.6-119.7z"/>
<path id="XMLID_5_" class="st0" d="M155.5-119.7c-1.8,1.8-4.8,1.8-6.7,0c-1.8-1.8-1.8-4.8,0-6.7c1.8-1.8,9.6-2.9,9.6-2.9
	S157.3-121.5,155.5-119.7z"/>
<path id="XMLID_10_" class="st0" d="M193.3-119.7c-1.8,1.8-4.8,1.8-6.7,0c-1.9-1.8-1.8-4.8,0-6.7c1.8-1.8,9.6-2.9,9.6-2.9
	S195.1-121.5,193.3-119.7z"/>
<path id="XMLID_11_" class="st0" d="M174.4-119.7c-1.8,1.8-4.8,1.8-6.7,0c-1.9-1.8-1.8-4.8,0-6.7c1.8-1.8,9.6-2.9,9.6-2.9
	S176.2-121.5,174.4-119.7z"/>
<path id="XMLID_18_" class="st0" d="M143.6-100.8c-1.8,1.8-4.8,1.8-6.7,0c-1.9-1.8-1.8-4.8,0-6.7c1.8-1.8,9.6-2.9,9.6-2.9
	S145.4-102.6,143.6-100.8z"/>
<path id="XMLID_17_" class="st0" d="M162.5-100.8c-1.8,1.8-4.8,1.8-6.7,0c-1.8-1.8-1.8-4.8,0-6.7c1.8-1.8,9.6-2.9,9.6-2.9
	S164.3-102.6,162.5-100.8z"/>
<path id="XMLID_16_" class="st0" d="M200.3-100.8c-1.8,1.8-4.8,1.8-6.7,0c-1.9-1.8-1.8-4.8,0-6.7c1.8-1.8,9.6-2.9,9.6-2.9
	S202.1-102.6,200.3-100.8z"/>
<path id="XMLID_15_" class="st0" d="M181.4-100.8c-1.8,1.8-4.8,1.8-6.7,0c-1.9-1.8-1.8-4.8,0-6.7c1.8-1.8,9.6-2.9,9.6-2.9
	S183.2-102.6,181.4-100.8z"/>
<path id="XMLID_33_" class="st0" d="M167-69"/>
<path id="XMLID_32_" class="st0" d="M136.6-81.9c-1.8,1.8-4.8,1.8-6.7,0c-1.9-1.8-1.8-4.8,0-6.7c1.8-1.8,9.6-2.9,9.6-2.9
	S138.4-83.7,136.6-81.9z"/>
<path id="XMLID_31_" class="st0" d="M155.5-81.9c-1.8,1.8-4.8,1.8-6.7,0c-1.8-1.8-1.8-4.8,0-6.7c1.8-1.8,9.6-2.9,9.6-2.9
	S157.3-83.7,155.5-81.9z"/>
<path id="XMLID_30_" class="st0" d="M193.3-81.9c-1.8,1.8-4.8,1.8-6.7,0c-1.9-1.8-1.8-4.8,0-6.7c1.8-1.8,9.6-2.9,9.6-2.9
	S195.1-83.7,193.3-81.9z"/>
<path id="XMLID_29_" class="st0" d="M174.4-81.9c-1.8,1.8-4.8,1.8-6.7,0c-1.9-1.8-1.8-4.8,0-6.7c1.8-1.8,9.6-2.9,9.6-2.9
	S176.2-83.7,174.4-81.9z"/>
<path id="XMLID_25_" class="st0" d="M143.6-63c-1.8,1.8-4.8,1.8-6.7,0c-1.9-1.8-1.8-4.8,0-6.7c1.8-1.8,9.6-2.9,9.6-2.9
	S145.4-64.9,143.6-63z"/>
<path id="XMLID_24_" class="st0" d="M162.5-63c-1.8,1.8-4.8,1.8-6.7,0c-1.8-1.8-1.8-4.8,0-6.7c1.8-1.8,9.6-2.9,9.6-2.9
	S164.3-64.9,162.5-63z"/>
<path id="XMLID_23_" class="st0" d="M200.3-63c-1.8,1.8-4.8,1.8-6.7,0s-1.8-4.8,0-6.7c1.8-1.8,9.6-2.9,9.6-2.9S202.1-64.9,200.3-63z
	"/>
<path id="XMLID_22_" class="st0" d="M181.4-63c-1.8,1.8-4.8,1.8-6.7,0c-1.9-1.8-1.8-4.8,0-6.7c1.8-1.8,9.6-2.9,9.6-2.9
	S183.2-64.9,181.4-63z"/>
<path id="XMLID_37_" class="st0" d="M167-30.9"/>
<path id="XMLID_36_" class="st0" d="M136.6-43.8c-1.8,1.8-4.8,1.8-6.7,0c-1.9-1.8-1.8-4.8,0-6.7c1.8-1.9,9.6-2.9,9.6-2.9
	S138.4-45.6,136.6-43.8z"/>
<path id="XMLID_35_" class="st0" d="M155.5-43.8c-1.8,1.8-4.8,1.8-6.7,0c-1.8-1.8-1.8-4.8,0-6.7c1.8-1.8,9.6-2.9,9.6-2.9
	S157.3-45.6,155.5-43.8z"/>
<path id="XMLID_34_" class="st0" d="M193.3-43.8c-1.8,1.8-4.8,1.8-6.7,0c-1.9-1.8-1.8-4.8,0-6.7c1.8-1.8,9.6-2.9,9.6-2.9
	S195.1-45.6,193.3-43.8z"/>
<path id="XMLID_28_" class="st0" d="M174.4-43.8c-1.8,1.8-4.8,1.8-6.7,0c-1.9-1.8-1.8-4.8,0-6.7c1.8-1.8,9.6-2.9,9.6-2.9
	S176.2-45.6,174.4-43.8z"/>
<path id="XMLID_27_" class="st0" d="M143.6-24.9c-1.8,1.8-4.8,1.8-6.7,0c-1.8-1.8-1.8-4.8,0-6.7c1.8-1.9,9.6-2.9,9.6-2.9
	S145.4-26.7,143.6-24.9z"/>
<path id="XMLID_26_" class="st0" d="M162.5-24.9c-1.8,1.8-4.8,1.8-6.7,0c-1.8-1.8-1.8-4.8,0-6.7c1.8-1.8,9.6-2.9,9.6-2.9
	S164.3-26.7,162.5-24.9z"/>
<path id="XMLID_21_" class="st0" d="M200.3-24.9c-1.8,1.8-4.8,1.8-6.7,0c-1.8-1.8-1.8-4.8,0-6.7c1.8-1.8,9.6-2.9,9.6-2.9
	S202.1-26.7,200.3-24.9z"/>
<path id="XMLID_20_" class="st0" d="M181.4-24.9c-1.8,1.8-4.8,1.8-6.7,0c-1.8-1.8-1.8-4.8,0-6.7c1.8-1.8,9.6-2.9,9.6-2.9
	S183.2-26.7,181.4-24.9z"/>
<path id="XMLID_19_" class="st0" d="M167,6.9"/>
<path id="XMLID_14_" class="st0" d="M136.6-6c-1.8,1.8-4.8,1.8-6.7,0c-1.9-1.8-1.8-4.8,0-6.7c1.8-1.8,9.6-2.9,9.6-2.9
	S138.4-7.8,136.6-6z"/>
<path id="XMLID_13_" class="st0" d="M155.5-6c-1.8,1.8-4.8,1.8-6.7,0c-1.8-1.8-1.8-4.8,0-6.7c1.8-1.8,9.6-2.9,9.6-2.9
	S157.3-7.8,155.5-6z"/>
<path id="XMLID_12_" class="st0" d="M193.3-6c-1.8,1.8-4.8,1.8-6.7,0c-1.9-1.8-1.8-4.8,0-6.7c1.8-1.8,9.6-2.9,9.6-2.9
	S195.1-7.8,193.3-6z"/>
<path id="XMLID_9_" class="st0" d="M174.4-6c-1.8,1.8-4.8,1.8-6.7,0c-1.9-1.8-1.8-4.8,0-6.7c1.8-1.8,9.6-2.9,9.6-2.9
	S176.2-7.8,174.4-6z"/>
<path id="XMLID_8_" class="st0" d="M143.6,12.9c-1.8,1.8-4.8,1.8-6.7,0c-1.9-1.8-1.8-4.8,0-6.7c1.8-1.8,9.6-2.9,9.6-2.9
	S145.4,11.1,143.6,12.9z"/>
<path id="XMLID_7_" class="st0" d="M162.5,12.9c-1.8,1.8-4.8,1.8-6.7,0c-1.8-1.8-1.8-4.8,0-6.7c1.8-1.8,9.6-2.9,9.6-2.9
	S164.3,11.1,162.5,12.9z"/>
<path id="XMLID_6_" class="st0" d="M200.3,12.9c-1.8,1.8-4.8,1.8-6.7,0s-1.8-4.8,0-6.7c1.8-1.8,9.6-2.9,9.6-2.9
	S202.1,11.1,200.3,12.9z"/>
<path id="XMLID_4_" class="st0" d="M181.4,12.9c-1.8,1.8-4.8,1.8-6.7,0c-1.9-1.8-1.8-4.8,0-6.7c1.8-1.8,9.6-2.9,9.6-2.9
	S183.2,11.1,181.4,12.9z"/>
<path id="XMLID_73_" class="st0" d="M241.5-106.8"/>
<path id="XMLID_72_" class="st0" d="M211.1-119.7c-1.8,1.8-4.8,1.8-6.7,0c-1.9-1.8-1.8-4.8,0-6.7c1.8-1.8,9.6-2.9,9.6-2.9
	S212.9-121.5,211.1-119.7z"/>
<path id="XMLID_71_" class="st0" d="M230-119.7c-1.8,1.8-4.8,1.8-6.7,0c-1.9-1.8-1.8-4.8,0-6.7c1.8-1.8,9.6-2.9,9.6-2.9
	S231.8-121.5,230-119.7z"/>
<path id="XMLID_70_" class="st0" d="M267.7-119.7c-1.8,1.8-4.8,1.8-6.7,0c-1.9-1.8-1.8-4.8,0-6.7s9.6-2.9,9.6-2.9
	S269.6-121.5,267.7-119.7z"/>
<path id="XMLID_69_" class="st0" d="M248.8-119.7c-1.8,1.8-4.8,1.8-6.7,0c-1.9-1.8-1.8-4.8,0-6.7c1.8-1.8,9.6-2.9,9.6-2.9
	S250.7-121.5,248.8-119.7z"/>
<path id="XMLID_68_" class="st0" d="M218.1-100.8c-1.8,1.8-4.8,1.8-6.7,0c-1.9-1.8-1.8-4.8,0-6.7c1.8-1.8,9.6-2.9,9.6-2.9
	S219.9-102.6,218.1-100.8z"/>
<path id="XMLID_67_" class="st0" d="M237-100.8c-1.8,1.8-4.8,1.8-6.7,0c-1.9-1.8-1.8-4.8,0-6.7c1.8-1.8,9.6-2.9,9.6-2.9
	S238.8-102.6,237-100.8z"/>
<path id="XMLID_66_" class="st0" d="M274.7-100.8c-1.8,1.8-4.8,1.8-6.7,0c-1.9-1.8-1.8-4.8,0-6.7c1.8-1.8,9.6-2.9,9.6-2.9
	S276.6-102.6,274.7-100.8z"/>
<path id="XMLID_65_" class="st0" d="M255.8-100.8c-1.8,1.8-4.8,1.8-6.7,0c-1.9-1.8-1.8-4.8,0-6.7c1.8-1.8,9.6-2.9,9.6-2.9
	S257.7-102.6,255.8-100.8z"/>
<path id="XMLID_64_" class="st0" d="M241.5-69"/>
<path id="XMLID_63_" class="st0" d="M211.1-81.9c-1.8,1.8-4.8,1.8-6.7,0s-1.8-4.8,0-6.7c1.8-1.8,9.6-2.9,9.6-2.9
	S212.9-83.7,211.1-81.9z"/>
<path id="XMLID_62_" class="st0" d="M230-81.9c-1.8,1.8-4.8,1.8-6.7,0s-1.8-4.8,0-6.7c1.8-1.8,9.6-2.9,9.6-2.9S231.8-83.7,230-81.9z
	"/>
<path id="XMLID_61_" class="st0" d="M267.7-81.9c-1.8,1.8-4.8,1.8-6.7,0s-1.8-4.8,0-6.7c1.8-1.8,9.6-2.9,9.6-2.9
	S269.6-83.7,267.7-81.9z"/>
<path id="XMLID_60_" class="st0" d="M248.8-81.9c-1.8,1.8-4.8,1.8-6.7,0s-1.8-4.8,0-6.7c1.8-1.8,9.6-2.9,9.6-2.9
	S250.7-83.7,248.8-81.9z"/>
<path id="XMLID_59_" class="st0" d="M218.1-63c-1.8,1.8-4.8,1.8-6.7,0s-1.8-4.8,0-6.7c1.8-1.8,9.6-2.9,9.6-2.9S219.9-64.9,218.1-63z
	"/>
<path id="XMLID_58_" class="st0" d="M237-63c-1.8,1.8-4.8,1.8-6.7,0s-1.8-4.8,0-6.7c1.8-1.8,9.6-2.9,9.6-2.9S238.8-64.9,237-63z"/>
<path id="XMLID_57_" class="st0" d="M274.7-63c-1.8,1.8-4.8,1.8-6.7,0s-1.8-4.8,0-6.7c1.8-1.8,9.6-2.9,9.6-2.9S276.6-64.9,274.7-63z
	"/>
<path id="XMLID_56_" class="st0" d="M255.8-63c-1.8,1.8-4.8,1.8-6.7,0s-1.8-4.8,0-6.7c1.8-1.8,9.6-2.9,9.6-2.9S257.7-64.9,255.8-63z
	"/>
<path id="XMLID_55_" class="st0" d="M241.5-30.9"/>
<path id="XMLID_54_" class="st0" d="M211.1-43.8c-1.8,1.8-4.8,1.8-6.7,0s-1.8-4.8,0-6.7c1.8-1.8,9.6-2.9,9.6-2.9
	S212.9-45.6,211.1-43.8z"/>
<path id="XMLID_53_" class="st0" d="M230-43.8c-1.8,1.8-4.8,1.8-6.7,0s-1.8-4.8,0-6.7c1.8-1.8,9.6-2.9,9.6-2.9S231.8-45.6,230-43.8z
	"/>
<path id="XMLID_52_" class="st0" d="M267.7-43.8c-1.8,1.8-4.8,1.8-6.7,0s-1.8-4.8,0-6.7s9.6-2.9,9.6-2.9S269.6-45.6,267.7-43.8z"/>
<path id="XMLID_51_" class="st0" d="M248.8-43.8c-1.8,1.8-4.8,1.8-6.7,0s-1.8-4.8,0-6.7c1.8-1.8,9.6-2.9,9.6-2.9
	S250.7-45.6,248.8-43.8z"/>
<path id="XMLID_50_" class="st0" d="M218.1-24.9c-1.8,1.8-4.8,1.8-6.7,0c-1.8-1.8-1.8-4.8,0-6.7c1.8-1.8,9.6-2.9,9.6-2.9
	S219.9-26.7,218.1-24.9z"/>
<path id="XMLID_49_" class="st0" d="M237-24.9c-1.8,1.8-4.8,1.8-6.7,0c-1.8-1.8-1.8-4.8,0-6.7c1.8-1.8,9.6-2.9,9.6-2.9
	S238.8-26.7,237-24.9z"/>
<path id="XMLID_48_" class="st0" d="M274.7-24.9c-1.8,1.8-4.8,1.8-6.7,0c-1.8-1.8-1.8-4.8,0-6.7s9.6-2.9,9.6-2.9
	S276.6-26.7,274.7-24.9z"/>
<path id="XMLID_47_" class="st0" d="M255.8-24.9c-1.8,1.8-4.8,1.8-6.7,0c-1.8-1.8-1.8-4.8,0-6.7c1.8-1.8,9.6-2.9,9.6-2.9
	S257.7-26.7,255.8-24.9z"/>
<path id="XMLID_46_" class="st0" d="M241.5,6.9"/>
<path id="XMLID_45_" class="st0" d="M211.1-6c-1.8,1.8-4.8,1.8-6.7,0s-1.8-4.8,0-6.7c1.8-1.8,9.6-2.9,9.6-2.9S212.9-7.8,211.1-6z"/>
<path id="XMLID_44_" class="st0" d="M230-6c-1.8,1.8-4.8,1.8-6.7,0s-1.8-4.8,0-6.7c1.8-1.8,9.6-2.9,9.6-2.9S231.8-7.8,230-6z"/>
<path id="XMLID_43_" class="st0" d="M267.7-6c-1.8,1.8-4.8,1.8-6.7,0s-1.8-4.8,0-6.7c1.8-1.8,9.6-2.9,9.6-2.9S269.6-7.8,267.7-6z"/>
<path id="XMLID_42_" class="st0" d="M248.8-6c-1.8,1.8-4.8,1.8-6.7,0s-1.8-4.8,0-6.7c1.8-1.8,9.6-2.9,9.6-2.9S250.7-7.8,248.8-6z"/>
<path id="XMLID_41_" class="st0" d="M218.1,12.9c-1.8,1.8-4.8,1.8-6.7,0s-1.8-4.8,0-6.7c1.8-1.8,9.6-2.9,9.6-2.9
	S219.9,11.1,218.1,12.9z"/>
<path id="XMLID_40_" class="st0" d="M237,12.9c-1.8,1.8-4.8,1.8-6.7,0s-1.8-4.8,0-6.7c1.8-1.8,9.6-2.9,9.6-2.9S238.8,11.1,237,12.9z
	"/>
<path id="XMLID_39_" class="st0" d="M274.7,12.9c-1.8,1.8-4.8,1.8-6.7,0s-1.8-4.8,0-6.7c1.8-1.8,9.6-2.9,9.6-2.9
	S276.6,11.1,274.7,12.9z"/>
<path id="XMLID_38_" class="st0" d="M255.8,12.9c-1.8,1.8-4.8,1.8-6.7,0s-1.8-4.8,0-6.7c1.8-1.8,9.6-2.9,9.6-2.9
	S257.7,11.1,255.8,12.9z"/>
<path id="XMLID_145_" class="st0" d="M316-106.8"/>
<path id="XMLID_144_" class="st0" d="M285.6-119.7c-1.8,1.8-4.8,1.8-6.7,0c-1.9-1.8-1.8-4.8,0-6.7c1.8-1.8,9.6-2.9,9.6-2.9
	S287.4-121.5,285.6-119.7z"/>
<path id="XMLID_143_" class="st0" d="M304.5-119.7c-1.8,1.8-4.8,1.8-6.7,0c-1.9-1.8-1.8-4.8,0-6.7c1.8-1.8,9.6-2.9,9.6-2.9
	S306.3-121.5,304.5-119.7z"/>
<path id="XMLID_142_" class="st0" d="M342.3-119.7c-1.8,1.8-4.8,1.8-6.7,0c-1.8-1.8-1.8-4.8,0-6.7s9.6-2.9,9.6-2.9
	S344.1-121.5,342.3-119.7z"/>
<path id="XMLID_141_" class="st0" d="M323.4-119.7c-1.8,1.8-4.8,1.8-6.7,0c-1.9-1.8-1.8-4.8,0-6.7c1.8-1.8,9.6-2.9,9.6-2.9
	S325.2-121.5,323.4-119.7z"/>
<path id="XMLID_140_" class="st0" d="M292.6-100.8c-1.8,1.8-4.8,1.8-6.7,0c-1.9-1.8-1.8-4.8,0-6.7c1.8-1.8,9.6-2.9,9.6-2.9
	S294.4-102.6,292.6-100.8z"/>
<path id="XMLID_139_" class="st0" d="M311.5-100.8c-1.8,1.8-4.8,1.8-6.7,0c-1.9-1.8-1.8-4.8,0-6.7c1.8-1.8,9.6-2.9,9.6-2.9
	S313.3-102.6,311.5-100.8z"/>
<path id="XMLID_138_" class="st0" d="M349.3-100.8c-1.8,1.8-4.8,1.8-6.7,0c-1.8-1.8-1.8-4.8,0-6.7c1.8-1.8,9.6-2.9,9.6-2.9
	S351.1-102.6,349.3-100.8z"/>
<path id="XMLID_137_" class="st0" d="M330.4-100.8c-1.8,1.8-4.8,1.8-6.7,0c-1.9-1.8-1.8-4.8,0-6.7c1.8-1.8,9.6-2.9,9.6-2.9
	S332.2-102.6,330.4-100.8z"/>
<path id="XMLID_136_" class="st0" d="M316-69"/>
<path id="XMLID_135_" class="st0" d="M285.6-81.9c-1.8,1.8-4.8,1.8-6.7,0c-1.9-1.8-1.8-4.8,0-6.7c1.8-1.8,9.6-2.9,9.6-2.9
	S287.4-83.7,285.6-81.9z"/>
<path id="XMLID_134_" class="st0" d="M304.5-81.9c-1.8,1.8-4.8,1.8-6.7,0c-1.9-1.8-1.8-4.8,0-6.7c1.8-1.8,9.6-2.9,9.6-2.9
	S306.3-83.7,304.5-81.9z"/>
<path id="XMLID_133_" class="st0" d="M342.3-81.9c-1.8,1.8-4.8,1.8-6.7,0c-1.8-1.8-1.8-4.8,0-6.7c1.8-1.8,9.6-2.9,9.6-2.9
	S344.1-83.7,342.3-81.9z"/>
<path id="XMLID_132_" class="st0" d="M323.4-81.9c-1.8,1.8-4.8,1.8-6.7,0c-1.9-1.8-1.8-4.8,0-6.7c1.8-1.8,9.6-2.9,9.6-2.9
	S325.2-83.7,323.4-81.9z"/>
<path id="XMLID_131_" class="st0" d="M292.6-63c-1.8,1.8-4.8,1.8-6.7,0c-1.9-1.8-1.8-4.8,0-6.7c1.8-1.8,9.6-2.9,9.6-2.9
	S294.4-64.9,292.6-63z"/>
<path id="XMLID_130_" class="st0" d="M311.5-63c-1.8,1.8-4.8,1.8-6.7,0c-1.9-1.8-1.8-4.8,0-6.7c1.8-1.8,9.6-2.9,9.6-2.9
	S313.3-64.9,311.5-63z"/>
<path id="XMLID_129_" class="st0" d="M349.3-63c-1.8,1.8-4.8,1.8-6.7,0c-1.8-1.8-1.8-4.8,0-6.7c1.8-1.8,9.6-2.9,9.6-2.9
	S351.1-64.9,349.3-63z"/>
<path id="XMLID_128_" class="st0" d="M330.4-63c-1.8,1.8-4.8,1.8-6.7,0c-1.9-1.8-1.8-4.8,0-6.7c1.8-1.8,9.6-2.9,9.6-2.9
	S332.2-64.9,330.4-63z"/>
<path id="XMLID_127_" class="st0" d="M316-30.9"/>
<path id="XMLID_126_" class="st0" d="M285.6-43.8c-1.8,1.8-4.8,1.8-6.7,0c-1.9-1.8-1.8-4.8,0-6.7c1.8-1.8,9.6-2.9,9.6-2.9
	S287.4-45.6,285.6-43.8z"/>
<path id="XMLID_125_" class="st0" d="M304.5-43.8c-1.8,1.8-4.8,1.8-6.7,0c-1.9-1.8-1.8-4.8,0-6.7c1.8-1.8,9.6-2.9,9.6-2.9
	S306.3-45.6,304.5-43.8z"/>
<path id="XMLID_124_" class="st0" d="M342.3-43.8c-1.8,1.8-4.8,1.8-6.7,0c-1.8-1.8-1.8-4.8,0-6.7s9.6-2.9,9.6-2.9
	S344.1-45.6,342.3-43.8z"/>
<path id="XMLID_123_" class="st0" d="M323.4-43.8c-1.8,1.8-4.8,1.8-6.7,0c-1.9-1.8-1.8-4.8,0-6.7c1.8-1.8,9.6-2.9,9.6-2.9
	S325.2-45.6,323.4-43.8z"/>
<path id="XMLID_122_" class="st0" d="M292.6-24.9c-1.8,1.8-4.8,1.8-6.7,0c-1.8-1.8-1.8-4.8,0-6.7c1.8-1.8,9.6-2.9,9.6-2.9
	S294.4-26.7,292.6-24.9z"/>
<path id="XMLID_121_" class="st0" d="M311.5-24.9c-1.8,1.8-4.8,1.8-6.7,0c-1.8-1.8-1.8-4.8,0-6.7c1.8-1.8,9.6-2.9,9.6-2.9
	S313.3-26.7,311.5-24.9z"/>
<path id="XMLID_120_" class="st0" d="M349.3-24.9c-1.8,1.8-4.8,1.8-6.7,0c-1.8-1.8-1.8-4.8,0-6.7s9.6-2.9,9.6-2.9
	S351.1-26.7,349.3-24.9z"/>
<path id="XMLID_119_" class="st0" d="M330.4-24.9c-1.8,1.8-4.8,1.8-6.7,0c-1.8-1.8-1.8-4.8,0-6.7c1.8-1.8,9.6-2.9,9.6-2.9
	S332.2-26.7,330.4-24.9z"/>
<path id="XMLID_118_" class="st0" d="M316,6.9"/>
<path id="XMLID_117_" class="st0" d="M285.6-6c-1.8,1.8-4.8,1.8-6.7,0c-1.9-1.8-1.8-4.8,0-6.7c1.8-1.8,9.6-2.9,9.6-2.9
	S287.4-7.8,285.6-6z"/>
<path id="XMLID_116_" class="st0" d="M304.5-6c-1.8,1.8-4.8,1.8-6.7,0c-1.9-1.8-1.8-4.8,0-6.7c1.8-1.8,9.6-2.9,9.6-2.9
	S306.3-7.8,304.5-6z"/>
<path id="XMLID_115_" class="st0" d="M342.3-6c-1.8,1.8-4.8,1.8-6.7,0c-1.8-1.8-1.8-4.8,0-6.7c1.8-1.8,9.6-2.9,9.6-2.9
	S344.1-7.8,342.3-6z"/>
<path id="XMLID_114_" class="st0" d="M323.4-6c-1.8,1.8-4.8,1.8-6.7,0c-1.9-1.8-1.8-4.8,0-6.7c1.8-1.8,9.6-2.9,9.6-2.9
	S325.2-7.8,323.4-6z"/>
<path id="XMLID_113_" class="st0" d="M292.6,12.9c-1.8,1.8-4.8,1.8-6.7,0c-1.9-1.8-1.8-4.8,0-6.7c1.8-1.8,9.6-2.9,9.6-2.9
	S294.4,11.1,292.6,12.9z"/>
<path id="XMLID_112_" class="st0" d="M311.5,12.9c-1.8,1.8-4.8,1.8-6.7,0c-1.9-1.8-1.8-4.8,0-6.7c1.8-1.8,9.6-2.9,9.6-2.9
	S313.3,11.1,311.5,12.9z"/>
<path id="XMLID_111_" class="st0" d="M349.3,12.9c-1.8,1.8-4.8,1.8-6.7,0c-1.8-1.8-1.8-4.8,0-6.7c1.8-1.8,9.6-2.9,9.6-2.9
	S351.1,11.1,349.3,12.9z"/>
<path id="XMLID_110_" class="st0" d="M330.4,12.9c-1.8,1.8-4.8,1.8-6.7,0c-1.9-1.8-1.8-4.8,0-6.7c1.8-1.8,9.6-2.9,9.6-2.9
	S332.2,11.1,330.4,12.9z"/>
<path id="XMLID_109_" class="st0" d="M390.5-106.8"/>
<path id="XMLID_108_" class="st0" d="M360.1-119.7c-1.8,1.8-4.8,1.8-6.7,0c-1.9-1.8-1.8-4.8,0-6.7c1.8-1.8,9.6-2.9,9.6-2.9
	S361.9-121.5,360.1-119.7z"/>
<path id="XMLID_107_" class="st0" d="M379-119.7c-1.8,1.8-4.8,1.8-6.7,0c-1.8-1.8-1.8-4.8,0-6.7c1.8-1.9,9.6-2.9,9.6-2.9
	S380.8-121.5,379-119.7z"/>
<path id="XMLID_106_" class="st0" d="M416.7-119.7c-1.8,1.8-4.8,1.8-6.7,0c-1.8-1.8-1.8-4.8,0-6.7c1.8-1.8,9.6-2.9,9.6-2.9
	S418.6-121.5,416.7-119.7z"/>
<path id="XMLID_105_" class="st0" d="M397.8-119.7c-1.8,1.8-4.8,1.8-6.7,0c-1.8-1.8-1.8-4.8,0-6.7c1.8-1.8,9.6-2.9,9.6-2.9
	S399.7-121.5,397.8-119.7z"/>
<path id="XMLID_104_" class="st0" d="M367.1-100.8c-1.8,1.8-4.8,1.8-6.7,0c-1.9-1.8-1.8-4.8,0-6.7c1.8-1.8,9.6-2.9,9.6-2.9
	S368.9-102.6,367.1-100.8z"/>
<path id="XMLID_103_" class="st0" d="M386-100.8c-1.8,1.8-4.8,1.8-6.7,0c-1.8-1.8-1.8-4.8,0-6.7c1.8-1.8,9.6-2.9,9.6-2.9
	S387.8-102.6,386-100.8z"/>
<path id="XMLID_102_" class="st0" d="M423.7-100.8c-1.8,1.8-4.8,1.8-6.7,0c-1.8-1.8-1.8-4.8,0-6.7c1.8-1.8,9.6-2.9,9.6-2.9
	S425.6-102.6,423.7-100.8z"/>
<path id="XMLID_101_" class="st0" d="M404.8-100.8c-1.8,1.8-4.8,1.8-6.7,0c-1.8-1.8-1.8-4.8,0-6.7c1.8-1.8,9.6-2.9,9.6-2.9
	S406.7-102.6,404.8-100.8z"/>
<path id="XMLID_100_" class="st0" d="M390.5-69"/>
<path id="XMLID_99_" class="st0" d="M360.1-81.9c-1.8,1.8-4.8,1.8-6.7,0c-1.9-1.8-1.8-4.8,0-6.7c1.8-1.8,9.6-2.9,9.6-2.9
	S361.9-83.7,360.1-81.9z"/>
<path id="XMLID_98_" class="st0" d="M379-81.9c-1.8,1.8-4.8,1.8-6.7,0c-1.8-1.8-1.8-4.8,0-6.7c1.8-1.8,9.6-2.9,9.6-2.9
	S380.8-83.7,379-81.9z"/>
<path id="XMLID_97_" class="st0" d="M416.7-81.9c-1.8,1.8-4.8,1.8-6.7,0c-1.8-1.8-1.8-4.8,0-6.7c1.8-1.8,9.6-2.9,9.6-2.9
	S418.6-83.7,416.7-81.9z"/>
<path id="XMLID_96_" class="st0" d="M397.8-81.9c-1.8,1.8-4.8,1.8-6.7,0c-1.8-1.8-1.8-4.8,0-6.7c1.8-1.8,9.6-2.9,9.6-2.9
	S399.7-83.7,397.8-81.9z"/>
<path id="XMLID_95_" class="st0" d="M367.1-63c-1.8,1.8-4.8,1.8-6.7,0c-1.9-1.8-1.8-4.8,0-6.7c1.8-1.8,9.6-2.9,9.6-2.9
	S368.9-64.9,367.1-63z"/>
<path id="XMLID_94_" class="st0" d="M386-63c-1.8,1.8-4.8,1.8-6.7,0c-1.8-1.8-1.8-4.8,0-6.7c1.8-1.8,9.6-2.9,9.6-2.9
	S387.8-64.9,386-63z"/>
<path id="XMLID_93_" class="st0" d="M423.7-63c-1.8,1.8-4.8,1.8-6.7,0c-1.8-1.8-1.8-4.8,0-6.7c1.8-1.8,9.6-2.9,9.6-2.9
	S425.6-64.9,423.7-63z"/>
<path id="XMLID_92_" class="st0" d="M404.8-63c-1.8,1.8-4.8,1.8-6.7,0c-1.8-1.8-1.8-4.8,0-6.7c1.8-1.8,9.6-2.9,9.6-2.9
	S406.7-64.9,404.8-63z"/>
<path id="XMLID_91_" class="st0" d="M390.5-30.9"/>
<path id="XMLID_90_" class="st0" d="M360.1-43.8c-1.8,1.8-4.8,1.8-6.7,0c-1.9-1.8-1.8-4.8,0-6.7c1.8-1.8,9.6-2.9,9.6-2.9
	S361.9-45.6,360.1-43.8z"/>
<path id="XMLID_89_" class="st0" d="M379-43.8c-1.8,1.8-4.8,1.8-6.7,0c-1.8-1.8-1.8-4.8,0-6.7c1.8-1.9,9.6-2.9,9.6-2.9
	S380.8-45.6,379-43.8z"/>
<path id="XMLID_88_" class="st0" d="M416.7-43.8c-1.8,1.8-4.8,1.8-6.7,0c-1.8-1.8-1.8-4.8,0-6.7c1.8-1.8,9.6-2.9,9.6-2.9
	S418.6-45.6,416.7-43.8z"/>
<path id="XMLID_87_" class="st0" d="M397.8-43.8c-1.8,1.8-4.8,1.8-6.7,0c-1.8-1.8-1.8-4.8,0-6.7c1.8-1.8,9.6-2.9,9.6-2.9
	S399.7-45.6,397.8-43.8z"/>
<path id="XMLID_86_" class="st0" d="M367.1-24.9c-1.8,1.8-4.8,1.8-6.7,0c-1.8-1.8-1.8-4.8,0-6.7c1.8-1.8,9.6-2.9,9.6-2.9
	S368.9-26.7,367.1-24.9z"/>
<path id="XMLID_85_" class="st0" d="M386-24.9c-1.8,1.8-4.8,1.8-6.7,0c-1.8-1.8-1.8-4.8,0-6.7c1.8-1.9,9.6-2.9,9.6-2.9
	S387.8-26.7,386-24.9z"/>
<path id="XMLID_84_" class="st0" d="M423.7-24.9c-1.8,1.8-4.8,1.8-6.7,0c-1.8-1.8-1.8-4.8,0-6.7c1.8-1.8,9.6-2.9,9.6-2.9
	S425.6-26.7,423.7-24.9z"/>
<path id="XMLID_83_" class="st0" d="M404.8-24.9c-1.8,1.8-4.8,1.8-6.7,0c-1.8-1.8-1.8-4.8,0-6.7c1.8-1.8,9.6-2.9,9.6-2.9
	S406.7-26.7,404.8-24.9z"/>
<path id="XMLID_82_" class="st0" d="M390.5,6.9"/>
<path id="XMLID_81_" class="st0" d="M360.1-6c-1.8,1.8-4.8,1.8-6.7,0c-1.9-1.8-1.8-4.8,0-6.7c1.8-1.8,9.6-2.9,9.6-2.9
	S361.9-7.8,360.1-6z"/>
<path id="XMLID_80_" class="st0" d="M379-6c-1.8,1.8-4.8,1.8-6.7,0c-1.8-1.8-1.8-4.8,0-6.7c1.8-1.8,9.6-2.9,9.6-2.9S380.8-7.8,379-6
	z"/>
<path id="XMLID_79_" class="st0" d="M416.7-6c-1.8,1.8-4.8,1.8-6.7,0c-1.8-1.8-1.8-4.8,0-6.7c1.8-1.8,9.6-2.9,9.6-2.9
	S418.6-7.8,416.7-6z"/>
<path id="XMLID_78_" class="st0" d="M397.8-6c-1.8,1.8-4.8,1.8-6.7,0c-1.8-1.8-1.8-4.8,0-6.7c1.8-1.8,9.6-2.9,9.6-2.9
	S399.7-7.8,397.8-6z"/>
<path id="XMLID_77_" class="st0" d="M367.1,12.9c-1.8,1.8-4.8,1.8-6.7,0c-1.9-1.8-1.8-4.8,0-6.7c1.8-1.8,9.6-2.9,9.6-2.9
	S368.9,11.1,367.1,12.9z"/>
<path id="XMLID_76_" class="st0" d="M386,12.9c-1.8,1.8-4.8,1.8-6.7,0c-1.8-1.8-1.8-4.8,0-6.7c1.8-1.8,9.6-2.9,9.6-2.9
	S387.8,11.1,386,12.9z"/>
<path id="XMLID_75_" class="st0" d="M423.7,12.9c-1.8,1.8-4.8,1.8-6.7,0c-1.8-1.8-1.8-4.8,0-6.7c1.8-1.8,9.6-2.9,9.6-2.9
	S425.6,11.1,423.7,12.9z"/>
<path id="XMLID_74_" class="st0" d="M404.8,12.9c-1.8,1.8-4.8,1.8-6.7,0c-1.8-1.8-1.8-4.8,0-6.7c1.8-1.8,9.6-2.9,9.6-2.9
	S406.7,11.1,404.8,12.9z"/>
<path id="XMLID_289_" class="st0" d="M167,45.2"/>
<path id="XMLID_288_" class="st0" d="M136.6,32.3c-1.8,1.8-4.8,1.8-6.7,0c-1.9-1.8-1.8-4.8,0-6.7c1.8-1.8,9.6-2.9,9.6-2.9
	S138.4,30.5,136.6,32.3z"/>
<path id="XMLID_287_" class="st0" d="M155.5,32.3c-1.8,1.8-4.8,1.8-6.7,0c-1.8-1.8-1.8-4.8,0-6.7c1.8-1.8,9.6-2.9,9.6-2.9
	S157.3,30.5,155.5,32.3z"/>
<path id="XMLID_286_" class="st0" d="M193.3,32.3c-1.8,1.8-4.8,1.8-6.7,0c-1.9-1.8-1.8-4.8,0-6.7c1.8-1.8,9.6-2.9,9.6-2.9
	S195.1,30.5,193.3,32.3z"/>
<path id="XMLID_285_" class="st0" d="M174.4,32.3c-1.8,1.8-4.8,1.8-6.7,0c-1.9-1.8-1.8-4.8,0-6.7c1.8-1.8,9.6-2.9,9.6-2.9
	S176.2,30.5,174.4,32.3z"/>
<path id="XMLID_284_" class="st0" d="M143.6,51.2c-1.8,1.8-4.8,1.8-6.7,0c-1.9-1.8-1.8-4.8,0-6.7c1.8-1.9,9.6-2.9,9.6-2.9
	S145.4,49.4,143.6,51.2z"/>
<path id="XMLID_283_" class="st0" d="M162.5,51.2c-1.8,1.8-4.8,1.8-6.7,0c-1.8-1.8-1.8-4.8,0-6.7c1.8-1.8,9.6-2.9,9.6-2.9
	S164.3,49.4,162.5,51.2z"/>
<path id="XMLID_282_" class="st0" d="M200.3,51.2c-1.8,1.8-4.8,1.8-6.7,0s-1.8-4.8,0-6.7c1.8-1.8,9.6-2.9,9.6-2.9
	S202.1,49.4,200.3,51.2z"/>
<path id="XMLID_281_" class="st0" d="M181.4,51.2c-1.8,1.8-4.8,1.8-6.7,0c-1.9-1.8-1.8-4.8,0-6.7c1.8-1.8,9.6-2.9,9.6-2.9
	S183.2,49.4,181.4,51.2z"/>
<path id="XMLID_280_" class="st0" d="M167,83"/>
<path id="XMLID_279_" class="st0" d="M136.6,70.1c-1.8,1.8-4.8,1.8-6.7,0c-1.9-1.8-1.8-4.8,0-6.7c1.8-1.8,9.6-2.9,9.6-2.9
	S138.4,68.3,136.6,70.1z"/>
<path id="XMLID_278_" class="st0" d="M155.5,70.1c-1.8,1.8-4.8,1.8-6.7,0c-1.8-1.8-1.8-4.8,0-6.7c1.8-1.8,9.6-2.9,9.6-2.9
	S157.3,68.3,155.5,70.1z"/>
<path id="XMLID_277_" class="st0" d="M193.3,70.1c-1.8,1.8-4.8,1.8-6.7,0c-1.9-1.8-1.8-4.8,0-6.7c1.8-1.8,9.6-2.9,9.6-2.9
	S195.1,68.3,193.3,70.1z"/>
<path id="XMLID_276_" class="st0" d="M174.4,70.1c-1.8,1.8-4.8,1.8-6.7,0c-1.9-1.8-1.8-4.8,0-6.7c1.8-1.8,9.6-2.9,9.6-2.9
	S176.2,68.3,174.4,70.1z"/>
<path id="XMLID_275_" class="st0" d="M143.6,89c-1.8,1.8-4.8,1.8-6.7,0c-1.9-1.8-1.8-4.8,0-6.7c1.8-1.9,9.6-2.9,9.6-2.9
	S145.4,87.1,143.6,89z"/>
<path id="XMLID_274_" class="st0" d="M162.5,89c-1.8,1.8-4.8,1.8-6.7,0c-1.8-1.8-1.8-4.8,0-6.7c1.8-1.8,9.6-2.9,9.6-2.9
	S164.3,87.1,162.5,89z"/>
<path id="XMLID_273_" class="st0" d="M200.3,89c-1.8,1.8-4.8,1.8-6.7,0s-1.8-4.8,0-6.7c1.8-1.8,9.6-2.9,9.6-2.9S202.1,87.1,200.3,89
	z"/>
<path id="XMLID_272_" class="st0" d="M181.4,89c-1.8,1.8-4.8,1.8-6.7,0c-1.9-1.8-1.8-4.8,0-6.7c1.8-1.8,9.6-2.9,9.6-2.9
	S183.2,87.1,181.4,89z"/>
<path id="XMLID_271_" class="st0" d="M167,121.1"/>
<path id="XMLID_270_" class="st0" d="M136.6,108.2c-1.8,1.8-4.8,1.8-6.7,0c-1.9-1.8-1.8-4.8,0-6.7c1.8-1.9,9.6-2.9,9.6-2.9
	S138.4,106.4,136.6,108.2z"/>
<path id="XMLID_269_" class="st0" d="M155.5,108.2c-1.8,1.8-4.8,1.8-6.7,0c-1.8-1.8-1.8-4.8,0-6.7c1.8-1.8,9.6-2.9,9.6-2.9
	S157.3,106.4,155.5,108.2z"/>
<path id="XMLID_268_" class="st0" d="M193.3,108.2c-1.8,1.8-4.8,1.8-6.7,0c-1.9-1.8-1.8-4.8,0-6.7c1.8-1.8,9.6-2.9,9.6-2.9
	S195.1,106.4,193.3,108.2z"/>
<path id="XMLID_267_" class="st0" d="M174.4,108.2c-1.8,1.8-4.8,1.8-6.7,0c-1.9-1.8-1.8-4.8,0-6.7c1.8-1.8,9.6-2.9,9.6-2.9
	S176.2,106.4,174.4,108.2z"/>
<path id="XMLID_266_" class="st0" d="M143.6,127.1c-1.8,1.8-4.8,1.8-6.7,0c-1.8-1.8-1.8-4.8,0-6.7c1.8-1.8,9.6-2.9,9.6-2.9
	S145.4,125.3,143.6,127.1z"/>
<path id="XMLID_265_" class="st0" d="M162.5,127.1c-1.8,1.8-4.8,1.8-6.7,0c-1.8-1.8-1.8-4.8,0-6.7c1.8-1.8,9.6-2.9,9.6-2.9
	S164.3,125.3,162.5,127.1z"/>
<path id="XMLID_264_" class="st0" d="M200.3,127.1c-1.8,1.8-4.8,1.8-6.7,0c-1.8-1.8-1.8-4.8,0-6.7c1.8-1.8,9.6-2.9,9.6-2.9
	S202.1,125.3,200.3,127.1z"/>
<path id="XMLID_263_" class="st0" d="M181.4,127.1c-1.8,1.8-4.8,1.8-6.7,0c-1.8-1.8-1.8-4.8,0-6.7c1.8-1.8,9.6-2.9,9.6-2.9
	S183.2,125.3,181.4,127.1z"/>
<path id="XMLID_262_" class="st0" d="M160,158.9"/>
<path id="XMLID_261_" class="st0" d="M136.6,146c-1.8,1.8-4.8,1.8-6.7,0c-1.8-1.8-1.8-4.8,0-6.7c1.8-1.8,9.6-2.9,9.6-2.9
	S138.4,144.2,136.6,146z"/>
<path id="XMLID_260_" class="st0" d="M155.5,146c-1.8,1.8-4.8,1.8-6.7,0c-1.8-1.8-1.8-4.8,0-6.7c1.8-1.8,9.6-2.9,9.6-2.9
	S157.3,144.2,155.5,146z"/>
<path id="XMLID_259_" class="st0" d="M193.3,146c-1.8,1.8-4.8,1.8-6.7,0c-1.8-1.8-1.8-4.8,0-6.7c1.8-1.8,9.6-2.9,9.6-2.9
	S195.1,144.2,193.3,146z"/>
<path id="XMLID_258_" class="st0" d="M174.4,146c-1.8,1.8-4.8,1.8-6.7,0c-1.8-1.8-1.8-4.8,0-6.7c1.8-1.8,9.6-2.9,9.6-2.9
	S176.2,144.2,174.4,146z"/>
<path id="XMLID_257_" class="st0" d="M143.6,164.9c-1.8,1.8-4.8,1.8-6.7,0c-1.8-1.8-1.8-4.8,0-6.7c1.8-1.8,9.6-2.9,9.6-2.9
	S145.4,163.1,143.6,164.9z"/>
<path id="XMLID_256_" class="st0" d="M162.5,164.9c-1.8,1.8-4.8,1.8-6.7,0c-1.8-1.8-1.8-4.8,0-6.7c1.8-1.8,9.6-2.9,9.6-2.9
	S164.3,163.1,162.5,164.9z"/>
<path id="XMLID_255_" class="st0" d="M200.3,164.9c-1.8,1.8-4.8,1.8-6.7,0c-1.8-1.8-1.8-4.8,0-6.7c1.8-1.8,9.6-2.9,9.6-2.9
	S202.1,163.1,200.3,164.9z"/>
<path id="XMLID_254_" class="st0" d="M181.4,164.9c-1.8,1.8-4.8,1.8-6.7,0c-1.8-1.8-1.8-4.8,0-6.7c1.8-1.8,9.6-2.9,9.6-2.9
	S183.2,163.1,181.4,164.9z"/>
<path id="XMLID_253_" class="st0" d="M241.5,45.2"/>
<path id="XMLID_252_" class="st0" d="M211.1,32.3c-1.8,1.8-4.8,1.8-6.7,0s-1.8-4.8,0-6.7c1.8-1.8,9.6-2.9,9.6-2.9
	S212.9,30.5,211.1,32.3z"/>
<path id="XMLID_251_" class="st0" d="M230,32.3c-1.8,1.8-4.8,1.8-6.7,0s-1.8-4.8,0-6.7c1.8-1.8,9.6-2.9,9.6-2.9S231.8,30.5,230,32.3
	z"/>
<path id="XMLID_250_" class="st0" d="M267.7,32.3c-1.8,1.8-4.8,1.8-6.7,0s-1.8-4.8,0-6.7c1.8-1.8,9.6-2.9,9.6-2.9
	S269.6,30.5,267.7,32.3z"/>
<path id="XMLID_249_" class="st0" d="M248.8,32.3c-1.8,1.8-4.8,1.8-6.7,0s-1.8-4.8,0-6.7c1.8-1.8,9.6-2.9,9.6-2.9
	S250.7,30.5,248.8,32.3z"/>
<path id="XMLID_248_" class="st0" d="M218.1,51.2c-1.8,1.8-4.8,1.8-6.7,0s-1.8-4.8,0-6.7c1.8-1.8,9.6-2.9,9.6-2.9
	S219.9,49.4,218.1,51.2z"/>
<path id="XMLID_247_" class="st0" d="M237,51.2c-1.8,1.8-4.8,1.8-6.7,0s-1.8-4.8,0-6.7c1.8-1.8,9.6-2.9,9.6-2.9S238.8,49.4,237,51.2
	z"/>
<path id="XMLID_246_" class="st0" d="M274.7,51.2c-1.8,1.8-4.8,1.8-6.7,0s-1.8-4.8,0-6.7s9.6-2.9,9.6-2.9S276.6,49.4,274.7,51.2z"/>
<path id="XMLID_245_" class="st0" d="M255.8,51.2c-1.8,1.8-4.8,1.8-6.7,0s-1.8-4.8,0-6.7c1.8-1.8,9.6-2.9,9.6-2.9
	S257.7,49.4,255.8,51.2z"/>
<path id="XMLID_244_" class="st0" d="M241.5,83"/>
<path id="XMLID_243_" class="st0" d="M211.1,70.1c-1.8,1.8-4.8,1.8-6.7,0s-1.8-4.8,0-6.7c1.8-1.8,9.6-2.9,9.6-2.9
	S212.9,68.3,211.1,70.1z"/>
<path id="XMLID_242_" class="st0" d="M230,70.1c-1.8,1.8-4.8,1.8-6.7,0s-1.8-4.8,0-6.7c1.8-1.8,9.6-2.9,9.6-2.9S231.8,68.3,230,70.1
	z"/>
<path id="XMLID_241_" class="st0" d="M267.7,70.1c-1.8,1.8-4.8,1.8-6.7,0s-1.8-4.8,0-6.7c1.8-1.8,9.6-2.9,9.6-2.9
	S269.6,68.3,267.7,70.1z"/>
<path id="XMLID_240_" class="st0" d="M248.8,70.1c-1.8,1.8-4.8,1.8-6.7,0s-1.8-4.8,0-6.7c1.8-1.8,9.6-2.9,9.6-2.9
	S250.7,68.3,248.8,70.1z"/>
<path id="XMLID_239_" class="st0" d="M218.1,89c-1.8,1.8-4.8,1.8-6.7,0s-1.8-4.8,0-6.7c1.8-1.8,9.6-2.9,9.6-2.9S219.9,87.1,218.1,89
	z"/>
<path id="XMLID_238_" class="st0" d="M237,89c-1.8,1.8-4.8,1.8-6.7,0s-1.8-4.8,0-6.7c1.8-1.8,9.6-2.9,9.6-2.9S238.8,87.1,237,89z"/>
<path id="XMLID_237_" class="st0" d="M274.7,89c-1.8,1.8-4.8,1.8-6.7,0s-1.8-4.8,0-6.7s9.6-2.9,9.6-2.9S276.6,87.1,274.7,89z"/>
<path id="XMLID_236_" class="st0" d="M255.8,89c-1.8,1.8-4.8,1.8-6.7,0s-1.8-4.8,0-6.7c1.8-1.8,9.6-2.9,9.6-2.9S257.7,87.1,255.8,89
	z"/>
<path id="XMLID_235_" class="st0" d="M241.5,121.1"/>
<path id="XMLID_234_" class="st0" d="M211.1,108.2c-1.8,1.8-4.8,1.8-6.7,0s-1.8-4.8,0-6.7c1.8-1.8,9.6-2.9,9.6-2.9
	S212.9,106.4,211.1,108.2z"/>
<path id="XMLID_233_" class="st0" d="M230,108.2c-1.8,1.8-4.8,1.8-6.7,0s-1.8-4.8,0-6.7c1.8-1.8,9.6-2.9,9.6-2.9
	S231.8,106.4,230,108.2z"/>
<path id="XMLID_232_" class="st0" d="M267.7,108.2c-1.8,1.8-4.8,1.8-6.7,0s-1.8-4.8,0-6.7s9.6-2.9,9.6-2.9S269.6,106.4,267.7,108.2z
	"/>
<path id="XMLID_231_" class="st0" d="M248.8,108.2c-1.8,1.8-4.8,1.8-6.7,0s-1.8-4.8,0-6.7c1.8-1.8,9.6-2.9,9.6-2.9
	S250.7,106.4,248.8,108.2z"/>
<path id="XMLID_230_" class="st0" d="M218.1,127.1c-1.8,1.8-4.8,1.8-6.7,0c-1.8-1.8-1.8-4.8,0-6.7c1.8-1.8,9.6-2.9,9.6-2.9
	S219.9,125.3,218.1,127.1z"/>
<path id="XMLID_229_" class="st0" d="M237,127.1c-1.8,1.8-4.8,1.8-6.7,0c-1.8-1.8-1.8-4.8,0-6.7c1.8-1.8,9.6-2.9,9.6-2.9
	S238.8,125.3,237,127.1z"/>
<path id="XMLID_228_" class="st0" d="M274.7,127.1c-1.8,1.8-4.8,1.8-6.7,0c-1.8-1.8-1.8-4.8,0-6.7c1.8-1.8,9.6-2.9,9.6-2.9
	S276.6,125.3,274.7,127.1z"/>
<path id="XMLID_227_" class="st0" d="M255.8,127.1c-1.8,1.8-4.8,1.8-6.7,0c-1.8-1.8-1.8-4.8,0-6.7c1.8-1.8,9.6-2.9,9.6-2.9
	S257.7,125.3,255.8,127.1z"/>
<path id="XMLID_226_" class="st0" d="M234.5,158.9"/>
<path id="XMLID_225_" class="st0" d="M211.1,146c-1.8,1.8-4.8,1.8-6.7,0c-1.8-1.8-1.8-4.8,0-6.7c1.8-1.8,9.6-2.9,9.6-2.9
	S212.9,144.2,211.1,146z"/>
<path id="XMLID_224_" class="st0" d="M230,146c-1.8,1.8-4.8,1.8-6.7,0c-1.8-1.8-1.8-4.8,0-6.7c1.8-1.8,9.6-2.9,9.6-2.9
	S231.8,144.2,230,146z"/>
<path id="XMLID_223_" class="st0" d="M267.7,146c-1.8,1.8-4.8,1.8-6.7,0c-1.8-1.8-1.8-4.8,0-6.7c1.8-1.8,9.6-2.9,9.6-2.9
	S269.6,144.2,267.7,146z"/>
<path id="XMLID_222_" class="st0" d="M248.8,146c-1.8,1.8-4.8,1.8-6.7,0c-1.8-1.8-1.8-4.8,0-6.7c1.8-1.8,9.6-2.9,9.6-2.9
	S250.7,144.2,248.8,146z"/>
<path id="XMLID_221_" class="st0" d="M218.1,164.9c-1.8,1.8-4.8,1.8-6.7,0c-1.8-1.8-1.8-4.8,0-6.7c1.8-1.8,9.6-2.9,9.6-2.9
	S219.9,163.1,218.1,164.9z"/>
<path id="XMLID_220_" class="st0" d="M237,164.9c-1.8,1.8-4.8,1.8-6.7,0c-1.8-1.8-1.8-4.8,0-6.7c1.8-1.8,9.6-2.9,9.6-2.9
	S238.8,163.1,237,164.9z"/>
<path id="XMLID_219_" class="st0" d="M274.7,164.9c-1.8,1.8-4.8,1.8-6.7,0c-1.8-1.8-1.8-4.8,0-6.7c1.8-1.8,9.6-2.9,9.6-2.9
	S276.6,163.1,274.7,164.9z"/>
<path id="XMLID_218_" class="st0" d="M255.8,164.9c-1.8,1.8-4.8,1.8-6.7,0c-1.8-1.8-1.8-4.8,0-6.7c1.8-1.8,9.6-2.9,9.6-2.9
	S257.7,163.1,255.8,164.9z"/>
<path id="XMLID_217_" class="st0" d="M316,45.2"/>
<path id="XMLID_216_" class="st0" d="M285.6,32.3c-1.8,1.8-4.8,1.8-6.7,0c-1.9-1.8-1.8-4.8,0-6.7c1.8-1.8,9.6-2.9,9.6-2.9
	S287.4,30.5,285.6,32.3z"/>
<path id="XMLID_215_" class="st0" d="M304.5,32.3c-1.8,1.8-4.8,1.8-6.7,0c-1.9-1.8-1.8-4.8,0-6.7c1.8-1.8,9.6-2.9,9.6-2.9
	S306.3,30.5,304.5,32.3z"/>
<path id="XMLID_214_" class="st0" d="M342.3,32.3c-1.8,1.8-4.8,1.8-6.7,0c-1.8-1.8-1.8-4.8,0-6.7c1.8-1.8,9.6-2.9,9.6-2.9
	S344.1,30.5,342.3,32.3z"/>
<path id="XMLID_213_" class="st0" d="M323.4,32.3c-1.8,1.8-4.8,1.8-6.7,0c-1.9-1.8-1.8-4.8,0-6.7c1.8-1.8,9.6-2.9,9.6-2.9
	S325.2,30.5,323.4,32.3z"/>
<path id="XMLID_212_" class="st0" d="M292.6,51.2c-1.8,1.8-4.8,1.8-6.7,0c-1.9-1.8-1.8-4.8,0-6.7c1.8-1.8,9.6-2.9,9.6-2.9
	S294.4,49.4,292.6,51.2z"/>
<path id="XMLID_211_" class="st0" d="M311.5,51.2c-1.8,1.8-4.8,1.8-6.7,0c-1.9-1.8-1.8-4.8,0-6.7c1.8-1.8,9.6-2.9,9.6-2.9
	S313.3,49.4,311.5,51.2z"/>
<path id="XMLID_210_" class="st0" d="M349.3,51.2c-1.8,1.8-4.8,1.8-6.7,0c-1.8-1.8-1.8-4.8,0-6.7s9.6-2.9,9.6-2.9
	S351.1,49.4,349.3,51.2z"/>
<path id="XMLID_209_" class="st0" d="M330.4,51.2c-1.8,1.8-4.8,1.8-6.7,0c-1.9-1.8-1.8-4.8,0-6.7c1.8-1.8,9.6-2.9,9.6-2.9
	S332.2,49.4,330.4,51.2z"/>
<path id="XMLID_208_" class="st0" d="M316,83"/>
<path id="XMLID_207_" class="st0" d="M285.6,70.1c-1.8,1.8-4.8,1.8-6.7,0c-1.9-1.8-1.8-4.8,0-6.7c1.8-1.8,9.6-2.9,9.6-2.9
	S287.4,68.3,285.6,70.1z"/>
<path id="XMLID_206_" class="st0" d="M304.5,70.1c-1.8,1.8-4.8,1.8-6.7,0c-1.9-1.8-1.8-4.8,0-6.7c1.8-1.8,9.6-2.9,9.6-2.9
	S306.3,68.3,304.5,70.1z"/>
<path id="XMLID_205_" class="st0" d="M342.3,70.1c-1.8,1.8-4.8,1.8-6.7,0c-1.8-1.8-1.8-4.8,0-6.7c1.8-1.8,9.6-2.9,9.6-2.9
	S344.1,68.3,342.3,70.1z"/>
<path id="XMLID_204_" class="st0" d="M323.4,70.1c-1.8,1.8-4.8,1.8-6.7,0c-1.9-1.8-1.8-4.8,0-6.7c1.8-1.8,9.6-2.9,9.6-2.9
	S325.2,68.3,323.4,70.1z"/>
<path id="XMLID_203_" class="st0" d="M292.6,89c-1.8,1.8-4.8,1.8-6.7,0c-1.9-1.8-1.8-4.8,0-6.7c1.8-1.8,9.6-2.9,9.6-2.9
	S294.4,87.1,292.6,89z"/>
<path id="XMLID_202_" class="st0" d="M311.5,89c-1.8,1.8-4.8,1.8-6.7,0c-1.9-1.8-1.8-4.8,0-6.7c1.8-1.8,9.6-2.9,9.6-2.9
	S313.3,87.1,311.5,89z"/>
<path id="XMLID_201_" class="st0" d="M349.3,89c-1.8,1.8-4.8,1.8-6.7,0c-1.8-1.8-1.8-4.8,0-6.7s9.6-2.9,9.6-2.9S351.1,87.1,349.3,89
	z"/>
<path id="XMLID_200_" class="st0" d="M330.4,89c-1.8,1.8-4.8,1.8-6.7,0c-1.9-1.8-1.8-4.8,0-6.7c1.8-1.8,9.6-2.9,9.6-2.9
	S332.2,87.1,330.4,89z"/>
<path id="XMLID_199_" class="st0" d="M316,121.1"/>
<path id="XMLID_198_" class="st0" d="M285.6,108.2c-1.8,1.8-4.8,1.8-6.7,0c-1.9-1.8-1.8-4.8,0-6.7c1.8-1.8,9.6-2.9,9.6-2.9
	S287.4,106.4,285.6,108.2z"/>
<path id="XMLID_197_" class="st0" d="M304.5,108.2c-1.8,1.8-4.8,1.8-6.7,0c-1.9-1.8-1.8-4.8,0-6.7c1.8-1.8,9.6-2.9,9.6-2.9
	S306.3,106.4,304.5,108.2z"/>
<path id="XMLID_196_" class="st0" d="M342.3,108.2c-1.8,1.8-4.8,1.8-6.7,0c-1.8-1.8-1.8-4.8,0-6.7s9.6-2.9,9.6-2.9
	S344.1,106.4,342.3,108.2z"/>
<path id="XMLID_195_" class="st0" d="M323.4,108.2c-1.8,1.8-4.8,1.8-6.7,0c-1.9-1.8-1.8-4.8,0-6.7c1.8-1.8,9.6-2.9,9.6-2.9
	S325.2,106.4,323.4,108.2z"/>
<path id="XMLID_194_" class="st0" d="M292.6,127.1c-1.8,1.8-4.8,1.8-6.7,0c-1.8-1.8-1.8-4.8,0-6.7c1.8-1.8,9.6-2.9,9.6-2.9
	S294.4,125.3,292.6,127.1z"/>
<path id="XMLID_193_" class="st0" d="M311.5,127.1c-1.8,1.8-4.8,1.8-6.7,0c-1.8-1.8-1.8-4.8,0-6.7c1.8-1.8,9.6-2.9,9.6-2.9
	S313.3,125.3,311.5,127.1z"/>
<path id="XMLID_192_" class="st0" d="M349.3,127.1c-1.8,1.8-4.8,1.8-6.7,0c-1.8-1.8-1.8-4.8,0-6.7c1.8-1.8,9.6-2.9,9.6-2.9
	S351.1,125.3,349.3,127.1z"/>
<path id="XMLID_191_" class="st0" d="M330.4,127.1c-1.8,1.8-4.8,1.8-6.7,0c-1.8-1.8-1.8-4.8,0-6.7c1.8-1.8,9.6-2.9,9.6-2.9
	S332.2,125.3,330.4,127.1z"/>
<path id="XMLID_190_" class="st0" d="M309,158.9"/>
<path id="XMLID_189_" class="st0" d="M285.6,146c-1.8,1.8-4.8,1.8-6.7,0c-1.8-1.8-1.8-4.8,0-6.7c1.8-1.8,9.6-2.9,9.6-2.9
	S287.4,144.2,285.6,146z"/>
<path id="XMLID_188_" class="st0" d="M304.5,146c-1.8,1.8-4.8,1.8-6.7,0c-1.8-1.8-1.8-4.8,0-6.7c1.8-1.8,9.6-2.9,9.6-2.9
	S306.3,144.2,304.5,146z"/>
<path id="XMLID_187_" class="st0" d="M342.3,146c-1.8,1.8-4.8,1.8-6.7,0c-1.8-1.8-1.8-4.8,0-6.7c1.8-1.8,9.6-2.9,9.6-2.9
	S344.1,144.2,342.3,146z"/>
<path id="XMLID_186_" class="st0" d="M323.4,146c-1.8,1.8-4.8,1.8-6.7,0c-1.8-1.8-1.8-4.8,0-6.7c1.8-1.8,9.6-2.9,9.6-2.9
	S325.2,144.2,323.4,146z"/>
<path id="XMLID_185_" class="st0" d="M292.6,164.9c-1.8,1.8-4.8,1.8-6.7,0c-1.8-1.8-1.8-4.8,0-6.7c1.8-1.8,9.6-2.9,9.6-2.9
	S294.4,163.1,292.6,164.9z"/>
<path id="XMLID_184_" class="st0" d="M311.5,164.9c-1.8,1.8-4.8,1.8-6.7,0c-1.8-1.8-1.8-4.8,0-6.7c1.8-1.8,9.6-2.9,9.6-2.9
	S313.3,163.1,311.5,164.9z"/>
<path id="XMLID_183_" class="st0" d="M349.3,164.9c-1.8,1.8-4.8,1.8-6.7,0c-1.8-1.8-1.8-4.8,0-6.7c1.8-1.8,9.6-2.9,9.6-2.9
	S351.1,163.1,349.3,164.9z"/>
<path id="XMLID_182_" class="st0" d="M330.4,164.9c-1.8,1.8-4.8,1.8-6.7,0c-1.8-1.8-1.8-4.8,0-6.7c1.8-1.8,9.6-2.9,9.6-2.9
	S332.2,163.1,330.4,164.9z"/>
<path id="XMLID_181_" class="st0" d="M390.5,45.2"/>
<path id="XMLID_180_" class="st0" d="M360.1,32.3c-1.8,1.8-4.8,1.8-6.7,0c-1.9-1.8-1.8-4.8,0-6.7c1.8-1.8,9.6-2.9,9.6-2.9
	S361.9,30.5,360.1,32.3z"/>
<path id="XMLID_179_" class="st0" d="M379,32.3c-1.8,1.8-4.8,1.8-6.7,0c-1.8-1.8-1.8-4.8,0-6.7c1.8-1.8,9.6-2.9,9.6-2.9
	S380.8,30.5,379,32.3z"/>
<path id="XMLID_178_" class="st0" d="M416.7,32.3c-1.8,1.8-4.8,1.8-6.7,0c-1.8-1.8-1.8-4.8,0-6.7c1.8-1.8,9.6-2.9,9.6-2.9
	S418.6,30.5,416.7,32.3z"/>
<path id="XMLID_177_" class="st0" d="M397.8,32.3c-1.8,1.8-4.8,1.8-6.7,0c-1.8-1.8-1.8-4.8,0-6.7c1.8-1.8,9.6-2.9,9.6-2.9
	S399.7,30.5,397.8,32.3z"/>
<path id="XMLID_176_" class="st0" d="M367.1,51.2c-1.8,1.8-4.8,1.8-6.7,0c-1.9-1.8-1.8-4.8,0-6.7c1.8-1.8,9.6-2.9,9.6-2.9
	S368.9,49.4,367.1,51.2z"/>
<path id="XMLID_175_" class="st0" d="M386,51.2c-1.8,1.8-4.8,1.8-6.7,0c-1.8-1.8-1.8-4.8,0-6.7c1.8-1.9,9.6-2.9,9.6-2.9
	S387.8,49.4,386,51.2z"/>
<path id="XMLID_174_" class="st0" d="M423.7,51.2c-1.8,1.8-4.8,1.8-6.7,0c-1.8-1.8-1.8-4.8,0-6.7c1.8-1.8,9.6-2.9,9.6-2.9
	S425.6,49.4,423.7,51.2z"/>
<path id="XMLID_173_" class="st0" d="M404.8,51.2c-1.8,1.8-4.8,1.8-6.7,0c-1.8-1.8-1.8-4.8,0-6.7c1.8-1.8,9.6-2.9,9.6-2.9
	S406.7,49.4,404.8,51.2z"/>
<path id="XMLID_172_" class="st0" d="M390.5,83"/>
<path id="XMLID_171_" class="st0" d="M360.1,70.1c-1.8,1.8-4.8,1.8-6.7,0c-1.9-1.8-1.8-4.8,0-6.7c1.8-1.8,9.6-2.9,9.6-2.9
	S361.9,68.3,360.1,70.1z"/>
<path id="XMLID_170_" class="st0" d="M379,70.1c-1.8,1.8-4.8,1.8-6.7,0c-1.8-1.8-1.8-4.8,0-6.7c1.8-1.8,9.6-2.9,9.6-2.9
	S380.8,68.3,379,70.1z"/>
<path id="XMLID_169_" class="st0" d="M416.7,70.1c-1.8,1.8-4.8,1.8-6.7,0c-1.8-1.8-1.8-4.8,0-6.7c1.8-1.8,9.6-2.9,9.6-2.9
	S418.6,68.3,416.7,70.1z"/>
<path id="XMLID_168_" class="st0" d="M397.8,70.1c-1.8,1.8-4.8,1.8-6.7,0c-1.8-1.8-1.8-4.8,0-6.7c1.8-1.8,9.6-2.9,9.6-2.9
	S399.7,68.3,397.8,70.1z"/>
<path id="XMLID_167_" class="st0" d="M367.1,89c-1.8,1.8-4.8,1.8-6.7,0c-1.9-1.8-1.8-4.8,0-6.7c1.8-1.8,9.6-2.9,9.6-2.9
	S368.9,87.1,367.1,89z"/>
<path id="XMLID_166_" class="st0" d="M386,89c-1.8,1.8-4.8,1.8-6.7,0c-1.8-1.8-1.8-4.8,0-6.7c1.8-1.9,9.6-2.9,9.6-2.9
	S387.8,87.1,386,89z"/>
<path id="XMLID_165_" class="st0" d="M423.7,89c-1.8,1.8-4.8,1.8-6.7,0c-1.8-1.8-1.8-4.8,0-6.7c1.8-1.8,9.6-2.9,9.6-2.9
	S425.6,87.1,423.7,89z"/>
<path id="XMLID_164_" class="st0" d="M404.8,89c-1.8,1.8-4.8,1.8-6.7,0c-1.8-1.8-1.8-4.8,0-6.7c1.8-1.8,9.6-2.9,9.6-2.9
	S406.7,87.1,404.8,89z"/>
<path id="XMLID_163_" class="st0" d="M390.5,121.1"/>
<path id="XMLID_162_" class="st0" d="M360.1,108.2c-1.8,1.8-4.8,1.8-6.7,0c-1.9-1.8-1.8-4.8,0-6.7c1.8-1.8,9.6-2.9,9.6-2.9
	S361.9,106.4,360.1,108.2z"/>
<path id="XMLID_161_" class="st0" d="M379,108.2c-1.8,1.8-4.8,1.8-6.7,0c-1.8-1.8-1.8-4.8,0-6.7c1.8-1.9,9.6-2.9,9.6-2.9
	S380.8,106.4,379,108.2z"/>
<path id="XMLID_160_" class="st0" d="M416.7,108.2c-1.8,1.8-4.8,1.8-6.7,0c-1.8-1.8-1.8-4.8,0-6.7c1.8-1.8,9.6-2.9,9.6-2.9
	S418.6,106.4,416.7,108.2z"/>
<path id="XMLID_159_" class="st0" d="M397.8,108.2c-1.8,1.8-4.8,1.8-6.7,0c-1.8-1.8-1.8-4.8,0-6.7c1.8-1.8,9.6-2.9,9.6-2.9
	S399.7,106.4,397.8,108.2z"/>
<path id="XMLID_158_" class="st0" d="M367.1,127.1c-1.8,1.8-4.8,1.8-6.7,0c-1.8-1.8-1.8-4.8,0-6.7c1.8-1.8,9.6-2.9,9.6-2.9
	S368.9,125.3,367.1,127.1z"/>
<path id="XMLID_157_" class="st0" d="M386,127.1c-1.8,1.8-4.8,1.8-6.7,0c-1.8-1.8-1.8-4.8,0-6.7c1.8-1.8,9.6-2.9,9.6-2.9
	S387.8,125.3,386,127.1z"/>
<path id="XMLID_156_" class="st0" d="M423.7,127.1c-1.8,1.8-4.8,1.8-6.7,0c-1.8-1.8-1.8-4.8,0-6.7c1.8-1.8,9.6-2.9,9.6-2.9
	S425.6,125.3,423.7,127.1z"/>
<path id="XMLID_155_" class="st0" d="M404.8,127.1c-1.8,1.8-4.8,1.8-6.7,0c-1.8-1.8-1.8-4.8,0-6.7c1.8-1.8,9.6-2.9,9.6-2.9
	S406.7,125.3,404.8,127.1z"/>
<path id="XMLID_154_" class="st0" d="M383.5,158.9"/>
<path id="XMLID_153_" class="st0" d="M360.1,146c-1.8,1.8-4.8,1.8-6.7,0c-1.8-1.8-1.8-4.8,0-6.7c1.8-1.8,9.6-2.9,9.6-2.9
	S361.9,144.2,360.1,146z"/>
<path id="XMLID_152_" class="st0" d="M379,146c-1.8,1.8-4.8,1.8-6.7,0c-1.8-1.8-1.8-4.8,0-6.7c1.8-1.8,9.6-2.9,9.6-2.9
	S380.8,144.2,379,146z"/>
<path id="XMLID_151_" class="st0" d="M416.7,146c-1.8,1.8-4.8,1.8-6.7,0c-1.8-1.8-1.8-4.8,0-6.7c1.8-1.8,9.6-2.9,9.6-2.9
	S418.6,144.2,416.7,146z"/>
<path id="XMLID_150_" class="st0" d="M397.8,146c-1.8,1.8-4.8,1.8-6.7,0c-1.8-1.8-1.8-4.8,0-6.7c1.8-1.8,9.6-2.9,9.6-2.9
	S399.7,144.2,397.8,146z"/>
<path id="XMLID_149_" class="st0" d="M367.1,164.9c-1.8,1.8-4.8,1.8-6.7,0c-1.8-1.8-1.8-4.8,0-6.7c1.8-1.8,9.6-2.9,9.6-2.9
	S368.9,163.1,367.1,164.9z"/>
<path id="XMLID_148_" class="st0" d="M386,164.9c-1.8,1.8-4.8,1.8-6.7,0c-1.8-1.8-1.8-4.8,0-6.7c1.8-1.8,9.6-2.9,9.6-2.9
	S387.8,163.1,386,164.9z"/>
<path id="XMLID_147_" class="st0" d="M423.7,164.9c-1.8,1.8-4.8,1.8-6.7,0c-1.8-1.8-1.8-4.8,0-6.7c1.8-1.8,9.6-2.9,9.6-2.9
	S425.6,163.1,423.7,164.9z"/>
<path id="XMLID_146_" class="st0" d="M404.8,164.9c-1.8,1.8-4.8,1.8-6.7,0c-1.8-1.8-1.8-4.8,0-6.7c1.8-1.8,9.6-2.9,9.6-2.9
	S406.7,163.1,404.8,164.9z"/>
</svg>
