<?xml version="1.0" encoding="utf-8"?>
<!-- Generator: Adobe Illustrator 19.0.0, SVG Export Plug-In . SVG Version: 6.00 Build 0)  -->
<svg version="1.1" id="Layer_1" xmlns="http://www.w3.org/2000/svg" xmlns:xlink="http://www.w3.org/1999/xlink" x="0px" y="0px"
	 viewBox="-248 384.8 115 25.2" style="enable-background:new -248 384.8 115 25.2;" xml:space="preserve">
<path id="XMLID_123_" d="M-192.5,400c-2.2,3.1-3.6,5.9-6.4,7.7c-1.3,0.9-2.3,1.3-3.9,1.4c-2.1,0.1-7,0.5-8.2-1.5
	c-1.6-2.7-0.5-5.9-0.5-8.9c0-3.8,1-6.9,4.4-8.1c4.7-1.6,9.9-2.2,13.9,1.2c2.5,2.1,2,1.9,4.7-0.7c2.1-2.2,9-3.2,11.6-1.8
	c0.7,0.4,1.2,0.8,1,1.7c-0.2,1-1.1,1.1-1.7,1.1c-1.7-0.1-3.4,0-5.1,0.3c-5.4,1-7.9,5.2-6,10.3c1.1,3,3.9,3,6.3,3.4
	c1.7,0.2,3.5-0.2,5.1-0.9c1.3-0.6,2.1,0.1,2.9,0.8c0.4,0.4,0.4,1.1-0.2,1.4c-3.2,1.1-6.1,3-9.8,2.6c-5.9-0.6-5.9-0.4-7.6-5.9
	C-192.2,402.9-192.7,401.8-192.5,400z M-200.3,393.1c-2.3,0.4-4.6,0.8-6.9,1.3c-1.1,0.2-1.3,0.6-1,1.6c0.3,0.9,0.4,1.8,0.5,2.7
	c0.1,0.8,0.2,1.5,0.1,2.3c-0.1,0.7-0.4,1.4-0.5,2.2c-0.1,0.7,0.1,1.6,0.7,2c0.7,0.5,0.8,0.2,1.7,0.1c0.5-0.1,1.8-0.1,2.2-0.2
	c4.1-0.2,7.6-3.9,8.6-7.7c0.4-1.7-0.4-2.6-1.4-3.1C-197.5,393.6-198.9,393.5-200.3,393.1z"/>
<path id="XMLID_116_" d="M-160,390.4c4.6-0.2,7.4,2.3,7.6,6.8c0.2,5-4,10.3-8.2,10.4c-3.2,0.1-7.3-4.8-7.6-8.9
	C-168.6,394-165.2,390.6-160,390.4z M-161.3,394.5c-1.5,0.2-3.5,0.8-3.6,3.6c0,1.3,3.7,5.3,4.8,5.2c0.2,0,0.5,0,0.7-0.1
	c2.3-1.1,3.4-3.2,3.2-5.5C-156.3,395.4-158.2,394.4-161.3,394.5z"/>
<path id="XMLID_19_" d="M-238.7,408.5c-1.6,0.2-3.6-3.9-4.3-4.7c-3.1-3.3-5.4-7-4.9-11.7c0.1-1,0-2.6,1.7-2.8c1.6-0.1,2,1.1,2.4,2.3
	c0.5,1.4,0.8,3,1.4,4.5c0.5,1.5,1.4,3.3,3,3.4c1.9,0,3.9-0.3,5.2-2.4c1.3-2.1,2.7-3.9,2.9-6.6c0.2-3.3,3.6-4,5.7-5.6
	c0.3-0.2,1.3,0.2,1.8,0.5c0.8,0.6,0.5,1.6-0.1,2.1c-3.6,3-4.6,7.4-6.3,11.4C-232.1,403.1-234.9,408.4-238.7,408.5z"/>
<path id="XMLID_14_" d="M-142.7,393.3c2.4,0.4,4.2,0.6,6.1,1c2.8,0.6,4,2.5,3.6,5.2c-0.5,2.9-1.4,5.5-4,7.6
	c-2.4,1.9-4.2,0.5-6.2-0.3c-0.7-0.3-0.7-1.2-0.5-1.8c0.2-0.7,0.9-0.5,1.4-0.4c1.5,0.3,2.9,0,4-1.2c3-3.1,2.5-5.2-1.5-6.4
	c-1.5-0.4-3-1-4.6-1s-2.8-0.8-3-2.6c-0.2-2,1.1-2.8,2.7-3.4c0.3-0.1,0.7-0.2,1-0.1c1.2,0.2,2.7-0.8,3.4,0.5
	C-139.5,392.1-141.8,391.8-142.7,393.3z"/>
<path id="XMLID_5_" d="M-179.3,397.3c0.9,0,1.5-0.1,2,0c0.6,0.1,1.4,0.2,1.4,1c0.1,0.7-0.5,1.3-1.1,1.4c-2.6,0.6-5.1,1.1-6.8,3.5
	c-0.4,0.6-1.9,0.5-2.1-0.4c-0.3-1-0.8-2.4,0.6-3.2C-183.4,398.5-181.5,396.9-179.3,397.3z"/>
<path id="XMLID_4_" d="M-218.1,398.8c0.2,3-0.7,5.8-1.1,8.7c-0.1,1.1-0.9,2-2,1.8c-1.3-0.2-1.7-1.3-1.5-2.6c0.5-3.3,1-6.7,1.7-10
	c0.2-0.9,0.2-2.6,1.7-2.4s1,1.7,1.2,2.8C-218,397.7-218.1,398.2-218.1,398.8z"/>
</svg>
