<?xml version="1.0" encoding="utf-8"?>
<!-- Generator: Adobe Illustrator 19.0.0, SVG Export Plug-In . SVG Version: 6.00 Build 0)  -->
<svg version="1.1" id="Layer_1" xmlns="http://www.w3.org/2000/svg" xmlns:xlink="http://www.w3.org/1999/xlink" x="0px" y="0px"
	 viewBox="-92 138.8 72.1 25.2" style="enable-background:new -92 138.8 72.1 25.2;" xml:space="preserve">
<path id="XMLID_123_" d="M-36.6,154c-1.1,3.6-3.6,5.9-6.4,7.6c-1.3,0.9-2.3,1.3-3.9,1.4c-2.1,0.1-7,0.5-8.2-1.5
	c-1.6-2.7-0.5-5.9-0.5-8.9c0-3.8,1-6.9,4.4-8.1c4.7-1.6,9.9-2.2,13.9,1.2c0.2,0.2,0.4,0.3,0.6,0.5C-36.7,146.2-35.3,148.2-36.6,154z
	 M-44.4,147c-2.3,0.4-4.6,0.8-6.9,1.3c-1.1,0.2-1.3,0.6-1,1.6c0.3,0.9,0.4,1.8,0.5,2.7c0.1,0.8,0.2,1.5,0.1,2.3
	c-0.1,0.7-0.4,1.4-0.5,2.2c-0.1,0.7,0.1,1.6,0.7,2c0.7,0.5,0.8,0.2,1.7,0.1c0.5-0.1,1.8-0.1,2.2-0.2c4.1-0.2,7.6-3.9,8.6-7.7
	c0.4-1.7-0.4-2.6-1.4-3.1C-41.6,147.5-43,147.4-44.4,147z"/>
<path id="XMLID_19_" d="M-82.8,162.4c-1.6,0.2-3.6-3.9-4.3-4.7c-3.1-3.3-5.4-7-4.9-11.7c0.1-1,0-2.6,1.7-2.8c1.6-0.1,2,1.1,2.4,2.3
	c0.5,1.4,0.8,3,1.4,4.5c0.5,1.5,1.4,3.3,3,3.4c1.9,0,3.9-0.3,5.2-2.4s2.7-3.9,2.9-6.6c0.2-3.3,3.6-4,5.7-5.6
	c0.3-0.2,1.3,0.2,1.8,0.5c0.8,0.6,0.5,1.6-0.1,2.1c-3.6,3-4.6,7.4-6.3,11.4C-76.2,157-79,162.3-82.8,162.4z"/>
<path id="XMLID_14_" d="M-30.6,146c2.6,0.4,4.5,0.6,6.6,1.1c3,0.6,4.3,2.7,3.9,5.6c-0.5,3.1-1.5,6-4.3,8.2c-2.6,2.1-4.5,0.5-6.7-0.3
	c-0.8-0.3-0.8-1.3-0.5-1.9c0.2-0.8,1-0.5,1.5-0.4c1.6,0.3,3.1,0,4.3-1.3c3.2-3.4,2.7-5.6-1.6-6.9c-1.6-0.4-3.2-1.1-5-1.1
	c-1.7,0-3-0.9-3.2-2.8c-0.2-2.2,1.2-3,2.9-3.7c0.3-0.1,0.8-0.2,1.1-0.1c1.3,0.2,2.9-0.9,3.7,0.5C-27.1,144.7-29.6,144.4-30.6,146z"
	/>
<path id="XMLID_4_" d="M-62.2,152.7c0.2,3-0.7,5.8-1.1,8.7c-0.1,1.1-0.9,2-2,1.8c-1.3-0.2-1.7-1.3-1.5-2.6c0.5-3.3,1-6.7,1.7-10
	c0.2-0.9,0.2-2.6,1.7-2.4s1,1.7,1.2,2.8C-62.1,151.6-62.2,152.1-62.2,152.7z"/>
</svg>
