<?xml version="1.0" encoding="utf-8"?>
<!-- Generator: Adobe Illustrator 19.0.0, SVG Export Plug-In . SVG Version: 6.00 Build 0)  -->
<svg version="1.1" id="Layer_1" xmlns="http://www.w3.org/2000/svg" xmlns:xlink="http://www.w3.org/1999/xlink" x="0px" y="0px"
	 viewBox="0 0 160.2 109.3" style="enable-background:new 0 0 160.2 109.3;" xml:space="preserve">
<style type="text/css">
	.st0{fill:#FFFFFF;}
</style>
<g>
	<path d="M63.8,109.3c-0.4-1,0-2.1-0.8-3c-0.1-0.1-0.2-0.4-0.1-0.4c0.6-0.9,0.1-1.8,0.1-2.6c-0.1-0.9,0.5-1.4,0.7-2
		c0.3-0.7,0.8-1.4,0.5-2.3c-0.1-0.4,0.3-1,0.4-1.5c0.1-0.3,0-0.5-0.1-0.8c-0.2,0-0.4,0.1-0.7,0.1c-0.2,0-0.4,0-0.6,0
		c0-0.2,0-0.5,0.1-0.7c0.3-0.7,0.6-1.5,0.9-2.4c-0.4,0.1-0.6,0.2-0.8,0.2c-0.6,0.1-1.1-0.2-1.1-0.9c0-0.6-0.3-0.7-0.8-0.6
		c-0.4,0-0.8,0.1-1.1,0c-0.7-0.5-1.2-0.2-1.5,0.4c-0.7-0.1-1.3-0.2-1.9-0.2c-0.3,0-0.6,0.1-0.8,0.2c-0.7,0.5-1.3,0.8-2.1,0.4
		c-0.3-0.1-0.9,0.1-1.1,0.3c-0.7,0.9-0.7,0.9-1.5,0.1c-0.1-0.1-0.2-0.1-0.3-0.2c-0.1,0.2-0.2,0.3-0.3,0.5c-0.3,0.7-1,0.9-1.6,0.5
		c-0.4-0.3-0.7-0.3-1,0.1c-0.3,0.3-0.5,0.6-0.9,0.7c-0.3,0.1-0.8,0-1.1-0.1c-0.2,0-0.3-0.3-0.3-0.3c-0.6,0-1.1,0.1-1.5,0
		c-0.8-0.2-1.3,0.2-1.8,0.7c-0.4,0.4-0.7,0.4-1-0.1c-0.3-0.5-0.6-0.4-1-0.1c-0.8,0.6-1.6,1.3-2.7,0.7c-0.1-0.1-0.4,0-0.6,0.1
		c-0.9,0.4-1.2,0.3-1.2-0.7c0-0.1-0.1-0.2-0.1-0.4c-0.2,0-0.3,0-0.4,0.1c-0.8,0.7-1.7,0.7-2.6,0.3c-0.4-0.2-0.7-0.2-1,0.3
		c-0.3,0.4-0.8,0.6-1.3,0.9c-0.1,0.1-0.3,0-0.4,0c-0.6-0.2-1.1-0.5-1.5-0.7c-0.1-0.7-0.1-1.3-0.2-2c0-0.2-0.1-0.4-0.3-0.6
		c-0.2-0.2-0.4-0.3-0.6-0.4c0,0.2,0.1,0.4,0.1,0.6c0,0.2,0,0.4-0.1,0.6c-0.2,0.4-0.4,0.9-0.8,1.2c-0.3,0.3-0.8,0.3-1.3,0.5
		c0,0.1,0,0.3-0.1,0.7c-0.4-0.1-0.7-0.2-1-0.4c-0.1-0.1-0.2-0.5-0.2-0.5c0.8-0.4,0.4-1.4,1-1.9c0.3-0.4,0.6-0.8,0.8-1.3
		c0.1-0.2,0.2-0.6,0.1-0.7c-0.2-0.2-0.5-0.3-0.7-0.4c-0.4-0.1-0.8-0.1-1.2-0.1c-0.3,0-0.6,0.1-0.9,0.2c-0.1,0-0.2,0.3-0.3,0.4
		c0.2,0.1,0.3,0.2,0.5,0.3c0.4,0.3,0.9,0.4,1,0.8c0.1,0.2-0.3,0.7-0.6,1c-0.6,0.5-0.7,1-0.4,1.7c0.4,0.8,0,1.3-0.9,1.1
		c-0.2,0-0.5-0.1-0.7-0.2c-0.5-0.2-1-0.2-1.1,0.5c0,0.1,0,0.2-0.1,0.2c-0.8,0.2-1.6,0.5-2.4,0.5c-0.5,0-0.8-0.5-0.8-1
		c0-0.2-0.1-0.3-0.1-0.5c-0.1,0-0.2-0.1-0.3-0.1c-0.1,0.3-0.2,0.6-0.3,0.8c-0.1,0.3-0.3,0.6-0.5,0.9c-0.3-0.2-0.6-0.3-0.8-0.6
		c-0.3-0.7-1-0.5-1.5-0.7c-0.5-0.1-0.8,0.3-0.8,0.9c0,0.1-0.2,0.4-0.3,0.3c-0.7-0.2-1.4-0.3-2-0.6c-0.3-0.1-0.5-0.4-0.7-0.4
		c-1-0.2-1.6-0.7-1.8-1.7c-0.1-0.4-0.3-0.7-0.5-1.1c0.5-0.3,1-0.7,0.9-1.6c-0.5,0.3-1,0.5-1.7,0.8c0.2-1.1,0.4-2,0.5-2.9
		c0.2-1-0.3-2-1.2-2.5c-0.2-0.1-0.5-0.4-0.4-0.6c0.1-0.4,0.3-0.9,0.6-1.1c0.3-0.2,0.8-0.3,0.6-0.7c-0.1-0.2-0.5-0.4-0.9-0.6
		c-0.1,0.4-0.1,0.7-0.2,0.8c-0.2,0.1-0.6,0.2-0.8,0.2c-0.1,0-0.3-0.5-0.2-0.7c0.1-0.3,0.4-0.6,0.7-0.9c-0.9-1.2-0.9-1.2,0.2-2.4
		c0.6-0.7,0.5-1.6-0.3-2c-0.6-0.4-0.4-0.9-0.4-1.3c0-0.4-0.1-0.8-0.1-1.1c0-0.2-0.1-0.4,0-0.5c0.2-0.7,0.5-1.3,0.7-2
		c0.1-0.2,0-0.5-0.1-0.7c-0.4-0.5-0.4-1-0.2-1.5c0.4-0.8,0.4-1.6-0.3-2.3c-0.4-0.4,0-0.7,0.3-0.8c0.5-0.2,0.9-0.5,1.4-0.7
		c-0.5-0.5-1-0.7-1.5-0.4c-0.2,0.1-0.6,0.2-0.8,0.1c-0.2-0.1-0.4-0.4-0.4-0.6c0-0.2,0.2-0.4,0.4-0.5c0.2-0.1,0.5-0.1,0.7-0.1
		c0.7,0.1,1.2-0.1,1.7-0.7c0.5-0.7,1.6-0.6,2.4-0.1c0.3,0.2,0.7,0.4,1.1,0.4c0.6,0.1,1,0.3,1.1,0.9c0.1,0.6,0.2,1.2,0.3,1.8
		c0,0.2,0,0.4,0.1,0.5c0.4,0.7,0.8,1.3,1.2,1.9c0.1,0.2,0.2,0.6,0.1,0.8c-0.4,0.7-0.1,1.4,0,2.1c0.2,0.9,0.2,1.8,0.3,2.6
		c0,0.4,0.1,0.8,0,1.2c-0.1,0.4-0.4,0.7-0.6,1.2c0.2,0.3,0.5,0.8,0.5,1.2c0,0.3-0.6,0.6-1,0.9c0.1,0.2,0.5,0.6,0.4,0.8
		c-0.3,0.8,0.1,1.5,0.1,2.3c0,0.2-0.3,0.5-0.6,0.9c1.2,0,2.2,0,3.3,0c0.4,0,0.8-0.2,1.2-0.3c0.5-0.2,1-0.5,1.5-0.6
		c1.1-0.2,2.3-0.4,3.4-0.6c0.8-0.2,1.3,0.2,1.5,0.9c0.5,0,1,0.1,1.4,0.1c0.2,0,0.5-0.1,0.6-0.3c0.5-0.7,1.1-0.7,1.6-0.1
		c0.2,0.3,0.5,0.6,0.7,0.9c0.6-0.6,1-1,1.9-1c0.8,0,1.5-0.1,1.7,0.8c0.5,0,0.9,0,1.3,0c0.7,0,1.5-0.9,1.4-1.8
		c-0.1-0.9-0.3-1.8-0.4-2.7c-0.1-2-0.6-3.9-0.7-5.9c0-0.2,0.1-0.4,0.2-0.6c0.1-0.2,0.2-0.5,0.2-0.7c-0.2-0.7-0.4-1.3,0.3-1.8
		c0.1,0,0.1-0.3,0-0.4c-0.5-0.8-0.3-1.4,0.7-1.6c-0.2-0.5-0.3-0.9-0.5-1.3c-0.4-0.8-0.2-1.6,0.2-2.4c0.1-0.2,0-0.6-0.1-0.8
		c-0.3-0.8-0.2-1,0.6-1.4c0.3-0.1,0.6-0.5,0.6-0.7c-0.1-0.5,0.1-0.8,0.5-1.1c0.2-0.1,0.2-0.3,0.3-0.6c-0.9,0.5-1.4,0-1.8-0.5
		c-0.3-0.4-0.4-0.8,0.2-1.1c0.5-0.2,0.7-0.6,0.4-1.1c0-0.1,0-0.2,0-0.3c0.2-1.1,0-2.1-0.5-3.1c-0.1-0.2-0.1-0.4-0.1-0.5
		c-0.1-0.3-0.3-0.9-0.5-0.9c-0.4,0-0.8,0.2-1.1,0.4c-0.2,0.1-0.3,0.5-0.4,0.7c-0.4,0.6-0.9,0.6-1.4,0.1c-0.5-0.5-0.8-0.7-1.4-0.1
		c-0.2,0.2-0.5,0.1-0.8,0.2c-0.4,0-0.9-0.1-1.2,0.1c-0.6,0.3-1.2,0.3-1.8,0.5c-1.7,0.5-3.3-0.2-5,0.1c-0.4,0.1-0.8-0.4-1.3-0.5
		c-0.3-0.1-0.7-0.1-1-0.1c-0.4,0-0.9,0.2-1,0c-0.3-0.3-0.3-0.8-0.4-1.2c0-0.2,0.2-0.5,0.4-1c-2.1,0-3.9,0-5.8,0
		c-0.8,0-0.9,0.1-0.6,0.8c0.2,0.5,0.2,0.9-0.3,1.3c-0.4,0.2-0.3,0.4-0.1,0.8c0.2,0.3,0.1,0.7,0.2,1c-0.3,0-0.8,0.2-0.9,0
		c-0.2-0.2-0.2-0.6-0.2-0.9c-0.1-0.6,0.1-1.3-0.2-1.9c-0.5-1.1-1.1-2.2-1.9-3.1c-0.4-0.4-1.4-0.3-2.1-0.3c-0.9,0-1.5-0.4-2.1-0.9
		c-0.2-0.2-0.3-0.7-0.2-1c0.2-0.7,0.1-1.2-0.3-1.7C3,47.5,2.9,47.2,2.7,47c-0.4-0.7-0.7-1.4-0.3-2.3c0.2-0.4,0-1-0.2-1.4
		C2,42.8,2,42.4,2.4,42c0.4-0.4,0.3-0.8,0.1-1.3c-0.1-0.2-0.2-0.6-0.1-0.7c0.6-0.6,0.1-1.1-0.1-1.8C2,37.5,2,36.6,2,35.8
		C2,35.3,2.4,35,3,35c0.5,0,1,0,1.5,0c0-0.1,0.1-0.1,0.1-0.2c-0.4-0.4-0.8-0.8-1.2-1.2C3.2,33.5,3,33.2,3,33.1
		c0.1-0.2,0.3-0.4,0.5-0.5c0.1-0.1,0.4,0,0.5,0c0.2-0.1,0.5-0.2,0.7-0.3c0.1-0.1-0.1-0.4-0.3-0.6c-0.5-0.5-0.5-0.9,0-1.4
		c0.2-0.2,0.2-0.5,0.3-0.7c-0.2-0.1-0.5-0.2-0.7-0.2c-0.2,0-0.4,0-0.6,0C3.2,29.1,3,28.9,3,28.8c0-0.2,0.1-0.5,0.3-0.6
		c0.2-0.1,0.6-0.1,0.8-0.2c0.2-0.1,0.4-0.1,0.5-0.3c0.1-0.1-0.1-0.4-0.2-0.5c-0.8-0.9-0.7-1.1,0.6-1.5c-0.2-0.4-0.4-0.8-0.7-1
		c-0.8-0.4-0.8-0.8-0.2-1.3c0.2-0.1,0.3-0.3,0.5-0.4c-0.3-0.7-0.6-0.6-1-0.1c-0.3,0.4-0.7,0.6-1.2,0.2c-0.2-0.2-0.3-0.6-0.3-0.8
		c0.2-0.4,0.2-1.1,0.9-1c0.3,0,0.5-0.1,0.8-0.1c-0.1-0.3-0.1-0.7-0.3-0.9c-0.1-0.2-0.5-0.1-0.8-0.1c-0.4,0-0.8,0-1.2-0.1
		c0,0-0.1-0.5,0-0.7c0.2-0.6,0.7-0.6,1.2-0.4c0.1,0,0.3,0,0.4,0.1c1,0.2,1,0.2,0.9-0.8C4,17.7,4,17.2,4,16.8c0-0.2-0.2-0.4-0.4-0.7
		c-0.1,0.1-0.2,0.2-0.2,0.2c0,0.3,0.5,0.8-0.2,1c-0.6,0.2-1.1-0.2-1.4-0.7c-0.4-0.7-0.6-1.5-0.9-2.2c-0.1-0.1-0.1-0.4,0-0.5
		c0.7-1.2-0.3-2.1-0.7-3C0.1,10.7,0.1,10.3,0,10c0.3,0,0.6-0.1,0.9,0c0.6,0.2,0.9,0,1.2-0.5C2.4,9,2.9,8.6,3.3,8.1
		c0.2-0.2,0.3-0.5,0.5-0.7C4,7.2,4.4,6.9,4.5,7C5,7.3,5.6,7.7,6,8.1c0.3,0.3,0.4,1.1,0.3,1.3C5.9,10,5.4,9.6,5,9.3
		C4.9,9.3,4.8,9.3,4.6,9.2c-0.1,0.5-0.1,1-0.2,1.5c-0.1,0.3-0.1,0.7-0.3,0.8c-0.5,0.4-0.5,0.6,0,1c0.2,0.1,0.5,0.2,0.6,0.4
		c0.1,0.2,0.3,0.6,0.2,0.7C4.7,13.8,4.3,13.9,4,14c-0.4,0.1-0.9-0.6-1,0.1c-0.1,0.7,0.6,0.3,1,0.4c0.9,0.2,1.9,1.4,2,2.4
		c0.1,0.8,0.3,1.6-0.2,2.3c0,0.1,0.2,0.4,0.3,0.5c0.7,0.4,1.2,0.8,0.5,1.6c-0.1,0.1,0,0.2,0,0.4c1-0.7,2-0.7,2.9,0.1
		c0.3,0.3,0.5,0.7,0.7,1.1c0.5,1.3,1,2.6,1.4,4c0.2,0.7,0.3,1.5,0.4,2.3c0.1,0.9,0.2,1.9,0.2,2.8c0,0.2,0.1,0.3,0.1,0.5
		c0.3,0.5,0.3,0.8-0.3,1.1c-0.5,0.3-0.6,0.7-0.4,1.3c0.2,0.6,0.1,1.2,0.3,1.8c0,0.2,0.3,0.4,0.5,0.6c0.1-0.1,0.3-0.2,0.4-0.4
		c0.2-0.5,0.5-0.7,1-0.4c0.3,0.1,0.7,0.2,0.8,0.3c0.1-0.9,0.1-1.8,0.3-2.6c0-0.1,0.3-0.2,0.5-0.3c0.5-0.2,0.5-0.6,0.2-1
		c-0.2-0.3-0.5-0.6-0.7-0.7c-0.6-0.3-1-0.7-0.6-1.4c0.1-0.1-0.2-0.5-0.4-0.7c-0.3-0.4-0.3-0.7,0.1-1c0.6-0.5,0.9-1,0.9-1.8
		c0-0.3,0.3-0.7,0.5-1c0.3-0.4,0.6-0.8,0.8-1.1c-0.5-0.4-1-0.8-1.5-1.2c-0.1-0.1-0.1-0.3-0.1-0.5c0.2,0,0.3-0.1,0.5-0.1
		c0.8-0.1,1.5-0.3,2-0.4c0-0.7,0-1.2,0-1.8c0-0.2-0.1-0.4-0.2-0.6c-0.6-0.8-0.5-1.2,0.5-1.6c0.2-0.1,0.4-0.2,0.8-0.6
		c-0.4-0.2-0.8-0.4-1.1-0.7c-0.7-0.6-0.7-0.8,0-1.4c0.8-0.6,0.8-2.5,0-2.8c-0.2-0.1-0.6,0-0.8,0.1c-1.5,1.1-3,0.4-3.5-0.9
		c-0.1-0.2,0.2-0.7,0.3-1c0.3-0.4,0.7-0.7,0.4-1.3c-0.1-0.1,0.1-0.4,0.2-0.5c0.2-0.1,0.5-0.1,0.7,0c0.3,0.1,0.6,0.3,0.9,0.4
		c0.7,0.3,1,0.2,1.3-0.5c0.3-0.6,0.6-1.1,0.8-1.6c0.4-1.2,0.7-2.5-0.1-3.7C17,4,16.8,3.5,16.5,2.9C16.3,2.4,16.5,2,17,2
		c0.6,0,0.9-0.2,1.2-0.7c0.3-0.6,1-0.6,1.5,0.1c0.6,0.7,0.9,0.5,1.3-0.1c0.1-0.3,0.3-0.5,0.5-0.7C21.7,0.3,21.9,0,22.1,0
		c1.3,0.1,2.6,0.3,3.9,0.5c0.2,0,0.4,0.3,0.6,0.4C27,1,27.4,1.2,27.6,1.1c0.7-0.2,1.1,0,1.2,0.6c0.1,0.6,0.5,0.7,1,0.6
		c0.7-0.1,1.4-0.4,1.9,0.3c0,0.1,0.2,0,0.4,0c0.3,0.1,0.6,0.1,0.8,0.3c0.5,0.6,1.5,0.8,2.2,0.5c0.3-0.1,0.5-0.2,0.8-0.3
		c1.4-0.5,1.6-0.4,2.4,1.2c0.1,0.2,0.3,0.4,0.4,0.6c0.1-0.2,0.3-0.4,0.4-0.6c0.3-0.9,0.7-1.1,1.6-0.9c1.2,0.3,2.3,0.6,3.5,0.9
		c0.2,0,0.4,0,0.5,0.1c1.8,1.2,3.7,0.7,5.7,0.7c1.4,0,2.8,0.1,4.2,0c1.1,0,2.1,0.5,3.2-0.2c0.3-0.2,0.9,0,1.2,0.2
		c0.5,0.2,0.8,0.2,1.1-0.2c0.4-0.5,0.8-0.7,1.5-0.4c0.4,0.2,1-0.1,1.5-0.2c0.4-0.1,0.9-0.3,1.3-0.1c1,0.4,1.9,1,2.8,1.5
		c0.5,0.3,0.9,0.6,1.6,0.4c0.8-0.3,2.5,1,2.5,1.8c0,0.3-0.3,0.7-0.6,0.8c-1.2,0.5-1.3,0.8-0.5,1.8c0.6,0.7,0.5,1.5,0.2,2.3
		c-0.1,0.4-0.2,0.9-0.1,1.3c0.2,0.9,0,1.1-0.8,1.6c-0.8,0.6-1.5,1.4-2.2,2.2c-0.1,0.1,0,0.5,0,0.8c0,0.3,0.1,0.7-0.1,0.9
		c-0.4,0.5-0.2,0.8,0.1,1.1c1,0.7,0.9,1.7,0.8,2.7c0,0.3,0.1,0.8,0.3,1c0.6,0.6,0.7,1.1,0.2,1.8c-0.1,0.2-0.1,0.6,0.1,0.8
		c0.5,0.6,0.7,1.2,0.1,1.9c-0.1,0.1,0.1,0.4,0.2,0.6c0.1,0.4,0.2,0.7,0.3,1.1c0.1,0.3,0,0.7,0.1,1c0.2,0.6,0.2,1-0.5,1.2
		c-0.7,0.2-0.9,1.6-0.4,2.1c0.1,0.1,0.3,0.2,0.4,0.3c0.2,0.3,0.4,0.6,0.3,0.9c0,0.2-0.5,0.3-0.8,0.4c-0.1,0.1-0.3,0.1-0.5,0.2
		c0.4,0.4,0.9,0.6,1.1,1c0.5,0.7-0.3,0.8-0.7,1.1c0.1,0,0.2,0,0.3,0c0,0.5-0.1,0.9-0.1,1.4c0,0.3,0.3,0.5,0.4,0.8
		c0.2,0.2,0.4,0.5,0.6,0.7c-0.3,0.2-0.5,0.6-0.8,0.6c-1,0.1-1.9,0.4-2.9-0.2c-0.9-0.5-1.7-0.2-2.6-0.1c-0.4,0.1-0.9,0-1.4-0.1
		c-0.1,0-0.2-0.3-0.3-0.5c-0.1-0.4,0.4-0.9-0.3-1.1c-0.8-0.2-1.6-0.5-2.4,0.1c-0.2,0.1-0.4,0.2-0.6,0.3c-0.6,0.1-0.9,0.3-0.8,1.1
		c0.1,0.5-0.4,0.9-0.8,0.5c-1-0.9-2.1-0.5-3.1-0.4c-0.1,0-0.3,0.1-0.4,0.1c-0.9-0.7-1.9-0.1-2.8-0.4c-0.3-0.1-0.6-0.1-0.8,0
		c-0.8,0.5-1.4,0.2-2.1-0.2c-0.4-0.3-0.8-0.5-1,0.3c-0.2,0.5-0.9,0.7-1.2,0.3c-0.5-0.6-0.8-0.3-1.2,0.2c-0.5-0.7-1.2-1-2.1-0.8
		c-0.2,0.1-0.5-0.3-0.7-0.4c-0.4-0.2-1-0.5-1.3-0.3c-0.4,0.2-0.8,0.7-0.8,1.2c-0.1,0.9,0,1.9,0.1,2.8c0,0.6,0.1,1.1,0.1,1.7
		c0,1.2,0.1,2.5,0.1,3.7c0,0.2,0.2,0.4,0.3,0.4c1.5-0.2,3-0.4,4.5-0.5c0.6,0,1.3,0.2,1.9,0.2c1.2,0.1,2.5,0.1,3.7,0.1
		c0.4,0,0.8-0.1,1.2-0.2c0.2,0,0.4-0.1,0.6-0.1c0.9,0.1,1.8,0.3,2.7,0.5c0.1,0,0.3,0,0.4-0.1c0.5-0.6,1.1-0.4,1.7-0.2
		c0.4,0.1,1,0.2,1.4,0c1-0.5,2-0.4,2.8,0.3c0.1,0.1,0.3,0.2,0.5,0.4c0.1-0.3,0.1-0.5,0.2-0.7c0.3-0.7,0.8-0.9,1.5-0.5
		c0.5,0.3,0.9,0.6,1.5,0.1c0.1-0.1,0.6-0.1,0.7,0c0.6,0.6,1,1.2,1.6,1.8c0.5,0.5,1,1,1.6,1.4c0.7,0.5,1.5,1,2.2,1.5
		c0.5,0.4,0.6,1,0.4,1.5c-0.5,1.6,0,3,0.2,4.5c0.1,0.9,0,1.8,0.1,2.8c0.1,0.5,0.2,1,0.4,1.4c0.3,0.6,0.7,1,0.5,1.8
		c-0.2,0.6,0.3,1.2,1.1,1.4c0.8,0.3,1.2,0.7,1,1.5c-0.1,0.3-0.3,0.8-0.6,0.8c-0.9,0.2-1,1-1.5,1.5c-0.1,0.1-0.1,0.3,0,0.4
		c0.4,0.7,0.2,1.2-0.4,1.6c0.2,0.2,0.3,0.4,0.4,0.6c0.1,0.3,0.2,0.6,0.1,0.8c-0.1,0.2-0.5,0.3-0.7,0.3c-0.5-0.1-0.6,0.2-0.7,0.6
		c0,0.2-0.3,0.4-0.5,0.6c-0.1,0.1-0.4,0.1-0.5,0.2c-0.9,0.5-1.8,0.4-2.4-0.5c-0.2-0.2-0.1-0.7,0-1c0.1-0.3,0.4-0.5,0.7-0.8
		c-0.2-0.2-0.4-0.4-0.7-0.6c0.1-0.2,0.2-0.3,0.3-0.5c0.1-0.2,0.2-0.5,0.2-0.7c-0.1-0.2-0.5-0.4-0.7-0.4c-1-0.1-1.2,0.3-0.9,1.1
		c0.2,0.5,0,0.7-0.5,0.9c-0.9,0.2-0.9,0.2-0.5,1c0.1,0.1,0.2,0.3,0.1,0.4c-0.4,0.7-0.3,1.2,0.2,1.8c0.1,0.1,0.1,0.2,0.1,0.3
		c-0.2,0.8-0.7,1.4-0.6,2.3c0,0-0.4,0.2-0.5,0.1c-0.3,0-0.6-0.1-1-0.2c0.1-0.2,0.1-0.3,0.2-0.5c0.2-0.5,0.5-0.9-0.3-1.2
		c-0.2-0.1-0.4-0.5-0.3-0.7c0.1-0.6,0.3-1.2,0.5-1.8c0-0.2-0.1-0.5-0.1-0.7C64.2,75,64,74.7,64,74.4c0.3-2.2,0-4.3-0.2-6.5
		c-0.1-0.7,0.2-1.4,0.2-2.1c0.1-1.2,0.4-2.5,0.4-3.7c0-1.1,0.2-2.1,0.7-3c0.1-0.2,0.2-0.5,0.1-0.7c-0.2-0.5-0.2-1,0.1-1.5
		c0.1-0.1,0-0.5-0.2-0.6c-0.4-0.2-0.8-0.3-1.3-0.5c-0.2-0.7-0.9-0.9-1.7-0.8c-0.9,0.2-1.8,0-2.5,0.8c-0.8-0.3-1.5-0.1-2.3,0.2
		c-0.2,0.1-0.6-0.1-0.9-0.2c-0.6-0.2-1.1-0.2-1.5,0.3c-0.3,0.4-0.7,0.4-1.3,0.3c-1.6-0.3-3.2-0.6-4.9-0.5c-1.2,0.1-2.5-0.3-3.8-0.5
		c-0.9-0.1-1.9-0.2-2.8-0.2c-0.6,0-1.2,0.3-1.9,0.5c-0.1,1.2-0.2,2.5,0.6,3.6c0.4,0.6,0.2,1.6-0.4,2c-0.3,0.2-0.5,0.4-0.1,0.8
		c0.2,0.2,0.2,0.6,0.1,0.8c-0.3,0.9-0.6,1.7-0.9,2.5c0,0.1-0.1,0.2-0.1,0.3c0.7,1.4-0.1,2.9,0.3,4.3c0.1,0.4-0.2,1.2-0.5,1.6
		c-0.5,0.6-0.6,1.1-0.2,1.6c0.5,0.7,0.5,1.3-0.1,1.9c0.8,1.1,0.8,1.2,0.1,2.4c-0.1,0.1-0.2,0.4-0.1,0.5c0.8,0.9,0.3,2,0.5,2.9
		c0.1,0.7,0.1,1.4,0.1,2.2c0,0.1,0,0.2-0.1,0.3c-0.1,0.4-0.3,0.9-0.2,1.1c0.4,0.4,0.9,0.7,1.5,0.9c0.1,0.1,0.4-0.2,0.5-0.3
		c0.8-0.6,1.4-0.5,2.2,0c0.2,0.1,0.6,0,0.7-0.1c0.5-0.4,0.9-0.4,1.4-0.1c0.2,0.1,0.6,0.2,0.9,0.2c0.4,0,0.9-0.2,1.3-0.1
		c1.3,0.3,2.7-0.2,3.9,0.5c0.2,0.1,0.5,0,0.7,0c0.4,0,1-0.1,1.1,0.2c0.8,1,1.6,0.4,2.3,0c0.6-0.3,1.2-0.5,1.9-0.1
		c0.1,0.1,0.2,0.1,0.3,0.1c0.9-0.1,1.4,0.2,1.3,1.4c0.8-0.4,1.5-0.8,2.2-1.1c0.2-0.1,0.5-0.1,0.7-0.1c0.6,0.2,1.1,0.4,1.9,0.6
		c-0.8,0.5-0.9,1.5-2,1.2c-0.2,0-0.4,0.3-0.6,0.5c0.6,0.1,1.1,0.4,1.6,0.3c0.4-0.1,0.8-0.4,1.1-0.7c0.2-0.1,0.2-0.4,0.3-0.7
		c0.3-0.9,0.4-0.9,1.4-0.4c-0.2,0.4-0.5,0.9-0.7,1.3c0.1-0.1,0.2-0.2,0.3-0.3c0.4,0.5,0.9,1,1.3,1.5c0,0.1,0,0.2-0.1,0.3
		c0.2-0.3,0.3-0.5,0.6-0.8c0.2-0.2,0.4-0.4,0.5-0.4c0.2,0,0.5,0.3,0.5,0.5c0,0.9,0.6,1.9-0.1,2.8c-0.3,0.4-0.2,1-0.3,1.5
		c-0.1,0.8-0.3,1.5-0.3,2.3c0,0.6,0.1,1.1,0.2,1.7c0.1,0.7,0.2,1.3,0.3,2c0.1,0.7,0.2,1.4,0.1,2.1c-0.1,0.7-0.3,1.2,0.3,1.7
		c0.4,0.4,0.3,1-0.1,1.4c-0.6,0.6-0.6,1.2-0.4,2c0.5,1.3,0.3,1.6-1,2.2 M61.7,22.8c-1.1-0.9-1.1-2-0.6-3.3c0.1-0.2-0.1-0.5-0.2-0.8
		c-0.1-0.7-0.5-1.5-0.3-2.1c0.3-0.8,0.2-1.5,0.3-2.3c0-0.3-0.2-0.6-0.4-0.8c-0.1-0.1-0.4,0.1-0.6,0.2c-0.6,0.5-1,0.4-1.6-0.1
		c-0.3-0.3-0.7-0.5-1.2-0.8c-0.5,1.9-1.4,0.6-2.2,0.6c-0.3,0.3-0.7,0.7-1.1,0.7c-1,0-1.2-0.9-1.3-1.8c-0.6,0.5-1.1,1-1.7,1.4
		c-0.3,0.2-0.7,0.1-1.1,0.1c-0.3,0-0.7-0.2-0.8-0.1c-0.2,0.3-0.4,0.7-0.3,1c0.1,0.5,0.4,0.9,0.7,1.4c0.7-0.7,1.3-0.5,1.8-0.1
		c0.6,0.5,1.1,1.2,1.6,1.7c0.7,0.7,1.3,1.4,2.1,2.3c0.1-0.4,0.1-0.5,0.1-0.6c0-1.3,0.6-1.9,1.8-2.1c0.6-0.1,1.1,0.5,1.1,1.1
		c0,0.5,0.1,1.1,0.2,1.6c0.1,0.9,0.3,1.7,0.4,2.6c0,0.2-0.1,0.4-0.3,0.6c-0.5,0.6-0.4,1.5,0.3,1.8c1.2,0.5,1.4,1.6,1.5,2.6
		c0.1,0.5-0.3,1.2-0.7,1.7c-0.1,0.2-0.8-0.1-1.2-0.2c-0.1,0-0.2-0.1-0.2-0.1c-1,0.2-1.2-0.5-1.3-1.2c0-0.2-0.1-0.5-0.2-0.6
		c-0.2-0.2-0.4-0.3-0.7-0.3c-0.1,0-0.4,0.2-0.4,0.3c0.2,1.2-0.8,1.4-1.5,1.8c-0.6,0.3-0.7,0.5-0.8,1.2c-0.2,1.4-0.8,1.7-1.9,1.2
		c-0.6-0.3-1-0.6-0.9-1.3c0-0.3-0.2-0.6-0.2-0.9c0-0.3,0-0.7,0.2-0.8c0.7-0.3,0.8-1,1-1.6c0.1-0.6,0.2-1.3,0.5-1.8
		c0.3-0.7,0.5-1.3-0.3-1.7c-0.1-0.1-0.2-0.3-0.2-0.4c-0.3-0.7-0.7-1.3-0.9-2c-0.1-0.2-0.2-0.6,0-0.8c0.5-0.9-0.1-1.2-0.6-1.7
		c-0.3,0.3-0.5,0.6-0.8,0.8c-0.6,0.4-0.8,0.9-0.8,1.6c0,0.5-0.4,1-0.6,1.5c-0.1,0.2-0.3,0.4-0.2,0.5c0.5,1.9,0.1,3.6-0.5,5.4
		c-0.2,0.7-1,1-1.6,0.5c-0.5-0.6-1-1-1.7-0.3c-0.1,0.1-0.4,0-0.6,0.1c-0.3,0.1-0.5,0.3-0.8,0.4c-0.5,0.2-1,0.6-1.5,0.6
		c-0.5,0-0.9-0.5-1.3-0.8c-1.1-0.9-1-2,0.3-2.6c0.9-0.4,1-1.3,0.2-1.9c-0.8-0.6-1.1-1.2-0.8-2.1c0.2-0.6-0.1-1-0.7-1.2
		c-0.3-0.1-0.6-0.3-0.7-0.5c-0.6-0.9-0.4-1.8,0.7-2.9c0.6-0.6,1.7-0.6,2.4,0.1c0.7,0.7,1.4,0.7,2.2,0.2c0.6-0.4,1.3-0.5,2-0.2
		c0.2,0.1,0.6,0,0.6-0.1c0.5-1.1,2-1.3,2.1-2.8c0.1-0.8-0.1-1.2-1-1.3c-0.1,0.5,0.2,1.4-0.7,1c-0.8-0.4-1.3-0.2-1.9,0.2
		c-0.3,0.2-0.7,0.4-1,0.3c-0.5-0.1-1.1-0.3-1.3-0.7c-0.2-0.2,0-0.8,0-1.2c0-0.1,0.1-0.3,0.3-0.5c-0.3-0.1-0.6-0.2-0.8-0.1
		c-0.1,0-0.2,0.4-0.2,0.6c0,1.1,0,1.1-1.2,1c-0.5,0-1.2,0-1.5,0.3c-0.9,0.8-0.9,0.9-1.7,0.1c-0.6-0.6-0.9-0.5-1.5,0
		c-0.5,0.6-1.2,1-2.1,0.7c-0.7-0.3-1.3-0.2-2-0.1c-0.6,0.2-1.4,0-2,0c-1.2,0.1-2.4,0.2-3.5,0.3c-0.5,0-1,0-1.4-0.2
		c-0.7-0.3-1.1,0.2-1.3,0.6c-0.1,0.3,0.1,0.7,0.3,1.1c0.2,0.5,0.6,1,0.6,1.4c-0.1,1.1,0.1,2.3-0.6,3.3c-0.1,0.1,0,0.4,0.1,0.7
		c0.2,1.4,0.5,2.8,0.6,4.2c0.2,1.7,0.2,3.4,0.3,5.1c0.1,0.9,0.1,1.8,0.1,2.7c0,0.2-0.2,0.4-0.3,0.6c-0.1,0.2-0.2,0.5-0.1,0.6
		c0.2,0.7,0.5,1.4,0.8,2.1c0.1,0.2,0.4,0.4,0.7,0.4c1.2,0.2,2.4,0.3,3.6,0.4c0.9,0.1,1.8,0.1,2.8,0.1c0.5,0,1.1-0.2,1.6-0.1
		c0.7,0.1,1.3,0.2,1.5-0.7c0.1-0.2,0.3-0.4,0.5-0.5c0.8-0.3,1.7-0.6,2.5-0.9c0.8-0.3,1.2,0.1,1.5,0.7c0.1,0.3,0.2,0.6,0.3,0.9
		c0.4,0,0.8-0.1,1.2,0c0.9,0.2,1.7,0.5,2.5-0.3c0.1-0.1,0.6,0,0.8,0.1c0.2,0,0.5,0.3,0.6,0.3c0.7-0.4,1.5-0.4,2.3-0.4
		c0.5,0,1-0.2,1.5-0.1c0.5,0,1.1,0.3,1.6,0.3c1,0,2-0.3,2.9-0.4c0.8,0,1.5,0.2,2.3,0.1c0.6,0,1.2-0.1,1.4,0.4c0.7,0,1.3,0,1.9,0
		c0.4,0,0.8,0,1.1,0c0.3,0,0.7,0,1,0.1c0.5,0.2,0.9,0.2,1.3-0.4c0.1-0.2,0.5-0.4,0.7-0.5c0.4-0.1,0.8,0.1,0.9-0.5
		c0.1-0.6-0.4-0.6-0.8-0.8c-0.3-0.1-0.6-0.4-0.7-0.7c-0.1-0.4-0.1-0.9-0.2-1.4c0-1.1,0.3-1.5,1.4-1.5c0.1,0,0.2-0.1,0.5-0.2
		c-0.3-0.3-0.4-0.5-0.7-0.6c-0.7-0.3-0.9-0.8-0.9-1.5c0-0.3-0.1-0.7-0.3-1c-0.4-0.6-0.3-1.1-0.2-1.7c0.1-0.7,0.5-1.4-0.2-2.1
		C60.6,24.3,60.6,23.6,61.7,22.8z M14.8,41.9c-0.6,0.8-1.2,0.9-1.9,0.2c-0.1-0.1-0.1-0.2-0.2-0.1c-0.2,0.1-0.7,0.1-0.7,0.2
		c0,0.8-0.5,1-1.3,1c0.1,0.3,0.2,0.6,0.3,0.8c0.1,0.5,0.5,1.1,0.3,1.4c-0.5,1.1,0,2,0.1,3c0,0.2-0.1,0.5-0.1,0.8
		c0,0.3,0,0.6-0.1,0.8c0.3-0.1,0.7-0.1,0.9-0.2c0.7-0.5,1.1-0.4,1.6,0.2c0.1,0.2,0.3,0.4,0.5,0.6c0.7-0.6,1.5-0.6,2.4-0.5
		c0.7,0.1,1.5,0.2,2.1-0.4c0.4-0.4,0.9-0.3,1.3,0.2c0.3,0.4,0.6,0.3,1,0.1c0.5-0.2,1.2-0.3,1.7-0.2c0.6,0.2,1.1,0.6,1.7,0.1
		c0.1-0.1,0.4-0.1,0.6,0c0.9,0.3,1.8,0.5,2.7,0c0.1-0.1,0.3,0,0.5,0c0.8,0.2,1.6,0.1,2.3-0.3c0.6-0.4,1-0.2,1.5,0.3
		c0.5,0.4,1.1,0.7,1.7,0.9c0.1,0.1,0.5-0.2,0.6-0.4c0.2-0.6,0.4-1.2,0.6-1.9c-0.1,0-0.3-0.1-0.4-0.3c-0.3-0.7-0.9-1.5-0.7-2
		c0.5-1,0.4-1.8,0-2.8c-0.2-0.6-0.4-1.2-0.6-1.8c-0.4,0.5-0.7,0.9-1.1,1.3c0,0,0.1,0.1,0.1,0.2c-0.1,0.4-0.1,0.8-0.3,1.2
		c-0.1,0.1-0.6,0.1-0.8,0c-0.2-0.2-0.3-0.7-0.4-1c-0.2-0.3-0.4-0.7-0.7-0.7c-0.3,0-0.8,0.2-1.1,0.5c-0.6,0.7-0.7,0.7-1.6,0
		c0.5-0.3,1.1-0.6,1.6-0.9c0-0.1-0.1-0.2-0.1-0.2c-0.6,0.1-1.1,0.2-1.5,0.7c-0.1,0.2-0.5,0.2-0.7,0.3c-0.1-0.9-1-1-1.6-1.4
		c-0.7-0.5-1.1-0.4-1.7,0.2c-0.7,0.8-0.9,0.8-1.7,0.1c-0.1-0.1-0.3-0.2-0.4-0.4c-1,0.2-2,0.2-3,0.2c-0.1,0-0.1-0.1-0.2-0.1
		c-0.7-0.6-0.8-0.6-1.3,0.3c-0.4,0.7-0.9,0.9-1.6,0.5C15.2,42.1,15,42,14.8,41.9z M31.7,4.3c-0.5,0.6-1.1,0.6-1.7,0.3
		c-0.1-0.1-0.3-0.1-0.4-0.1C28.7,4.7,27.8,5,27,4.1c-0.8,0.2-1.5-0.3-2.1-0.7c-0.4-0.2-0.8-0.4-1.2-0.5c-0.2,0-0.6,0.2-0.6,0.3
		c-0.1,1,0.4,1.6,1.4,2c0.6,0.2,0.9,1,0.7,1.5c-0.2,0.6-0.5,1.2-0.8,1.8c1.2,0.9,2,0.9,2.9-0.2c0.4-0.5,0.7-0.4,1.1,0
		c0.4,0.3,0.7,0.5,1.1,0.1c0.6-0.6,1.3-0.5,2-0.2c0.2,0.1,0.5,0.2,0.7,0.1C33,7.5,34,7.5,35,7.5c0.3,0,0.6-0.4,0.9-0.6
		c-0.2-0.2-0.4-0.5-0.6-0.7c-0.4-0.4-0.9-0.7-1.2-1.1c-0.5-0.8-0.5-0.8-1.1-0.1c-0.4,0.5-0.7,0.5-1.1-0.1
		C31.9,4.7,31.8,4.5,31.7,4.3z M63.8,11.7c0.7-1,0-3.2-1.1-3.8c-0.3,0.3-0.5,0.8-0.7,0.8c-0.3,0-0.7-0.3-1-0.6
		c-0.4-0.4-0.7-0.8-1.3-0.6c0,0.1-0.1,0.1-0.1,0.2c0,0.1,0,0.2,0,0.3c0,0.9-0.6,1.4-1.4,1.2C57,8.9,57,8.9,56.9,10
		c0,0.3-0.1,0.7,0,1c0.1,0.3,0.3,0.5,0.4,0.7c0.5-0.3,0.8-0.6,1.2-0.8c0.4-0.2,0.9-0.1,1.4-0.3c0.6-0.2,1-0.1,1.3,0.4
		c0.2,0.4,0.4,0.8,0.6,1.2c0.1,0.1,0.2,0.3,0.3,0.4c0.1,0,0.1-0.1,0.2-0.1c-0.4-0.6-0.7-1.2,0-1.6C62.9,10.5,63.3,11.3,63.8,11.7z
		 M31.3,92.6c0.3,0.8,0.6,1.5,0.8,2.2c1-0.9,1-0.9,1.1-2c0-0.2,0.2-0.4,0.3-0.5c0.3-0.3,0.6-0.5,0.9-0.8c0.4-0.4,0.7-0.8,0.3-1.3
		c-0.3-0.5-1.3-0.5-1.8-0.2c-0.5,0.3-1,0.5-1.5,0.8c0.4,0.9-0.6,0.2-0.8,0.5c-0.1,0.4-0.3,0.7-0.6,0.9c-0.2,0.3-0.7,0.5-0.7,0.7
		c0.1,0.4,0.4,0.8,0.6,1.3C30.5,93.6,30.9,93.1,31.3,92.6z M37.7,11.6c0.5,0,0.8,0.1,1.1,0c1.1-0.3,2.1-0.6,3.3,0
		c0.2,0.1,0.5,0.1,0.7-0.1c0.9-0.7,1.7-0.9,2.7-0.2c0.5,0.4,1.6,0.1,2.1-0.5c0.6-0.6,0-1-0.3-1.4c-0.2-0.3-0.8-0.5-1.2-0.5
		c-0.2,0-0.6,0.4-0.7,0.6c-0.4,1.1-0.6,1.1-1.7,0.6c-0.3-0.2-0.9-0.4-1.1-0.2c-0.9,0.7-2,0.3-2.9,0.2c-0.8,0-1.4,0-1.7,0.9
		C38,11.1,37.9,11.2,37.7,11.6z M21.7,38.3c-1-0.1-1.8-0.1-2.6-0.3c-0.7-0.2-1.3,0.1-1.5,0.8c-0.1,0.5,0.1,0.7,0.6,0.6
		c0.4,0,0.9,0,1.3,0.1c0.6,0.1,1.2,0.4,1.9,0.6C21.5,39.4,21.6,38.8,21.7,38.3z M52.2,9c-0.8,0.5-1.6,1-2.6,0.5
		c-0.1,0-0.5,0.3-0.6,0.5c-0.1,0.2-0.2,0.5-0.2,0.8c0.2,0,0.5,0.1,0.7,0.1c0.7,0,1.4-0.3,2-0.1c0.6,0.2,1,0.2,1.4-0.4
		C52.7,10,52.5,9.5,52.2,9z M25.7,13c1.4,0.5,2.4,0.3,3.5-0.1c0.5-0.2,1.1-0.1,1.6-0.2c0.4,0,0.8-0.1,1.4-0.2
		c-0.8-0.8-1.5-0.9-2.4-0.6c-0.3,0.1-0.6,0.2-0.9,0.2c-0.8,0.1-1.6,0.1-2.4,0.2C26.3,12.5,26.1,12.7,25.7,13z M30.3,88.3
		c-0.3,0.2-0.6,0.3-0.8,0.5c-0.3,0.5-0.7,0.7-1.3,0.5c-0.1,0-0.3,0-0.5,0c0,0.2-0.1,0.4-0.1,0.5c-0.3,0.6-0.1,1.1,0.6,1.4
		c0.6,0.2,0.8-0.2,1-0.6c0.1-0.3,0.3-0.5,0.4-0.8C29.9,89.4,30,88.9,30.3,88.3z M13.6,92.8c0.6,0.6,1.2,0.2,1.6,0
		c0.1,0,0.2-1.1,0.1-1.1c-0.7-0.3-1-0.8-0.9-1.6c0-0.5-0.3-0.5-0.6-0.3c-0.6,0.4-0.5,0.9-0.1,1.4C14.1,91.8,14.2,92.3,13.6,92.8z
		 M9.9,78.4c-0.2,0.8-0.3,1.4-0.4,2c-0.1,0.7,0.3,1.1,1.2,1.3C11,80.5,10.8,79.4,9.9,78.4z M18.9,93.2c-0.4-0.4-0.6-0.8-0.9-0.9
		c-0.2-0.1-0.6,0.2-0.7,0.4c-0.3,0.4-0.5,0.8-1.1,0.8c-0.2,0-0.4,0.1-0.5,0.3c0,0.1,0,0.4,0.1,0.4c0.2,0.1,0.5,0.1,0.7,0
		c0.3-0.1,0.7-0.1,1-0.3C18,93.8,18.4,93.5,18.9,93.2z M20.1,91.7c0.3,0.5,0.6,1,1,1.5c0.1,0.1,0.2,0.2,0.3,0.2
		c0.7,0,1.1-0.4,1.1-1.1c-0.3-0.1-0.8,0-0.9-0.2C21.2,91.3,20.7,91.5,20.1,91.7z M17.3,30.9c-0.5-1.6-0.8-1.9-1.8-1.7
		c-0.2,0-0.4,0.3-0.6,0.5c0.2,0.2,0.6,0.6,0.6,0.6C16.2,29.9,16.6,30.5,17.3,30.9z M55.9,89.1c-0.1,0.1-0.1,0.1-0.2,0.2
		c0.4,0.6,0.7,1.2,1.1,1.8c0.4-0.2,0.8-0.4,1.2-0.6c0.2-0.1,0.3-0.3,0.4-0.4c-0.2-0.1-0.4-0.2-0.6-0.3c-0.5-0.1-0.9-0.2-1.4-0.3
		C56.2,89.4,56.1,89.2,55.9,89.1z M25.3,13.2c0-0.1,0-0.2,0-0.3c-0.3-0.1-0.5-0.3-0.8-0.4c-0.6-0.3-1-0.2-1.4,0.3
		c-0.3,0.5-0.1,0.8,0.4,0.8C24.1,13.5,24.7,13.3,25.3,13.2z M36.2,11.4c-0.5-0.2-0.9-0.3-1.3-0.4c-0.4-0.1-0.7,0.1-0.5,0.5
		c0.1,0.3,0.3,0.8,0.5,0.8C35.4,12.4,36,12.2,36.2,11.4z M10,77.7c0.1,0,0.2-0.1,0.3-0.1c0.1-0.7,0.1-1.4,0.1-2
		c0-0.1-0.3-0.4-0.5-0.4c-0.2,0-0.5,0.3-0.5,0.4C9.6,76.3,9.8,77,10,77.7z M37.8,94.8c0.1-1.1-0.1-1.5-0.9-1.6
		C36.5,94.6,36.9,94.8,37.8,94.8z M12.3,38.4c-0.4,0.3-0.7,0.6-1,0.8c0.2,0.2,0.4,0.4,0.6,0.6c0.3-0.3,0.6-0.6,0.9-0.9
		C12.8,39,12.5,38.7,12.3,38.4z M19.1,91c-0.5-0.4-0.8-0.7-1.2-0.8c-0.1-0.1-0.4,0.3-0.6,0.4c0.3,0.3,0.7,0.6,1,0.9
		C18.4,91.5,18.7,91.2,19.1,91z M43.6,20.2c0.4-0.3,0.6-0.5,0.8-0.7c-0.4-0.2-0.8-0.4-1.2-0.5c-0.1,0-0.4,0.4-0.4,0.4
		C43,19.7,43.2,19.9,43.6,20.2z M68,65.9c-0.4,1.2-0.2,2,0.5,2.4c0.2,0.1,0.4,0,0.6,0c0-0.1,0.1-0.2,0.1-0.2
		C68.2,67.9,68.5,66.8,68,65.9z M16.9,88.6c0.1,0.1,0.2,0.3,0.3,0.4c0.1-0.1,0.3-0.2,0.4-0.3c0.1-0.2,0.3-0.5,0.3-0.8
		c0-0.2-0.2-0.4-0.3-0.6c-0.2,0.1-0.4,0.2-0.5,0.4C17,87.9,17,88.2,16.9,88.6z M54.9,90.1c-0.5-0.3-0.8-0.5-1.1-0.5
		c-0.1,0-0.3,0.3-0.5,0.4c0.2,0.3,0.4,0.6,0.7,0.7C54.1,90.7,54.4,90.4,54.9,90.1z M22,88.5c0-0.1,0-0.3,0-0.4
		c-0.3-0.1-0.7-0.1-1-0.2c0,0.3,0,0.5,0,0.8C21.3,88.6,21.7,88.5,22,88.5z M16.6,89.3c-0.5-0.2-0.8-0.4-1.1-0.5
		c-0.1,0-0.2,0.2-0.3,0.3c0.3,0.2,0.6,0.4,0.9,0.5C16.2,89.7,16.3,89.5,16.6,89.3z M17.9,27.7c-0.2-0.4-0.2-0.6-0.3-0.8
		c-0.2-0.1-0.4-0.2-0.6-0.3c-0.1,0-0.2,0.2-0.2,0.3c0.1,0.2,0.2,0.3,0.4,0.4C17.3,27.5,17.5,27.5,17.9,27.7z"/>
	<path d="M142,32.2c-0.1-0.4,0-0.9-0.2-1c-0.2-0.2-0.9-0.4-0.9-0.3c-1.6,2.3-3.9,1.7-6,1.6c-0.2,0-0.4-0.1-0.6-0.1
		c-0.1,0-0.2,0-0.2,0.1c0,0.1-0.1,0.2-0.1,0.2c1.2,1.3,1.1,2.8,0.9,4.4c-0.2,1.2-0.1,2.5,0,3.7c0.1,1.4,0.5,1.6,1.9,1.3
		c1.1-0.2,2.3-0.1,3.4-0.1c0.8,0,1.7-0.1,2.5-0.1c0.7,0,1.4,0,2.2,0c0.1,0,0.2,0.1,0.2,0.1c1.9-0.6,3.6,0.2,5.4,0.8c0,0,0.1,0,0.1,0
		c0.6,0.9,1.3,1.8,1.6,2.8c0.2,0.8-0.6,1.2-1.4,1.2c-0.7,0-1.4,0-2-0.1c-0.1,0-0.3-0.2-0.3-0.1c-1.2,0.9-2.1,0.2-3.1-0.4
		c-0.2-0.2-0.8,0.1-1.2,0.2c-1.8,0.6-3.6,1.4-5.6,0.8c-0.2-0.1-0.5,0.3-0.7,0.5c-0.3,0.3-0.5,0.8-0.8,0.9c-1.5,0.1-3,0-4.5,0
		c-0.2,0-0.4-0.2-0.6-0.4c-1.2-1-2.1-4.7-1.3-6.2c0.6-1.1,0.3-1.8-0.7-2.3c-1.2-0.5-1.6-1.3-1.4-2.7c0.2-1.5-0.2-3.1-0.2-4.6
		c0-0.7,0.4-1.4,0.7-2c0.3-0.7,0.8-1.4,1.3-2.2c-0.3-0.2-0.5-0.5-0.8-0.7c-1.5-1.1-1.4-2.8,0.2-3.7c0.7-0.4,0.6-0.8,0.2-1.3
		c-1.5-1.7-1.2-3.8-1-5.7c0.1-1,1-2,1.6-2.9c0.7-1,1.3-1.9,0.8-3.3c-0.3-0.9,0.1-1.4,1-1.9c1.7-1,3.2-1,5.1-0.6
		c1.9,0.4,3.9,0.1,5.9,0.1c0.3,0,0.7-0.1,0.8-0.3c0.6-1,1.3-1.1,2.3-0.7c0.8,0.3,1.6,0.4,2.4,0.7c0.5,0.2,0.9,0.6,1.4,0.8
		c1.4,0.5,1.6,1.7,1.6,2.9c0,1.2-0.9,1.6-1.8,1.8c-1.2,0.3-2.4,1-3.7,0.2c-0.1-0.1-0.3-0.1-0.3-0.1c-1,1-2.4,0.6-3.6,0.9
		c-1.1,0.2-2.1,0.5-3.2,0.7c-0.8,0.1-1.5-0.1-1.6-1.1c0-0.3-0.2-0.5-0.5-1c-0.5,0.7-1,1.2-1.1,1.8c-0.5,2.1-0.8,4.1-1.2,6.2
		c-0.2,1.2-0.5,2.4-0.9,3.5c-0.3,0.9,0.4,2,1.4,1.8c1.2-0.2,2.4-0.4,3.4-0.8c1.7-0.8,3.3-0.2,4.9,0.1c0.7,0.1,1.5,0.2,2.2,0.3
		c1.6,0.2,3.1,0.5,4.7,0.8c0.7,0.1,1.3,0.6,2,0.6c1.4,0.1,2.7,0.4,3.4,1.9c0.1,0.3,0.7,0.4,1.3,0.8c-0.5,0.8-0.9,1.8-1.5,2.4
		c-0.2,0.2-1.1-0.2-1.9-0.4c-1.7,1.6-3.7,0.8-5.7-0.1c-1.2-0.5-2.1-1-3.3,0.1C144.4,32.4,143.1,32.1,142,32.2z"/>
	<path d="M112.8,36.7c0.5-1.1,0.9-1.9,1.2-2.7c0.1-0.2,0.3-0.5,0.3-0.7c-0.2-1.3,0.6-1.7,1.7-1.9c0.7-0.1,1-0.5,0.6-1.3
		c-0.3-0.8-0.4-1.7-0.2-2.5c0.2-1.2,0.5-2.5,1-3.6c0.2-0.5,0.9-0.8,1.5-1.2c0.7-0.5,1-0.9,0.3-1.7c-0.9-1.1-0.7-2,0.4-2.9
		c0.2-0.2,0.2-0.7,0.3-1c0.2-0.5,0.4-1.1,0.6-1.6c0.5,0.2,1,0.4,1.4,0.8c0.5,0.3,0.8,0.8,1.2,1.2c0.8,0.7,0.8,1.2,0,1.9
		c-0.9,0.8-1.2,2-0.6,3.1c0.4,0.8,0.4,1.3-0.2,2c-0.3,0.4-0.4,1.1-0.3,1.6c0.1,0.9,0.3,1.8-0.9,2.2c-0.3,0.1-0.4,0.8-0.4,1.2
		c0.1,0.9-0.1,1.7-0.9,2.3c-0.3,0.2-0.4,0.6-0.5,0.9c-0.6,1.4-1.1,2.9-1.7,4.3c-0.3,0.7-0.6,1.3-1,1.9c-0.2,0.3-0.5,0.6-0.9,0.8
		c-1.4,0.9-1.6,1.8-0.8,3.2c0.2,0.4,0.4,0.7,0.5,1.1c0.1,0.5,0.1,1.1-0.1,1.6c-0.1,0.2-0.9,0.1-1.3,0c-1.3-0.1-2-0.9-2.5-2.1
		c-0.7-1.7-1.7-3.3-2.3-5c-0.5-1.2-0.5-2.6-0.8-3.9c0-0.2-0.2-0.4-0.5-1c-0.7,0.7-1.4,1.2-2,1.8c-0.6,0.7-1.2,1.5-1.7,2.2
		c-0.2,0.2-0.4,0.5-0.4,0.7c0.1,1.1-0.6,1.6-1.5,1.9c-0.3,0.1-0.5,0.7-0.6,1.1c0,0.7,0,1.3-0.8,1.6c-0.2,0.1-0.4,0.2-0.4,0.4
		c-0.1,2.5-2.2,4.5-1.8,7.1c0.1,0.5-0.3,1.3-0.6,1.4c-0.5,0.1-1.2-0.1-1.6-0.5c-0.9-0.6-1.4-1.5-1.4-2.6c0-0.3-0.2-0.7-0.3-1
		c-0.2-0.7-0.3-1.3-0.5-2c-0.2-0.5-0.4-1.1-0.6-1.6c-0.2-0.4-0.6-0.8-0.6-1c0.4-1.1-0.2-1.8-0.7-2.7c-0.3-0.5-0.4-1.2-0.4-1.8
		c-0.1-1.1-0.1-2.2-1.1-3c-0.2-0.1-0.3-0.4-0.3-0.7c-0.2-2.4-1.2-4.6-2.3-6.7c-0.3-0.6-0.1-1.4-0.2-2.1c-0.1-0.6-0.2-1.2-0.4-1.7
		c-0.7-1.5-1.5-2.9-2.2-4.3c-0.6-1.3-1-2.6-1.5-3.9c-0.2-0.6-0.6-1.5,0.3-1.7c0.6-0.2,1.7,0.1,2,0.5c0.7,1,1,2.3,1.6,3.4
		c0.6,1.5,1.3,2.9,1.9,4.4c0.2,0.5,0.4,1,0.6,1.5c0.5,1.5,1,3.1,1.6,4.6c0.9,2.2,1.9,4.5,2,6.9c0,0.1,0,0.2,0,0.2
		c0.7,1.7,1.3,3.3,1.4,5.2c0,0.7,1.2,1.3,2.1,2.1c0.5-1.8,0.7-3.3,1.3-4.7c0.5-1.1,1.4-2.1,2.3-3c0.7-0.6,1.3-1.2,1.4-2.2
		c0.1-1.2,0.6-2.3,1.9-2.8c0.6-0.2,0.8-0.6,0.6-1.3c-0.2-0.7,0-1.4,0.8-1.3c1.1,0.1,2.3,0.3,3.2,0.8c1.9,1,3,2.5,3.1,4.8
		C111.9,35.2,112.5,36,112.8,36.7z"/>
	<path class="st0" d="M61.7,22.8c-1,0.8-1.1,1.4-0.3,2.3c0.6,0.7,0.3,1.4,0.2,2.1c-0.1,0.6-0.2,1.2,0.2,1.7c0.2,0.3,0.3,0.7,0.3,1
		c-0.1,0.7,0.1,1.2,0.9,1.5c0.2,0.1,0.4,0.4,0.7,0.6c-0.3,0.1-0.4,0.2-0.5,0.2c-1.1,0.1-1.4,0.4-1.4,1.5c0,0.5,0,1,0.2,1.4
		c0.1,0.3,0.4,0.5,0.7,0.7c0.4,0.2,0.8,0.2,0.8,0.8c-0.1,0.6-0.5,0.5-0.9,0.5c-0.3,0-0.6,0.2-0.7,0.5c-0.3,0.6-0.7,0.6-1.3,0.4
		c-0.3-0.1-0.7-0.1-1-0.1c-0.4,0-0.8,0-1.1,0c-0.6,0-1.2,0-1.9,0c-0.2-0.5-0.8-0.4-1.4-0.4c-0.8,0-1.5-0.2-2.3-0.1
		c-1,0.1-2,0.3-2.9,0.4c-0.5,0-1.1-0.3-1.6-0.3c-0.5,0-1,0.1-1.5,0.1c-0.8,0-1.6-0.1-2.3,0.4c-0.1,0.1-0.4-0.2-0.6-0.3
		c-0.3-0.1-0.7-0.2-0.8-0.1c-0.8,0.7-1.6,0.4-2.5,0.3c-0.4-0.1-0.7,0-1.2,0c-0.1-0.3-0.2-0.6-0.3-0.9c-0.3-0.6-0.8-1-1.5-0.7
		c-0.8,0.3-1.7,0.6-2.5,0.9c-0.2,0.1-0.4,0.3-0.5,0.5c-0.2,0.9-0.8,0.7-1.5,0.7c-0.5-0.1-1.1,0.1-1.6,0.1c-0.9,0-1.8,0-2.8-0.1
		c-1.2-0.1-2.4-0.2-3.6-0.4c-0.3,0-0.6-0.2-0.7-0.4c-0.3-0.7-0.6-1.4-0.8-2.1c-0.1-0.2,0.1-0.4,0.1-0.6c0.1-0.2,0.3-0.4,0.3-0.6
		c0-0.9,0-1.8-0.1-2.7c-0.1-1.7-0.2-3.4-0.3-5.1c-0.1-1.4-0.4-2.8-0.6-4.2c0-0.2-0.2-0.5-0.1-0.7c0.7-1,0.5-2.2,0.6-3.3
		c0.1-0.4-0.4-0.9-0.6-1.4c-0.1-0.4-0.4-0.8-0.3-1.1c0.2-0.5,0.6-0.9,1.3-0.6c0.4,0.2,0.9,0.2,1.4,0.2c1.2-0.1,2.4-0.2,3.5-0.3
		c0.7,0,1.4,0.2,2,0c0.7-0.2,1.3-0.2,2,0.1c0.8,0.3,1.5-0.1,2.1-0.7c0.5-0.6,0.9-0.6,1.5,0c0.8,0.8,0.8,0.7,1.7-0.1
		c0.3-0.3,1-0.3,1.5-0.3c1.2,0,1.2,0.1,1.2-1c0-0.2,0-0.6,0.2-0.6c0.2-0.1,0.5,0.1,0.8,0.1c-0.1,0.2-0.2,0.4-0.3,0.5
		c0,0.4-0.2,1,0,1.2c0.3,0.4,0.9,0.6,1.3,0.7c0.3,0.1,0.7-0.1,1-0.3c0.6-0.4,1-0.6,1.9-0.2c0.9,0.5,0.7-0.5,0.7-1c0.9,0,1,0.5,1,1.3
		c-0.1,1.4-1.6,1.7-2.1,2.8c-0.1,0.1-0.5,0.2-0.6,0.1c-0.7-0.3-1.4-0.2-2,0.2c-0.8,0.5-1.5,0.4-2.2-0.2c-0.7-0.7-1.8-0.6-2.4-0.1
		c-1.1,1-1.3,1.9-0.7,2.9c0.2,0.2,0.5,0.4,0.7,0.5c0.6,0.2,0.9,0.6,0.7,1.2c-0.3,0.9,0,1.6,0.8,2.1c0.8,0.6,0.6,1.4-0.2,1.9
		c-1.3,0.6-1.4,1.7-0.3,2.6c0.4,0.3,0.9,0.8,1.3,0.8c0.5,0,1-0.4,1.5-0.6c0.3-0.1,0.5-0.3,0.8-0.4c0.2-0.1,0.5,0,0.6-0.1
		c0.7-0.7,1.1-0.3,1.7,0.3c0.5,0.5,1.3,0.2,1.6-0.5c0.6-1.8,1-3.5,0.5-5.4c0-0.1,0.1-0.4,0.2-0.5c0.2-0.5,0.6-1,0.6-1.5
		c0-0.7,0.2-1.2,0.8-1.6c0.3-0.2,0.5-0.5,0.8-0.8c0.6,0.5,1.2,0.9,0.6,1.7c-0.1,0.2-0.1,0.6,0,0.8c0.3,0.7,0.6,1.3,0.9,2
		c0.1,0.1,0.1,0.3,0.2,0.4c0.9,0.4,0.7,1,0.3,1.7c-0.3,0.6-0.3,1.2-0.5,1.8c-0.1,0.7-0.3,1.3-1,1.6c-0.2,0.1-0.2,0.5-0.2,0.8
		c0,0.3,0.2,0.6,0.2,0.9c0,0.7,0.3,1,0.9,1.3c1.1,0.5,1.8,0.2,1.9-1.2c0.1-0.6,0.3-0.9,0.8-1.2c0.7-0.4,1.7-0.6,1.5-1.8
		c0-0.1,0.3-0.3,0.4-0.3c0.2,0,0.5,0.1,0.7,0.3c0.1,0.1,0.2,0.4,0.2,0.6c0.1,0.7,0.3,1.4,1.3,1.2c0.1,0,0.1,0.1,0.2,0.1
		c0.4,0.1,1.1,0.3,1.2,0.2c0.4-0.5,0.7-1.1,0.7-1.7c-0.1-1-0.3-2.1-1.5-2.6c-0.7-0.3-0.7-1.2-0.3-1.8c0.1-0.2,0.3-0.4,0.3-0.6
		c-0.1-0.9-0.3-1.7-0.4-2.6c-0.1-0.5-0.2-1.1-0.2-1.6c0-0.7-0.5-1.2-1.1-1.1c-1.2,0.2-1.8,0.8-1.8,2.1c0,0.1,0,0.2-0.1,0.6
		c-0.8-0.9-1.5-1.6-2.1-2.3c-0.5-0.6-1-1.2-1.6-1.7c-0.5-0.5-1.1-0.7-1.8,0.1c-0.3-0.5-0.6-0.9-0.7-1.4c-0.1-0.3,0.1-0.7,0.3-1
		c0.1-0.1,0.5,0.1,0.8,0.1c0.4,0,0.8,0,1.1-0.1c0.6-0.4,1.1-0.9,1.7-1.4c0.1,0.9,0.3,1.7,1.3,1.8c0.4,0,0.7-0.4,1.1-0.7
		c0.7,0,1.7,1.3,2.2-0.6c0.4,0.3,0.9,0.5,1.2,0.8c0.6,0.5,1,0.6,1.6,0.1c0.2-0.1,0.6-0.3,0.6-0.2c0.2,0.2,0.4,0.5,0.4,0.8
		c0,0.8,0,1.5-0.3,2.3c-0.2,0.6,0.2,1.4,0.3,2.1c0.1,0.3,0.3,0.6,0.2,0.8C60.6,20.8,60.5,21.9,61.7,22.8z M27.9,28.9
		c1,1.4,2.7,1.4,3.7,0.1c0.5-0.7,0.8-0.7,1.5,0c0.3,0.3,1.9,0.5,2.2,0.2c0.1-0.1,0.1-0.4,0-0.6c-0.1-0.2-0.4-0.2-0.5-0.4
		c-0.2-0.2-0.4-0.5-0.4-0.7c0-0.1,0.3-0.3,0.5-0.4c0.8-0.4,0.9-0.7,0.3-1.4c-0.4-0.5-0.5-0.9-0.1-1.4c0.5-0.6,0.2-1-0.3-1.4
		c-0.5-0.3-1-0.7-1.5-1c-0.5-0.3-0.4-0.6-0.1-1c0.8-0.8,1.6-1.5,2.3-2.3c0.3-0.4,0.5-1,0.5-1.5c0-0.6-0.6-0.6-1.1-0.6
		c-0.3,0-0.7-0.2-1-0.1c-0.4,0.1-0.8,0.2-1,0.5c-0.4,0.7-0.7,1.5-1.1,2.3c-0.5,1-1.5,1.1-2.3,0.3c-0.3-0.3-0.6-0.6-1-0.8
		c-0.7-0.4-1.6-0.3-2.1,0.2c-0.6,0.7,0.1,1.1,0.4,1.7c0.8,1.4,1.2,2.9,0.5,4.3c-0.6,1.3-1.5,2.5-2.4,3.7c-0.4,0.6-0.4,1,0,1.5
		c0.4,0.5,0.8,0.2,1.2,0C26.7,29.7,27.3,29.3,27.9,28.9z"/>
	<path class="st0" d="M14.8,41.9c0.2,0.1,0.4,0.2,0.5,0.3c0.7,0.4,1.3,0.3,1.6-0.5c0.5-0.9,0.6-0.9,1.3-0.3c0.1,0.1,0.1,0.1,0.2,0.1
		c1,0,2,0,3-0.2c0.1,0.1,0.3,0.2,0.4,0.4c0.8,0.7,1,0.7,1.7-0.1c0.6-0.6,1-0.7,1.7-0.2c0.6,0.4,1.5,0.4,1.6,1.4
		c0.2-0.1,0.6-0.1,0.7-0.3c0.4-0.5,1-0.6,1.5-0.7c0,0.1,0.1,0.2,0.1,0.2c-0.5,0.3-1,0.6-1.6,0.9c0.8,0.7,0.9,0.7,1.6,0
		c0.2-0.3,0.7-0.5,1.1-0.5c0.2,0,0.5,0.5,0.7,0.7c0.2,0.3,0.2,0.7,0.4,1c0.1,0.1,0.7,0.1,0.8,0c0.2-0.4,0.2-0.8,0.3-1.2
		c0-0.1-0.1-0.1-0.1-0.2c0.4-0.4,0.7-0.8,1.1-1.3c0.2,0.6,0.3,1.3,0.6,1.8c0.4,0.9,0.5,1.8,0,2.8c-0.2,0.5,0.4,1.3,0.7,2
		c0.1,0.2,0.3,0.3,0.4,0.3c-0.2,0.7-0.4,1.3-0.6,1.9c-0.1,0.2-0.5,0.4-0.6,0.4c-0.6-0.2-1.2-0.5-1.7-0.9c-0.5-0.5-0.9-0.6-1.5-0.3
		c-0.7,0.5-1.5,0.6-2.3,0.3c-0.2,0-0.3-0.1-0.5,0c-0.9,0.5-1.8,0.3-2.7,0c-0.2-0.1-0.5-0.1-0.6,0c-0.6,0.5-1.1,0.1-1.7-0.1
		c-0.5-0.2-1.2-0.1-1.7,0.2c-0.4,0.2-0.7,0.3-1-0.1c-0.4-0.4-0.9-0.5-1.3-0.2c-0.6,0.6-1.4,0.5-2.1,0.4c-0.9-0.1-1.7-0.1-2.4,0.5
		c-0.2-0.3-0.3-0.4-0.5-0.6c-0.5-0.7-0.9-0.7-1.6-0.2C12,50,11.6,50,11.3,50c0-0.3,0-0.6,0.1-0.8c0-0.3,0.1-0.5,0.1-0.8
		c-0.1-1-0.7-1.9-0.1-3c0.2-0.3-0.2-1-0.3-1.4c-0.1-0.2-0.2-0.5-0.3-0.8c0.8,0,1.3-0.2,1.3-1c0-0.1,0.4-0.2,0.7-0.2
		c0,0,0.1,0.1,0.2,0.1C13.6,42.8,14.3,42.7,14.8,41.9z"/>
	<path class="st0" d="M31.7,4.3c0.1,0.2,0.2,0.4,0.3,0.5c0.3,0.6,0.6,0.6,1.1,0.1c0.6-0.7,0.6-0.7,1.1,0.1c0.3,0.4,0.8,0.8,1.2,1.1
		c0.2,0.2,0.4,0.4,0.6,0.7c-0.3,0.2-0.6,0.6-0.9,0.6c-1,0-2,0-2.9,0.7c-0.1,0.1-0.5,0-0.7-0.1c-0.7-0.3-1.4-0.3-2,0.2
		c-0.4,0.4-0.8,0.2-1.1-0.1c-0.4-0.3-0.7-0.4-1.1,0c-0.9,1.1-1.6,1.1-2.9,0.2c0.3-0.6,0.5-1.2,0.8-1.8c0.2-0.6-0.1-1.3-0.7-1.5
		c-1-0.4-1.5-1-1.4-2c0-0.1,0.4-0.4,0.6-0.3c0.4,0.1,0.9,0.3,1.2,0.5c0.7,0.4,1.3,0.8,2.1,0.7c0.7,0.9,1.6,0.7,2.5,0.4
		c0.1,0,0.3,0,0.4,0.1C30.6,4.9,31.1,4.9,31.7,4.3z"/>
	<path class="st0" d="M63.8,11.7c-0.5-0.4-0.8-1.2-1.6-0.7c-0.7,0.5-0.4,1.1,0,1.6c-0.1,0-0.1,0.1-0.2,0.1c-0.1-0.1-0.2-0.2-0.3-0.4
		c-0.2-0.4-0.4-0.8-0.6-1.2c-0.3-0.5-0.7-0.6-1.3-0.4c-0.4,0.2-0.9,0.1-1.4,0.3c-0.4,0.1-0.7,0.4-1.2,0.8c-0.1-0.2-0.3-0.4-0.4-0.7
		c-0.1-0.3,0-0.7,0-1C57,8.9,57,8.9,58.1,9.2c0.8,0.2,1.5-0.3,1.4-1.2c0-0.1,0-0.2,0-0.3c0,0,0-0.1,0.1-0.2c0.6-0.1,0.9,0.2,1.3,0.6
		c0.3,0.3,0.7,0.6,1,0.6c0.2,0,0.5-0.5,0.7-0.8C63.8,8.6,64.5,10.7,63.8,11.7z"/>
	<path class="st0" d="M31.3,92.6c-0.5,0.5-0.8,0.9-1.4,1.5c-0.2-0.5-0.5-0.9-0.6-1.3c0-0.2,0.5-0.4,0.7-0.7c0.2-0.3,0.4-0.6,0.6-0.9
		c0.2-0.3,1.2,0.5,0.8-0.5c0.6-0.3,1.1-0.5,1.5-0.8c0.5-0.3,1.5-0.3,1.8,0.2c0.4,0.5,0.1,1-0.3,1.3c-0.3,0.3-0.6,0.5-0.9,0.8
		c-0.1,0.1-0.3,0.3-0.3,0.5c-0.1,1.1-0.1,1.1-1.1,2C31.9,94.1,31.6,93.4,31.3,92.6z"/>
	<path class="st0" d="M37.7,11.6c0.2-0.4,0.3-0.5,0.3-0.6c0.2-0.9,0.8-0.9,1.7-0.9c1,0,2,0.5,2.9-0.2c0.2-0.1,0.8,0.1,1.1,0.2
		c1.1,0.5,1.3,0.5,1.7-0.6c0.1-0.3,0.5-0.7,0.7-0.6c0.4,0,1,0.2,1.2,0.5c0.2,0.3,0.9,0.8,0.3,1.4c-0.6,0.5-1.6,0.9-2.1,0.5
		c-1-0.7-1.8-0.4-2.7,0.2c-0.2,0.1-0.5,0.1-0.7,0.1c-1.1-0.6-2.2-0.3-3.3,0C38.6,11.7,38.2,11.6,37.7,11.6z"/>
	<path class="st0" d="M21.7,38.3c-0.1,0.5-0.2,1.1-0.3,1.8c-0.7-0.2-1.3-0.4-1.9-0.6c-0.4-0.1-0.9-0.2-1.3-0.1
		c-0.5,0-0.7-0.1-0.6-0.6c0.2-0.7,0.8-1,1.5-0.8C19.8,38.1,20.7,38.2,21.7,38.3z"/>
	<path class="st0" d="M52.2,9c0.3,0.5,0.5,0.9,0.8,1.4c-0.4,0.6-0.8,0.6-1.4,0.4c-0.6-0.2-1.3,0.1-2,0.1c-0.2,0-0.5,0-0.7-0.1
		c0.1-0.3,0.1-0.6,0.2-0.8c0.1-0.2,0.5-0.5,0.6-0.5C50.6,10.1,51.3,9.5,52.2,9z"/>
	<path class="st0" d="M25.7,13c0.4-0.3,0.6-0.5,0.9-0.6c0.8-0.1,1.6-0.1,2.4-0.2c0.3,0,0.6-0.1,0.9-0.2c0.9-0.3,1.6-0.2,2.4,0.6
		c-0.6,0.1-1,0.1-1.4,0.2c-0.5,0.1-1.1,0-1.6,0.2C28.2,13.3,27.1,13.5,25.7,13z"/>
	<path class="st0" d="M30.3,88.3c-0.3,0.7-0.4,1.1-0.6,1.5c-0.1,0.3-0.3,0.5-0.4,0.8c-0.2,0.4-0.5,0.8-1,0.6
		c-0.6-0.3-0.8-0.8-0.6-1.4c0.1-0.1,0.1-0.3,0.1-0.5c0.2,0,0.3,0,0.5,0c0.6,0.2,1,0,1.3-0.5C29.6,88.6,30,88.5,30.3,88.3z"/>
	<path class="st0" d="M13.6,92.8c0.6-0.5,0.5-1,0-1.5c-0.4-0.5-0.4-1,0.1-1.4c0.3-0.3,0.7-0.2,0.6,0.3c-0.1,0.8,0.2,1.2,0.9,1.6
		c0.1,0.1,0.1,1.1-0.1,1.1C14.8,93,14.2,93.5,13.6,92.8z"/>
	<path class="st0" d="M9.9,78.4c0.9,1.1,1.1,2.1,0.7,3.3c-0.9-0.2-1.3-0.6-1.2-1.3C9.5,79.7,9.7,79.1,9.9,78.4z"/>
	<path class="st0" d="M18.9,93.2c-0.5,0.3-0.9,0.6-1.3,0.8c-0.3,0.1-0.7,0.2-1,0.3c-0.2,0-0.5,0-0.7,0c-0.1,0-0.2-0.3-0.1-0.4
		c0.1-0.1,0.3-0.2,0.5-0.3c0.6,0,0.8-0.4,1.1-0.8c0.1-0.2,0.5-0.5,0.7-0.4C18.3,92.4,18.5,92.8,18.9,93.2z"/>
	<path class="st0" d="M20.1,91.7c0.6-0.2,1.1-0.4,1.5,0.3c0.1,0.2,0.6,0.1,0.9,0.2c0,0.7-0.4,1.1-1.1,1.1c-0.1,0-0.3-0.1-0.3-0.2
		C20.8,92.7,20.5,92.3,20.1,91.7z"/>
	<path class="st0" d="M17.3,30.9c-0.6-0.4-1.1-1-1.8-0.6c-0.1,0-0.4-0.4-0.6-0.6c0.2-0.2,0.4-0.5,0.6-0.5
		C16.4,29,16.8,29.3,17.3,30.9z"/>
	<path class="st0" d="M55.9,89.1c0.1,0.1,0.3,0.3,0.4,0.4c0.4,0.1,0.9,0.2,1.4,0.3c0.2,0.1,0.4,0.2,0.6,0.3
		c-0.1,0.1-0.2,0.3-0.4,0.4c-0.4,0.2-0.7,0.4-1.2,0.6c-0.4-0.6-0.7-1.2-1.1-1.8C55.8,89.2,55.9,89.2,55.9,89.1z"/>
	<path class="st0" d="M25.3,13.2c-0.6,0.1-1.2,0.3-1.8,0.3c-0.5,0.1-0.7-0.3-0.4-0.8c0.4-0.5,0.8-0.6,1.4-0.3
		c0.3,0.2,0.5,0.3,0.8,0.4C25.3,13,25.3,13.1,25.3,13.2z"/>
	<path class="st0" d="M36.2,11.4c-0.2,0.7-0.8,1-1.3,0.9c-0.2,0-0.4-0.5-0.5-0.8c-0.1-0.4,0.1-0.6,0.5-0.5
		C35.3,11.1,35.7,11.3,36.2,11.4z"/>
	<path class="st0" d="M10,77.7c-0.2-0.7-0.4-1.4-0.5-2.1c0-0.1,0.3-0.4,0.5-0.4c0.2,0,0.5,0.3,0.5,0.4c0,0.7-0.1,1.4-0.1,2
		C10.2,77.6,10.1,77.7,10,77.7z"/>
	<path class="st0" d="M37.8,94.8c-0.9,0.1-1.3-0.2-0.9-1.6C37.7,93.3,37.9,93.7,37.8,94.8z"/>
	<path class="st0" d="M12.3,38.4c0.3,0.3,0.5,0.6,0.5,0.6c-0.3,0.3-0.6,0.6-0.9,0.9c-0.2-0.2-0.4-0.4-0.6-0.6
		C11.6,39,11.9,38.8,12.3,38.4z"/>
	<path class="st0" d="M19.1,91c-0.4,0.3-0.7,0.5-0.8,0.5c-0.4-0.3-0.7-0.6-1-0.9c0.2-0.2,0.5-0.5,0.6-0.4
		C18.3,90.3,18.6,90.6,19.1,91z"/>
	<path class="st0" d="M43.6,20.2c-0.3-0.4-0.5-0.6-0.7-0.8c0,0,0.3-0.4,0.4-0.4c0.4,0.1,0.8,0.3,1.2,0.5
		C44.2,19.7,43.9,19.9,43.6,20.2z"/>
	<path class="st0" d="M68,65.9c0.4,0.9,0.1,2,1.3,2.2c0,0.1-0.1,0.2-0.1,0.2c-0.2,0-0.5,0.1-0.6,0C67.9,67.9,67.7,67.1,68,65.9z"/>
	<path class="st0" d="M16.9,88.6c0.1-0.4,0.1-0.7,0.2-0.9c0.1-0.2,0.3-0.2,0.5-0.4c0.1,0.2,0.3,0.4,0.3,0.6c0,0.3-0.2,0.6-0.3,0.8
		c-0.1,0.1-0.3,0.2-0.4,0.3C17.1,88.9,17,88.7,16.9,88.6z"/>
	<path class="st0" d="M54.9,90.1c-0.4,0.3-0.7,0.7-0.9,0.6c-0.3-0.1-0.5-0.5-0.7-0.7c0.2-0.2,0.4-0.5,0.5-0.4
		C54.1,89.6,54.4,89.8,54.9,90.1z"/>
	<path class="st0" d="M22,88.5c-0.3,0.1-0.7,0.1-1,0.2c0-0.3,0-0.5,0-0.8c0.3,0.1,0.7,0.1,1,0.2C22,88.2,22,88.3,22,88.5z"/>
	<path class="st0" d="M16.6,89.3c-0.3,0.2-0.5,0.4-0.5,0.4c-0.3-0.1-0.6-0.3-0.9-0.5c0.1-0.1,0.3-0.4,0.3-0.3
		C15.9,88.9,16.2,89.1,16.6,89.3z"/>
	<path class="st0" d="M17.9,27.7c-0.4-0.2-0.6-0.2-0.8-0.3c-0.2-0.1-0.3-0.3-0.4-0.4c0,0,0.2-0.3,0.2-0.3c0.2,0,0.5,0.1,0.6,0.3
		C17.7,27.1,17.8,27.3,17.9,27.7z"/>
	<path d="M27.9,28.9c-0.6,0.4-1.2,0.7-1.8,1.1c-0.4,0.3-0.8,0.5-1.2,0c-0.4-0.5-0.4-1,0-1.5c0.8-1.2,1.7-2.4,2.4-3.7
		c0.7-1.4,0.4-3-0.5-4.3c-0.3-0.5-1-0.9-0.4-1.7c0.4-0.5,1.3-0.6,2.1-0.2c0.4,0.2,0.7,0.5,1,0.8c0.8,0.8,1.8,0.7,2.3-0.3
		c0.4-0.7,0.7-1.6,1.1-2.3c0.2-0.3,0.6-0.4,1-0.5c0.3-0.1,0.7,0.1,1,0.1c0.5,0,1.1,0,1.1,0.6c0,0.5-0.2,1.1-0.5,1.5
		c-0.7,0.8-1.6,1.5-2.3,2.3c-0.3,0.3-0.4,0.7,0.1,1c0.5,0.3,1,0.7,1.5,1c0.5,0.4,0.8,0.8,0.3,1.4c-0.4,0.5-0.3,0.9,0.1,1.4
		c0.6,0.7,0.5,1.1-0.3,1.4c-0.2,0.1-0.5,0.3-0.5,0.4c0.1,0.3,0.2,0.5,0.4,0.7c0.1,0.2,0.4,0.2,0.5,0.4c0.1,0.2,0.1,0.5,0,0.6
		c-0.2,0.3-1.9,0.1-2.2-0.2c-0.6-0.7-0.9-0.7-1.5,0C30.6,30.4,28.9,30.4,27.9,28.9z"/>
</g>
<g>
	<path d="M117.5,80.8c0.1,1.3,0.3,2.6,0.3,3.9c0,1.4,0.1,2.9-1.6,3.5c-0.2,0.1-0.4,0.3-0.4,0.5c0.1,1.7-1.3,2.5-2.3,3.4
		c-0.7,0.7-1.9,0.9-2.8,1.4c-0.6,0.3-1.1,0.8-1.6,1c-1.3,0.7-2.6,1.4-4,2c-1.2,0.6-2.3,1.2-3.7,1.4c-0.2,0-0.4,0.3-0.6,0.5
		c-1,0.9-1.9,0.6-2.2-0.7c-0.4-1.6-0.3-1.5-1.8-0.9c-0.5,0.2-1.1,0.1-1.7,0.1c-0.3,0-0.6-0.2-0.9-0.2c-1.9,0.4-3.1-0.8-4.5-1.7
		c-1-0.6-1-1.6-0.9-2.7c0.3-3.9,0.3-7.8,0.8-11.6c0.4-2.4-0.2-4.8,0.5-7.2c0.6-2.2,0.4-4.6,0.5-6.9c0-0.3-0.4-0.8-0.6-1
		c-1.2-1.1-1.2-2.5,0-3.7c0.5-0.5,0.9-1.1,1.1-1.7c0.5-1.5,1.8-2,3.1-1.1c0.7,0.5,1.2,1.2,1.9,1.8c0.5,0.4,1,0.8,1.6,0.9
		c2,0.4,4,0.6,6,0.9c0.2,0,0.4,0.2,0.6,0.3c1.2,0.7,2.5,1.4,3.7,2.1c0.3,0.2,0.5,0.6,0.8,0.8c0.7,0.7,1.4,1.4,2.1,2.1
		c0.9,1,1.8,2,2.6,3.1c0.4,0.5,0.9,1,1.3,1.6c0.4,0.7,0.7,1.5,1,2.3c0.3,0.8,0.6,1.6,0.9,2.4c0.4,1.1,0.8,2.2,1.2,3.3
		C117.8,80.7,117.7,80.7,117.5,80.8z M96.7,88.2c0.9,0.4,1.8,0.4,2.6-0.3c0.4-0.3,1-0.7,1.5-0.7c2.5-0.2,4-2.2,6.1-3.1
		c1-0.4,1.7-1.3,2.7-1.8c2.2-1.1,3.2-4.7,1.9-6.8c-0.9-1.5-1.6-3.1-3.3-4.1c-1.4-0.8-2.4-2.2-3.7-3.1c-1.8-1.3-3.9-1.9-6.1-2.1
		c-1.4-0.2-2.3,0.6-1.7,1.9c0.5,1.2,0.4,2.3,0.3,3.4c-0.1,1,0.2,2,0.3,3c0,0.6,0,1.2-0.1,1.8C97,77.1,96.8,78,96.7,79
		c-0.1,0.9-0.3,1.7-0.3,2.6c0,0.5-0.2,1.1,0.1,1.4C97.5,84.3,97.8,86.7,96.7,88.2z"/>
	<path d="M147.6,65.1c-0.2-0.7-0.4-1.1-0.5-1.5c-0.1-0.6-0.4-1.4-0.2-1.9c0.9-2.5,2.2-3.2,4.8-2.7c0.5,0.1,1.1,0.1,1.6,0.1
		c0.6,0.1,1.2,0.1,1.6,0.4c1.6,1.3,3.7,2.3,3.3,5c-0.1,0.6,0.4,1.3,0.7,1.9c0.5,1.3,1.2,2.5-0.2,3.9c2.6,1,1.2,2.8,1,4.3
		c0,0.3-0.7,0.6-1,0.7c-0.9,0.1-1.3,0.5-0.9,1.4c0.5,1.2-0.1,2.1-0.6,3.3c-0.7,1.6-2.2,2.6-2.4,4.6c-0.1,1.3-1.7,2.5-2.8,3.5
		c-0.7,0.5-1,1-1,1.8c0,0.5-0.1,1.1-0.4,1.3c-0.9,0.8-1.7,1.7-1.3,3c0,0.1,0,0.3-0.1,0.4c-0.4,0.6-3.4,1.2-4,0.8
		c-1.5-1.1-3.1-1.4-4.8-0.9c-0.6,0.2-1.2,0.2-1.8,0.2c-0.3,0-0.9-0.1-0.9-0.3c-0.5-1.6-1.8-1.3-3-1.4c-0.6-0.1-1.2-0.8-1.7-1.2
		c-0.8-0.7-1.5-1.4-2.2-2.1c-0.8-0.8-1.4-1.8-2.1-2.6c-0.5-0.5-1-1-1.5-1.5c-0.2-0.2-0.6-0.4-0.6-0.6c-0.4-1.6-0.7-3.1-1.1-4.7
		c-0.2-1-0.3-1.9-0.5-2.9c-0.3-1.1,0.3-3.6,1.1-4.5c0.4-0.4,0.5-1,0.8-1.6c0.2-0.4,0.4-0.9,0.7-1.3c0.8-1.3,1.9-1.9,3.4-1.6
		c0.3,0,0.6-0.3,0.9-0.4c0.3-0.1,0.8-0.4,0.9-0.3c1.3,0.8,1.8-0.1,2.6-0.8c1.4-1.2,3.2-1.1,4.9-1.1c0.5,0,1.1,0,1.5-0.2
		C143.3,64.8,145.2,64.4,147.6,65.1z M143.6,89.4c0,0.1,0,0.3,0,0.4c1.5-0.3,2.8-0.5,3.7-2.1c1.1-1.9,2.5-3.5,3.8-5.3
		c0.2-0.3,0.3-0.6,0.4-0.9c0.8-1.8,1.6-3.7,2.3-5.6c0.2-0.5,0.4-1.1,0.3-1.6c-0.3-1.1-0.7-2.2-1.1-3.3c-0.4-1.5-0.9-1.7-2.4-1.4
		c-2.2,0.4-4.5,0.6-6.7,0.9c-1,0.1-2.2,0-3.1,0.3c-1.5,0.6-2.8,1.9-4.3,2.4c-1.8,0.6-3.4,1.3-4.8,2.6c-0.6,0.6-0.9,0.7-0.6,1.6
		c0.4,1.4,0.9,2.9-0.2,4.4c-0.2,0.3-0.1,1.1,0.1,1.4c0.8,0.9,1.6,1.7,2.5,2.4c1.2,0.9,1.9,2.5,3.7,2.5c0.8,0,1.3,0.3,1.6,1.1
		c0.1,0.2,0.4,0.6,0.6,0.6C140.9,89.6,142.2,89.5,143.6,89.4z M154.9,68.1c0.5-0.9,1-1.8,0.4-2.7c-0.1,0-0.3,0-0.4,0
		C154.9,66.3,154.9,67.2,154.9,68.1z"/>
	<path class="st0" d="M96.7,88.2c1-1.5,0.8-3.9-0.3-5.2c-0.2-0.3-0.1-0.9-0.1-1.4c0.1-0.9,0.2-1.8,0.3-2.6c0.1-0.9,0.3-1.9,0.5-2.8
		c0.1-0.6,0.1-1.2,0.1-1.8c-0.1-1-0.3-2-0.3-3c0.1-1.2,0.2-2.3-0.3-3.4c-0.6-1.3,0.3-2.1,1.7-1.9c2.2,0.3,4.3,0.8,6.1,2.1
		c1.3,1,2.3,2.4,3.7,3.1c1.7,1,2.4,2.6,3.3,4.1c1.3,2.1,0.3,5.7-1.9,6.8c-1,0.5-1.7,1.4-2.7,1.8c-2.1,0.9-3.6,3-6.1,3.1
		c-0.5,0-1.1,0.4-1.5,0.7C98.5,88.6,97.7,88.6,96.7,88.2z"/>
	<path class="st0" d="M143.6,89.4c-1.3,0.1-2.7,0.2-4,0.3c-0.2,0-0.5-0.4-0.6-0.6c-0.2-0.8-0.8-1.1-1.6-1.1c-1.8,0-2.6-1.6-3.7-2.5
		c-0.9-0.7-1.8-1.5-2.5-2.4c-0.3-0.3-0.3-1.1-0.1-1.4c1.1-1.5,0.6-3,0.2-4.4c-0.3-0.9,0-1.1,0.6-1.6c1.4-1.3,3-2,4.8-2.6
		c1.5-0.5,2.8-1.7,4.3-2.4c0.9-0.4,2-0.2,3.1-0.3c2.2-0.3,4.5-0.5,6.7-0.9c1.5-0.3,1.9-0.1,2.4,1.4c0.3,1.1,0.8,2.2,1.1,3.3
		c0.1,0.5-0.1,1.1-0.3,1.6c-0.7,1.9-1.5,3.7-2.3,5.6c-0.1,0.3-0.2,0.7-0.4,0.9c-1.3,1.8-2.7,3.4-3.8,5.3c-0.9,1.6-2.2,1.8-3.7,2.1
		C143.6,89.6,143.6,89.5,143.6,89.4z"/>
	<path class="st0" d="M154.9,68.1c0-0.9,0-1.8,0-2.7c0.1,0,0.3,0,0.4,0C156,66.3,155.4,67.2,154.9,68.1z"/>
</g>
</svg>
