<?xml version="1.0" standalone="no"?>
<!DOCTYPE svg PUBLIC "-//W3C//DTD SVG 20010904//EN"
 "http://www.w3.org/TR/2001/REC-SVG-20010904/DTD/svg10.dtd">
<svg version="1.0" xmlns="http://www.w3.org/2000/svg"
 width="1009.000000pt" height="1009.000000pt" viewBox="0 0 1009.000000 1009.000000"
 preserveAspectRatio="xMidYMid meet">
<metadata>
Created by potrace 1.11, written by Peter Selinger 2001-2013
</metadata>
<g transform="translate(0.000000,1009.000000) scale(0.100000,-0.100000)"
fill="#000000" stroke="none">
<path d="M0 5665 c0 -3218 3 -4425 11 -4425 6 0 8 7 5 16 -5 14 -4 15 9 4 8
-7 15 -8 15 -2 0 5 12 10 26 10 15 0 21 -4 14 -8 -7 -5 -1 -9 17 -13 15 -3 34
0 42 6 12 9 13 9 7 0 -4 -8 -2 -13 4 -13 7 0 10 -6 8 -12 -3 -7 5 -18 16 -23
12 -7 20 -19 18 -29 -3 -13 1 -17 12 -13 8 3 20 -2 28 -11 11 -13 11 -14 0 -8
-11 7 -11 4 -1 -13 10 -14 15 -17 21 -8 5 8 8 7 8 -5 0 -23 18 -32 36 -17 12
10 13 9 8 -5 -3 -9 -1 -16 5 -16 6 0 11 -5 11 -11 0 -5 -6 -7 -12 -3 -7 4 -10
3 -5 -1 4 -5 0 -16 -8 -25 -13 -14 -13 -19 -3 -23 19 -7 96 -3 104 6 4 4 2 7
-4 7 -7 0 -12 5 -12 11 0 5 4 7 10 4 5 -3 18 -1 29 5 13 7 22 7 26 0 3 -5 -3
-10 -14 -10 -15 0 -21 -6 -21 -22 0 -17 3 -19 9 -9 7 10 12 8 25 -10 9 -13 16
-18 16 -12 0 7 -4 15 -10 18 -15 9 -12 25 4 19 21 -8 28 -34 14 -52 -9 -11 -9
-14 -1 -9 6 4 15 3 18 -3 5 -8 12 -7 22 2 14 11 15 10 9 -8 -6 -18 -2 -22 22
-26 36 -5 54 0 47 15 -3 7 2 2 11 -11 9 -12 25 -22 36 -22 19 0 19 -1 -3 -19
-24 -20 -9 -25 20 -7 11 7 13 3 8 -20 -5 -26 -4 -27 9 -10 7 10 11 23 7 29 -3
6 -1 7 6 3 6 -4 9 -11 6 -16 -3 -5 -1 -11 4 -14 5 -4 12 -2 16 4 4 6 12 7 18
3 7 -4 17 -8 22 -9 6 0 16 -2 22 -2 7 -1 19 -18 28 -38 8 -19 19 -33 24 -30 5
4 14 -2 20 -11 6 -10 11 -13 11 -8 1 11 29 -35 30 -49 0 -5 -6 -3 -13 3 -26
21 -15 -22 12 -48 15 -15 28 -29 29 -33 1 -5 5 -7 10 -5 4 1 6 5 4 10 -4 14
16 7 22 -9 3 -8 11 -12 17 -8 7 4 25 7 41 6 18 0 26 3 22 10 -4 7 -2 8 4 4 7
-4 12 -11 12 -15 0 -9 -39 -24 -55 -21 -5 1 -2 -7 8 -18 19 -21 22 -42 6 -42
-5 0 -7 4 -4 10 4 6 -6 10 -22 10 l-28 0 27 -14 c30 -16 63 -15 63 2 0 6 4 14
9 19 5 4 6 3 3 -3 -4 -7 0 -14 8 -18 8 -3 15 -1 15 4 0 5 12 5 27 1 34 -10 84
-8 102 4 10 5 12 4 7 -3 -5 -8 1 -12 14 -12 12 0 19 -4 16 -8 -3 -5 13 -19 34
-31 22 -12 40 -19 40 -15 0 3 7 1 15 -6 9 -7 27 -10 45 -6 17 3 30 2 30 -2 0
-6 19 -10 73 -12 9 -1 17 -7 17 -13 0 -8 3 -8 8 -2 9 13 32 17 32 6 0 -5 11
-12 25 -15 14 -4 23 -11 20 -16 -3 -6 -2 -10 4 -10 5 0 17 -7 26 -16 11 -12
19 -14 27 -6 7 7 19 7 38 0 20 -6 35 -6 49 2 13 6 21 7 21 1 0 -5 9 -8 20 -6
11 2 19 1 19 -3 -3 -19 2 -23 16 -12 13 11 14 10 9 -5 -5 -12 -4 -16 3 -12 6
4 13 0 17 -8 7 -18 27 -20 22 -2 -1 6 -1 9 1 4 3 -4 9 -5 14 -1 5 3 8 0 7 -7
-2 -6 3 -14 11 -17 8 -3 11 0 7 7 -4 6 -2 11 3 11 6 0 11 -8 11 -17 0 -15 2
-16 10 -3 8 12 10 12 10 -5 0 -16 7 -20 40 -21 25 0 37 3 33 10 -4 6 6 -1 22
-17 27 -26 37 -31 61 -28 7 1 14 -5 17 -13 3 -8 16 -13 30 -12 23 3 25 0 22
-33 -3 -32 -2 -34 9 -18 11 13 19 15 37 8 13 -5 18 -10 12 -10 -7 -1 -13 -10
-13 -22 0 -11 -4 -17 -10 -14 -5 3 -10 2 -10 -3 0 -10 29 -26 43 -24 11 3 8
-16 -4 -23 -6 -4 -16 1 -23 10 -11 15 -13 15 -13 2 0 -8 11 -20 24 -26 12 -6
23 -16 23 -23 0 -9 -3 -8 -10 2 -6 9 -12 11 -17 5 -5 -6 -7 -9 -4 -8 2 1 9 -3
16 -10 13 -14 16 -49 3 -41 -5 3 -6 9 -3 14 3 4 -2 10 -10 13 -12 5 -12 2 -3
-18 10 -23 53 -33 44 -10 -2 6 6 11 18 12 11 0 15 -1 8 -4 -6 -3 -10 -9 -7
-14 4 -5 1613 -9 3920 -9 l3915 0 0 5045 0 5045 -5045 0 -5045 0 0 -4425z
m342 -4577 c-6 -6 -12 -6 -17 3 -5 8 -4 10 3 5 7 -4 12 0 13 11 0 12 2 13 6 5
3 -8 1 -18 -5 -24z m88 28 c0 -2 -12 -11 -27 -20 l-28 -17 24 20 c23 21 31 25
31 17z m260 -16 c0 -5 -2 -10 -4 -10 -3 0 -8 5 -11 10 -3 6 -1 10 4 10 6 0 11
-4 11 -10z m-233 -32 c-3 -8 -6 -5 -6 6 -1 11 2 17 5 13 3 -3 4 -12 1 -19z
m-105 -27 c8 11 9 11 6 1 -4 -16 -22 -18 -25 -2 -1 7 0 6 4 -1 4 -8 8 -7 15 2z
m372 -17 c3 -8 2 -12 -4 -9 -6 3 -10 10 -10 16 0 14 7 11 14 -7z m-220 -44
c-6 -6 -10 -2 -11 12 -2 16 1 18 10 9 7 -7 8 -14 1 -21z m242 -107 c-3 -4 -6
-1 -6 6 0 7 -4 10 -9 6 -5 -3 -13 0 -17 6 -4 8 -3 9 4 5 7 -4 12 -1 12 6 0 8
5 6 11 -5 6 -10 8 -21 5 -24z m44 -13 c0 -5 -7 -7 -15 -4 -8 4 -15 8 -15 10 0
2 7 4 15 4 8 0 15 -4 15 -10z m335 -30 c-3 -5 -12 -10 -18 -10 -7 0 -6 4 3 10
19 12 23 12 15 0z m15 -64 c0 -2 -9 -6 -20 -9 -11 -3 -18 -1 -14 4 5 9 34 13
34 5z m-160 -122 c0 -2 -7 -4 -15 -4 -8 0 -15 4 -15 10 0 5 7 7 15 4 8 -4 15
-8 15 -10z m163 -11 c-7 -2 -19 -2 -25 0 -7 3 -2 5 12 5 14 0 19 -2 13 -5z
m-23 -23 c0 -4 -7 -7 -15 -6 -23 3 -26 12 -5 13 11 1 20 -2 20 -7z m-90 -4 c0
-2 -7 -7 -16 -10 -8 -3 -12 -2 -9 4 6 10 25 14 25 6z m335 -95 c3 -5 2 -12 -3
-15 -5 -3 -9 1 -9 9 0 17 3 19 12 6z m60 -11 c3 -5 1 -10 -4 -10 -6 0 -11 5
-11 10 0 6 2 10 4 10 3 0 8 -4 11 -10z m55 -14 c0 -11 -19 -15 -25 -6 -3 5 1
10 9 10 9 0 16 -2 16 -4z m687 -258 c-3 -7 -5 -2 -5 12 0 14 2 19 5 13 2 -7 2
-19 0 -25z m118 -37 c3 -5 2 -12 -3 -15 -5 -3 -9 1 -9 9 0 17 3 19 12 6z m-75
-41 c0 -5 -5 -10 -11 -10 -5 0 -7 5 -4 10 3 6 8 10 11 10 2 0 4 -4 4 -10z"/>
<path d="M168 1183 c7 -3 16 -2 19 1 4 3 -2 6 -13 5 -11 0 -14 -3 -6 -6z"/>
</g>
</svg>
